<svg width="20" height="17" viewBox="0 0 20 17" fill="none" xmlns="http://www.w3.org/2000/svg">
<path d="M7.83003 2L5.03003 4.73L5.12003 6H14.87L14.96 4.73L12.16 2H7.83003Z" fill="white"/>
<path d="M5.79003 15H14.23L14.74 8H5.28003L5.79003 15Z" fill="white"/>
<path d="M18.59 3.05L17 4.63L17.03 4.07L12.98 0H7.02L2.97 4.07L3 4.57L1.41 3.01L0 4.44L3.23 7.55L3.93 17H16.07L16.77 7.56L20 4.46L18.59 3.05ZM14.23 15H5.79L5.28 8H14.74L14.23 15ZM14.87 6H5.12L5.03 4.73L7.83 2H12.16L14.96 4.73L14.87 6Z" fill="black"/>
</svg>
