<svg width="20" height="20" viewBox="0 0 20 20" fill="none" xmlns="http://www.w3.org/2000/svg">
<path d="M6.73009 16.39L8.00009 16.89V18H12.0001V16.89L13.2701 16.39C15.4301 15.54 17.0101 13.92 17.6701 12H2.34009C2.99009 13.92 4.58009 15.54 6.73009 16.39Z" fill="white"/>
<path d="M20 1.51V0L2 1.99V10H0C0 13.69 2.47 16.86 6 18.25V20H14V18.25C17.53 16.86 20 13.69 20 10H8.5V6H20V4.5H8.5V2.78L20 1.51ZM6 3.06L7 2.95V4.5H6V3.06ZM6 6H7V10H6V6ZM3.5 3.34L4.5 3.23V4.5H3.5V3.34ZM3.5 6H4.5V10H3.5V6ZM17.66 12C17 13.92 15.42 15.54 13.26 16.39L12 16.89V18H8V16.89L6.73 16.39C4.57 15.54 2.99 13.92 2.33 12H17.66Z" fill="black"/>
</svg>
