<svg width="20" height="20" viewBox="0 0 20 20" fill="none" xmlns="http://www.w3.org/2000/svg">
<path d="M12.5 13.3334H15C15.4583 13.3334 15.8333 12.9584 15.8333 12.5V7.50004C15.8333 7.04171 15.4583 6.66671 15 6.66671H12.5C12.0416 6.66671 11.6666 7.04171 11.6666 7.50004V12.5C11.6666 12.9584 12.0416 13.3334 12.5 13.3334ZM13.3333 8.33337H14.1666V11.6667H13.3333V8.33337ZM7.49996 13.3334H9.99996C10.4583 13.3334 10.8333 12.9584 10.8333 12.5V7.50004C10.8333 7.04171 10.4583 6.66671 9.99996 6.66671H7.49996C7.04163 6.66671 6.66663 7.04171 6.66663 7.50004V12.5C6.66663 12.9584 7.04163 13.3334 7.49996 13.3334ZM8.33329 8.33337H9.16663V11.6667H8.33329V8.33337ZM4.16663 6.66671H5.83329V13.3334H4.16663V6.66671ZM1.66663 3.33337V16.6667H18.3333V3.33337H1.66663ZM16.6666 15H3.33329V5.00004H16.6666V15Z" fill="white"/>
</svg>
