<svg width="24" height="24" viewBox="0 0 24 24" fill="none" xmlns="http://www.w3.org/2000/svg">
<path d="M7.1 7.01C5.74 8.32 5 10.1 5 12C5 15.86 8.14 19 12 19C13.87 19 15.63 18.27 16.95 16.95C18.27 15.63 19 13.87 19 12V5H12C10.16 5 8.42 5.71 7.1 7.01ZM13.88 7.12C14.02 7.26 14.04 7.48 13.92 7.64L11.48 10.97L15.53 11.37C15.97 11.41 16.16 11.96 15.83 12.26L10.67 16.89C10.51 17.04 10.26 17.03 10.11 16.88C9.97 16.74 9.95 16.52 10.07 16.36L12.51 13.03L8.46 12.63C8.02 12.59 7.83 12.04 8.16 11.74L13.32 7.11C13.48 6.96 13.73 6.97 13.88 7.12Z" fill="white"/>
<path d="M12 3C7.2 3 3 6.86 3 12C3 14.12 3.74 16.07 4.97 17.61L3 19.59L4.41 21L6.38 19.03C7.93 20.26 9.88 21 12 21C14.3 21 16.61 20.12 18.36 18.36C20.12 16.61 21 14.3 21 12V3H12ZM19 12C19 13.87 18.27 15.63 16.95 16.95C15.63 18.27 13.87 19 12 19C8.14 19 5 15.86 5 12C5 10.1 5.74 8.32 7.1 7.01C8.42 5.71 10.16 5 12 5H19V12Z" fill="black"/>
<path d="M8.4601 12.6296L12.5101 13.0296L10.0701 16.3596C9.9601 16.5196 9.9701 16.7396 10.1101 16.8796C10.2601 17.0296 10.5101 17.0396 10.6701 16.8896L15.8301 12.2596C16.1601 11.9596 15.9801 11.4096 15.5301 11.3696L11.4801 10.9696L13.9201 7.63958C14.0301 7.47958 14.0201 7.25958 13.8801 7.11958C13.7301 6.96958 13.4801 6.95958 13.3201 7.10958L8.1601 11.7396C7.8401 12.0396 8.0201 12.5896 8.4601 12.6296Z" fill="black"/>
</svg>
