<svg width="197" height="265" viewBox="0 0 197 265" fill="none" xmlns="http://www.w3.org/2000/svg">
<path d="M57.3468 180.686C56.446 180.747 55.7265 181.282 55.1884 182.291C54.7773 183.065 54.4961 184.06 54.345 185.275C53.1902 194.58 52.1987 205.063 51.3704 216.726C50.8686 223.812 50.2489 234.329 49.5113 248.277C49.348 251.324 49.2997 253.637 49.3662 255.215C49.475 257.778 49.8529 260.033 50.4998 261.98C50.8561 263.043 51.3035 264.05 51.842 265H82.0324C82.414 264.341 82.7133 263.743 82.9303 263.204C83.3656 262.11 83.5621 261.082 83.5198 260.121C83.4774 259.111 83.1782 258.126 82.6219 257.164C82.102 256.27 81.4158 255.481 80.5633 254.797C79.1848 253.703 77.2924 252.839 74.8861 252.204C71.7059 251.375 68.4472 251.061 65.1098 251.261C61.7725 251.46 58.5741 252.164 55.5149 253.374C56.0772 231.106 57.6491 208.869 60.2307 186.663C60.3275 185.822 60.3789 185.184 60.3849 184.749C60.3849 184.042 60.2972 183.419 60.1219 182.881C59.9103 182.246 59.5566 181.72 59.0608 181.303C58.5288 180.855 57.9575 180.65 57.3468 180.686ZM111.488 184.386C111.404 183.685 111.24 183.077 110.999 182.563C110.714 181.959 110.3 181.478 109.756 181.121C109.176 180.747 108.586 180.614 107.988 180.722C107.099 180.886 106.446 181.502 106.029 182.572C105.714 183.389 105.557 184.41 105.557 185.638C105.533 195.015 105.814 205.541 106.401 217.216C106.763 224.314 107.422 234.831 108.378 248.767C108.583 251.808 108.813 254.108 109.067 255.668C109.49 258.195 110.14 260.387 111.017 262.243C111.482 263.225 112.026 264.144 112.649 265H140.872C141.317 264.262 141.755 263.44 142.187 262.533C142.737 261.385 143.127 260.387 143.357 259.541C143.653 258.398 143.722 257.352 143.565 256.403C143.402 255.405 142.985 254.465 142.314 253.582C141.691 252.76 140.917 252.062 139.992 251.487C138.487 250.562 136.5 249.93 134.034 249.592C130.781 249.157 127.51 249.238 124.221 249.837C120.932 250.435 117.843 251.524 114.953 253.102C112.812 230.925 111.682 208.661 111.561 186.309C111.555 185.462 111.531 184.822 111.488 184.386Z" fill="#0A0A0A"/>
<path d="M102.301 2.64485C101.068 2.14304 99.4962 2.06444 97.5856 2.40906C95.9049 2.70531 94.345 3.19503 92.9061 3.87823C91.3583 4.61583 90.0312 5.54691 88.9248 6.67146C87.5101 8.11644 86.2948 10.0753 85.2791 12.5481C84.1183 15.3958 83.2839 18.6908 82.7761 22.4333C82.4375 24.9847 82.1927 28.4036 82.0415 32.6902C81.848 38.2646 81.7755 43.2495 81.8238 47.6449C81.8299 48.3765 81.8692 48.9478 81.9417 49.3589C82.0445 49.9877 82.244 50.5077 82.5403 50.9188C83.03 51.602 83.7434 51.9738 84.6805 52.0343C85.6177 52.0887 86.3704 51.8045 86.9387 51.1818C87.374 50.6981 87.6612 50.0512 87.8003 49.241C87.8849 48.715 87.9151 47.9744 87.891 47.0191C87.6975 38.9055 87.9907 30.8462 88.7706 22.8414C91.4006 23.1981 94.0246 22.9079 96.6425 21.9707C99.2302 21.0457 101.452 19.6128 103.308 17.6721C104.578 16.3541 105.485 14.9726 106.029 13.5276C106.44 12.4272 106.639 11.2755 106.627 10.0723C106.615 8.87521 106.395 7.7295 105.965 6.63518C105.609 5.72829 105.128 4.93626 104.523 4.25912C103.87 3.52151 103.13 2.98343 102.301 2.64485ZM155.944 4.13216C155.521 2.92297 154.874 1.97677 154.003 1.29358C152.667 0.259721 150.851 -0.154422 148.553 0.0511403C146.401 0.244611 144.36 0.888498 142.432 1.98282C140.491 3.08318 138.892 4.51003 137.634 6.26336C136.582 7.72043 135.711 9.48888 135.022 11.5687C134.539 13.0318 134.058 14.9695 133.58 17.3819C132.818 21.2694 132.111 25.6618 131.458 30.559C131.053 33.5578 130.518 37.9744 129.853 43.8087C129.762 44.5463 129.729 45.1237 129.753 45.5409C129.789 46.1818 129.941 46.7199 130.207 47.1552C130.63 47.8505 131.301 48.2465 132.22 48.3432C133.127 48.4339 133.88 48.1951 134.478 47.6268C134.871 47.2459 135.182 46.738 135.412 46.1032C135.563 45.6679 135.702 45.0723 135.829 44.3166C136.144 42.4786 136.63 38.5336 137.289 32.4816C137.828 27.5663 138.453 23.6485 139.167 20.7283C140.739 20.7162 142.144 20.6376 143.384 20.4925C144.877 20.3111 146.243 20.0179 147.483 19.6128C148.886 19.1533 150.152 18.5427 151.283 17.7809C152.504 16.9526 153.505 15.9853 154.285 14.8788C155.004 13.8631 155.551 12.7174 155.926 11.4417C156.277 10.2325 156.458 8.9659 156.47 7.64183C156.488 6.348 156.313 5.17811 155.944 4.13216Z" fill="#0A0A0A"/>
<path d="M79.0668 110.792C77.7005 110.913 76.5608 111.061 75.6479 111.236C74.4145 111.478 73.3232 111.817 72.374 112.252C71.721 112.542 71.0318 112.926 70.3062 113.404C69.7984 113.736 69.1515 114.196 68.3655 114.782C64.0426 118.053 59.9919 121.635 56.2131 125.529C52.4284 129.441 48.9761 133.603 45.8564 138.017C38.0571 149.039 35.0009 158.996 36.6877 167.89C37.6067 172.745 39.9253 177.222 43.6436 181.321C47.0716 185.094 51.2585 188.108 56.2041 190.363C57.5523 190.979 58.9701 191.548 60.4574 192.068C63.6376 193.174 67.1321 194.06 70.9411 194.725C74.9072 195.42 80.0463 195.976 86.3583 196.394C89.9798 196.635 92.8788 196.741 95.0554 196.711C98.2476 196.669 101.119 196.372 103.671 195.822C104.838 195.568 106.129 195.218 107.543 194.77C108.462 194.48 109.729 194.051 111.343 193.482C114.499 192.358 117.038 191.394 118.961 190.589C121.706 189.441 124.136 188.25 126.253 187.016C131.525 183.945 135.46 180.293 138.06 176.061C139.469 173.77 140.536 171.206 141.262 168.371C141.927 165.759 142.286 162.993 142.341 160.072C142.389 157.467 142.196 154.686 141.76 151.729C141.398 149.268 140.838 146.533 140.083 143.522C139.49 141.14 138.895 139.099 138.296 137.4C137.988 136.53 137.664 135.698 137.326 134.906C136.812 133.721 136.259 132.621 135.666 131.605C134.161 129.017 132.208 126.626 129.808 124.432C127.583 122.406 125.046 120.614 122.199 119.054C119.641 117.663 116.797 116.433 113.665 115.363C111.017 114.462 108.018 113.63 104.668 112.869C99.8619 111.774 95.4151 111.067 91.328 110.747C87.2531 110.42 83.166 110.435 79.0668 110.792ZM74.7228 118.201C75.932 117.693 77.3044 117.328 78.8401 117.104C80.013 116.935 81.4399 116.832 83.1207 116.796C91.1618 116.596 99.2301 117.578 107.326 119.743C112.622 121.158 117.135 122.999 120.866 125.266C125.394 128.017 128.716 131.366 130.832 135.314C131.376 136.336 131.884 137.488 132.356 138.77C132.447 139.017 132.537 139.274 132.628 139.54C133.015 140.665 133.45 142.137 133.934 143.957C134.671 146.762 135.222 149.184 135.584 151.221C136.062 153.881 136.316 156.348 136.346 158.621C136.382 161.239 136.132 163.709 135.594 166.031C135.001 168.576 134.082 170.861 132.837 172.887C130.672 176.399 127.246 179.561 122.561 182.373C117.883 185.186 113.086 187.036 108.169 187.923C107.851 187.98 107.664 188.005 107.607 187.996C99.4351 189.597 89.946 189.675 79.1394 188.231C64.3641 186.256 53.3061 181.048 45.9652 172.606C42.9486 167.944 42.2654 163.089 43.9157 158.041C45.5709 152.993 48.0165 148.217 51.2524 143.712C54.4883 139.214 57.4266 135.245 60.0674 131.805C62.715 128.369 65.1424 125.637 67.3498 123.606C69.5566 121.582 71.0379 120.318 71.7936 119.815C72.8032 119.132 73.7797 118.594 74.7228 118.201Z" fill="#0A0A0A"/>
<path d="M78.8401 117.104C77.3044 117.328 75.932 117.693 74.7228 118.201C73.7796 118.594 72.8032 119.132 71.7935 119.815C71.0378 120.318 69.5566 121.582 67.3498 123.606C65.1424 125.637 62.715 128.369 60.0674 131.805C57.4266 135.245 54.4883 139.214 51.2524 143.712C48.0164 148.217 45.5708 152.993 43.9156 158.041C42.2653 163.089 42.9485 167.944 45.9652 172.606C53.3061 181.048 64.3641 186.256 79.1394 188.231C89.9459 189.675 99.435 189.597 107.607 187.996C107.664 188.005 107.851 187.98 108.169 187.923C113.086 187.036 117.883 185.186 122.561 182.373C127.246 179.561 130.671 176.399 132.837 172.887C134.082 170.861 135.001 168.576 135.593 166.031C136.132 163.709 136.382 161.239 136.346 158.621C136.316 156.348 136.062 153.881 135.584 151.221C135.222 149.184 134.671 146.762 133.934 143.957C133.45 142.137 133.015 140.665 132.628 139.54C132.537 139.274 132.447 139.017 132.356 138.77C131.884 137.488 131.376 136.336 130.832 135.314C128.716 131.366 125.394 128.017 120.866 125.266C117.135 122.999 112.622 121.158 107.326 119.743C99.2301 117.578 91.1617 116.596 83.1206 116.796C81.4398 116.832 80.013 116.935 78.8401 117.104Z" fill="white"/>
<path d="M76.4551 88.1921C73.6256 89.2622 71.1045 90.6256 68.8916 92.2822C66.4974 94.0778 64.4418 96.2363 62.7248 98.7574C61.0138 101.279 59.7622 103.984 58.9702 106.874C58.1782 109.758 57.8759 112.721 58.0633 115.762C58.2568 118.803 58.9249 121.708 60.0676 124.477C61.7121 128.443 64.2604 131.98 67.7127 135.088C70.0766 137.222 72.7036 139.014 75.5936 140.465C76.6939 141.01 77.8306 141.508 79.0035 141.962C86.4944 144.846 95.1976 145.698 105.113 144.519C108.42 144.126 111.452 143.549 114.209 142.787C117.075 141.989 119.862 140.928 122.571 139.604C126.404 137.718 129.726 135.42 132.537 132.712C135.627 129.743 137.891 126.466 139.33 122.881C140.424 120.16 141.02 117.306 141.117 114.32C141.123 114.181 141.126 114.042 141.126 113.903C141.174 111.061 140.763 108.313 139.892 105.659C139.729 105.157 139.626 104.8 139.584 104.589C139.505 104.178 139.508 103.818 139.593 103.51C139.647 103.298 139.774 103.026 139.974 102.693C140.204 102.318 140.349 102.049 140.409 101.886C140.681 101.179 140.6 100.405 140.164 99.5646C139.832 98.9176 139.297 98.2526 138.559 97.5694C134.121 93.4763 128.408 90.4563 121.419 88.5095C118.529 87.7054 115.337 87.0676 111.842 86.596C109.091 86.2272 105.841 85.9279 102.093 85.6982C98.7496 85.4926 95.8687 85.4019 93.4503 85.4261C90.3245 85.4503 87.4527 85.6589 84.8348 86.0518C81.83 86.5053 79.0367 87.2187 76.4551 88.1921ZM81.4702 92.9442C83.4412 92.4606 85.7568 92.0887 88.417 91.8288C93.4533 91.333 98.5077 91.2756 103.58 91.6564C108.653 92.0373 113.644 92.8475 118.553 94.0869C121.201 94.752 123.571 95.4956 125.663 96.3179C126.631 96.6988 127.438 97.0706 128.085 97.4334C128.925 97.911 129.629 98.437 130.198 99.0113C130.82 99.6522 131.383 100.468 131.884 101.46C132.211 102.101 132.598 103.023 133.045 104.226C133.801 106.251 134.339 107.899 134.66 109.169C135.131 111.019 135.352 112.721 135.322 114.274C135.303 115.078 135.222 115.886 135.077 116.696C134.817 118.08 134.366 119.471 133.725 120.867C132.812 122.857 131.552 124.779 129.944 126.635C128.45 128.364 126.776 129.921 124.919 131.306C123.063 132.678 121.089 133.833 118.997 134.77C117.305 135.526 115.427 136.179 113.366 136.729C111.649 137.189 109.699 137.603 107.516 137.971C102.879 138.745 98.5984 139.078 94.6746 138.969C90.0918 138.83 85.905 138.089 82.1141 136.747C78.1238 135.326 74.6383 133.231 71.6577 130.462C71.5005 130.317 71.3463 130.169 71.1951 130.018C67.9182 126.826 65.7659 123.222 64.7381 119.208C64.1705 116.995 64.5938 114.011 66.0077 110.257C67.4207 106.504 69.174 103.693 71.2677 101.823C73.3614 99.9587 73.9992 98.7042 73.1812 98.0591C72.3642 97.4126 72.9537 96.533 74.9497 95.4201C76.836 94.3681 79.0095 93.5428 81.4702 92.9442Z" fill="#0A0A0A"/>
<path d="M88.4169 91.8287C85.7567 92.0887 83.4411 92.4605 81.4701 92.9442C79.0094 93.5428 76.8359 94.368 74.9496 95.42C72.9536 96.5329 72.3641 97.4126 73.1811 98.0591C73.9991 98.7042 73.3613 99.9587 71.2676 101.823C69.1739 103.693 67.4206 106.504 66.0076 110.257C64.5937 114.011 64.1704 116.995 64.738 119.208C65.7658 123.222 67.9181 126.826 71.195 130.018C71.3462 130.169 71.5004 130.317 71.6576 130.462C74.6382 133.231 78.1237 135.326 82.114 136.747C85.9049 138.089 90.0917 138.83 94.6745 138.969C98.5983 139.078 102.879 138.745 107.516 137.971C109.699 137.603 111.649 137.188 113.366 136.729C115.427 136.179 117.305 135.526 118.997 134.77C121.089 133.833 123.063 132.678 124.919 131.306C126.775 129.921 128.45 128.364 129.944 126.635C131.552 124.779 132.812 122.857 133.725 120.867C134.366 119.471 134.817 118.08 135.077 116.696C135.222 115.886 135.303 115.078 135.321 114.274C135.352 112.721 135.131 111.019 134.659 109.169C134.339 107.899 133.801 106.251 133.045 104.226C132.598 103.023 132.211 102.101 131.884 101.46C131.383 100.468 130.82 99.6522 130.198 99.0113C129.629 98.4369 128.925 97.911 128.084 97.4333C127.438 97.0706 126.63 96.6987 125.663 96.3178C123.571 95.4956 121.201 94.7519 118.553 94.0869C113.644 92.8475 108.653 92.0373 103.58 91.6564C98.5076 91.2755 93.4532 91.333 88.4169 91.8287Z" fill="white"/>
<path d="M169.838 58.2193C168.465 53.4007 165.485 50.021 160.896 48.0802C158.03 46.871 155.083 46.5294 152.054 47.0554C147.241 47.8414 143.417 50.2658 140.581 54.3287C137.752 58.3795 136.815 62.8203 137.77 67.651C138.713 72.397 141.225 76.0669 145.306 78.6607C149.369 81.2483 153.701 81.7139 158.302 80.0573C162.728 78.449 166.068 75.5984 168.323 71.5053C170.651 67.2912 171.156 62.8626 169.838 58.2193ZM165.693 64.1685C165.361 69.0899 162.991 72.657 158.583 74.8698C153.946 77.2036 149.72 76.6383 145.905 73.1739C142.138 69.7519 141.11 65.6346 142.821 60.8221C144.436 56.2695 147.501 53.1165 152.017 51.3632C154.665 50.8976 157.162 51.3269 159.508 52.651C163.976 55.1842 166.038 59.0234 165.693 64.1685ZM160.796 56.5325C160.409 56.0306 160.01 55.6195 159.599 55.2991C158.378 54.3559 156.685 53.8662 154.52 53.8299C153.093 53.7997 151.884 53.978 150.893 54.365C150.621 54.4678 150.355 54.5917 150.095 54.7368C149.52 55.0391 148.961 55.4321 148.417 55.9158C147.697 56.5566 147.075 57.2852 146.549 58.1014C146.035 58.9297 145.657 59.8003 145.415 60.7132C145.101 61.8499 145.007 63.0319 145.134 64.2592C145.261 65.4502 145.581 66.605 146.095 67.7235C146.325 68.2253 146.585 68.6999 146.875 69.1473C147.292 69.7761 147.764 70.3475 148.29 70.8614C149.269 71.8045 150.355 72.4394 151.546 72.7658C152.338 73.0016 153.178 73.0954 154.067 73.047C154.901 73.0047 155.736 72.8354 156.57 72.5391C158.045 72.0434 159.496 71.1727 160.923 69.9273C161.558 69.371 162.072 68.8239 162.465 68.2858C162.725 67.9291 162.93 67.5784 163.081 67.2338C163.329 66.6715 163.486 66.0155 163.553 65.2658C163.607 64.6915 163.61 64.0083 163.562 63.2163C163.483 62.267 163.359 61.4901 163.19 60.8855C163.045 60.3595 162.791 59.755 162.428 59.0718C162.235 58.7271 162.017 58.3553 161.775 57.9563C161.413 57.3819 161.086 56.9073 160.796 56.5325Z" fill="#0A0A0A"/>
<path d="M158.583 74.8698C162.991 72.657 165.361 69.0899 165.693 64.1685C166.038 59.0234 163.976 55.1842 159.508 52.651C157.162 51.3269 154.665 50.8976 152.017 51.3632C147.501 53.1165 144.436 56.2695 142.821 60.8221C141.11 65.6347 142.138 69.7519 145.905 73.174C149.72 76.6383 153.946 77.2036 158.583 74.8698ZM159.599 55.2991C160.01 55.6195 160.409 56.0306 160.796 56.5325C161.086 56.9073 161.413 57.3819 161.776 57.9563C162.017 58.3553 162.235 58.7271 162.428 59.0718C162.791 59.755 163.045 60.3596 163.19 60.8856C163.36 61.4901 163.484 62.2671 163.562 63.2163C163.61 64.0083 163.607 64.6915 163.553 65.2658C163.487 66.0155 163.329 66.6715 163.081 67.2338C162.93 67.5784 162.725 67.9291 162.465 68.2858C162.072 68.8239 161.558 69.371 160.923 69.9273C159.496 71.1727 158.045 72.0434 156.57 72.5391C155.736 72.8354 154.901 73.0047 154.067 73.047C153.178 73.0954 152.338 73.0016 151.546 72.7659C150.355 72.4394 149.269 71.8045 148.29 70.8614C147.764 70.3475 147.292 69.7761 146.875 69.1474C146.585 68.7 146.325 68.2253 146.095 67.7235C145.581 66.605 145.261 65.4502 145.134 64.2592C145.007 63.0319 145.101 61.8499 145.415 60.7132C145.657 59.8003 146.035 58.9297 146.549 58.1014C147.075 57.2852 147.698 56.5566 148.417 55.9158C148.961 55.4321 149.52 55.0391 150.095 54.7368C150.355 54.5917 150.621 54.4678 150.893 54.365C151.884 53.9781 153.094 53.7997 154.52 53.8299C156.685 53.8662 158.378 54.3559 159.599 55.2991Z" fill="white"/>
<path d="M148.462 48.0258C137.592 37.1068 124.466 32.4665 109.085 34.105C98.1725 35.2713 88.7226 38.8838 80.7356 44.9424C72.7541 51.0072 67.2523 56.8839 64.2301 62.5724C61.2139 68.2608 60.2405 76.2203 61.3099 86.4509C62.3859 96.687 70.1187 104.665 84.5083 110.384C98.0875 115.783 112.117 116.877 126.597 113.667C134.795 111.841 141.525 108.446 146.785 103.482C151.428 99.093 154.929 93.4823 157.286 86.6504C162.365 71.9225 159.424 59.0476 148.462 48.0258ZM101.449 41.6957C107.543 40.0451 113.722 39.5161 119.986 40.1086C135.584 41.6564 146.186 49.6582 151.791 64.1141C154.33 70.6679 154.327 77.1613 151.782 83.5942C147.767 93.7635 141.24 101.028 132.202 105.387C128.574 107.134 124.548 108.413 120.122 109.223C105.666 111.883 92.2743 109.277 79.9466 101.406C66.6878 92.9352 63.1872 81.5385 69.4448 67.2157C70.8656 63.9569 72.5312 60.9974 74.4417 58.3372C80.7719 49.4859 89.7743 43.9387 101.449 41.6957Z" fill="#0A0A0A"/>
<path d="M119.986 40.1086C113.722 39.5161 107.543 40.0451 101.449 41.6957C89.7743 43.9387 80.7718 49.4859 74.4417 58.3372C72.5312 60.9974 70.8655 63.9569 69.4447 67.2156C63.1872 81.5385 66.6878 92.9351 79.9466 101.406C92.2743 109.277 105.666 111.883 120.122 109.223C124.548 108.413 128.574 107.134 132.202 105.387C141.24 101.028 147.767 93.7634 151.782 83.5941C154.327 77.1612 154.33 70.6679 151.791 64.1141C146.186 49.6582 135.584 41.6564 119.986 40.1086Z" fill="white"/>
<path d="M108.985 57.0403C106.972 54.7973 104.502 53.2888 101.576 52.5149C98.6799 51.735 95.7476 51.5869 92.779 52.0706C89.617 52.5663 86.8329 53.839 84.4266 55.8886C82.0203 57.9261 80.3969 60.4563 79.5565 63.4793C78.9217 65.7586 78.6013 68.0863 78.5952 70.4623C78.5892 73.4914 79.5747 76.1395 81.5517 78.4067C82.6883 79.8457 83.9913 81.1304 85.4604 82.261C87.9574 84.1655 90.793 85.0271 93.9671 84.8457C95.2005 84.7913 96.4187 84.6794 97.6219 84.5101C100.717 84.1171 103.492 82.9624 105.947 81.0458C108.317 79.1836 110.043 76.8469 111.125 74.0355C112.196 71.2483 112.634 68.3523 112.44 65.3475C112.241 62.1673 111.089 59.3983 108.985 57.0403ZM83.2748 67.1703C83.5529 65.0119 84.3298 63.044 85.6055 61.2664C87.3951 58.7634 89.8165 57.2671 92.8697 56.7773C94.0608 56.5657 95.2549 56.4629 96.452 56.469C99.7531 56.2574 102.604 57.2671 105.004 59.498C106.558 60.9551 107.477 62.7326 107.761 64.8305C108.148 67.7326 107.731 70.5409 106.509 73.2556C105.173 76.2241 102.927 78.2374 99.7712 79.2955C96.851 80.2749 93.8915 80.5107 90.8927 80.0029C90.6327 79.9122 90.3818 79.8064 90.14 79.6855C88.0662 78.6576 86.3159 77.2096 84.8891 75.3414C84.5384 74.8759 84.2633 74.3892 84.0638 73.8813C83.2295 71.7592 82.9665 69.5222 83.2748 67.1703ZM100.723 59.1534C99.9798 58.7725 99.1757 58.4974 98.3111 58.3281C96.7754 58.0258 95.0826 58.0561 93.2325 58.4188C91.854 58.6909 90.7809 59.1111 90.013 59.6794C89.5112 60.0482 89.0457 60.5379 88.6164 61.1486C88.2839 61.6201 87.9423 62.2126 87.5916 62.9261C87.1744 63.7785 86.8903 64.5101 86.7391 65.1207C86.5396 65.9309 86.461 67.0101 86.5033 68.3584C86.5275 69.0476 86.5729 69.625 86.6394 70.0905C86.724 70.7193 86.8661 71.2755 87.0656 71.7592C87.646 73.1861 88.8643 74.4557 90.7204 75.5682C91.9417 76.3058 93.0753 76.7562 94.1213 76.9194C95.0281 77.0645 96.0046 77.0283 97.0505 76.8106C97.9997 76.6171 98.9006 76.2967 99.7531 75.8493C100.618 75.3898 101.385 74.8245 102.057 74.1534C102.891 73.3251 103.559 72.3457 104.061 71.2151C104.551 70.1208 104.853 68.966 104.968 67.7507C105.095 66.4206 104.983 65.148 104.632 63.9327C104.251 62.6268 103.632 61.5325 102.773 60.6498C102.199 60.0512 101.515 59.5524 100.723 59.1534Z" fill="#0A0A0A"/>
<path d="M85.6057 61.2664C84.33 63.0439 83.5531 65.0119 83.2749 67.1703C82.9666 69.5222 83.2296 71.7592 84.064 73.8813C84.2635 74.3892 84.5386 74.8759 84.8892 75.3414C86.3161 77.2096 88.0664 78.6576 90.1401 79.6854C90.382 79.8064 90.6329 79.9122 90.8929 80.0028C93.8917 80.5107 96.8512 80.2749 99.7713 79.2955C102.927 78.2374 105.173 76.2241 106.51 73.2556C107.731 70.5409 108.148 67.7326 107.761 64.8305C107.477 62.7326 106.558 60.9551 105.004 59.498C102.604 57.267 99.7532 56.2574 96.4521 56.469C95.255 56.4629 94.0609 56.5657 92.8699 56.7773C89.8167 57.267 87.3953 58.7634 85.6057 61.2664ZM98.3112 58.3281C99.1758 58.4974 99.9799 58.7725 100.724 59.1534C101.516 59.5524 102.199 60.0512 102.773 60.6497C103.632 61.5325 104.251 62.6268 104.632 63.9327C104.983 65.1479 105.095 66.4206 104.968 67.7507C104.853 68.966 104.551 70.1207 104.061 71.215C103.559 72.3456 102.891 73.3251 102.057 74.1534C101.386 74.8245 100.618 75.3898 99.7532 75.8493C98.9007 76.2967 97.9999 76.6171 97.0507 76.8106C96.0047 77.0282 95.0283 77.0645 94.1214 76.9194C93.0754 76.7562 91.9418 76.3057 90.7206 75.5681C88.8644 74.4557 87.6462 73.186 87.0658 71.7592C86.8663 71.2755 86.7242 70.7193 86.6395 70.0905C86.573 69.625 86.5277 69.0476 86.5035 68.3583C86.4612 67.0101 86.5398 65.9309 86.7393 65.1207C86.8904 64.5101 87.1746 63.7785 87.5918 62.926C87.9424 62.2126 88.284 61.6201 88.6166 61.1485C89.0458 60.5379 89.5114 60.0482 90.0132 59.6794C90.781 59.111 91.8542 58.6909 93.2326 58.4188C95.0827 58.056 96.7756 58.0258 98.3112 58.3281Z" fill="white"/>
<path d="M142.776 75.2507C143.072 74.7731 143.284 74.3801 143.411 74.0718C143.598 73.6183 143.677 73.1951 143.647 72.8021C143.623 72.4393 143.511 72.0978 143.311 71.7773C143.112 71.4569 142.855 71.206 142.54 71.0246C142.226 70.8432 141.881 70.7465 141.507 70.7344C141.132 70.7223 140.781 70.7948 140.455 70.952C140.025 71.1636 139.629 71.5355 139.266 72.0675C138.886 72.7326 138.601 73.2253 138.414 73.5458C138.063 74.1564 137.465 74.9877 136.618 76.0397C136.304 76.4327 136.059 76.7199 135.884 76.9013C135.6 77.2036 135.315 77.4424 135.031 77.6177C134.608 77.8777 134.097 78.056 133.499 78.1528C133.045 78.2253 132.495 78.2525 131.848 78.2344C129.442 78.1679 127.114 77.7447 124.865 76.9647C124.212 76.741 123.759 76.599 123.505 76.5385C122.985 76.4236 122.525 76.4115 122.126 76.5022C121.552 76.6413 121.098 76.9859 120.766 77.5361C120.427 78.0984 120.346 78.6576 120.521 79.2138C120.799 80.1207 121.685 80.816 123.178 81.2997C124.273 81.6625 125.69 81.998 127.432 82.3063C128.471 82.4998 129.366 82.6358 130.116 82.7144C131.095 82.8172 131.999 82.8475 132.828 82.8051C134.877 82.6903 136.582 82.1431 137.942 81.1637C138.384 80.8493 138.828 80.4563 139.276 79.9847C139.602 79.628 139.986 79.1685 140.427 78.6062C141.304 77.4756 142.087 76.3571 142.776 75.2507Z" fill="#0A0A0A"/>
<path d="M62.2391 101.806C61.6856 101.659 61.1447 101.669 60.6166 101.834C60.4874 101.874 60.3602 101.922 60.2349 101.977C61.0761 101.089 61.6074 100.482 61.8287 100.154C62.1608 99.6709 61.3527 100.323 59.4045 102.111C57.4635 103.905 56.2673 105.019 55.8159 105.451C54.677 106.552 53.4872 107.847 52.2464 109.336C51.4193 110.335 50.3344 111.719 48.9919 113.488C41.7829 123.013 34.9461 132.881 28.4816 143.093C25.9047 147.159 23.719 150.789 21.9248 153.983C19.6851 157.947 17.7699 161.72 16.1792 165.303C16.1665 165.328 16.1569 165.354 16.1506 165.379C16.1251 165.373 16.1028 165.369 16.0838 165.369C15.6129 165.331 14.9957 165.322 14.2322 165.341C11.948 165.385 10.0678 165.608 8.59162 166.009C6.54918 166.562 4.91077 167.482 3.6764 168.767C3.21191 169.257 2.60429 170.084 1.85348 171.249C1.50353 171.796 1.24902 172.213 1.08995 172.499C0.822717 172.976 0.615927 173.418 0.469584 173.826C0.176898 174.659 0.0209966 175.703 0.00190834 176.956C-0.00445441 177.669 0.00509437 178.744 0.0305454 180.182C0.0114571 181.003 0.00190834 181.416 0.00190834 181.423C0.00827109 181.9 0.0559917 182.31 0.14507 182.654C0.380492 183.513 0.975404 184.362 1.92982 185.202C3.17691 186.303 4.65309 187.14 6.3583 187.712C7.96172 188.253 9.65101 188.52 11.4262 188.514C13.9331 188.501 16.0774 187.96 17.859 186.891C18.8261 186.3 19.771 185.488 20.6936 184.458C21.3298 183.739 22.0934 182.737 22.9842 181.451C23.315 180.968 23.5663 180.58 23.7381 180.287C23.999 179.848 24.1994 179.434 24.3394 179.046C24.5176 178.556 24.6385 177.996 24.7021 177.366C24.7466 176.927 24.7689 176.355 24.7689 175.648C24.7625 174.656 24.7148 173.848 24.6257 173.224C24.4985 172.353 24.2694 171.592 23.9386 170.943C23.6522 170.402 23.2546 169.858 22.7456 169.311C22.5292 169.076 22.262 168.812 21.9439 168.519C22.0711 168.163 22.2524 167.641 22.4879 166.954C23.1305 165.064 23.9863 163.057 25.0552 160.931C25.8569 159.341 26.9195 157.426 28.243 155.186C31.2971 149.994 34.9302 144.283 39.1424 138.054C41.6875 134.294 45.5592 128.739 50.7576 121.39C52.4564 118.991 53.7671 117.203 54.6897 116.026C56.2104 114.086 57.6866 112.438 59.1182 111.082C59.6336 110.593 60.0249 110.217 60.2921 109.956C60.4385 110.058 60.5944 110.147 60.7598 110.224C61.237 110.446 61.7269 110.542 62.2296 110.51C62.7322 110.478 63.2063 110.319 63.6517 110.033C64.0971 109.746 64.4375 109.377 64.6729 108.926C64.9592 108.391 65.0896 107.748 65.0642 106.998C65.0515 106.444 64.9433 105.773 64.7397 104.984C64.6061 104.462 64.4725 104.042 64.3388 103.724C64.148 103.272 63.9157 102.903 63.6421 102.617C63.2667 102.216 62.7991 101.946 62.2391 101.806ZM12.6001 171.659C13.9172 171.513 15.0212 171.579 15.912 171.859C16.4719 172.038 16.965 172.305 17.3913 172.661C17.843 173.037 18.1739 173.472 18.3839 173.969C18.9565 175.362 18.5239 177.061 17.0859 179.065C16.3542 180.083 15.6543 180.805 14.9862 181.232C14.1399 181.773 13.1123 182.068 11.9034 182.119C10.949 182.158 9.84827 182.037 8.60117 181.757C8.10488 181.642 7.71037 181.515 7.41769 181.375C7.01047 181.178 6.71143 180.923 6.52055 180.611C6.39966 180.408 6.31376 180.156 6.26286 179.857C6.23105 179.673 6.20878 179.403 6.19606 179.046C6.17061 178.149 6.18651 177.443 6.24378 176.927C6.32649 176.151 6.50783 175.483 6.78779 174.923C7.27772 173.962 8.08897 173.192 9.22154 172.613C10.1887 172.13 11.3149 171.812 12.6001 171.659ZM165.297 173.11C164.393 169.559 163.222 165.487 161.784 160.893C158.183 149.358 154.133 138.057 149.635 126.993C148.795 124.931 148.108 123.309 147.573 122.125C146.752 120.369 145.935 118.813 145.12 117.458C144.796 116.923 144.506 116.491 144.252 116.16C143.895 115.715 143.526 115.352 143.145 115.072C143.03 114.983 142.912 114.907 142.792 114.843C142.779 114.741 142.76 114.646 142.734 114.557C142.645 114.181 142.486 113.831 142.257 113.507C142.028 113.189 141.751 112.925 141.427 112.715C140.956 112.422 140.434 112.272 139.861 112.266C139.282 112.266 138.761 112.406 138.296 112.686C137.959 112.896 137.641 113.195 137.342 113.583C137.132 113.857 136.893 114.229 136.626 114.7C136.219 115.406 135.939 116.026 135.786 116.561C135.57 117.28 135.532 117.932 135.672 118.517C135.78 119.02 136.012 119.465 136.368 119.854C136.725 120.242 137.141 120.518 137.619 120.684C138.096 120.843 138.592 120.875 139.107 120.779C139.292 120.754 139.467 120.709 139.632 120.646C139.823 120.97 140.103 121.435 140.472 122.039C141.509 123.719 142.508 125.695 143.469 127.966C144.055 129.34 144.859 131.405 145.884 134.16C149.008 142.604 151.311 148.973 152.794 153.268C155.243 160.375 157.273 166.83 158.883 172.633C159.583 175.139 160.114 177.265 160.477 179.008C160.96 181.337 161.266 183.497 161.393 185.488C161.444 186.214 161.488 186.764 161.527 187.14C161.139 187.343 160.808 187.528 160.534 187.693C159.904 188.094 159.382 188.52 158.969 188.972C158.479 189.507 158.059 190.178 157.709 190.986C157.467 191.571 157.213 192.341 156.945 193.296C156.767 193.976 156.64 194.536 156.564 194.975C156.462 195.599 156.433 196.172 156.478 196.693C156.51 197.107 156.599 197.555 156.745 198.039C156.834 198.37 156.974 198.812 157.165 199.366C157.693 200.835 158.17 202 158.597 202.859C159.227 204.093 159.93 205.124 160.706 205.951C162.15 207.44 164.084 208.515 166.509 209.177C168.214 209.641 169.913 209.823 171.605 209.721C173.406 209.606 175.047 209.18 176.53 208.442C177.669 207.876 178.464 207.208 178.916 206.438C179.088 206.132 179.241 205.747 179.374 205.283C179.374 205.277 179.47 204.876 179.66 204.08C180.061 202.693 180.351 201.656 180.529 200.969C180.834 199.754 180.955 198.704 180.892 197.819C180.853 197.387 180.768 196.906 180.634 196.378C180.551 196.067 180.414 195.599 180.224 194.975C179.797 193.658 179.422 192.701 179.097 192.103C178.238 190.544 176.896 189.233 175.07 188.17C173.746 187.4 171.987 186.701 169.792 186.071C169.06 185.854 168.462 185.702 167.998 185.613C167.978 185.606 167.956 185.603 167.931 185.603C167.931 185.584 167.928 185.558 167.921 185.527C167.31 181.658 166.435 177.519 165.297 173.11ZM164.838 192.313C165.347 192.083 165.895 191.956 166.48 191.931C167.415 191.893 168.5 192.112 169.735 192.589C170.931 193.073 171.936 193.674 172.751 194.393C173.692 195.239 174.274 196.191 174.497 197.247C174.624 197.858 174.628 198.551 174.507 199.327C174.43 199.836 174.262 200.524 174.001 201.389C173.899 201.733 173.81 201.987 173.734 202.152C173.606 202.426 173.457 202.646 173.285 202.811C173.018 203.059 172.665 203.228 172.226 203.317C171.901 203.381 171.488 203.403 170.985 203.384C169.706 203.326 168.612 203.158 167.702 202.878C166.544 202.515 165.627 201.965 164.953 201.227C164.412 200.635 163.922 199.757 163.483 198.593C162.611 196.277 162.634 194.524 163.55 193.334C163.881 192.901 164.31 192.561 164.838 192.313Z" fill="#0A0A0A"/>
<path d="M15.912 171.86C15.0212 171.58 13.9173 171.513 12.6002 171.659C11.3149 171.812 10.1887 172.13 9.22155 172.614C8.08899 173.193 7.27774 173.962 6.7878 174.923C6.50784 175.483 6.32651 176.151 6.24379 176.927C6.18653 177.443 6.17062 178.149 6.19607 179.046C6.2088 179.403 6.23106 179.673 6.26288 179.857C6.31378 180.157 6.39967 180.408 6.52056 180.611C6.71145 180.923 7.01049 181.178 7.4177 181.375C7.71039 181.515 8.10489 181.642 8.60119 181.757C9.84829 182.037 10.949 182.158 11.9034 182.119C13.1124 182.069 14.1399 181.773 14.9862 181.232C15.6543 180.806 16.3542 180.083 17.0859 179.065C18.5239 177.061 18.9566 175.362 18.3839 173.969C18.1739 173.472 17.8431 173.037 17.3913 172.661C16.965 172.305 16.4719 172.038 15.912 171.86ZM166.48 191.931C165.895 191.956 165.347 192.084 164.838 192.313C164.31 192.561 163.881 192.901 163.55 193.334C162.634 194.524 162.611 196.277 163.483 198.593C163.922 199.757 164.412 200.635 164.953 201.227C165.627 201.965 166.544 202.515 167.702 202.878C168.612 203.158 169.706 203.326 170.985 203.384C171.488 203.403 171.901 203.381 172.226 203.317C172.665 203.228 173.018 203.059 173.285 202.811C173.457 202.646 173.606 202.426 173.734 202.153C173.81 201.987 173.899 201.733 174.001 201.389C174.262 200.524 174.43 199.837 174.507 199.328C174.628 198.551 174.624 197.858 174.497 197.247C174.274 196.191 173.692 195.239 172.751 194.393C171.936 193.674 170.931 193.073 169.735 192.589C168.5 192.112 167.415 191.893 166.48 191.931Z" fill="white"/>
</svg>
