<svg width="528" height="769" viewBox="0 0 528 769" fill="none" xmlns="http://www.w3.org/2000/svg">
<path d="M82.5791 544.18C84.255 542.451 85.4764 540.712 86.2431 538.965C87.1524 536.897 87.4019 534.766 86.9919 532.573C86.5283 530.237 85.4139 528.535 83.6488 527.465C81.4023 526.128 78.7636 526.163 75.7326 527.572C73.4505 528.624 71.0167 530.416 68.4315 532.947C64.5982 536.692 58.8393 542.272 51.1548 549.689C44.5044 556.197 38.8971 561.929 34.3328 566.886C29.9824 571.593 25.2666 577.004 20.1852 583.119C16.9581 586.971 12.4205 592.533 6.57242 599.808C4.84297 601.929 3.59491 603.605 2.82824 604.836C1.59802 606.779 0.777878 608.651 0.367803 610.452C-0.309714 613.358 -0.0512142 616.567 1.14335 620.08C1.96351 622.54 3.44337 625.562 5.5829 629.146C9.30924 635.44 13.3744 641.707 17.7782 647.947C19.0085 649.694 21.6829 653.358 25.8014 658.939C29.1534 663.485 31.7921 667.185 33.7177 670.038C36.6595 674.406 40.6889 680.94 45.806 689.641C49.461 695.863 52.1087 700.526 53.749 703.628C56.5304 708.888 58.7056 713.764 60.2745 718.257C53.1071 716.973 45.5832 718.239 37.7026 722.055C31.3375 725.122 24.8208 729.802 18.1526 736.095C15.7456 738.36 13.8557 740.348 12.4829 742.059C10.593 744.395 9.20225 746.731 8.31078 749.066C7.29451 751.741 6.96468 754.451 7.32126 757.197C7.71351 760.138 8.8546 762.519 10.7445 764.337C12.4383 765.978 14.7116 767.11 17.5643 767.734C19.5611 768.162 22.1999 768.384 25.4805 768.402C42.3114 768.42 59.6416 766.477 77.471 762.572C80.4485 761.912 82.802 761.217 84.5314 760.486C87.0097 759.434 88.9264 758.061 90.2814 756.367C92.617 753.426 93.3748 749.61 92.5546 744.921C91.9663 741.551 90.4865 737.513 88.1152 732.806L78.6745 714.219C72.5947 702.362 67.5133 692.824 63.4304 685.603C57.6001 675.262 51.8858 666.097 46.2874 658.11C45.075 656.38 42.8285 653.269 39.5479 648.776C36.6773 644.854 34.4487 641.725 32.8619 639.389C27.4596 631.526 22.601 623.244 18.2863 614.544C35.0638 589.707 54.8812 567.697 77.7384 548.513C80.0028 546.623 81.6163 545.178 82.5791 544.18Z" fill="#0A0A0A"/>
<path d="M365.344 737.54C362.046 738.663 359.353 739.733 357.267 740.749C356.804 740.963 356.358 741.195 355.93 741.444C353.915 736.826 351.321 731.05 348.148 724.114L283.4 582.932C275.003 564.621 268.112 550.955 262.727 541.933C254.044 527.349 244.577 515.617 234.325 506.738C233.059 505.633 231.971 504.795 231.062 504.224C229.796 503.44 228.557 502.941 227.345 502.727C225.062 502.334 222.923 502.949 220.926 504.572C218.911 506.212 217.859 508.191 217.77 510.509C217.681 512.863 218.564 515.243 220.418 517.65C221.399 518.934 223.315 520.886 226.168 523.507C233.318 530.05 240.012 538.501 246.253 548.86C250.193 555.421 255.194 565.121 261.256 577.958C288.696 635.939 315.413 694.419 341.408 753.399C342.781 756.519 344.109 758.899 345.393 760.54C347.265 762.911 349.378 764.293 351.731 764.685C352.748 764.845 353.746 764.819 354.727 764.605C355.69 764.819 356.75 764.997 357.909 765.14C358.819 765.229 360.557 765.345 363.124 765.487C365.852 765.63 373.679 766.227 386.606 767.279C396.162 768.081 403.98 768.438 410.06 768.349C412.182 768.313 413.894 768.153 415.195 767.867C417.032 767.44 418.494 766.7 419.581 765.648C420.508 764.756 421.195 763.615 421.64 762.224C422.033 760.959 422.184 759.612 422.095 758.186C422.024 756.974 421.783 755.645 421.373 754.201C421.106 753.256 420.678 751.973 420.089 750.35C418.895 747.052 417.843 744.538 416.933 742.808C415.525 740.134 413.894 738.021 412.039 736.47C408.384 733.439 403.071 731.87 396.1 731.763C391.215 731.709 386.026 732.235 380.535 733.341C375.935 734.268 370.871 735.668 365.344 737.54Z" fill="#0A0A0A"/>
<path d="M211.138 0.820514C206.164 1.74764 201.671 3.38795 197.659 5.74143C192.524 8.79026 187.568 13.4437 182.789 19.7018C177.298 26.9406 172.404 35.6948 168.107 45.9645C165.201 52.9715 161.893 62.5191 158.185 74.6074C153.389 90.3508 149.386 104.498 146.177 117.05C145.624 119.136 145.294 120.794 145.187 122.025C145.009 123.897 145.178 125.528 145.695 126.919C146.569 129.237 148.316 130.832 150.937 131.706C153.576 132.58 155.938 132.357 158.024 131.037C159.629 129.968 160.939 128.336 161.956 126.143C162.615 124.717 163.266 122.631 163.908 119.885C169.56 96.6356 176.549 73.9032 184.875 51.6878C192.096 54.7188 199.79 55.8955 207.956 55.218C216.032 54.5761 223.458 52.1959 230.233 48.0773C234.851 45.2781 238.488 42.0332 241.145 38.3425C243.142 35.5076 244.586 32.3785 245.478 28.9553C246.369 25.5321 246.619 22.0999 246.226 18.6588C245.905 15.8061 245.139 13.1852 243.926 10.7961C242.625 8.19298 240.931 6.08912 238.845 4.48447C235.707 2.11316 231.285 0.695721 225.58 0.232157C220.57 -0.213578 215.756 -0.0174674 211.138 0.820514ZM385.563 14.2193C382.568 10.2433 377.718 7.67593 371.014 6.51702C364.738 5.42942 358.436 5.70577 352.106 7.34608C345.741 8.98638 340.098 11.8302 335.177 15.8774C331.059 19.2115 327.225 23.5797 323.677 28.982C321.199 32.7797 318.346 37.9413 315.119 44.4669C310.002 54.9506 304.635 66.9141 299.019 80.3574C295.578 88.5946 290.684 100.763 284.337 116.863C283.534 118.913 283.008 120.545 282.759 121.757C282.349 123.594 282.367 125.243 282.812 126.705C283.49 129.005 285.094 130.636 287.626 131.599C290.14 132.562 292.467 132.455 294.606 131.278C296.015 130.494 297.29 129.29 298.431 127.668C299.18 126.544 300.035 124.949 300.998 122.881C303.28 117.888 307.666 107.03 314.156 90.3062C319.452 76.7202 324.23 66.0315 328.491 58.2401C332.966 59.4168 337.023 60.2726 340.66 60.8075C345.064 61.4315 349.191 61.6365 353.042 61.4226C357.375 61.1908 361.449 60.4152 365.264 59.0959C369.365 57.6695 372.949 55.6815 376.015 53.1319C378.832 50.7785 381.266 47.9347 383.317 44.6006C385.242 41.427 386.722 37.9502 387.756 34.1704C388.808 30.5154 389.2 27.0476 388.933 23.7669C388.665 20.0049 387.542 16.8224 385.563 14.2193Z" fill="#0A0A0A"/>
<path d="M321.243 399.361C320.334 396.793 319.38 394.342 318.382 392.006C316.866 388.512 315.235 385.267 313.488 382.271C309.048 374.64 303.289 367.589 296.211 361.117C289.65 355.144 282.17 349.857 273.773 345.258C266.231 341.157 257.842 337.528 248.606 334.373C240.797 331.716 231.954 329.265 222.076 327.018C207.902 323.791 194.788 321.705 182.736 320.76C170.719 319.797 158.666 319.842 146.578 320.894C142.548 321.25 139.188 321.687 136.495 322.204C132.858 322.917 129.64 323.916 126.841 325.199C124.915 326.055 122.883 327.187 120.743 328.596C119.245 329.577 117.338 330.932 115.02 332.661C102.272 342.307 90.3261 352.871 79.1827 364.353C68.0215 375.888 57.8409 388.164 48.641 401.179C25.6411 433.682 16.6283 463.047 21.6027 489.274C24.3128 503.591 31.1503 516.794 42.1154 528.882C52.2247 540.008 64.5715 548.896 79.156 555.546C83.1319 557.365 87.3129 559.041 91.6989 560.574C101.077 563.837 111.383 566.449 122.615 568.41C134.311 570.46 149.466 572.101 168.08 573.331C178.76 574.044 187.309 574.356 193.728 574.267C203.142 574.142 211.61 573.269 219.134 571.646C222.576 570.897 226.382 569.863 230.554 568.544C233.264 567.688 237 566.422 241.76 564.746C251.067 561.43 258.555 558.586 264.225 556.215C272.32 552.827 279.487 549.315 285.727 545.678C301.274 536.62 312.881 525.851 320.548 513.371C324.702 506.613 327.849 499.054 329.989 490.692C331.95 482.99 333.011 474.833 333.171 466.221C333.314 458.537 332.743 450.335 331.46 441.616C330.39 434.36 328.741 426.292 326.512 417.413C324.765 410.388 323.008 404.371 321.243 399.361ZM303.726 403.399C303.993 404.13 304.261 404.888 304.528 405.672C305.669 408.989 306.953 413.33 308.379 418.697C310.555 426.97 312.177 434.11 313.247 440.119C314.655 447.964 315.404 455.238 315.493 461.942C315.6 469.662 314.86 476.945 313.274 483.792C311.526 491.298 308.816 498.038 305.143 504.01C298.76 514.369 288.669 523.694 274.869 531.985C261.051 540.275 246.895 545.731 232.4 548.352C231.455 548.513 230.911 548.593 230.768 548.593C206.645 553.3 178.653 553.523 146.792 549.261C103.217 543.431 70.6068 528.071 48.9619 503.181C40.065 489.435 38.0592 475.118 42.9445 460.23C47.8119 445.343 55.015 431.266 64.5537 418.001C74.0924 404.719 82.7664 393.014 90.5757 382.886C98.3671 372.742 105.517 364.683 112.024 358.71C118.532 352.719 122.9 348.984 125.129 347.504C128.107 345.489 130.986 343.902 133.767 342.744C137.333 341.246 141.381 340.167 145.909 339.508C149.368 339.008 153.576 338.705 158.532 338.598C182.245 338.01 206.039 340.907 229.912 347.29C245.531 351.462 258.841 356.891 269.841 363.577C283.195 371.69 292.993 381.567 299.233 393.21C300.838 396.223 302.335 399.619 303.726 403.399Z" fill="#0A0A0A"/>
<path d="M304.528 405.672C304.261 404.888 303.994 404.13 303.726 403.399C302.335 399.619 300.838 396.223 299.233 393.21C292.993 381.567 283.196 371.69 269.841 363.577C258.841 356.891 245.531 351.462 229.912 347.29C206.039 340.907 182.246 338.01 158.533 338.598C153.576 338.705 149.368 339.008 145.909 339.508C141.381 340.167 137.333 341.246 133.768 342.744C130.986 343.902 128.107 345.489 125.129 347.504C122.901 348.984 118.532 352.719 112.025 358.71C105.517 364.683 98.3673 372.742 90.5758 382.886C82.7666 393.014 74.0926 404.719 64.5538 418.001C55.0151 431.266 47.8121 445.343 42.9446 460.23C38.0594 475.118 40.0652 489.435 48.962 503.181C70.6069 528.071 103.217 543.431 146.792 549.261C178.653 553.523 206.645 553.3 230.768 548.593C230.911 548.593 231.455 548.512 232.4 548.352C246.895 545.731 261.052 540.275 274.869 531.985C288.669 523.694 298.761 514.369 305.144 504.01C308.816 498.038 311.526 491.298 313.274 483.792C314.861 476.945 315.601 469.662 315.494 461.942C315.404 455.238 314.656 447.964 313.247 440.119C312.177 434.11 310.555 426.97 308.38 418.697C306.953 413.33 305.67 408.989 304.528 405.672Z" fill="white"/>
<path d="M244.384 297.59C241.039 298.629 239.653 301.6 240.228 306.505C240.803 311.383 244.761 313.333 252.104 312.355C259.449 311.403 263.988 310.796 265.721 310.534C270.107 309.851 274.922 308.806 280.167 307.399C283.674 306.446 288.392 305.027 294.323 303.143C326.209 292.963 357.797 281.396 389.087 268.44C401.552 263.288 412.417 258.502 421.682 254.082C433.211 248.618 443.687 243.068 453.113 237.431C453.183 237.393 453.246 237.35 453.302 237.302C453.35 237.358 453.396 237.401 453.439 237.432C454.456 238.279 455.854 239.297 457.634 240.486C462.938 244.071 467.603 246.596 471.631 248.06C477.203 250.089 482.44 250.628 487.341 249.677C489.196 249.304 491.923 248.391 495.522 246.936C497.207 246.247 498.462 245.703 499.289 245.304C500.671 244.643 501.859 243.964 502.851 243.267C504.867 241.831 506.908 239.692 508.975 236.852C510.14 235.23 511.854 232.752 514.117 229.417C515.485 227.568 516.175 226.636 516.185 226.622C516.941 225.519 517.494 224.502 517.844 223.571C518.692 221.223 518.7 218.318 517.87 214.853C516.79 210.319 514.76 206.02 511.779 201.956C508.979 198.129 505.541 194.79 501.465 191.94C495.703 187.922 489.919 185.7 484.113 185.272C480.943 185.067 477.469 185.4 473.692 186.271C471.074 186.891 467.708 187.954 463.593 189.46C462.055 190.033 460.853 190.516 459.987 190.91C458.68 191.494 457.554 192.118 456.607 192.781C455.408 193.615 454.227 194.703 453.065 196.043C452.254 196.976 451.279 198.252 450.139 199.87C448.551 202.153 447.356 204.081 446.554 205.653C445.438 207.855 444.735 209.966 444.446 211.987C444.228 213.688 444.261 215.576 444.544 217.65C444.659 218.539 444.845 219.575 445.101 220.759C444.235 221.37 442.977 222.272 441.329 223.466C436.807 226.757 431.606 229.973 425.728 233.115C421.324 235.464 415.799 238.136 409.152 241.129C393.777 248.091 376.238 255.306 356.536 262.774C344.637 267.279 326.803 273.752 303.034 282.193C295.271 284.945 289.383 286.924 285.37 288.131C278.755 290.121 272.714 291.513 267.247 292.306C265.916 292.502 258.295 294.264 244.384 297.59ZM480.849 231.917C477.854 231.463 474.761 230.374 471.57 228.649C468.318 226.858 465.897 224.923 464.309 222.844C463.314 221.532 462.616 220.124 462.214 218.62C461.786 217.031 461.731 215.499 462.051 214.023C462.989 209.907 466.722 206.715 473.251 204.445C476.57 203.295 479.339 202.77 481.557 202.872C484.368 203 487.2 203.981 490.051 205.815C492.298 207.268 494.624 209.322 497.029 211.976C497.98 213.04 498.679 213.968 499.123 214.761C499.737 215.87 500.011 216.936 499.945 217.958C499.894 218.619 499.685 219.334 499.319 220.101C499.094 220.575 498.708 221.23 498.162 222.067C496.772 224.163 495.596 225.755 494.633 226.843C493.19 228.487 491.697 229.724 490.152 230.555C487.479 231.965 484.378 232.419 480.849 231.917Z" fill="#0A0A0A"/>
<path d="M471.57 228.649C474.761 230.374 477.854 231.463 480.849 231.917C484.378 232.419 487.479 231.965 490.152 230.555C491.697 229.724 493.19 228.487 494.633 226.842C495.596 225.755 496.772 224.163 498.162 222.067C498.708 221.23 499.094 220.575 499.319 220.101C499.685 219.334 499.894 218.619 499.945 217.958C500.011 216.936 499.737 215.87 499.123 214.761C498.679 213.968 497.981 213.04 497.029 211.976C494.624 209.322 492.298 207.268 490.051 205.815C487.2 203.981 484.368 203 481.557 202.872C479.339 202.77 476.57 203.295 473.251 204.445C466.722 206.715 462.989 209.907 462.052 214.023C461.731 215.499 461.786 217.031 462.214 218.62C462.616 220.124 463.314 221.532 464.309 222.844C465.897 224.923 468.318 226.858 471.57 228.649Z" fill="white"/>
<path d="M319.05 297.011C319.728 295.906 320.156 295.112 320.334 294.631C321.136 292.545 320.895 290.263 319.612 287.784C318.631 285.877 317.053 283.915 314.878 281.901C301.791 269.83 284.943 260.925 264.332 255.183C255.809 252.812 246.395 250.931 236.09 249.54C227.978 248.453 218.394 247.57 207.34 246.893C197.48 246.287 188.985 246.019 181.853 246.09C172.635 246.162 164.166 246.777 156.446 247.936C147.585 249.273 139.348 251.377 131.735 254.247C123.39 257.403 115.956 261.424 109.43 266.309C102.37 271.604 96.3076 277.969 91.244 285.404C86.1992 292.837 81.8577 302.501 78.2197 314.395C74.5798 326.293 72.7969 335.921 72.8709 343.278C72.9626 350.636 75.949 358.392 81.8301 366.546C87.7307 374.714 95.7718 383.379 105.953 392.541C112.925 398.835 120.671 404.121 129.194 408.4C132.439 410.005 135.791 411.476 139.25 412.813C161.34 421.318 187.006 423.832 216.246 420.355C225.999 419.196 234.94 417.493 243.07 415.247C251.521 412.893 259.741 409.764 267.728 405.86C279.032 400.297 288.829 393.522 297.12 385.534C306.231 376.78 312.908 367.116 317.151 356.544C320.378 348.52 322.135 340.105 322.42 331.297C322.438 330.887 322.447 330.477 322.447 330.067C322.589 321.687 321.377 313.584 318.809 305.756C318.328 304.277 318.025 303.225 317.9 302.601C317.668 301.388 317.677 300.327 317.927 299.418C318.087 298.794 318.462 297.992 319.05 297.011ZM283.989 281.5C286.467 282.908 288.544 284.459 290.22 286.153C292.056 288.043 293.715 290.45 295.194 293.374C296.157 295.264 297.298 297.983 298.618 301.531C300.846 307.504 302.433 312.362 303.378 316.106C304.769 321.562 305.42 326.581 305.33 331.163C305.277 333.535 305.036 335.915 304.608 338.304C303.842 342.387 302.513 346.488 300.623 350.606C297.931 356.472 294.214 362.142 289.471 367.616C285.067 372.715 280.129 377.306 274.655 381.389C269.181 385.436 263.36 388.841 257.191 391.605C252.199 393.834 246.663 395.759 240.583 397.382C235.519 398.737 229.769 399.958 223.333 401.046C209.658 403.328 197.035 404.308 185.463 403.988C171.949 403.577 159.602 401.393 148.423 397.435C136.655 393.245 126.377 387.067 117.587 378.902C117.123 378.474 116.669 378.037 116.223 377.591C106.559 368.177 100.212 357.551 97.1812 345.712C95.5053 339.187 96.7533 330.388 100.925 319.316C105.097 308.244 110.268 299.962 116.437 294.47C122.606 288.961 124.487 285.253 122.08 283.345C119.673 281.437 121.411 278.843 127.295 275.562C132.858 272.46 139.267 270.026 146.524 268.261C152.336 266.835 159.165 265.738 167.01 264.972C181.862 263.51 196.767 263.34 211.726 264.464C226.685 265.587 241.403 267.976 255.881 271.631C263.69 273.592 270.679 275.785 276.848 278.21C279.701 279.333 282.081 280.43 283.989 281.5Z" fill="#0A0A0A"/>
<path d="M290.22 286.153C288.544 284.459 286.467 282.908 283.989 281.5C282.081 280.43 279.701 279.333 276.848 278.21C270.679 275.785 263.69 273.592 255.881 271.631C241.403 267.976 226.685 265.587 211.726 264.464C196.767 263.34 181.862 263.51 167.01 264.972C159.165 265.738 152.337 266.835 146.524 268.261C139.268 270.026 132.858 272.46 127.295 275.562C121.412 278.843 119.673 281.437 122.08 283.345C124.487 285.253 122.606 288.961 116.437 294.471C110.268 299.962 105.098 308.244 100.926 319.316C96.7535 330.388 95.5054 339.187 97.1814 345.712C100.212 357.551 106.56 368.177 116.223 377.591C116.669 378.037 117.124 378.474 117.587 378.902C126.377 387.067 136.656 393.245 148.423 397.435C159.602 401.393 171.949 403.577 185.464 403.988C197.035 404.308 209.658 403.328 223.333 401.046C229.77 399.958 235.52 398.737 240.583 397.382C246.663 395.759 252.199 393.834 257.191 391.605C263.36 388.841 269.181 385.436 274.655 381.389C280.129 377.306 285.067 372.715 289.471 367.616C294.214 362.142 297.931 356.472 300.624 350.606C302.514 346.488 303.842 342.387 304.608 338.304C305.036 335.915 305.277 333.535 305.331 331.163C305.42 326.581 304.769 321.562 303.378 316.106C302.433 312.362 300.846 307.504 298.618 301.531C297.298 297.983 296.157 295.264 295.195 293.374C293.715 290.45 292.057 288.043 290.22 286.153Z" fill="white"/>
<path d="M382.433 205.038C389.298 192.611 390.786 179.551 386.9 165.858C382.852 151.648 374.063 141.682 360.53 135.958C352.079 132.392 343.387 131.385 334.455 132.936C320.262 135.254 308.985 142.404 300.623 154.385C292.279 166.331 289.516 179.426 292.333 193.672C295.114 207.668 302.522 218.491 314.557 226.139C326.538 233.77 339.313 235.143 352.881 230.258C365.932 225.515 375.783 217.109 382.433 205.038ZM356.438 149.437C369.614 156.908 375.694 168.23 374.678 183.402C373.697 197.915 366.708 208.435 353.71 214.96C340.035 221.842 327.572 220.175 316.322 209.959C305.214 199.868 302.183 187.726 307.229 173.534C311.99 160.108 321.029 150.81 334.348 145.64C342.157 144.267 349.52 145.533 356.438 149.437ZM354.272 166.42C352.578 166.081 350.724 166.117 348.709 166.527C347.194 166.812 346.017 167.267 345.179 167.891C344.626 168.301 344.109 168.845 343.628 169.522C343.271 170.039 342.897 170.69 342.505 171.474C342.059 172.402 341.747 173.204 341.568 173.881C341.355 174.755 341.274 175.932 341.328 177.412C341.346 178.178 341.39 178.811 341.462 179.31C341.568 180.006 341.729 180.621 341.943 181.156C342.567 182.707 343.904 184.098 345.955 185.328C347.292 186.13 348.531 186.621 349.672 186.799C350.67 186.959 351.74 186.924 352.881 186.692C353.933 186.478 354.923 186.121 355.85 185.622C356.795 185.123 357.633 184.508 358.364 183.777C359.291 182.867 360.031 181.789 360.584 180.541C361.118 179.346 361.448 178.08 361.573 176.743C361.716 175.299 361.591 173.908 361.199 172.571C360.789 171.127 360.111 169.923 359.166 168.961C358.524 168.301 357.775 167.757 356.92 167.329C356.099 166.901 355.217 166.598 354.272 166.42Z" fill="#0A0A0A"/>
<path d="M374.677 183.402C375.694 168.23 369.614 156.908 356.438 149.437C349.52 145.533 342.157 144.267 334.347 145.64C321.029 150.81 311.989 160.108 307.229 173.534C302.183 187.726 305.214 199.868 316.322 209.959C327.572 220.175 340.035 221.842 353.71 214.96C366.708 208.435 373.697 197.915 374.677 183.402ZM348.709 166.527C350.724 166.117 352.578 166.081 354.272 166.42C355.217 166.598 356.099 166.901 356.919 167.329C357.775 167.757 358.524 168.301 359.166 168.961C360.111 169.923 360.788 171.127 361.198 172.571C361.591 173.908 361.715 175.299 361.573 176.743C361.448 178.08 361.118 179.346 360.583 180.541C360.031 181.789 359.291 182.867 358.364 183.777C357.633 184.508 356.795 185.123 355.85 185.622C354.922 186.121 353.933 186.478 352.881 186.692C351.74 186.924 350.67 186.959 349.672 186.799C348.531 186.621 347.292 186.13 345.954 185.328C343.904 184.098 342.567 182.707 341.943 181.156C341.729 180.621 341.568 180.006 341.461 179.31C341.39 178.811 341.345 178.178 341.328 177.412C341.274 175.932 341.354 174.755 341.568 173.881C341.747 173.204 342.059 172.402 342.504 171.474C342.897 170.69 343.271 170.039 343.628 169.522C344.109 168.845 344.626 168.301 345.179 167.891C346.017 167.267 347.193 166.812 348.709 166.527Z" fill="white"/>
<path d="M367.778 166.42C367.207 165.404 366.565 164.307 365.852 163.13C364.782 161.437 363.82 160.037 362.964 158.931C361.823 157.452 360.646 156.239 359.434 155.294C355.832 152.513 350.84 151.069 344.457 150.962C340.249 150.873 336.683 151.399 333.759 152.54C332.957 152.843 332.172 153.208 331.406 153.636C329.712 154.528 328.063 155.687 326.458 157.113C324.336 159.003 322.5 161.151 320.949 163.558C319.433 166.001 318.319 168.568 317.606 171.261C316.679 174.612 316.402 178.098 316.777 181.717C317.151 185.23 318.096 188.635 319.612 191.934C320.289 193.414 321.056 194.813 321.912 196.133C323.142 197.987 324.533 199.672 326.084 201.187C328.972 203.969 332.172 205.841 335.685 206.803C338.021 207.499 340.499 207.775 343.12 207.632C345.58 207.508 348.041 207.008 350.501 206.135C354.851 204.673 359.131 202.105 363.338 198.433C365.21 196.792 366.726 195.179 367.885 193.592C368.651 192.54 369.258 191.506 369.703 190.49C370.434 188.831 370.898 186.897 371.094 184.686C371.254 182.992 371.263 180.978 371.121 178.642C370.889 175.843 370.523 173.552 370.024 171.769C369.596 170.217 368.848 168.435 367.778 166.42Z" fill="#0A0A0A"/>
<path d="M318.916 299.338C332.609 286.394 342.933 269.848 349.886 249.701C364.863 206.269 356.189 168.301 323.864 135.798C291.807 103.598 253.099 89.914 207.741 94.7457C175.559 98.1868 147.701 108.849 124.166 126.732C100.613 144.597 84.3886 161.918 75.4918 178.695C66.5771 195.473 63.7065 218.954 66.8802 249.139C70.036 279.307 92.8308 302.824 135.265 319.69C175.31 335.612 216.683 338.839 259.384 329.372C283.561 323.987 303.405 313.976 318.916 299.338ZM239.888 112.45C285.887 117.015 317.151 140.612 333.679 183.242C341.167 202.569 341.159 221.718 333.652 240.688C321.814 270.677 302.567 292.099 275.912 304.954C265.214 310.107 253.34 313.878 240.289 316.267C197.659 324.112 158.167 316.427 121.813 293.214C82.7127 268.235 72.3894 234.626 90.8429 192.388C95.0328 182.778 99.9448 174.051 105.579 166.206C124.246 140.104 150.794 123.745 185.223 117.131C203.195 112.263 221.416 110.703 239.888 112.45Z" fill="#0A0A0A"/>
<path d="M333.679 183.242C317.151 140.612 285.887 117.015 239.888 112.45C221.416 110.703 203.195 112.263 185.223 117.131C150.794 123.745 124.246 140.104 105.579 166.206C99.9448 174.051 95.0328 182.778 90.8429 192.388C72.3895 234.626 82.7127 268.235 121.813 293.214C158.167 316.427 197.659 324.112 240.289 316.267C253.34 313.878 265.214 310.107 275.912 304.954C302.567 292.099 321.814 270.677 333.652 240.688C341.159 221.718 341.167 202.569 333.679 183.242Z" fill="white"/>
<path d="M207.554 182.68C206.966 173.302 203.569 165.136 197.365 158.183C191.427 151.568 184.144 147.12 175.515 144.837C166.974 142.537 158.327 142.101 149.573 143.527C140.248 144.989 132.038 148.742 124.942 154.786C117.846 160.795 113.058 168.256 110.58 177.171C108.708 183.893 107.763 190.757 107.745 197.764C107.727 206.696 110.634 214.506 116.464 221.192C119.816 225.435 123.658 229.224 127.99 232.558C135.354 238.174 143.716 240.715 153.076 240.18C156.714 240.02 160.306 239.69 163.854 239.19C172.983 238.032 181.167 234.626 188.405 228.974C195.394 223.483 200.485 216.592 203.676 208.301C206.832 200.082 208.125 191.541 207.554 182.68ZM160.404 156.498C170.139 155.874 178.546 158.851 185.624 165.43C190.206 169.727 192.916 174.969 193.754 181.156C194.895 189.714 193.665 197.996 190.063 206.001C186.123 214.755 179.5 220.692 170.193 223.813C161.581 226.701 152.854 227.396 144.01 225.899C143.244 225.631 142.504 225.319 141.79 224.963C135.675 221.932 130.513 217.661 126.306 212.152C125.271 210.779 124.46 209.344 123.872 207.846C121.411 201.588 120.636 194.991 121.545 188.056C122.365 181.691 124.656 175.887 128.418 170.645C133.696 163.264 140.837 158.851 149.84 157.407C153.353 156.783 156.874 156.48 160.404 156.498ZM167.438 193.191C167.973 191.996 168.303 190.73 168.428 189.393C168.57 187.949 168.445 186.558 168.053 185.221C167.643 183.777 166.966 182.573 166.021 181.61C165.379 180.951 164.63 180.407 163.774 179.979C162.954 179.551 162.071 179.248 161.126 179.07C159.433 178.731 157.578 178.767 155.564 179.177C154.048 179.462 152.871 179.917 152.033 180.541C151.481 180.951 150.964 181.495 150.482 182.172C150.126 182.689 149.751 183.34 149.359 184.124C148.913 185.052 148.601 185.854 148.423 186.531C148.209 187.405 148.129 188.582 148.182 190.062C148.2 190.828 148.245 191.461 148.316 191.96C148.423 192.656 148.583 193.271 148.797 193.806C149.421 195.357 150.759 196.748 152.809 197.978C154.146 198.78 155.385 199.27 156.526 199.449C157.525 199.609 158.595 199.574 159.736 199.342C160.788 199.128 161.777 198.771 162.704 198.272C163.649 197.773 164.487 197.158 165.218 196.427C166.145 195.517 166.885 194.439 167.438 193.191Z" fill="#0A0A0A"/>
<path d="M185.624 165.43C178.546 158.851 170.139 155.874 160.404 156.498C156.874 156.48 153.353 156.783 149.841 157.407C140.837 158.851 133.696 163.264 128.419 170.645C124.657 175.887 122.365 181.691 121.545 188.056C120.636 194.991 121.412 201.588 123.872 207.846C124.46 209.344 125.272 210.779 126.306 212.152C130.513 217.661 135.675 221.932 141.791 224.963C142.504 225.319 143.244 225.631 144.01 225.899C152.854 227.396 161.581 226.701 170.193 223.813C179.5 220.692 186.123 214.755 190.064 206.001C193.665 197.996 194.895 189.714 193.754 181.156C192.916 174.969 190.206 169.727 185.624 165.43ZM168.428 189.393C168.303 190.73 167.973 191.996 167.438 193.191C166.885 194.439 166.146 195.517 165.218 196.427C164.487 197.158 163.649 197.773 162.704 198.272C161.777 198.771 160.788 199.128 159.736 199.342C158.595 199.574 157.525 199.609 156.527 199.449C155.385 199.27 154.146 198.78 152.809 197.978C150.759 196.748 149.422 195.357 148.798 193.806C148.584 193.271 148.423 192.656 148.316 191.96C148.245 191.461 148.2 190.828 148.182 190.062C148.129 188.582 148.209 187.405 148.423 186.531C148.601 185.854 148.913 185.052 149.359 184.124C149.751 183.34 150.126 182.689 150.482 182.172C150.964 181.495 151.481 180.951 152.034 180.541C152.872 179.917 154.048 179.462 155.564 179.177C157.578 178.767 159.433 178.731 161.127 179.07C162.071 179.248 162.954 179.551 163.774 179.979C164.63 180.407 165.379 180.951 166.021 181.61C166.966 182.573 167.643 183.777 168.053 185.221C168.445 186.558 168.57 187.949 168.428 189.393Z" fill="white"/>
<path d="M308.647 199.609C308.237 198.254 307.452 197.158 306.293 196.32C305.277 195.642 304.038 195.161 302.576 194.876C301.595 194.679 300.24 194.555 298.511 194.501C293.447 194.341 285.05 194.662 273.318 195.464C262.549 196.213 254.169 196.382 248.178 195.972C246.485 195.865 245.245 195.838 244.461 195.892C243.07 195.963 241.911 196.284 240.984 196.855C239.808 197.55 238.684 198.896 237.615 200.893C233.086 209.201 231.009 219.569 231.383 231.996C231.722 243.158 234.066 252.099 238.417 258.821C241.056 262.904 244.416 266.122 248.499 268.475C252.868 270.989 257.289 272.059 261.764 271.685C264.76 271.453 268.335 270.419 272.489 268.582C276.179 266.906 279.086 265.168 281.207 263.367C282.848 261.976 284.417 260.238 285.914 258.152C287.038 256.53 288.268 254.515 289.605 252.108C296.594 239.164 301.043 225.498 302.95 211.109C303.093 210.075 303.227 209.335 303.351 208.889C303.565 208.069 303.877 207.383 304.288 206.83C304.626 206.402 305.286 205.841 306.267 205.145C307.212 204.468 307.862 203.879 308.219 203.38C308.968 202.31 309.11 201.053 308.647 199.609ZM284.336 205.413C286.066 205.249 289.15 205.106 293.59 204.985C293.621 204.973 293.648 204.955 293.67 204.931C293.679 204.955 293.688 204.973 293.697 204.985C293.792 204.991 293.899 204.973 294.018 204.931C293.896 205.04 293.771 205.147 293.643 205.252C292.983 208.455 291.717 213.599 289.846 220.684C287.509 229.561 285.77 235.169 284.631 237.506C282.901 241.036 281.965 242.961 281.822 243.282C280.895 245.368 280.191 246.928 279.71 247.963C278.854 249.728 277.971 251.181 277.062 252.322C275.547 254.265 273.46 256.03 270.804 257.617C268.308 259.097 265.767 260.078 263.182 260.559C260.311 261.076 257.664 260.898 255.239 260.024C253.545 259.4 251.967 258.402 250.505 257.029C249.168 255.799 248.009 254.337 247.028 252.643C245.459 249.951 244.229 246.42 243.338 242.052C242.143 236.258 241.697 230.65 242.001 225.23C242.304 219.329 243.48 213.873 245.531 208.863C245.852 208.096 246.182 207.588 246.52 207.338C246.913 207.017 247.652 206.857 248.74 206.857C260.561 206.928 272.426 206.447 284.336 205.413ZM172.359 166.687C170.166 165.564 167.795 164.753 165.245 164.254C160.716 163.362 155.724 163.451 150.268 164.521C146.203 165.323 143.039 166.562 140.774 168.238C139.294 169.326 137.922 170.77 136.656 172.571C135.675 173.962 134.668 175.709 133.634 177.813C132.403 180.327 131.565 182.484 131.12 184.285C130.531 186.674 130.299 189.857 130.424 193.833C130.496 195.865 130.629 197.568 130.825 198.941C131.075 200.795 131.494 202.435 132.082 203.862C133.055 206.252 134.633 208.489 136.816 210.574C132.794 212.04 129.05 213.716 125.584 215.602C124.656 216.101 123.934 216.565 123.417 216.993C122.686 217.599 122.187 218.259 121.92 218.972C121.581 219.863 121.572 221.147 121.893 222.823C122.339 225.141 123.025 226.799 123.952 227.798C124.862 228.778 126.083 229.411 127.616 229.696C128.953 229.946 130.389 229.919 131.922 229.616C132.564 229.509 133.954 229.161 136.094 228.573C137.806 228.11 139.196 227.842 140.266 227.771C140.534 228.68 141.077 229.473 141.897 230.151C142.628 230.775 143.493 231.247 144.492 231.568C145.33 231.836 146.301 231.996 147.407 232.05C148.013 232.068 149.002 232.059 150.375 232.023C150.268 233.182 150.705 234.216 151.686 235.125C152.613 236.017 153.692 236.507 154.922 236.596C156.009 236.685 157.168 236.498 158.399 236.035C159.326 235.696 160.404 235.152 161.635 234.403C162.187 234.065 164.256 232.683 167.839 230.258C170.335 228.564 172.466 227.298 174.231 226.46C175.729 225.801 176.843 225.284 177.574 224.909C178.858 224.267 179.865 223.59 180.596 222.877C180.899 222.574 181.292 222.11 181.773 221.486C182.29 220.826 182.682 220.354 182.95 220.068C183.734 219.248 184.938 218.348 186.56 217.367C188.432 216.28 190.402 215.317 192.471 214.479C193.808 213.926 194.717 213.516 195.198 213.249C196.161 212.678 196.857 212.019 197.284 211.27C197.962 210.111 198.007 208.809 197.418 207.365C196.883 206.01 195.983 204.958 194.717 204.209C193.647 203.567 192.346 203.148 190.812 202.952C189.796 202.81 188.397 202.747 186.614 202.765C185.043 202.794 183.474 202.839 181.907 202.899C182.006 202.688 182.104 202.474 182.201 202.257C183.645 199.03 184.536 195.624 184.875 192.041C185.25 188.118 184.92 184.365 183.886 180.781C182.762 176.93 180.935 173.703 178.403 171.1C176.709 169.335 174.695 167.864 172.359 166.687ZM364.007 193.217C359.835 194.448 356.474 194.965 353.925 194.769C353.39 194.733 352.329 194.581 350.742 194.314C349.423 194.1 348.362 194.002 347.559 194.02C346.401 194.02 345.349 194.234 344.404 194.662C343.334 195.143 342.549 195.829 342.05 196.721C341.515 197.737 341.417 198.869 341.756 200.117C342.095 201.33 342.728 202.328 343.655 203.113C345.17 204.396 347.39 205.172 350.314 205.439C349.226 207.829 348.558 210.307 348.308 212.874C348.166 214.515 348.264 215.977 348.602 217.26C348.995 218.812 349.708 220.015 350.742 220.871C351.812 221.744 353.131 222.19 354.7 222.208C356.144 222.244 357.562 221.941 358.952 221.299C360.058 220.799 361.27 220.033 362.59 218.999C364.105 217.786 365.237 216.877 365.986 216.271C366.289 216.039 367.493 215.165 369.597 213.65C371.059 212.598 372.217 211.68 373.073 210.895C374.25 209.843 375.427 208.569 376.604 207.071C377.459 205.983 378.467 204.566 379.626 202.819C380.784 201.089 381.56 199.565 381.952 198.245C382.487 196.427 382.371 194.876 381.605 193.592C380.945 192.469 379.866 191.675 378.369 191.212C377.103 190.819 375.676 190.695 374.09 190.837C372.271 190.998 368.91 191.791 364.007 193.217Z" fill="#0A0A0A"/>
<path d="M208.444 366.45C206.393 363.61 203.135 363.243 198.669 365.35C194.229 367.449 193.641 371.823 196.907 378.471C200.15 385.131 202.171 389.24 202.972 390.8C205.016 394.739 207.541 398.971 210.546 403.494C212.566 406.515 215.414 410.536 219.089 415.557C238.897 442.539 259.925 468.798 282.174 494.331C291.03 504.505 299.028 513.28 306.169 520.655C315.021 529.842 323.62 538.005 331.966 545.144C332.025 545.198 332.085 545.244 332.148 545.282C332.111 545.345 332.085 545.402 332.069 545.454C331.59 546.687 331.07 548.337 330.51 550.403C328.802 556.572 327.895 561.799 327.79 566.084C327.641 572.012 328.799 577.148 331.262 581.491C332.206 583.131 333.941 585.424 336.467 588.373C337.656 589.75 338.571 590.767 339.213 591.424C340.281 592.523 341.303 593.432 342.279 594.151C344.283 595.604 346.96 596.858 350.311 597.913C352.22 598.5 355.115 599.335 358.997 600.418C361.185 601.126 362.288 601.483 362.305 601.488C363.592 601.853 364.732 602.053 365.726 602.089C368.221 602.144 370.978 601.227 373.998 599.336C377.952 596.868 381.38 593.574 384.283 589.453C387.019 585.581 389.088 581.258 390.492 576.486C392.465 569.744 392.729 563.553 391.284 557.913C390.469 554.842 389.047 551.656 387.018 548.353C385.596 546.069 383.516 543.217 380.778 539.796C379.744 538.52 378.903 537.535 378.255 536.839C377.284 535.787 376.334 534.918 375.404 534.231C374.231 533.361 372.824 532.588 371.184 531.913C370.04 531.442 368.52 530.924 366.624 530.359C363.953 529.581 361.745 529.062 359.999 528.803C357.557 528.447 355.332 528.453 353.324 528.822C351.642 529.158 349.863 529.791 347.986 530.719C347.181 531.112 346.258 531.618 345.218 532.238C344.363 531.611 343.107 530.707 341.45 529.524C336.89 526.286 332.184 522.381 327.333 517.81C323.703 514.384 319.41 509.997 314.455 504.651C302.958 492.294 290.531 477.967 277.175 461.67C269.114 451.825 257.297 436.982 241.724 417.141C236.642 410.659 232.89 405.708 230.467 402.288C226.473 396.651 223.23 391.368 220.736 386.439C220.126 385.24 216.029 378.577 208.444 366.45ZM346.029 569.679C345.505 566.695 345.552 563.416 346.171 559.843C346.832 556.189 347.895 553.278 349.36 551.11C350.286 549.749 351.399 548.638 352.697 547.779C354.066 546.866 355.502 546.327 357.002 546.16C361.203 545.738 365.418 548.259 369.649 553.725C371.797 556.505 373.177 558.962 373.787 561.097C374.562 563.803 374.534 566.799 373.703 570.086C373.041 572.68 371.835 575.539 370.085 578.664C369.381 579.905 368.723 580.862 368.113 581.536C367.257 582.472 366.335 583.071 365.345 583.334C364.701 583.496 363.957 583.525 363.114 583.422C362.593 583.36 361.849 583.204 360.882 582.953C358.452 582.303 356.568 581.695 355.23 581.128C353.212 580.285 351.563 579.263 350.283 578.063C348.096 575.979 346.678 573.184 346.029 569.679Z" fill="#0A0A0A"/>
<path d="M346.171 559.843C345.552 563.416 345.505 566.695 346.029 569.679C346.678 573.184 348.096 575.979 350.284 578.063C351.563 579.263 353.212 580.285 355.23 581.128C356.568 581.695 358.452 582.303 360.882 582.953C361.849 583.204 362.593 583.36 363.114 583.422C363.958 583.525 364.701 583.496 365.345 583.334C366.335 583.071 367.258 582.472 368.113 581.536C368.723 580.862 369.381 579.905 370.086 578.664C371.836 575.539 373.041 572.68 373.703 570.086C374.534 566.799 374.562 563.803 373.787 561.097C373.177 558.962 371.798 556.505 369.649 553.725C365.418 548.259 361.203 545.738 357.002 546.16C355.502 546.327 354.066 546.866 352.697 547.779C351.399 548.638 350.286 549.749 349.36 551.11C347.895 553.278 346.832 556.189 346.171 559.843Z" fill="white"/>
</svg>
