<svg width="980" height="885" viewBox="0 0 980 885" fill="none" xmlns="http://www.w3.org/2000/svg">
<path d="M163.217 636.014C160.56 636.192 158.438 637.77 156.852 640.748C155.639 643.03 154.81 645.963 154.364 649.547C150.959 676.986 148.035 707.902 145.592 742.295C144.112 763.191 142.285 794.205 140.11 835.338C139.628 844.324 139.486 851.143 139.682 855.797C140.003 863.357 141.117 870.007 143.025 875.748C144.076 878.883 145.395 881.851 146.983 884.654H236.014C237.139 882.711 238.022 880.946 238.662 879.358C239.945 876.131 240.525 873.1 240.4 870.266C240.275 867.288 239.393 864.382 237.752 861.547C236.219 858.908 234.195 856.581 231.681 854.567C227.616 851.34 222.036 848.79 214.94 846.918C205.561 844.475 195.951 843.548 186.11 844.137C176.268 844.725 166.836 846.802 157.814 850.368C159.472 784.702 164.108 719.126 171.721 653.638C172.007 651.16 172.158 649.279 172.176 647.995C172.176 645.909 171.917 644.073 171.4 642.486C170.776 640.614 169.733 639.063 168.271 637.833C166.702 636.513 165.017 635.907 163.217 636.014ZM322.879 646.926C322.629 644.857 322.148 643.066 321.435 641.55C320.597 639.767 319.375 638.35 317.771 637.298C316.059 636.192 314.321 635.8 312.556 636.121C309.935 636.602 308.009 638.421 306.779 641.577C305.852 643.984 305.388 646.997 305.388 650.616C305.317 678.27 306.146 709.311 307.875 743.739C308.945 764.671 310.889 795.685 313.706 836.782C314.312 845.75 314.989 852.534 315.738 857.134C316.986 864.587 318.903 871.05 321.488 876.524C322.859 879.419 324.463 882.129 326.302 884.654H409.53C410.843 882.477 412.136 880.052 413.408 877.379C415.03 873.992 416.18 871.05 416.857 868.554C417.731 865.184 417.936 862.1 417.473 859.3C416.991 856.359 415.761 853.586 413.782 850.983C411.945 848.558 409.663 846.499 406.935 844.805C402.496 842.077 396.639 840.214 389.365 839.216C379.772 837.932 370.127 838.173 360.427 839.938C350.728 841.703 341.617 844.912 333.095 849.566C326.783 784.167 323.449 718.511 323.093 652.595C323.075 650.099 323.004 648.209 322.879 646.926Z" fill="#0A0A0A"/>
<path d="M295.787 110.974C292.15 109.494 287.514 109.263 281.88 110.279C276.923 111.153 272.323 112.597 268.08 114.611C263.516 116.787 259.602 119.532 256.339 122.849C252.167 127.11 248.584 132.887 245.588 140.179C242.165 148.576 239.705 158.293 238.207 169.33C237.208 176.854 236.486 186.936 236.041 199.577C235.47 216.016 235.256 230.716 235.399 243.678C235.417 245.836 235.532 247.521 235.746 248.733C236.05 250.587 236.638 252.121 237.512 253.333C238.956 255.348 241.06 256.444 243.823 256.623C246.587 256.783 248.806 255.945 250.482 254.109C251.766 252.682 252.613 250.775 253.023 248.385C253.273 246.834 253.362 244.65 253.291 241.833C252.72 217.906 253.585 194.139 255.885 170.533C263.641 171.585 271.378 170.729 279.099 167.966C286.73 165.238 293.282 161.012 298.756 155.289C302.5 151.402 305.174 147.328 306.779 143.067C307.991 139.822 308.579 136.426 308.544 132.878C308.508 129.347 307.857 125.969 306.591 122.742C305.54 120.067 304.122 117.732 302.339 115.735C300.414 113.56 298.23 111.973 295.787 110.974ZM453.978 115.36C452.73 111.794 450.822 109.004 448.255 106.989C444.315 103.941 438.957 102.719 432.182 103.325C425.834 103.896 419.817 105.795 414.129 109.022C408.406 112.267 403.69 116.475 399.982 121.645C396.88 125.942 394.312 131.157 392.28 137.29C390.853 141.605 389.436 147.319 388.027 154.433C385.781 165.898 383.695 178.851 381.769 193.293C380.575 202.136 378.997 215.16 377.035 232.366C376.768 234.541 376.67 236.244 376.741 237.474C376.848 239.364 377.294 240.951 378.078 242.234C379.326 244.285 381.306 245.452 384.016 245.738C386.69 246.005 388.91 245.301 390.675 243.625C391.834 242.502 392.752 241.004 393.43 239.132C393.875 237.848 394.285 236.092 394.66 233.863C395.587 228.443 397.022 216.81 398.966 198.962C400.552 184.467 402.398 172.914 404.502 164.302C409.137 164.266 413.283 164.035 416.938 163.607C421.341 163.072 425.371 162.207 429.026 161.012C433.162 159.657 436.898 157.857 440.232 155.61C443.833 153.168 446.784 150.315 449.084 147.052C451.206 144.057 452.819 140.678 453.925 136.916C454.959 133.35 455.494 129.615 455.529 125.71C455.583 121.895 455.066 118.445 453.978 115.36Z" fill="#0A0A0A"/>
<path d="M227.269 429.897C223.239 430.254 219.878 430.691 217.186 431.208C213.549 431.921 210.331 432.92 207.532 434.203C205.606 435.059 203.573 436.191 201.434 437.6C199.936 438.58 198.029 439.935 195.711 441.665C182.963 451.311 171.017 461.874 159.874 473.357C148.712 484.892 138.532 497.168 129.332 510.183C106.332 542.686 97.3192 572.051 102.294 598.278C105.004 612.595 111.841 625.798 122.806 637.886C132.916 649.012 145.262 657.9 159.847 664.55C163.823 666.369 168.004 668.045 172.39 669.578C181.768 672.841 192.073 675.453 203.306 677.414C215.002 679.464 230.157 681.105 248.771 682.335C259.451 683.048 268 683.36 274.419 683.271C283.832 683.146 292.301 682.272 299.825 680.65C303.266 679.901 307.073 678.867 311.245 677.548C313.955 676.692 317.69 675.426 322.451 673.75C331.758 670.434 339.246 667.59 344.916 665.219C353.01 661.831 360.178 658.319 366.418 654.681C381.965 645.624 393.572 634.855 401.239 622.375C405.393 615.617 408.54 608.058 410.68 599.696C412.641 591.993 413.702 583.836 413.862 575.225C414.005 567.54 413.434 559.339 412.151 550.62C411.081 543.364 409.432 535.296 407.203 526.417C405.456 519.392 403.699 513.375 401.934 508.365C401.025 505.797 400.071 503.346 399.073 501.01C397.557 497.515 395.926 494.27 394.178 491.275C389.739 483.644 383.98 476.593 376.902 470.121C370.341 464.148 362.861 458.861 354.464 454.261C346.922 450.161 338.533 446.532 329.297 443.376C321.488 440.72 312.645 438.268 302.767 436.022C288.593 432.795 275.479 430.709 263.427 429.764C251.41 428.801 239.357 428.846 227.269 429.897ZM214.458 451.747C218.024 450.25 222.071 449.171 226.6 448.511C230.059 448.012 234.267 447.709 239.223 447.602C262.936 447.014 286.73 449.911 310.603 456.294C326.222 460.466 339.531 465.895 350.532 472.581C363.886 480.693 373.684 490.571 379.924 502.213C381.529 505.227 383.026 508.623 384.417 512.403C384.684 513.134 384.952 513.892 385.219 514.676C386.36 517.992 387.644 522.334 389.07 527.701C391.246 535.973 392.868 543.114 393.938 549.123C395.346 556.968 396.095 564.242 396.184 570.946C396.291 578.666 395.551 585.949 393.965 592.796C392.217 600.302 389.507 607.041 385.834 613.014C379.45 623.371 369.349 632.696 355.533 640.988C341.737 649.284 327.589 654.74 313.09 657.356C312.153 657.525 311.601 657.596 311.432 657.57C287.334 662.292 259.351 662.523 227.483 658.265C183.911 652.44 151.301 637.08 129.653 612.185C120.757 598.439 118.742 584.122 123.609 569.234C128.49 554.348 135.702 540.263 145.245 526.978C154.787 513.715 163.452 502.01 171.24 491.864C179.047 481.733 186.206 473.674 192.715 467.687C199.223 461.717 203.591 457.99 205.82 456.508C208.797 454.493 211.677 452.906 214.458 451.747Z" fill="#0A0A0A"/>
<path d="M226.6 448.511C222.072 449.171 218.024 450.25 214.458 451.747C211.677 452.906 208.798 454.493 205.82 456.508C203.591 457.99 199.223 461.717 192.715 467.687C186.206 473.674 179.048 481.733 171.24 491.864C163.452 502.01 154.787 513.715 145.245 526.978C135.702 540.263 128.49 554.348 123.609 569.234C118.742 584.122 120.757 598.439 129.653 612.185C151.301 637.08 183.911 652.44 227.483 658.265C259.351 662.523 287.334 662.292 311.432 657.57C311.601 657.596 312.153 657.525 313.091 657.356C327.589 654.74 341.737 649.284 355.533 640.989C369.349 632.696 379.45 623.371 385.834 613.014C389.507 607.041 392.217 600.302 393.965 592.796C395.551 585.949 396.291 578.666 396.184 570.946C396.095 564.242 395.346 556.968 393.938 549.123C392.868 543.114 391.246 535.973 389.07 527.701C387.644 522.334 386.36 517.992 385.219 514.676C384.952 513.892 384.684 513.134 384.417 512.403C383.026 508.623 381.529 505.227 379.924 502.213C373.684 490.571 363.886 480.693 350.532 472.581C339.532 465.895 326.222 460.466 310.603 456.294C286.73 449.911 262.936 447.014 239.223 447.602C234.267 447.709 230.059 448.012 226.6 448.511Z" fill="white"/>
<path d="M429.668 409.412C421.876 409.661 414.869 409.465 408.647 408.823C405.01 408.467 402.246 408.386 400.356 408.583C397.379 408.903 395.284 409.884 394.071 411.524C392.913 413.147 392.85 415.037 393.884 417.194C394.651 418.852 395.837 420.225 397.441 421.313C396.033 423.595 395.774 425.957 396.666 428.4C397.468 430.575 399.019 432.732 401.319 434.872C402.799 436.298 405.072 438.063 408.139 440.167L692.214 638.18V638.207C692.268 640.293 692.749 642.147 693.659 643.77C694.728 645.571 696.36 646.961 698.553 647.942C700.853 648.94 702.957 649.047 704.864 648.263C706.558 647.603 707.806 646.32 708.609 644.412C709.072 643.342 709.536 641.532 709.999 638.983C710.748 634.918 712.112 630.496 714.091 625.718C715.357 622.776 717.372 618.568 720.135 613.094C731.118 591.503 738.687 575.795 742.841 565.971C750.436 548.142 755.5 531.703 758.032 516.655C758.78 512.18 759.431 507.108 759.984 501.438C760.305 498.015 760.706 492.88 761.187 486.033L763.808 449.635C764.272 443.252 764.486 438.438 764.45 435.193C764.397 429.826 763.817 425.012 762.712 420.751C761.428 415.688 759.297 411.07 756.32 406.898C753.039 402.333 749.037 398.741 744.312 396.12C740.675 394.105 736.431 392.598 731.582 391.6C727.641 390.78 723.077 390.245 717.889 389.995C714.769 389.888 712.21 389.924 710.213 390.102C707.467 390.405 705.159 391.074 703.286 392.108C702.163 392.714 701.227 393.463 700.478 394.355C698.909 394.426 697.055 394.506 694.916 394.595L656.083 396.414C609.78 398.625 575.476 400.336 553.172 401.549C515.035 403.635 480.82 405.81 450.528 408.074C440.9 408.805 433.947 409.251 429.668 409.412ZM415.681 424.575C421.529 424.558 427.992 424.362 435.07 423.987C439.545 423.773 446.989 423.283 457.401 422.516C544.658 416.169 632.076 411.872 719.654 409.626C721.811 409.572 723.469 409.429 724.628 409.198C726.411 408.841 727.757 408.19 728.667 407.245C728.988 406.942 729.255 406.612 729.469 406.256C732.036 407.005 734.488 408.297 736.824 410.134C740.265 412.826 742.787 416.062 744.392 419.842C745.765 423.051 746.576 426.742 746.826 430.914C746.968 433.499 746.879 437.234 746.558 442.12L744.499 474.64C744 482.539 743.581 488.458 743.242 492.398C742.636 498.942 741.914 504.817 741.076 510.023C738.544 525.445 733.721 541.893 726.607 559.366C721.383 572.238 713.904 587.893 704.169 606.328C701.031 612.248 698.874 616.509 697.697 619.112C697.162 620.271 696.681 621.385 696.253 622.455L477.941 471.003C463.249 460.823 452.275 453.058 445.019 447.709C433.893 439.525 424.114 431.814 415.681 424.575ZM13.0217 448.645C7.01324 455.652 2.91248 463.542 0.719463 472.314C-1.02782 479.249 0.407475 485.481 5.02529 491.008C11.7648 499.013 19.9128 505.271 29.4693 509.782C42.9484 516.112 56.7127 521.808 70.7622 526.872C71.4398 527.121 71.8766 527.469 72.0727 527.915C72.6967 529.466 73.1424 531.124 73.4099 532.889C74.1944 538.184 76.3339 542.856 79.8285 546.903C90.3121 558.956 103.283 562.637 118.741 557.948C126.657 555.595 133.539 551.467 139.388 545.566C141.937 542.98 143.39 539.887 143.747 536.285C144.086 532.827 144.335 529.359 144.496 525.882C144.674 521.906 144.148 518.01 142.918 514.195C141.545 509.934 139.602 505.895 137.088 502.08C132.523 495.126 126.221 491.32 118.18 490.66C115.844 490.464 113.526 490.295 111.226 490.152C103.132 489.314 95.7144 491.07 88.9749 495.421C83.0199 499.236 78.206 503.809 74.5331 509.14C63.7285 505.664 53.2359 501.429 43.0554 496.437C38.9546 494.422 34.8628 492.416 30.7798 490.419C26.0907 488.102 22.1593 484.946 18.9857 480.952C17.9694 479.668 17.7198 478.304 18.2368 476.86C22.9795 463.31 31.2791 452.14 43.1356 443.35C54.9921 434.578 67.9452 427.91 81.9948 423.345C95.6521 418.852 109.595 415.545 123.822 413.423C138.924 411.284 154.106 409.59 169.368 408.342C177.052 407.789 184.719 407.843 192.368 408.502C198.269 409.091 203.868 408.226 209.163 405.908C211.053 405.07 212.265 403.671 212.8 401.709C214.226 396.503 212.158 393.276 206.595 392.028C197.77 390.102 188.793 389.407 179.664 389.942C164.295 390.94 148.998 392.474 133.771 394.542C119.561 396.539 105.512 399.16 91.6226 402.405C76.5211 405.864 62.2487 411.417 48.8053 419.066C35.1659 426.84 23.238 436.699 13.0217 448.645ZM113.152 507.75C114.382 507.874 115.568 508.213 116.709 508.766C122.86 511.672 126.203 516.7 126.738 523.85C126.88 525.722 126.755 527.54 126.363 529.305C125.169 534.69 121.692 538.505 115.933 540.752C107.304 544.104 99.8598 542.312 93.6017 535.376C91.9614 533.272 90.847 530.901 90.2587 528.262C89.3315 524.108 90.0179 520.257 92.3179 516.709C97.0606 509.417 104.005 506.43 113.152 507.75Z" fill="#0A0A0A"/>
<path d="M435.07 423.987C427.992 424.361 421.528 424.558 415.68 424.575C424.114 431.814 433.893 439.525 445.019 447.709C452.275 453.058 463.249 460.823 477.941 471.003L696.253 622.455C696.68 621.385 697.162 620.271 697.697 619.112C698.873 616.509 701.031 612.248 704.169 606.328C713.904 587.893 721.383 572.238 726.607 559.366C733.721 541.893 738.544 525.445 741.076 510.023C741.914 504.817 742.636 498.942 743.242 492.398C743.581 488.458 744 482.539 744.499 474.64L746.558 442.12C746.879 437.234 746.968 433.499 746.826 430.914C746.576 426.742 745.765 423.051 744.392 419.842C742.787 416.062 740.264 412.826 736.823 410.134C734.488 408.297 732.036 407.005 729.469 406.256C729.255 406.612 728.987 406.942 728.666 407.245C727.757 408.19 726.411 408.841 724.628 409.198C723.469 409.429 721.811 409.572 719.654 409.625C632.076 411.872 544.658 416.169 457.401 422.516C446.989 423.283 439.545 423.773 435.07 423.987ZM116.708 508.766C115.567 508.213 114.382 507.874 113.151 507.75C104.005 506.43 97.0603 509.417 92.3177 516.709C90.0177 520.257 89.3313 524.108 90.2584 528.262C90.8468 530.901 91.9611 533.272 93.6014 535.376C99.8595 542.312 107.303 544.104 115.933 540.752C121.692 538.505 125.168 534.69 126.363 529.305C126.755 527.54 126.88 525.722 126.737 523.849C126.203 516.7 122.859 511.672 116.708 508.766Z" fill="white"/>
<path d="M219.566 363.251C211.222 366.407 203.787 370.428 197.262 375.313C190.201 380.608 184.139 386.973 179.076 394.408C174.03 401.843 170.339 409.822 168.003 418.344C165.668 426.849 164.776 435.585 165.329 444.553C165.9 453.521 167.87 462.088 171.24 470.254C176.089 481.95 183.604 492.381 193.785 501.545C200.756 507.839 208.503 513.125 217.025 517.404C220.27 519.009 223.622 520.48 227.081 521.817C249.172 530.321 274.837 532.835 304.077 529.359C313.83 528.2 322.771 526.497 330.902 524.251C339.353 521.897 347.572 518.768 355.56 514.863C366.864 509.301 376.661 502.525 384.951 494.538C394.062 485.784 400.739 476.12 404.983 465.547C408.21 457.524 409.966 449.109 410.251 440.301C410.269 439.891 410.278 439.481 410.278 439.071C410.421 430.691 409.208 422.587 406.641 414.76C406.16 413.28 405.856 412.229 405.732 411.605C405.5 410.392 405.509 409.331 405.758 408.422C405.919 407.798 406.293 406.996 406.882 406.015C407.559 404.91 407.987 404.116 408.165 403.635C408.968 401.549 408.727 399.267 407.443 396.788C406.463 394.881 404.885 392.919 402.71 390.905C389.623 378.834 372.774 369.928 352.163 364.187C343.641 361.816 334.227 359.935 323.921 358.544C315.809 357.457 306.226 356.574 295.172 355.897C285.312 355.29 276.816 355.023 269.684 355.094C260.467 355.166 251.998 355.781 244.278 356.94C235.416 358.277 227.179 360.381 219.566 363.251ZM234.356 377.265C240.168 375.839 246.997 374.742 254.842 373.976C269.693 372.514 284.599 372.344 299.558 373.467C314.516 374.591 329.235 376.98 343.712 380.635C351.521 382.596 358.51 384.789 364.679 387.214C367.532 388.337 369.912 389.434 371.82 390.503C374.298 391.912 376.376 393.463 378.051 395.157C379.888 397.047 381.546 399.454 383.026 402.378C383.989 404.268 385.13 406.987 386.449 410.535C388.678 416.508 390.265 421.366 391.21 425.11C392.6 430.566 393.251 435.585 393.162 440.167C393.108 442.538 392.868 444.919 392.44 447.308C391.673 451.391 390.345 455.492 388.455 459.61C385.763 465.476 382.045 471.146 377.303 476.619C372.899 481.719 367.96 486.31 362.486 490.393C357.013 494.44 351.192 497.845 345.023 500.609C340.03 502.837 334.494 504.763 328.414 506.386C323.351 507.741 317.601 508.962 311.165 510.049C297.489 512.332 284.866 513.312 273.295 512.991C259.78 512.581 247.433 510.397 236.254 506.439C224.487 502.249 214.208 496.071 205.418 487.905C204.955 487.477 204.5 487.041 204.055 486.595C194.391 477.181 188.044 466.555 185.013 454.716C183.339 448.189 184.587 439.39 188.757 428.32C192.924 417.253 198.094 408.962 204.268 403.448C210.443 397.951 212.324 394.251 209.911 392.349C207.502 390.442 209.24 387.848 215.127 384.566C220.689 381.464 227.099 379.03 234.356 377.265Z" fill="#0A0A0A"/>
<path d="M254.842 373.976C246.997 374.742 240.168 375.839 234.356 377.265C227.099 379.03 220.69 381.464 215.127 384.566C209.241 387.848 207.502 390.442 209.912 392.349C212.324 394.251 210.443 397.951 204.269 403.448C198.094 408.962 192.924 417.253 188.757 428.32C184.587 439.39 183.339 448.189 185.013 454.716C188.044 466.555 194.391 477.181 204.055 486.595C204.5 487.041 204.955 487.478 205.419 487.905C214.209 496.071 224.487 502.249 236.255 506.439C247.434 510.397 259.78 512.581 273.295 512.991C284.866 513.312 297.49 512.332 311.165 510.05C317.601 508.962 323.351 507.741 328.415 506.386C334.495 504.763 340.031 502.838 345.023 500.609C351.192 497.845 357.013 494.44 362.487 490.393C367.96 486.31 372.899 481.719 377.303 476.619C382.046 471.146 385.763 465.476 388.455 459.61C390.345 455.492 391.673 451.391 392.44 447.308C392.868 444.919 393.109 442.539 393.162 440.167C393.251 435.585 392.6 430.566 391.21 425.11C390.265 421.366 388.678 416.508 386.449 410.535C385.13 406.987 383.989 404.268 383.026 402.378C381.546 399.454 379.888 397.047 378.052 395.157C376.376 393.463 374.299 391.912 371.82 390.504C369.913 389.434 367.532 388.337 364.68 387.214C358.511 384.789 351.522 382.596 343.712 380.635C329.235 376.98 314.517 374.591 299.558 373.468C284.599 372.344 269.694 372.514 254.842 373.976Z" fill="white"/>
<path d="M494.95 274.862C490.903 260.652 482.113 250.685 468.58 244.962C460.129 241.396 451.437 240.389 442.505 241.94C428.313 244.258 417.036 251.407 408.674 263.389C400.329 275.334 397.566 288.43 400.383 302.676C403.164 316.672 410.572 327.494 422.607 335.143C434.589 342.774 447.363 344.147 460.931 339.262C473.983 334.519 483.833 326.113 490.484 314.042C497.348 301.615 498.837 288.555 494.95 274.862ZM482.728 292.406C481.747 306.919 474.758 317.439 461.761 323.964C448.085 330.846 435.623 329.179 424.372 318.963C413.265 308.872 410.234 296.73 415.279 282.538C420.04 269.112 429.079 259.814 442.398 254.643C450.207 253.271 457.571 254.537 464.488 258.441C477.664 265.912 483.744 277.233 482.728 292.406ZM468.286 269.888C467.145 268.408 465.968 267.195 464.756 266.25C461.154 263.469 456.162 262.025 449.779 261.918C445.571 261.829 442.006 262.355 439.082 263.496C438.279 263.799 437.495 264.164 436.728 264.592C435.034 265.484 433.385 266.643 431.78 268.069C429.659 269.959 427.822 272.107 426.271 274.514C424.756 276.957 423.641 279.524 422.928 282.217C422.001 285.569 421.725 289.054 422.099 292.674C422.474 296.186 423.418 299.591 424.934 302.89C425.611 304.37 426.378 305.769 427.234 307.089C428.464 308.943 429.855 310.628 431.406 312.143C434.294 314.925 437.495 316.797 441.007 317.76C443.343 318.455 445.821 318.731 448.442 318.589C450.902 318.464 453.363 317.965 455.823 317.091C460.174 315.629 464.453 313.061 468.661 309.389C470.533 307.748 472.048 306.135 473.207 304.548C473.974 303.496 474.58 302.462 475.026 301.446C475.757 299.787 476.22 297.853 476.416 295.642C476.577 293.948 476.586 291.934 476.443 289.598C476.211 286.799 475.846 284.508 475.347 282.725C474.919 281.174 474.17 279.391 473.1 277.376C472.53 276.36 471.888 275.263 471.174 274.086C470.105 272.393 469.142 270.993 468.286 269.888Z" fill="#0A0A0A"/>
<path d="M461.761 323.964C474.759 317.439 481.748 306.919 482.728 292.406C483.744 277.233 477.665 265.912 464.489 258.441C457.571 254.537 450.207 253.271 442.398 254.643C429.08 259.814 420.04 269.112 415.28 282.538C410.234 296.73 413.265 308.872 424.373 318.963C435.623 329.179 448.086 330.846 461.761 323.964ZM464.756 266.25C465.969 267.195 467.145 268.408 468.286 269.888C469.142 270.993 470.105 272.393 471.175 274.086C471.888 275.263 472.53 276.36 473.1 277.376C474.17 279.391 474.919 281.174 475.347 282.725C475.846 284.508 476.212 286.799 476.443 289.598C476.586 291.934 476.577 293.948 476.417 295.642C476.22 297.853 475.757 299.787 475.026 301.446C474.58 302.462 473.974 303.496 473.207 304.548C472.048 306.135 470.533 307.748 468.661 309.389C464.453 313.061 460.174 315.629 455.824 317.091C453.363 317.965 450.903 318.464 448.442 318.589C445.821 318.731 443.343 318.455 441.007 317.76C437.495 316.797 434.295 314.925 431.406 312.143C429.855 310.628 428.464 308.943 427.234 307.089C426.378 305.769 425.612 304.37 424.934 302.89C423.419 299.591 422.474 296.186 422.099 292.674C421.725 289.054 422.001 285.569 422.928 282.217C423.642 279.524 424.756 276.957 426.271 274.514C427.823 272.107 429.659 269.959 431.781 268.069C433.385 266.643 435.035 265.484 436.728 264.592C437.495 264.164 438.28 263.799 439.082 263.496C442.006 262.355 445.572 261.829 449.78 261.918C456.162 262.025 461.155 263.469 464.756 266.25Z" fill="white"/>
<path d="M431.914 244.802C399.857 212.602 361.15 198.918 315.792 203.75C283.611 207.189 255.743 217.842 232.19 235.709C208.652 253.594 192.428 270.924 183.515 287.699C174.621 304.474 171.75 327.947 174.904 358.116C178.077 388.302 200.881 411.828 243.315 428.694C283.36 444.616 324.733 447.843 367.434 438.375C391.611 432.991 411.455 422.98 426.967 408.342C440.66 395.398 450.983 378.852 457.936 358.705C472.913 315.272 464.239 277.305 431.914 244.802ZM293.273 226.134C311.245 221.267 329.467 219.707 347.938 221.454C393.938 226.018 425.202 249.616 441.73 292.246C449.218 311.573 449.209 330.722 441.703 349.692C429.864 379.681 410.617 401.103 383.962 413.958C373.265 419.111 361.39 422.882 348.339 425.271C305.709 433.116 266.217 425.431 229.863 402.217C190.763 377.238 180.44 343.63 198.893 301.392C203.083 291.782 207.995 283.055 213.629 275.21C232.297 249.108 258.845 232.749 293.273 226.134Z" fill="#0A0A0A"/>
<path d="M347.938 221.454C329.467 219.707 311.245 221.267 293.273 226.134C258.845 232.749 232.297 249.108 213.629 275.21C207.995 283.055 203.083 291.782 198.893 301.392C180.44 343.63 190.763 377.238 229.863 402.217C266.217 425.431 305.709 433.116 348.339 425.271C361.39 422.882 373.265 419.111 383.962 413.958C410.617 401.103 429.864 379.681 441.703 349.692C449.209 330.722 449.218 311.573 441.729 292.246C425.202 249.616 393.938 226.018 347.938 221.454Z" fill="white"/>
<path d="M315.497 271.385C309.56 264.771 302.277 260.322 293.647 258.04C285.107 255.74 276.46 255.303 267.706 256.73C258.381 258.192 250.171 261.945 243.074 267.989C235.978 273.997 231.191 281.459 228.713 290.374C226.841 297.095 225.896 303.96 225.878 310.967C225.86 319.899 228.766 327.708 234.597 334.394C237.948 338.638 241.791 342.427 246.123 345.761C253.487 351.377 261.849 353.918 271.209 353.383C274.846 353.222 278.439 352.892 281.987 352.393C291.116 351.234 299.299 347.829 306.538 342.177C313.527 336.685 318.618 329.794 321.809 321.504C324.965 313.284 326.257 304.744 325.687 295.883C325.099 286.505 321.702 278.339 315.497 271.385ZM239.678 301.258C240.498 294.893 242.789 289.09 246.551 283.848C251.829 276.467 258.969 272.054 267.973 270.61C271.486 269.986 275.007 269.683 278.537 269.7C288.272 269.076 296.678 272.054 303.757 278.633C308.339 282.93 311.049 288.172 311.887 294.359C313.028 302.917 311.798 311.198 308.196 319.204C304.256 327.958 297.632 333.895 288.325 337.015C279.714 339.904 270.986 340.599 262.143 339.101C261.376 338.834 260.636 338.522 259.923 338.165C253.808 335.134 248.646 330.864 244.438 325.355C243.404 323.982 242.593 322.547 242.005 321.049C239.544 314.791 238.769 308.194 239.678 301.258ZM291.134 277.617C288.941 276.493 286.569 275.682 284.02 275.183C279.491 274.292 274.499 274.381 269.043 275.45C264.978 276.253 261.813 277.492 259.549 279.168C258.069 280.255 256.696 281.7 255.43 283.5C254.45 284.891 253.442 286.638 252.408 288.742C251.178 291.256 250.34 293.414 249.894 295.214C249.306 297.603 249.074 300.786 249.199 304.762C249.27 306.795 249.404 308.497 249.6 309.87C249.85 311.724 250.269 313.365 250.857 314.791C252.569 318.999 256.161 322.743 261.635 326.024C265.236 328.199 268.579 329.527 271.664 330.008C274.338 330.436 277.218 330.329 280.302 329.687C283.101 329.117 285.758 328.172 288.272 326.853C290.822 325.498 293.086 323.83 295.065 321.851C297.525 319.409 299.496 316.52 300.975 313.186C302.42 309.959 303.311 306.554 303.65 302.97C304.024 299.048 303.694 295.295 302.66 291.711C301.537 287.86 299.709 284.633 297.178 282.029C295.484 280.264 293.469 278.793 291.134 277.617Z" fill="#0A0A0A"/>
<path d="M246.551 283.848C242.789 289.09 240.498 294.893 239.678 301.258C238.769 308.194 239.544 314.791 242.005 321.049C242.593 322.547 243.404 323.982 244.439 325.355C248.646 330.864 253.808 335.134 259.923 338.165C260.637 338.522 261.376 338.834 262.143 339.101C270.987 340.599 279.714 339.904 288.326 337.015C297.633 333.895 304.256 327.958 308.196 319.204C311.798 311.198 313.028 302.917 311.887 294.359C311.049 288.172 308.339 282.93 303.757 278.633C296.679 272.054 288.272 269.076 278.537 269.7C275.007 269.683 271.486 269.986 267.973 270.61C258.97 272.054 251.829 276.467 246.551 283.848ZM284.02 275.183C286.569 275.682 288.941 276.493 291.134 277.617C293.469 278.793 295.484 280.264 297.178 282.029C299.71 284.633 301.537 287.86 302.66 291.711C303.695 295.295 304.024 299.048 303.65 302.97C303.311 306.554 302.42 309.959 300.976 313.186C299.496 316.52 297.526 319.409 295.065 321.851C293.086 323.83 290.822 325.498 288.272 326.853C285.758 328.172 283.102 329.117 280.302 329.687C277.218 330.329 274.338 330.436 271.664 330.008C268.58 329.527 265.237 328.199 261.635 326.024C256.161 322.743 252.569 318.999 250.857 314.791C250.269 313.365 249.85 311.724 249.6 309.87C249.404 308.497 249.27 306.795 249.199 304.762C249.074 300.786 249.306 297.603 249.894 295.214C250.34 293.414 251.178 291.256 252.408 288.742C253.442 286.638 254.45 284.891 255.43 283.5C256.696 281.7 258.069 280.255 259.549 279.168C261.813 277.492 264.978 276.253 269.043 275.45C274.499 274.381 279.491 274.292 284.02 275.183Z" fill="white"/>
<path d="M415.146 325.087C416.019 323.679 416.643 322.52 417.018 321.611C417.57 320.273 417.802 319.025 417.713 317.866C417.642 316.797 417.312 315.789 416.723 314.844C416.135 313.899 415.377 313.16 414.45 312.625C413.523 312.09 412.507 311.804 411.401 311.769C410.296 311.733 409.262 311.947 408.299 312.411C407.033 313.035 405.865 314.131 404.796 315.7C403.672 317.661 402.834 319.115 402.282 320.059C401.248 321.86 399.482 324.312 396.986 327.414C396.059 328.573 395.337 329.42 394.82 329.955C393.982 330.846 393.144 331.551 392.306 332.068C391.058 332.834 389.551 333.36 387.786 333.645C386.449 333.859 384.827 333.94 382.919 333.886C375.823 333.69 368.959 332.442 362.326 330.142C360.4 329.482 359.063 329.063 358.314 328.885C356.781 328.546 355.426 328.511 354.249 328.778C352.556 329.188 351.218 330.204 350.238 331.827C349.239 333.485 348.999 335.134 349.516 336.775C350.336 339.449 352.948 341.499 357.352 342.926C360.579 343.995 364.76 344.985 369.895 345.894C372.961 346.465 375.6 346.866 377.811 347.098C380.699 347.401 383.365 347.49 385.807 347.365C391.851 347.026 396.879 345.413 400.891 342.525C402.192 341.597 403.503 340.438 404.822 339.048C405.785 337.996 406.917 336.641 408.219 334.983C410.804 331.649 413.113 328.35 415.146 325.087Z" fill="#0A0A0A"/>
<path d="M827.753 6.61891C827.557 6.60108 827.37 6.58326 827.192 6.56543C811.341 15.1592 798.005 26.3382 787.182 40.1025C776.378 53.9025 768.988 65.9551 765.012 76.2605C762.551 82.7147 759.716 92.2802 756.507 104.957C751.871 123.482 748.938 137.754 747.708 147.774C746.139 160.772 745.979 186.945 747.227 226.295C747.352 229.968 747.476 233.765 747.601 237.688C747.815 243.591 748.073 249.751 748.377 256.168C748.519 253.208 748.644 250.364 748.751 247.637C748.965 251.167 748.84 254.011 748.377 256.168C748.376 256.186 748.376 256.204 748.377 256.221C732.651 254.956 716.917 254.519 701.173 254.911C693.97 255.143 688.158 255.687 683.736 256.542C677.407 257.808 672.12 259.983 667.877 263.068C664.739 265.386 661.744 268.542 658.891 272.535C657.179 274.978 654.888 278.758 652.018 283.875C645.885 294.983 641.552 303.059 639.02 308.105C629.802 326.398 622.314 345.315 616.555 364.856C615.717 367.673 615.129 369.928 614.79 371.622C614.255 374.172 614.015 376.49 614.068 378.576C614.157 380.929 614.639 383.684 615.512 386.84C616.6 390.459 617.393 393.187 617.892 395.023C618.962 398.803 620.005 403.831 621.021 410.107C622.43 418.647 623.304 423.755 623.642 425.431C625.942 436.86 629.713 445.578 634.955 451.587C633.244 452.443 631.862 453.245 630.81 453.994C628.795 455.438 627.253 456.998 626.183 458.674C625.523 459.833 624.98 461.188 624.552 462.739C624.284 463.791 623.981 465.244 623.642 467.098C619.524 492.309 619.14 517.645 622.492 543.105C622.92 546.243 623.411 548.739 623.963 550.594C624.712 553.304 625.818 555.55 627.28 557.333C627.458 557.529 627.627 557.725 627.788 557.921C624.543 561.755 622.127 564.741 620.54 566.881C617.402 571.124 614.059 576.553 610.511 583.168C607.48 588.784 605.287 593.669 603.932 597.824C602.078 603.351 601.293 608.53 601.579 613.362C601.864 618.461 603.335 623.391 605.991 628.151C608.541 632.716 611.884 636.674 616.02 640.026C618.659 642.147 621.859 644.171 625.621 646.097C617.152 661.733 609.86 677.815 603.745 694.343C602.515 697.73 601.739 700.494 601.418 702.634C600.99 705.772 601.32 708.491 602.408 710.791C603.442 712.841 605.153 714.66 607.542 716.246C609.129 717.28 611.447 718.43 614.496 719.696C640.545 730.537 670.346 741.404 703.901 752.297C724.049 758.787 754.43 768.014 795.045 779.977C797.987 780.833 800.198 781.413 801.678 781.716C804.174 782.179 806.42 782.304 808.417 782.09C811.947 781.734 815.576 780.272 819.302 777.704C821.317 776.296 824.419 773.675 828.609 769.841C842.694 756.862 858.045 745.531 874.662 735.85C881.313 731.963 885.636 729.315 887.633 727.907C892.251 724.608 895.746 721.123 898.117 717.45C901.166 712.672 903.243 705.593 904.348 696.215C904.865 691.151 905.311 687.354 905.685 684.822C906.309 680.525 907.156 676.852 908.226 673.804C909.724 669.56 912.149 665.049 915.501 660.271C917.034 658.149 920.27 654.057 925.209 647.995C929.363 642.932 932.421 638.769 934.382 635.506C937.288 630.745 939.187 626.11 940.078 621.599C940.524 619.388 940.872 615.207 941.121 609.056C941.371 603.761 941.977 599.651 942.94 596.727C944.081 593.322 946.14 589.684 949.118 585.815C952.773 581.519 955.492 578.274 957.275 576.081C963.569 568.396 968.561 559.838 972.251 550.406C975.924 540.992 978.073 531.338 978.697 521.442C979.089 515.363 978.911 508.463 978.162 500.743C977.77 496.767 976.878 489.884 975.487 480.096C974.239 471.36 973.437 464.504 973.081 459.53C972.51 451.952 972.572 445.079 973.268 438.91C973.553 436.45 974.837 429.478 977.119 417.996C978.813 409.456 979.517 402.44 979.232 396.949C978.857 388.444 976.37 379.538 971.77 370.231C968.382 363.421 963.301 355.451 956.526 346.322C944.794 330.579 932.224 315.691 918.817 301.66C919.227 300.786 919.699 299.77 920.234 298.611C924.139 290.142 927.464 282.279 930.21 275.023C933.455 266.571 936.12 258.459 938.206 250.685C940.952 240.487 943.207 228.835 944.972 215.731C946.007 207.85 947.255 196.012 948.717 180.215C949.804 168.323 950.562 159.408 950.99 153.471C951.685 143.54 952.131 134.598 952.327 126.646C952.577 113.274 951.988 101.462 950.562 91.2104C948.761 78.5872 945.597 67.3102 941.068 57.3792C935.683 45.5405 928.115 35.0835 918.362 26.0084C908.609 16.8975 897.662 10.0511 885.52 5.46893C874.306 1.22554 863.064 -0.548495 851.796 0.146851C842.846 0.770879 834.831 2.92822 827.753 6.61891ZM818.259 37.0269C821.504 33.3719 824.606 30.3498 827.566 27.9607C831.203 25.0188 834.903 22.8437 838.665 21.4351C843.639 19.5452 849.63 18.7072 856.637 18.9212C866.229 19.2243 875.527 21.346 884.531 25.2863C893.517 29.2266 901.38 34.6022 908.119 41.413C917.283 50.7199 924.166 62.4516 928.766 76.6082C932.813 88.9996 934.97 102.71 935.238 117.741C935.416 128.616 934.551 142.408 932.643 159.114C931.556 168.278 930.754 175.16 930.237 179.76C929.309 187.837 928.614 194.71 928.15 200.38C927.562 209.811 927.063 216.881 926.653 221.588C925.922 229.718 924.834 236.698 923.39 242.528C922.32 246.79 920.796 251.479 918.817 256.596C917.64 259.68 915.759 264.245 913.174 270.289L905.258 288.635C904.045 287.815 902.842 287.146 901.647 286.629C898.242 285.167 895.344 285.283 892.955 286.977C889.996 289.099 889.202 292.371 890.575 296.792C891.734 300.536 893.954 304.084 897.234 307.436C902.441 312.714 910.348 320.523 920.956 330.864C930.085 340.064 937.324 348.408 942.672 355.897C949.679 365.596 954.779 375.482 957.97 385.556C961.554 396.913 962.472 407.753 960.725 418.077C960.279 420.858 958.683 427.018 955.938 436.557C953.727 444.116 952.603 450.312 952.568 455.144C952.568 459.441 953.334 464.62 954.868 470.682C955.759 474.088 957.141 479.187 959.013 485.98C962.526 500.939 962.365 516.147 958.532 531.605C954.734 547.081 947.798 560.64 937.725 572.283C936.156 574.084 933.776 576.803 930.584 580.44C927.999 583.667 926.18 586.725 925.128 589.613C924.059 592.555 923.435 596.62 923.256 601.808C923.042 608.28 922.775 612.461 922.454 614.351C921.562 619.433 919.432 624.675 916.062 630.077C913.994 633.375 910.499 638.056 905.578 644.118C900.533 650.304 897.003 654.985 894.988 658.158C891.547 663.543 889.363 668.758 888.436 673.804C888.025 675.89 887.767 678.404 887.66 681.345C887.571 683.021 887.482 685.571 887.392 688.994C887.143 695.181 886.153 700.013 884.424 703.489C882.748 706.824 880.02 709.979 876.24 712.957C874.261 714.49 870.66 716.826 865.436 719.964C849.728 729.431 834.965 740.343 821.147 752.699C818.027 755.462 815.692 757.397 814.14 758.502C811.323 760.374 808.587 761.479 805.93 761.818C804.308 762.014 802.471 761.943 800.421 761.604C799.119 761.355 797.318 760.9 795.018 760.24C740.3 744.818 686.108 727.354 632.441 707.849C631.96 707.67 631.514 707.501 631.104 707.341C631.157 707.234 631.211 707.127 631.264 707.02C631.799 706.182 632.468 704.916 633.27 703.222L639.047 691C640.17 688.611 640.901 686.97 641.24 686.079C642.203 683.422 642.952 681.426 643.486 680.088C644.182 678.377 646 674.686 648.942 669.016C651.331 664.505 652.909 660.734 653.676 657.703C653.854 657.008 653.988 656.34 654.077 655.698C657.536 656.233 661.646 656.598 666.406 656.794C669.277 656.901 673.591 657.017 679.35 657.142C684.271 657.285 689.754 657.588 695.798 658.051C699.703 658.372 705.158 658.88 712.165 659.576L761.99 664.363C767.445 664.88 771.68 665.334 774.693 665.727C779.364 666.297 783.554 666.975 787.263 667.759C790.311 668.401 792.219 668.793 792.986 668.936C795.161 669.239 797.078 669.266 798.736 669.016C800.751 668.677 802.525 667.866 804.058 666.583C805.68 665.228 806.572 663.632 806.732 661.795C806.982 659.549 806.126 657.427 804.165 655.43C802.525 653.808 800.376 652.471 797.72 651.419C792.442 649.279 786.059 647.817 778.571 647.033C777.18 646.908 770.557 646.542 758.7 645.936C752.05 645.562 744.276 644.866 735.379 643.85C725.002 642.602 717.22 641.666 712.032 641.042C705.114 640.204 699.444 639.598 695.022 639.223C688.818 638.724 683.148 638.475 678.013 638.475C674.412 638.528 671.701 638.546 669.883 638.528C666.781 638.528 664.097 638.385 661.833 638.1C659.497 637.833 656.894 637.325 654.024 636.576C652.045 636.076 649.468 635.328 646.295 634.329C642.64 633.17 639.76 632.145 637.656 631.254C634.518 630.006 631.826 628.588 629.58 627.001C626.941 625.165 624.775 623.008 623.081 620.529C621.975 618.942 621.146 617.311 620.594 615.635C620.861 615.332 621.111 615.011 621.342 614.672C621.895 613.87 622.43 612.818 622.947 611.516C623.571 610.019 624.044 608.887 624.364 608.12C625.131 606.355 626.513 603.877 628.51 600.685C630.204 598.029 632.816 594.097 636.346 588.891L646.134 574.262C647.364 572.497 648.274 571.079 648.862 570.01C649.236 569.332 649.557 568.699 649.825 568.111C661.788 571.837 675.062 575.314 689.647 578.541C700.665 580.984 717.184 584.229 739.204 588.276L800.768 599.535C803.247 600.017 805.226 600.213 806.706 600.123C808.899 599.999 810.646 599.375 811.947 598.251C813.106 597.235 813.891 595.871 814.301 594.16C814.658 592.68 814.738 591.039 814.542 589.239C814.363 587.26 813.918 585.512 813.204 583.997C812.366 582.214 811.234 580.877 809.808 579.985C808.542 579.183 806.92 578.701 804.941 578.541C804.085 578.47 802.32 578.47 799.645 578.541C795.723 578.63 791.319 578.381 786.434 577.792C783.527 577.436 779.141 576.758 773.275 575.76C745.836 571.035 725.243 567.264 711.497 564.447C688.729 559.74 668.439 554.659 650.627 549.203C648.862 548.65 647.543 548.178 646.669 547.785C645.207 547.143 644.03 546.359 643.139 545.432C642.176 544.416 641.4 543.105 640.812 541.501C640.366 540.359 639.983 538.835 639.662 536.927C638.361 529.76 637.745 521.621 637.817 512.51C637.835 506.929 638.2 498.737 638.913 487.932C639.109 485.026 639.359 482.851 639.662 481.407C640.161 479.053 640.964 477.083 642.069 475.496C643.05 474.105 644.44 472.822 646.241 471.645C647.364 470.878 649.058 469.942 651.322 468.837L690.075 449.528C695.406 446.871 699.497 444.981 702.35 443.858C706.986 442.021 711.283 440.871 715.241 440.408C720.59 439.802 726.678 440.256 733.507 441.772C735.843 442.307 741.807 444.018 751.399 446.907C759.262 449.296 768.212 451.587 778.25 453.78C784.151 455.117 793.209 456.998 805.422 459.423L878.086 473.784C884.879 475.104 889.782 476.04 892.795 476.593C898.286 477.538 903.234 478.26 907.638 478.759C911.079 479.151 914.074 478.973 916.624 478.224C919.833 477.279 921.741 475.523 922.347 472.955C922.721 471.476 922.534 469.933 921.785 468.329C921.108 466.849 920.101 465.601 918.763 464.585C917.622 463.693 916.223 462.926 914.564 462.285C913.566 461.946 912.024 461.482 909.938 460.894L851.288 444.901C829.607 438.982 813.195 434.676 802.052 431.984C783.724 427.526 767.098 424.139 752.174 421.821C744.775 420.698 738.517 419.984 733.4 419.681C726.554 419.307 720.295 419.556 714.626 420.43C709.634 421.161 704.151 422.552 698.178 424.602C694.559 425.832 689.272 427.865 682.319 430.7C672.531 434.694 664.864 437.903 659.319 440.328C658.731 440.559 658.151 440.809 657.581 441.077C656.885 440.791 656.029 440.479 655.013 440.14C653.355 439.606 652.134 439.026 651.349 438.402C650.476 437.689 649.727 436.673 649.103 435.353C648.675 434.515 648.22 433.267 647.739 431.609L640.625 407.513C639.305 402.806 638.387 399.284 637.87 396.949C637.05 392.955 636.702 389.353 636.827 386.144C636.934 383.541 637.371 380.635 638.138 377.426C638.619 375.464 639.448 372.638 640.625 368.948L652.392 331.292C653.819 326.835 654.951 323.51 655.789 321.316C657.197 317.679 658.695 314.532 660.282 311.876C663.616 306.438 668.18 301.704 673.975 297.675C679.234 294.002 685.216 291.105 691.92 288.983C697.697 287.182 704.196 285.907 711.416 285.159C716.783 284.588 723.416 284.267 731.314 284.196C741.726 284.071 753.155 284.276 765.6 284.811C774.782 285.239 786.184 285.925 799.806 286.87C810.361 287.637 818.509 288.421 824.25 289.224C833.2 290.454 841.116 292.272 847.998 294.679C852.135 296.07 854.56 296.864 855.273 297.06C858.036 297.773 860.515 297.996 862.708 297.728C865.346 297.407 867.593 296.257 869.447 294.278C871.408 292.228 872.113 290.008 871.56 287.619C871.096 285.676 869.839 284.009 867.789 282.618C866.345 281.637 864.295 280.674 861.638 279.729C838.585 271.778 815.014 265.724 790.927 261.57C790.891 260.732 790.811 259.876 790.686 259.003C790.383 257.024 789.723 254.269 788.707 250.739C783.857 233.747 780.719 222.506 779.293 217.015C776.012 204.32 773.614 192.927 772.099 182.836C768.212 156.662 769.407 133.591 775.682 113.622C777.002 109.432 778.696 104.921 780.764 100.089C782.315 96.5236 784.339 92.1376 786.835 86.9314C791.845 76.7508 796.543 68.0768 800.929 60.9094C806.492 51.8164 812.268 43.8556 818.259 37.0269Z" fill="#0A0A0A"/>
<path d="M827.566 27.9607C824.606 30.3498 821.504 33.3719 818.259 37.0269C812.269 43.8556 806.492 51.8164 800.929 60.9094C796.543 68.0768 791.845 76.7508 786.835 86.9314C784.339 92.1376 782.315 96.5236 780.764 100.089C778.696 104.921 777.002 109.432 775.683 113.622C769.407 133.591 768.212 156.662 772.099 182.836C773.614 192.927 776.012 204.32 779.293 217.015C780.719 222.506 783.857 233.747 788.707 250.739C789.723 254.269 790.383 257.024 790.686 259.003C790.811 259.876 790.891 260.732 790.927 261.57C815.014 265.724 838.585 271.778 861.638 279.729C864.295 280.674 866.345 281.637 867.789 282.618C869.84 284.009 871.097 285.676 871.56 287.619C872.113 290.008 871.409 292.228 869.447 294.278C867.593 296.257 865.347 297.407 862.708 297.728C860.515 297.996 858.037 297.773 855.273 297.06C854.56 296.863 852.135 296.07 847.999 294.679C841.117 292.272 833.2 290.454 824.25 289.224C818.509 288.421 810.361 287.637 799.806 286.87C786.184 285.925 774.782 285.239 765.6 284.811C753.155 284.276 741.727 284.071 731.314 284.196C723.416 284.267 716.783 284.588 711.417 285.159C704.196 285.907 697.697 287.182 691.92 288.983C685.216 291.105 679.235 294.002 673.975 297.675C668.18 301.704 663.616 306.438 660.282 311.876C658.695 314.532 657.197 317.679 655.789 321.317C654.951 323.51 653.819 326.835 652.392 331.292L640.625 368.948C639.448 372.638 638.619 375.464 638.138 377.426C637.371 380.635 636.934 383.541 636.827 386.144C636.703 389.353 637.05 392.955 637.87 396.949C638.387 399.284 639.306 402.806 640.625 407.513L647.739 431.609C648.22 433.267 648.675 434.515 649.103 435.353C649.727 436.673 650.476 437.689 651.349 438.402C652.134 439.026 653.355 439.606 655.013 440.14C656.03 440.479 656.885 440.791 657.581 441.077C658.151 440.809 658.731 440.559 659.319 440.328C664.864 437.903 672.531 434.694 682.319 430.7C689.273 427.865 694.559 425.832 698.178 424.602C704.151 422.552 709.634 421.161 714.626 420.43C720.296 419.556 726.554 419.307 733.4 419.681C738.517 419.984 744.775 420.698 752.175 421.821C767.098 424.139 783.724 427.526 802.052 431.984C813.196 434.676 829.608 438.982 851.288 444.901L909.938 460.894C912.024 461.482 913.566 461.946 914.565 462.285C916.223 462.926 917.622 463.693 918.763 464.585C920.101 465.601 921.108 466.849 921.786 468.329C922.534 469.933 922.722 471.476 922.347 472.955C921.741 475.523 919.833 477.279 916.624 478.224C914.074 478.973 911.079 479.151 907.638 478.759C903.234 478.26 898.286 477.538 892.795 476.593C889.782 476.04 884.879 475.104 878.086 473.785L805.422 459.423C793.209 456.998 784.152 455.117 778.25 453.78C768.212 451.587 759.262 449.296 751.399 446.907C741.807 444.018 735.843 442.307 733.507 441.772C726.679 440.256 720.59 439.802 715.241 440.408C711.283 440.871 706.986 442.021 702.35 443.858C699.498 444.981 695.406 446.871 690.075 449.528L651.323 468.837C649.058 469.942 647.365 470.878 646.241 471.645C644.441 472.822 643.05 474.105 642.069 475.496C640.964 477.083 640.161 479.053 639.662 481.407C639.359 482.851 639.11 485.026 638.913 487.932C638.2 498.737 637.835 506.929 637.817 512.51C637.746 521.621 638.361 529.76 639.662 536.927C639.983 538.835 640.367 540.359 640.812 541.5C641.401 543.105 642.176 544.416 643.139 545.432C644.03 546.359 645.207 547.143 646.669 547.785C647.543 548.178 648.862 548.65 650.627 549.203C668.439 554.659 688.729 559.74 711.497 564.447C725.243 567.264 745.836 571.035 773.276 575.76C779.142 576.758 783.528 577.436 786.434 577.792C791.319 578.381 795.723 578.63 799.645 578.541C802.32 578.47 804.085 578.47 804.941 578.541C806.92 578.702 808.542 579.183 809.808 579.985C811.234 580.877 812.367 582.214 813.205 583.997C813.918 585.512 814.364 587.26 814.542 589.239C814.738 591.039 814.658 592.68 814.301 594.16C813.891 595.871 813.107 597.235 811.948 598.251C810.646 599.375 808.899 599.999 806.706 600.124C805.226 600.213 803.247 600.017 800.769 599.535L739.204 588.276C717.184 584.229 700.666 580.984 689.647 578.541C675.063 575.314 661.789 571.837 649.825 568.111C649.558 568.699 649.237 569.332 648.862 570.01C648.274 571.079 647.365 572.497 646.134 574.262L636.346 588.891C632.816 594.097 630.204 598.029 628.51 600.685C626.513 603.877 625.131 606.355 624.365 608.12C624.044 608.887 623.571 610.019 622.947 611.517C622.43 612.818 621.895 613.87 621.343 614.672C621.111 615.011 620.861 615.332 620.594 615.635C621.146 617.311 621.976 618.942 623.081 620.529C624.775 623.008 626.941 625.165 629.58 627.001C631.826 628.588 634.518 630.006 637.656 631.254C639.76 632.145 642.64 633.17 646.295 634.329C649.468 635.328 652.045 636.076 654.024 636.576C656.894 637.325 659.497 637.833 661.833 638.1C664.097 638.385 666.781 638.528 669.883 638.528C671.702 638.546 674.412 638.528 678.013 638.475C683.148 638.475 688.818 638.724 695.023 639.223C699.444 639.598 705.114 640.204 712.032 641.042C717.22 641.666 725.003 642.602 735.379 643.85C744.276 644.866 752.05 645.562 758.7 645.936C770.557 646.542 777.18 646.908 778.571 647.033C786.059 647.817 792.442 649.279 797.72 651.419C800.376 652.471 802.525 653.808 804.165 655.43C806.126 657.427 806.982 659.549 806.733 661.795C806.572 663.632 805.681 665.228 804.058 666.583C802.525 667.866 800.751 668.678 798.736 669.016C797.078 669.266 795.161 669.239 792.986 668.936C792.219 668.793 790.312 668.401 787.263 667.759C783.554 666.975 779.364 666.297 774.693 665.727C771.68 665.335 767.445 664.88 761.99 664.363L712.165 659.576C705.159 658.88 699.703 658.372 695.798 658.051C689.754 657.588 684.271 657.285 679.35 657.142C673.592 657.017 669.277 656.901 666.406 656.794C661.646 656.598 657.536 656.233 654.077 655.698C653.988 656.34 653.854 657.008 653.676 657.704C652.91 660.735 651.332 664.505 648.942 669.016C646.001 674.686 644.182 678.377 643.487 680.088C642.952 681.426 642.203 683.422 641.24 686.079C640.901 686.971 640.17 688.611 639.047 691L633.27 703.222C632.468 704.916 631.8 706.182 631.265 707.02C631.211 707.127 631.158 707.234 631.104 707.341C631.514 707.501 631.96 707.67 632.441 707.849C686.108 727.354 740.3 744.818 795.019 760.24C797.319 760.9 799.119 761.355 800.421 761.604C802.471 761.943 804.308 762.014 805.93 761.818C808.587 761.479 811.324 760.374 814.141 758.502C815.692 757.397 818.027 755.462 821.148 752.698C834.965 740.343 849.728 729.431 865.436 719.964C870.66 716.826 874.261 714.49 876.24 712.957C880.02 709.979 882.748 706.823 884.424 703.489C886.154 700.013 887.143 695.181 887.393 688.994C887.482 685.571 887.571 683.021 887.66 681.345C887.767 678.403 888.026 675.89 888.436 673.803C889.363 668.758 891.547 663.543 894.988 658.158C897.003 654.985 900.533 650.304 905.579 644.118C910.5 638.056 913.994 633.375 916.062 630.077C919.432 624.675 921.563 619.433 922.454 614.351C922.775 612.461 923.043 608.28 923.257 601.808C923.435 596.62 924.059 592.555 925.129 589.613C926.181 586.725 927.999 583.667 930.584 580.44C933.776 576.803 936.156 574.084 937.725 572.283C947.799 560.64 954.734 547.081 958.532 531.605C962.365 516.147 962.526 500.939 959.013 485.98C957.141 479.187 955.759 474.088 954.868 470.682C953.335 464.62 952.568 459.441 952.568 455.144C952.604 450.312 953.727 444.116 955.938 436.557C958.683 427.018 960.279 420.858 960.725 418.077C962.472 407.753 961.554 396.913 957.97 385.556C954.779 375.482 949.68 365.596 942.673 355.897C937.324 348.408 930.085 340.064 920.957 330.864C910.348 320.523 902.441 312.714 897.235 307.436C893.954 304.084 891.734 300.536 890.575 296.792C889.202 292.37 889.996 289.099 892.955 286.977C895.345 285.283 898.242 285.167 901.647 286.629C902.842 287.146 904.045 287.815 905.258 288.635L913.174 270.289C915.759 264.245 917.64 259.68 918.817 256.596C920.796 251.479 922.32 246.79 923.39 242.528C924.834 236.698 925.922 229.718 926.653 221.588C927.063 216.881 927.562 209.812 928.151 200.38C928.614 194.71 929.31 187.837 930.237 179.76C930.754 175.16 931.556 168.278 932.644 159.114C934.551 142.408 935.416 128.616 935.238 117.741C934.97 102.71 932.813 88.9996 928.766 76.6082C924.166 62.4517 917.284 50.7199 908.119 41.413C901.38 34.6022 893.517 29.2266 884.531 25.2863C875.527 21.346 866.229 19.2243 856.637 18.9212C849.63 18.7072 843.639 19.5452 838.665 21.4351C834.903 22.8437 831.203 25.0188 827.566 27.9607Z" fill="white"/>
</svg>
