<svg width="262" height="377" viewBox="0 0 262 377" fill="none" xmlns="http://www.w3.org/2000/svg">
<path d="M-19.3447 364.512C-21.162 364.634 -22.6134 365.714 -23.699 367.75C-24.5284 369.312 -25.0955 371.318 -25.4005 373.77C-27.7301 392.541 -29.7303 413.69 -31.4013 437.218C-32.4137 451.513 -33.6639 472.73 -35.1519 500.868C-35.4812 507.015 -35.5788 511.681 -35.4446 514.864C-35.2251 520.036 -34.4628 524.585 -33.1577 528.513C-32.4389 530.657 -31.5363 532.688 -30.45 534.605H30.4556C31.2253 533.276 31.8291 532.069 32.2668 530.982C33.145 528.775 33.5414 526.701 33.456 524.762C33.3707 522.725 32.7669 520.737 31.6448 518.798C30.5958 516.993 29.2115 515.401 27.4917 514.023C24.7108 511.815 20.8931 510.071 16.0387 508.79C9.62313 507.119 3.049 506.485 -3.68373 506.887C-10.4165 507.29 -16.8687 508.711 -23.0403 511.15C-21.906 466.229 -18.7348 421.368 -13.5267 376.569C-13.3315 374.873 -13.2279 373.587 -13.2157 372.709C-13.2157 371.281 -13.3925 370.025 -13.7462 368.94C-14.1731 367.659 -14.8867 366.598 -15.8868 365.756C-16.9602 364.854 -18.1128 364.439 -19.3447 364.512ZM89.8792 371.977C89.7084 370.562 89.3791 369.336 88.8912 368.299C88.318 367.08 87.4825 366.11 86.3848 365.39C85.2139 364.634 84.0247 364.366 82.8172 364.585C81.0242 364.915 79.7069 366.159 78.8653 368.318C78.2311 369.964 77.914 372.025 77.914 374.501C77.8652 393.419 78.4323 414.654 79.6154 438.206C80.3473 452.525 81.6767 473.742 83.6038 501.856C84.0185 507.991 84.482 512.632 84.9943 515.779C85.8481 520.877 87.1593 525.299 88.9278 529.043C89.8654 531.024 90.9632 532.878 92.221 534.605H149.156C150.055 533.116 150.939 531.457 151.809 529.629C152.919 527.311 153.706 525.299 154.169 523.591C154.767 521.286 154.907 519.176 154.59 517.261C154.261 515.248 153.419 513.352 152.065 511.571C150.809 509.912 149.248 508.503 147.382 507.345C144.345 505.479 140.338 504.204 135.362 503.521C128.8 502.643 122.201 502.807 115.566 504.015C108.931 505.222 102.698 507.418 96.868 510.601C92.5503 465.863 90.2695 420.948 90.0256 375.855C90.0134 374.148 89.9646 372.855 89.8792 371.977Z" fill="#0A0A0A"/>
<path d="M71.3459 5.33566C68.8577 4.32332 65.6865 4.16476 61.8323 4.85999C58.4415 5.45764 55.2947 6.44558 52.3918 7.82384C49.2694 9.31187 46.5922 11.1902 44.3601 13.4588C41.506 16.3739 39.0544 20.3257 37.0053 25.3143C34.6635 31.0591 32.9803 37.7064 31.9558 45.2563C31.2728 50.4035 30.7788 57.3008 30.4739 65.9485C30.0836 77.1941 29.9372 87.2505 30.0348 96.1177C30.047 97.5935 30.1262 98.7461 30.2726 99.5755C30.48 100.844 30.8825 101.893 31.4801 102.722C32.4681 104.101 33.9073 104.851 35.7978 104.973C37.6884 105.082 39.2069 104.509 40.3534 103.253C41.2316 102.277 41.811 100.972 42.0915 99.3377C42.2623 98.2766 42.3232 96.7824 42.2744 94.8553C41.8841 78.487 42.4757 62.2284 44.0491 46.0796C49.3548 46.7992 54.6483 46.2138 59.9296 44.3233C65.1499 42.4571 69.6322 39.5664 73.3767 35.6512C75.9381 32.9923 77.7676 30.2053 78.8653 27.2902C79.6947 25.0704 80.0972 22.7468 80.0728 20.3196C80.0485 17.9046 79.6033 15.5933 78.7373 13.3857C78.0176 11.5561 77.048 9.9583 75.8283 8.59224C74.511 7.10421 73.0169 6.01869 71.3459 5.33566ZM179.563 8.33612C178.71 5.89673 177.405 3.98789 175.648 2.60964C172.953 0.523956 169.288 -0.311528 164.653 0.103169C160.311 0.493472 156.194 1.79244 152.303 4.00009C148.388 6.21994 145.162 9.09843 142.625 12.6356C140.503 15.575 138.746 19.1426 137.356 23.3384C136.38 26.2901 135.41 30.1992 134.447 35.0658C132.91 42.9084 131.483 51.7695 130.166 61.6491C129.349 67.6987 128.269 76.6086 126.927 88.3787C126.745 89.8667 126.677 91.0316 126.726 91.8732C126.799 93.166 127.104 94.2516 127.641 95.1297C128.495 96.5324 129.849 97.3313 131.703 97.5264C133.532 97.7094 135.051 97.2276 136.258 96.0811C137.051 95.3127 137.679 94.2881 138.143 93.0075C138.448 92.1293 138.728 90.9279 138.984 89.4033C139.618 85.6954 140.6 77.7369 141.93 65.5277C143.015 55.6116 144.278 47.7079 145.717 41.8168C148.888 41.7924 151.724 41.6338 154.224 41.3411C157.237 40.9752 159.993 40.3836 162.494 39.5664C165.324 38.6395 167.879 37.4076 170.16 35.8708C172.623 34.1998 174.642 32.2483 176.215 30.0162C177.667 27.9671 178.771 25.6558 179.527 23.0823C180.234 20.6429 180.6 18.0876 180.625 15.4165C180.661 12.8063 180.308 10.4462 179.563 8.33612Z" fill="#0A0A0A"/>
<path d="M24.473 223.509C21.7165 223.753 19.4173 224.052 17.5756 224.405C15.0874 224.893 12.8858 225.576 10.9709 226.454C9.65365 227.04 8.26319 227.814 6.79955 228.778C5.77501 229.449 4.46995 230.376 2.88434 231.559C-5.83649 238.157 -14.0085 245.384 -21.6316 253.239C-29.2669 261.13 -36.2313 269.528 -42.525 278.432C-58.2591 300.667 -64.4246 320.755 -61.0217 338.697C-59.1677 348.491 -54.4902 357.523 -46.9891 365.793C-40.0734 373.404 -31.627 379.484 -21.6499 384.033C-18.93 385.277 -16.0697 386.424 -13.0693 387.473C-6.65368 389.705 0.396142 391.492 8.08023 392.833C16.0814 394.236 26.4489 395.358 39.1825 396.2C46.4885 396.688 52.337 396.901 56.7279 396.84C63.1679 396.755 68.9614 396.157 74.1085 395.047C76.4626 394.535 79.0666 393.827 81.9207 392.925C83.7746 392.339 86.3299 391.473 89.5865 390.327C95.9533 388.058 101.076 386.113 104.955 384.491C110.492 382.173 115.395 379.77 119.664 377.282C130.3 371.086 138.24 363.719 143.485 355.181C146.327 350.559 148.48 345.387 149.943 339.667C151.285 334.398 152.011 328.818 152.12 322.926C152.218 317.669 151.828 312.059 150.949 306.095C150.218 301.13 149.089 295.611 147.565 289.537C146.369 284.732 145.168 280.615 143.961 277.188C143.339 275.431 142.686 273.754 142.003 272.157C140.966 269.766 139.85 267.546 138.655 265.497C135.618 260.277 131.678 255.453 126.836 251.025C122.348 246.939 117.231 243.323 111.486 240.176C106.327 237.371 100.588 234.889 94.2701 232.73C88.9279 230.912 82.8782 229.235 76.121 227.699C66.4245 225.491 57.4536 224.064 49.2084 223.417C40.9877 222.759 32.7425 222.789 24.473 223.509ZM15.7095 238.456C18.1489 237.432 20.9176 236.694 24.0156 236.243C26.3818 235.901 29.2603 235.694 32.651 235.62C48.873 235.218 65.1499 237.2 81.4816 241.567C92.1661 244.421 101.271 248.135 108.797 252.708C117.932 258.258 124.634 265.015 128.903 272.98C130.001 275.041 131.026 277.365 131.977 279.95C132.16 280.45 132.343 280.969 132.526 281.505C133.307 283.774 134.185 286.744 135.16 290.415C136.648 296.075 137.758 300.96 138.49 305.07C139.454 310.437 139.966 315.413 140.027 319.999C140.1 325.28 139.594 330.263 138.509 334.947C137.313 340.081 135.459 344.692 132.947 348.778C128.579 355.863 121.669 362.242 112.218 367.915C102.78 373.59 93.1015 377.322 83.1831 379.112C82.5419 379.227 82.1638 379.276 82.0488 379.258C65.5634 382.488 46.4202 382.647 24.6193 379.734C-5.1879 375.749 -27.4962 365.241 -42.3054 348.211C-48.3912 338.807 -49.7695 329.013 -46.4402 318.828C-43.101 308.645 -38.1673 299.009 -31.6392 289.921C-25.1112 280.848 -19.1835 272.84 -13.856 265.899C-8.51487 258.969 -3.61778 253.456 0.83526 249.36C5.28725 245.276 8.27551 242.727 9.80003 241.713C11.8369 240.335 13.8067 239.249 15.7095 238.456Z" fill="#0A0A0A"/>
<path d="M24.0155 236.243C20.9175 236.694 18.1488 237.432 15.7094 238.456C13.8067 239.249 11.8369 240.335 9.79998 241.713C8.27546 242.727 5.2872 245.276 0.835213 249.36C-3.61782 253.456 -8.51492 258.969 -13.856 265.9C-19.1835 272.84 -25.1113 280.848 -31.6392 289.921C-38.1674 299.009 -43.1011 308.645 -46.4403 318.828C-49.7695 329.013 -48.3912 338.807 -42.3055 348.211C-27.4962 365.241 -5.18795 375.749 24.6193 379.734C46.4202 382.647 65.5633 382.488 82.0487 379.258C82.1638 379.276 82.5419 379.227 83.183 379.112C93.1015 377.322 102.78 373.59 112.218 367.915C121.669 362.242 128.579 355.863 132.947 348.778C135.459 344.692 137.313 340.081 138.508 334.947C139.594 330.263 140.1 325.28 140.027 319.999C139.966 315.413 139.454 310.437 138.49 305.07C137.758 300.96 136.648 296.075 135.16 290.415C134.185 286.744 133.306 283.774 132.526 281.506C132.343 280.969 132.16 280.45 131.977 279.95C131.026 277.365 130.001 275.041 128.903 272.98C124.634 265.015 117.932 258.258 108.797 252.708C101.271 248.135 92.1661 244.421 81.4816 241.567C65.1498 237.2 48.873 235.218 32.651 235.621C29.2602 235.694 26.3818 235.901 24.0155 236.243Z" fill="white"/>
<path d="M-122.092 236.334C-126.202 241.127 -129.008 246.525 -130.508 252.525C-131.703 257.27 -130.721 261.533 -127.562 265.314C-122.952 270.79 -117.378 275.072 -110.84 278.157C-101.619 282.487 -92.2032 286.384 -82.592 289.848C-82.1285 290.019 -81.8297 290.257 -81.6955 290.562C-81.2687 291.623 -80.9637 292.757 -80.7808 293.965C-80.2441 297.587 -78.7805 300.783 -76.3899 303.551C-69.2181 311.797 -60.3448 314.315 -49.77 311.107C-44.3545 309.497 -39.6465 306.674 -35.6459 302.637C-33.9017 300.868 -32.9077 298.752 -32.6637 296.288C-32.432 293.922 -32.2612 291.55 -32.1515 289.171C-32.0295 286.451 -32.3893 283.786 -33.2309 281.176C-34.17 278.261 -35.4995 275.498 -37.2193 272.888C-40.3417 268.131 -44.6533 265.527 -50.1542 265.076C-51.752 264.942 -53.3376 264.826 -54.911 264.729C-60.4484 264.155 -65.5224 265.357 -70.1328 268.333C-74.2066 270.943 -77.4998 274.071 -80.0124 277.718C-87.4037 275.34 -94.5816 272.443 -101.546 269.028C-104.351 267.65 -107.151 266.278 -109.944 264.911C-113.152 263.326 -115.841 261.167 -118.012 258.435C-118.707 257.557 -118.878 256.624 -118.524 255.636C-115.28 246.366 -109.602 238.725 -101.491 232.711C-93.3802 226.711 -84.5191 222.149 -74.9079 219.026C-65.565 215.953 -56.027 213.69 -46.2939 212.239C-35.963 210.775 -25.5773 209.617 -15.1367 208.763C-9.8798 208.385 -4.6351 208.421 0.597398 208.873C4.63459 209.275 8.46445 208.683 12.0869 207.098C13.3798 206.525 14.2092 205.567 14.5751 204.225C15.5509 200.664 14.136 198.456 10.3306 197.603C4.29307 196.285 -1.84809 195.81 -8.09294 196.175C-18.6067 196.859 -29.0717 197.907 -39.488 199.322C-49.2089 200.688 -58.8201 202.481 -68.3216 204.701C-78.6524 207.067 -88.4161 210.867 -97.6126 216.099C-106.943 221.417 -115.103 228.162 -122.092 236.334ZM-53.5937 276.767C-52.7521 276.852 -51.941 277.084 -51.1604 277.462C-46.9525 279.45 -44.6655 282.89 -44.2996 287.781C-44.202 289.061 -44.2874 290.306 -44.5558 291.513C-45.373 295.197 -47.7514 297.807 -51.691 299.344C-57.5943 301.637 -62.6866 300.411 -66.9677 295.666C-68.0898 294.227 -68.8521 292.605 -69.2546 290.8C-69.8889 287.958 -69.4193 285.323 -67.8459 282.896C-64.6015 277.907 -59.8508 275.864 -53.5937 276.767ZM152.761 225.558C156.895 225.241 161.055 224.936 165.238 224.643C189.437 223.643 211.763 229.461 232.218 242.097C237.658 245.463 242.335 249.659 246.25 254.684C248.665 257.795 249.324 261.228 248.226 264.985C247.275 268.192 245.262 270.492 242.189 271.882C226.516 278.944 210.141 283.195 193.066 284.634C193.09 283.609 192.974 282.585 192.718 281.56C191.937 278.414 190.468 275.602 188.309 273.126C185.784 270.211 182.759 268.046 179.234 266.631C176.502 265.546 173.654 265.149 170.69 265.442C159.14 266.296 149.797 271.193 142.662 280.133C141.979 280.999 141.46 281.945 141.106 282.969C139.875 286.482 139.411 290.129 139.716 293.91C139.862 295.617 140.179 297.319 140.667 299.014C142.619 305.698 146.906 310.589 153.529 313.687C158.518 316.005 163.744 316.986 169.208 316.633C174.685 316.438 179.557 314.779 183.826 311.656C188.998 307.887 192.084 302.978 193.084 296.929L195.151 296.855C197.53 296.746 199.884 296.52 202.213 296.178C216.13 293.885 229.644 290.147 242.756 284.963C251.269 281.585 257.179 275.724 260.484 267.381C261.094 265.832 261.32 264.21 261.161 262.515C260.381 254.05 256.721 246.884 250.184 241.018C236.182 228.43 219.856 220.088 201.207 215.989C189.169 213.367 176.978 212.349 164.634 212.934C157.731 212.995 150.84 212.965 143.961 212.843C140.875 212.794 138.094 213.648 135.618 215.404C134.947 215.88 134.52 216.514 134.337 217.307C133.447 221.332 135.118 223.741 139.35 224.533C143.778 225.302 148.248 225.643 152.761 225.558ZM181.594 290.653C181.497 292.336 181.192 293.971 180.68 295.556C178.862 301.252 174.819 304.106 168.55 304.119C166 304.253 163.537 303.93 161.158 303.149C154.682 300.954 151.608 296.544 151.937 289.921C151.962 289.372 152.108 288.879 152.376 288.439C156.694 281.621 163.031 278.102 171.385 277.883C172.739 277.712 173.996 277.932 175.154 278.542C179.753 281.03 181.899 285.067 181.594 290.653Z" fill="#0A0A0A"/>
<path d="M-51.1604 277.462C-51.941 277.084 -52.7521 276.852 -53.5937 276.767C-59.8508 275.864 -64.6015 277.907 -67.8459 282.896C-69.4193 285.323 -69.8889 287.958 -69.2546 290.8C-68.8521 292.605 -68.0898 294.227 -66.9677 295.666C-62.6866 300.411 -57.5943 301.637 -51.691 299.344C-47.7514 297.807 -45.373 295.197 -44.5558 291.513C-44.2874 290.306 -44.202 289.062 -44.2996 287.781C-44.6655 282.89 -46.9525 279.45 -51.1604 277.462ZM180.68 295.556C181.192 293.971 181.497 292.336 181.594 290.653C181.899 285.067 179.753 281.03 175.154 278.542C173.996 277.932 172.739 277.712 171.385 277.883C163.03 278.103 156.694 281.621 152.376 288.439C152.108 288.879 151.962 289.373 151.937 289.921C151.608 296.544 154.682 300.954 161.158 303.149C163.537 303.93 166 304.253 168.55 304.119C174.819 304.106 178.862 301.252 180.68 295.556Z" fill="white"/>
<path d="M19.2038 177.917C13.4957 180.076 8.40954 182.826 3.94545 186.168C-0.884548 189.79 -5.03152 194.145 -8.49546 199.231C-11.9472 204.317 -14.472 209.775 -16.0698 215.605C-17.6676 221.423 -18.2774 227.4 -17.8993 233.535C-17.509 239.67 -16.1613 245.531 -13.856 251.117C-10.5385 259.118 -5.39743 266.253 1.56704 272.522C6.33606 276.828 11.6356 280.444 17.4658 283.372C19.6856 284.469 21.9787 285.476 24.3449 286.39C39.4569 292.208 57.0144 293.928 77.0175 291.55C83.6892 290.757 89.806 289.592 95.3678 288.055C101.149 286.445 106.772 284.305 112.236 281.634C119.969 277.828 126.671 273.193 132.343 267.729C138.576 261.74 143.143 255.13 146.046 247.897C148.254 242.408 149.455 236.651 149.65 230.626C149.663 230.345 149.669 230.065 149.669 229.784C149.766 224.052 148.937 218.508 147.181 213.154C146.851 212.141 146.644 211.422 146.558 210.995C146.4 210.165 146.406 209.44 146.577 208.818C146.687 208.391 146.943 207.842 147.345 207.171C147.809 206.415 148.101 205.872 148.223 205.543C148.772 204.116 148.608 202.555 147.729 200.859C147.059 199.554 145.979 198.212 144.491 196.834C135.539 188.577 124.012 182.484 109.913 178.557C104.083 176.935 97.6425 175.648 90.5927 174.697C85.0431 173.953 78.4872 173.349 70.9251 172.885C64.1802 172.471 58.3683 172.288 53.4895 172.337C47.1837 172.385 41.3901 172.806 36.1089 173.599C30.047 174.514 24.4119 175.953 19.2038 177.917ZM29.3212 187.503C33.2974 186.528 37.9689 185.778 43.3355 185.253C53.4956 184.253 63.6923 184.137 73.9255 184.906C84.1588 185.674 94.2274 187.308 104.131 189.809C109.474 191.15 114.255 192.651 118.475 194.309C120.426 195.078 122.055 195.828 123.36 196.56C125.055 197.523 126.476 198.584 127.623 199.743C128.879 201.036 130.013 202.683 131.026 204.683C131.684 205.976 132.465 207.836 133.367 210.263C134.892 214.349 135.978 217.673 136.624 220.234C137.575 223.966 138.021 227.4 137.96 230.534C137.923 232.157 137.758 233.785 137.466 235.419C136.941 238.212 136.032 241.018 134.74 243.835C132.898 247.848 130.355 251.727 127.11 255.471C124.098 258.959 120.719 262.1 116.975 264.893C113.23 267.662 109.248 269.992 105.028 271.882C101.613 273.407 97.8255 274.724 93.6663 275.834C90.2024 276.761 86.2689 277.596 81.8658 278.34C72.5107 279.902 63.8752 280.572 55.9594 280.353C46.7141 280.072 38.2677 278.578 30.6202 275.871C22.5702 273.004 15.5387 268.778 9.52557 263.192C9.20844 262.899 8.8974 262.6 8.59248 262.295C1.98172 255.855 -2.36039 248.586 -4.43387 240.487C-5.57877 236.022 -4.72498 230.003 -1.87251 222.43C0.977958 214.859 4.51508 209.187 8.73885 205.415C12.9626 201.654 14.2494 199.124 12.5992 197.822C10.951 196.518 12.1402 194.743 16.1668 192.498C19.9723 190.376 24.3571 188.711 29.3212 187.503Z" fill="#0A0A0A"/>
<path d="M43.3356 185.253C37.9689 185.778 33.2975 186.528 29.3213 187.504C24.3571 188.711 19.9723 190.376 16.1668 192.498C12.1402 194.743 10.951 196.518 12.5992 197.822C14.2494 199.124 12.9626 201.654 8.73887 205.415C4.5151 209.187 0.97798 214.859 -1.87249 222.43C-4.72496 230.003 -5.57875 236.022 -4.43385 240.487C-2.36037 248.586 1.98174 255.855 8.5925 262.295C8.89742 262.6 9.20846 262.899 9.52558 263.192C15.5387 268.778 22.5703 273.004 30.6202 275.871C38.2677 278.578 46.7141 280.072 55.9594 280.353C63.8753 280.572 72.5107 279.902 81.8658 278.34C86.2689 277.596 90.2024 276.761 93.6663 275.834C97.8255 274.724 101.613 273.407 105.028 271.882C109.248 269.992 113.23 267.662 116.975 264.893C120.719 262.1 124.098 258.959 127.11 255.471C130.355 251.727 132.898 247.848 134.74 243.835C136.033 241.018 136.941 238.212 137.466 235.419C137.758 233.785 137.923 232.157 137.96 230.534C138.021 227.4 137.575 223.966 136.624 220.234C135.978 217.673 134.892 214.349 133.367 210.263C132.465 207.836 131.684 205.976 131.026 204.683C130.013 202.683 128.879 201.036 127.623 199.743C126.476 198.584 125.055 197.523 123.36 196.56C122.055 195.828 120.427 195.078 118.475 194.309C114.255 192.651 109.474 191.15 104.131 189.809C94.2274 187.308 84.1588 185.674 73.9256 184.906C63.6923 184.137 53.4956 184.253 43.3356 185.253Z" fill="white"/>
<path d="M207.592 117.45C204.823 107.729 198.81 100.911 189.553 96.9959C183.771 94.5565 177.825 93.8674 171.715 94.9285C162.006 96.5142 154.291 101.405 148.571 109.601C142.863 117.773 140.972 126.732 142.899 136.478C144.802 146.052 149.87 153.456 158.103 158.688C166.299 163.908 175.038 164.848 184.32 161.506C193.248 158.261 199.987 152.51 204.537 144.253C209.233 135.752 210.251 126.818 207.592 117.45ZM199.231 129.452C198.56 139.38 193.779 146.577 184.887 151.041C175.532 155.749 167.007 154.608 159.31 147.619C151.712 140.716 149.638 132.41 153.09 122.701C156.347 113.517 162.53 107.156 171.642 103.619C176.984 102.68 182.021 103.546 186.754 106.217C195.767 111.327 199.926 119.072 199.231 129.452ZM189.352 114.047C188.571 113.035 187.766 112.206 186.937 111.559C184.473 109.656 181.058 108.668 176.691 108.595C173.813 108.534 171.373 108.894 169.373 109.675C168.824 109.882 168.287 110.132 167.763 110.425C166.604 111.035 165.476 111.827 164.378 112.803C162.927 114.096 161.671 115.566 160.609 117.212C159.573 118.883 158.81 120.64 158.322 122.481C157.688 124.775 157.499 127.159 157.755 129.635C158.011 132.038 158.658 134.367 159.695 136.624C160.158 137.636 160.683 138.594 161.268 139.496C162.11 140.765 163.061 141.917 164.122 142.954C166.098 144.857 168.287 146.138 170.69 146.796C172.288 147.272 173.983 147.461 175.776 147.363C177.459 147.278 179.143 146.936 180.826 146.339C183.802 145.339 186.729 143.582 189.608 141.07C190.888 139.948 191.925 138.844 192.718 137.758C193.242 137.039 193.657 136.331 193.962 135.636C194.462 134.502 194.779 133.178 194.913 131.666C195.023 130.507 195.029 129.129 194.932 127.531C194.773 125.616 194.523 124.049 194.182 122.829C193.889 121.768 193.377 120.548 192.645 119.17C192.254 118.475 191.815 117.725 191.327 116.92C190.596 115.761 189.937 114.804 189.352 114.047Z" fill="#0A0A0A"/>
<path d="M184.887 151.041C193.779 146.577 198.56 139.38 199.231 129.452C199.926 119.072 195.767 111.327 186.754 106.217C182.021 103.546 176.984 102.68 171.642 103.619C162.53 107.156 156.347 113.517 153.09 122.701C149.638 132.41 151.712 140.716 159.31 147.619C167.007 154.608 175.532 155.749 184.887 151.041ZM186.937 111.559C187.766 112.206 188.571 113.035 189.352 114.047C189.937 114.804 190.596 115.761 191.327 116.92C191.815 117.725 192.254 118.475 192.645 119.17C193.377 120.548 193.889 121.768 194.182 122.829C194.523 124.049 194.773 125.616 194.932 127.531C195.029 129.129 195.023 130.507 194.913 131.666C194.779 133.178 194.462 134.502 193.962 135.636C193.657 136.331 193.242 137.039 192.718 137.758C191.925 138.844 190.888 139.948 189.608 141.07C186.729 143.582 183.802 145.339 180.826 146.339C179.143 146.936 177.459 147.278 175.776 147.363C173.983 147.461 172.288 147.272 170.69 146.796C168.287 146.138 166.098 144.857 164.122 142.954C163.061 141.917 162.11 140.765 161.268 139.496C160.683 138.594 160.158 137.636 159.695 136.624C158.658 134.367 158.011 132.038 157.755 129.635C157.499 127.159 157.688 124.775 158.322 122.482C158.81 120.64 159.573 118.883 160.609 117.212C161.671 115.566 162.927 114.096 164.378 112.803C165.476 111.827 166.604 111.035 167.763 110.425C168.287 110.132 168.824 109.882 169.373 109.675C171.373 108.894 173.813 108.534 176.691 108.595C181.058 108.668 184.473 109.656 186.937 111.559Z" fill="white"/>
<path d="M164.47 96.8862C142.54 74.8585 116.06 65.4973 85.0309 68.8027C63.0161 71.1555 43.9522 78.4432 27.8393 90.6657C11.7377 102.901 0.638459 114.756 -5.4584 126.232C-11.5434 137.708 -13.5071 153.765 -11.3495 174.404C-9.17885 195.054 6.42108 211.148 35.4502 222.686C62.8446 233.578 91.1477 235.785 120.359 229.309C136.899 225.625 150.474 218.777 161.085 208.763C170.452 199.908 177.514 188.589 182.271 174.807C192.517 145.095 186.583 119.121 164.47 96.8862ZM69.6262 84.116C81.9207 80.7862 94.386 79.719 107.022 80.9143C138.49 84.0367 159.878 100.179 171.184 129.342C176.307 142.564 176.301 155.663 171.166 168.641C163.067 189.156 149.9 203.811 131.666 212.605C124.348 216.13 116.225 218.71 107.296 220.344C78.1335 225.711 51.1172 220.454 26.2476 204.573C-0.500328 187.485 -7.56238 164.494 5.06148 135.599C7.92777 129.025 11.288 123.055 15.1423 117.688C27.9125 99.8318 46.0738 88.641 69.6262 84.116Z" fill="#0A0A0A"/>
<path d="M107.022 80.9143C94.386 79.719 81.9207 80.7862 69.6261 84.116C46.0738 88.6411 27.9125 99.8318 15.1423 117.688C11.288 123.055 7.92776 129.025 5.06147 135.599C-7.56239 164.494 -0.500339 187.485 26.2476 204.573C51.1172 220.454 78.1335 225.711 107.296 220.344C116.225 218.71 124.348 216.13 131.666 212.605C149.9 203.811 163.067 189.156 171.166 168.641C176.301 155.663 176.307 142.564 171.184 129.342C159.878 100.179 138.49 84.0367 107.022 80.9143Z" fill="white"/>
<path d="M84.8297 115.072C80.7681 110.547 75.7856 107.504 69.8823 105.942C64.0399 104.369 58.1244 104.07 52.1357 105.046C45.7567 106.046 40.14 108.613 35.2856 112.748C30.4312 116.859 27.1563 121.963 25.4609 128.062C24.1802 132.66 23.5338 137.356 23.5216 142.149C23.5094 148.26 25.4975 153.602 29.4859 158.176C31.7789 161.079 34.4074 163.671 37.3712 165.951C42.4086 169.793 48.129 171.532 54.5324 171.166C57.0206 171.056 59.4782 170.83 61.9054 170.489C68.1503 169.696 73.7487 167.366 78.7007 163.5C83.4819 159.743 86.9641 155.029 89.1474 149.357C91.3062 143.735 92.1905 137.892 91.8002 131.83C91.3977 125.415 89.0742 119.829 84.8297 115.072ZM32.962 135.508C33.5231 131.153 35.0904 127.183 37.664 123.597C41.2743 118.548 46.1592 115.529 52.3186 114.541C54.7214 114.114 57.1303 113.907 59.5453 113.919C66.2049 113.492 71.9558 115.529 76.7979 120.03C79.9326 122.969 81.7865 126.555 82.3598 130.788C83.1404 136.642 82.2988 142.308 79.835 147.784C77.1395 153.773 72.6083 157.834 66.2415 159.969C60.3503 161.945 54.3799 162.42 48.3302 161.396C47.8058 161.213 47.2996 160.999 46.8117 160.755C42.6281 158.682 39.0971 155.761 36.2186 151.992C35.5112 151.053 34.9563 150.071 34.5538 149.046C32.8706 144.765 32.34 140.252 32.962 135.508ZM68.1625 119.335C66.6623 118.566 65.0401 118.011 63.2959 117.67C60.1979 117.06 56.7827 117.121 53.0504 117.853C50.2695 118.402 48.1046 119.249 46.5556 120.396C45.5432 121.14 44.6041 122.128 43.7381 123.36C43.0672 124.311 42.3781 125.506 41.6707 126.945C40.8291 128.665 40.2558 130.141 39.9509 131.373C39.5484 133.007 39.3898 135.185 39.4752 137.904C39.524 139.295 39.6155 140.46 39.7497 141.399C39.9204 142.667 40.207 143.79 40.6095 144.765C41.7804 147.644 44.2381 150.205 47.9826 152.449C50.4464 153.937 52.7333 154.846 54.8434 155.175C56.673 155.468 58.6428 155.395 60.7528 154.956C62.6678 154.566 64.4851 153.919 66.2049 153.017C67.949 152.09 69.4981 150.949 70.8519 149.595C72.5351 147.924 73.8829 145.948 74.8952 143.668C75.8832 141.46 76.493 139.13 76.7248 136.679C76.9809 133.995 76.7553 131.428 76.0478 128.976C75.2794 126.342 74.0292 124.134 72.2973 122.353C71.1386 121.146 69.7603 120.14 68.1625 119.335Z" fill="#0A0A0A"/>
<path d="M37.664 123.598C35.0904 127.183 33.5231 131.154 32.962 135.508C32.34 140.252 32.8706 144.765 34.5537 149.047C34.9562 150.071 35.5112 151.053 36.2186 151.992C39.0971 155.761 42.6281 158.682 46.8117 160.756C47.2996 161 47.8057 161.213 48.3302 161.396C54.3799 162.42 60.3503 161.945 66.2415 159.969C72.6083 157.834 77.1394 153.773 79.835 147.784C82.2988 142.308 83.1404 136.642 82.3597 130.788C81.7865 126.555 79.9325 122.969 76.7979 120.03C71.9557 115.529 66.2049 113.492 59.5453 113.919C57.1303 113.907 54.7214 114.114 52.3186 114.541C46.1591 115.529 41.2743 118.548 37.664 123.598ZM63.2959 117.67C65.04 118.011 66.6623 118.566 68.1625 119.335C69.7603 120.14 71.1385 121.146 72.2973 122.353C74.0292 124.134 75.2794 126.342 76.0478 128.976C76.7552 131.428 76.9809 133.995 76.7247 136.679C76.493 139.13 75.8832 141.46 74.8952 143.668C73.8828 145.948 72.5351 147.924 70.8519 149.595C69.498 150.949 67.949 152.09 66.2049 153.017C64.4851 153.919 62.6678 154.566 60.7528 154.956C58.6428 155.395 56.6729 155.468 54.8434 155.175C52.7333 154.846 50.4464 153.937 47.9826 152.449C44.2381 150.205 41.7804 147.644 40.6095 144.765C40.207 143.79 39.9204 142.667 39.7496 141.399C39.6155 140.46 39.524 139.295 39.4752 137.905C39.3898 135.185 39.5484 133.007 39.9509 131.373C40.2558 130.141 40.8291 128.665 41.6707 126.946C42.3781 125.506 43.0672 124.311 43.7381 123.36C44.604 122.128 45.5432 121.14 46.5555 120.396C48.1046 119.249 50.2695 118.402 53.0504 117.853C56.7827 117.121 60.1978 117.06 63.2959 117.67Z" fill="white"/>
<path d="M152.998 151.809C153.596 150.845 154.023 150.053 154.279 149.431C154.657 148.516 154.816 147.662 154.755 146.869C154.706 146.137 154.48 145.448 154.078 144.802C153.675 144.155 153.157 143.649 152.523 143.283C151.889 142.917 151.193 142.722 150.437 142.698C149.681 142.674 148.973 142.82 148.315 143.137C147.449 143.564 146.65 144.314 145.918 145.387C145.15 146.729 144.576 147.723 144.198 148.37C143.491 149.601 142.283 151.278 140.576 153.401C139.942 154.194 139.448 154.773 139.094 155.139C138.521 155.749 137.947 156.23 137.374 156.584C136.52 157.109 135.49 157.468 134.282 157.664C133.367 157.81 132.258 157.865 130.952 157.828C126.098 157.694 121.402 156.84 116.865 155.267C115.548 154.816 114.633 154.529 114.121 154.407C113.072 154.175 112.145 154.151 111.34 154.334C110.181 154.614 109.266 155.31 108.595 156.42C107.912 157.554 107.748 158.682 108.101 159.804C108.662 161.634 110.449 163.036 113.462 164.012C115.67 164.744 118.53 165.421 122.043 166.043C124.14 166.433 125.946 166.708 127.458 166.866C129.434 167.074 131.257 167.135 132.928 167.049C137.063 166.817 140.503 165.714 143.247 163.738C144.137 163.103 145.034 162.311 145.936 161.359C146.595 160.64 147.37 159.713 148.26 158.578C150.029 156.298 151.608 154.041 152.998 151.809Z" fill="#0A0A0A"/>
</svg>
