<svg width="1124" height="803" viewBox="0 0 1124 803" fill="none" xmlns="http://www.w3.org/2000/svg">
<path d="M136.918 526.984C136.811 526.663 136.704 526.342 136.598 526.021C136.491 525.7 136.384 525.379 136.277 525.058C136.063 524.737 135.849 524.416 135.635 524.095C135.421 523.792 135.207 523.48 134.993 523.159C134.565 522.838 134.137 522.517 133.709 522.196C133.067 521.875 132.425 521.554 131.784 521.234C130.839 521.02 129.885 520.806 128.922 520.592C128.922 520.699 128.922 520.806 128.922 520.913C128.173 520.913 127.424 520.913 126.675 520.913C126.141 521.127 125.606 521.341 125.071 521.554C124.554 521.875 124.028 522.196 123.493 522.517C123.172 522.838 122.851 523.159 122.53 523.48C122.316 523.783 122.102 524.095 121.888 524.416C121.674 524.737 121.46 525.058 121.246 525.379C121.139 525.7 121.032 526.021 120.925 526.342C120.818 526.663 120.712 526.984 120.605 527.304C120.605 527.625 120.605 527.946 120.605 528.267C120.498 528.588 120.391 528.909 120.284 529.23C120.284 529.551 120.284 529.863 120.284 530.166C120.284 530.487 120.284 530.808 120.284 531.129C120.284 531.45 120.284 531.771 120.284 532.092C120.284 532.413 120.284 532.733 120.284 533.054C120.284 533.375 120.284 533.696 120.284 534.017C120.284 534.338 120.284 534.659 120.284 534.98C120.284 535.301 120.284 535.622 120.284 535.943C120.284 536.264 120.284 536.576 120.284 536.879C120.284 537.2 120.284 537.521 120.284 537.842C120.284 538.163 120.284 538.483 120.284 538.804C120.284 539.125 120.284 539.446 120.284 539.767C120.284 540.088 120.284 540.409 120.284 540.73C120.284 541.051 120.284 541.372 120.284 541.693C120.284 542.014 120.284 542.335 120.284 542.656C120.284 542.959 120.284 543.271 120.284 543.592C120.284 543.913 120.284 544.233 120.284 544.554C120.284 544.875 120.284 545.196 120.284 545.517C120.284 545.838 120.284 546.159 120.284 546.48C120.284 546.801 120.284 547.122 120.284 547.443C120.284 547.764 120.284 548.085 120.284 548.406C120.284 548.726 120.284 549.047 120.284 549.368C120.284 549.671 120.284 549.983 120.284 550.304C120.284 550.625 120.284 550.946 120.284 551.267C120.284 551.588 120.284 551.909 120.284 552.23C120.284 552.551 120.284 552.872 120.284 553.193C120.284 553.514 120.284 553.835 120.284 554.155C120.284 554.476 120.284 554.797 120.284 555.118C120.284 555.439 120.284 555.751 120.284 556.054C120.284 556.375 120.284 556.696 120.284 557.017C120.284 557.338 120.284 557.659 120.284 557.98C120.284 558.301 120.284 558.622 120.284 558.943C120.284 559.264 120.284 559.585 120.284 559.905C120.284 560.226 120.284 560.547 120.284 560.868C120.284 561.189 120.284 561.51 120.284 561.831C120.284 562.152 120.284 562.464 120.284 562.767C120.284 563.088 120.284 563.409 120.284 563.73C120.284 564.051 120.284 564.372 120.284 564.693C120.284 565.014 120.284 565.335 120.284 565.655C120.284 565.976 120.284 566.297 120.284 566.618C120.284 566.939 120.284 567.26 120.284 567.581C120.284 567.902 120.284 568.223 120.284 568.544C120.284 568.847 120.284 569.159 120.284 569.48C120.284 569.801 120.284 570.122 120.284 570.443C120.284 570.764 120.284 571.084 120.284 571.405C120.284 571.726 120.284 572.047 120.284 572.368C120.284 572.689 120.284 573.01 120.284 573.331C120.284 573.652 120.284 573.973 120.284 574.294C120.284 574.615 120.284 574.927 120.284 575.23C120.284 575.551 120.284 575.872 120.284 576.193C120.284 576.514 120.284 576.834 120.284 577.155C120.284 577.476 120.284 577.797 120.284 578.118C120.284 578.439 120.284 578.76 120.284 579.081C120.284 579.402 120.284 579.723 120.284 580.044C120.284 580.365 120.284 580.686 120.284 581.007C120.284 581.327 120.284 581.639 120.284 581.943C120.284 582.264 120.284 582.584 120.284 582.905C120.284 583.226 120.284 583.547 120.284 583.868C120.284 584.189 120.284 584.51 120.284 584.831C120.284 585.152 120.284 585.473 120.284 585.794C120.284 586.115 120.284 586.436 120.284 586.757C120.284 587.077 120.284 587.398 120.284 587.719C120.284 588.022 120.284 588.334 120.284 588.655C120.284 588.976 120.284 589.297 120.284 589.618C120.284 589.939 120.284 590.26 120.284 590.581C120.284 590.902 120.284 591.223 120.284 591.544C120.284 591.865 120.284 592.186 120.284 592.507C120.284 592.827 120.284 593.148 120.284 593.469C120.284 593.79 120.284 594.111 120.284 594.432C120.284 594.735 120.284 595.047 120.284 595.368C120.284 595.689 120.284 596.01 120.284 596.331C120.284 596.652 120.284 596.973 120.284 597.294C120.284 597.615 120.284 597.936 120.284 598.256C120.284 598.577 120.284 598.898 120.284 599.219C120.284 599.54 120.284 599.861 120.284 600.182C120.284 600.503 120.284 600.815 120.284 601.118C120.284 601.439 120.284 601.76 120.284 602.081C120.284 602.402 120.284 602.723 120.284 603.044C120.284 603.365 120.284 603.686 120.284 604.006C120.284 604.327 120.284 604.648 120.284 604.969C120.284 605.29 120.284 605.611 120.284 605.932C120.284 606.253 120.284 606.574 120.284 606.895C120.284 607.216 120.284 607.528 120.284 607.831C120.284 608.152 120.284 608.473 120.284 608.794C120.284 609.115 120.284 609.436 120.284 609.756C120.284 610.077 120.284 610.398 120.284 610.719C120.284 611.04 120.284 611.361 120.284 611.682C120.284 612.003 120.284 612.324 120.284 612.645C120.284 612.966 120.284 613.287 120.284 613.608C120.284 613.911 120.284 614.223 120.284 614.544C120.284 614.865 120.284 615.185 120.284 615.506C120.284 615.827 120.284 616.148 120.284 616.469C120.284 616.79 120.284 617.111 120.284 617.432C120.284 617.753 120.284 618.074 120.284 618.395C120.284 618.716 120.284 619.037 120.284 619.358C120.284 619.679 120.284 619.999 120.284 620.32C120.284 620.623 120.284 620.935 120.284 621.256C120.284 621.577 120.284 621.898 120.284 622.219C120.284 622.54 120.284 622.861 120.284 623.182C120.284 623.503 120.284 623.824 120.284 624.145C120.284 624.466 120.284 624.787 120.284 625.108C120.284 625.428 120.284 625.749 120.284 626.07C120.284 626.391 120.284 626.703 120.284 627.006C120.284 627.327 120.284 627.648 120.284 627.969C120.284 628.29 120.284 628.611 120.284 628.932C120.284 629.253 120.284 629.574 120.284 629.895C120.284 630.216 120.284 630.537 120.284 630.858C120.284 631.178 120.284 631.499 120.284 631.82C120.284 632.141 120.284 632.462 120.284 632.783C120.284 633.086 120.284 633.398 120.284 633.719C120.284 634.04 120.284 634.361 120.284 634.682C120.284 635.003 120.284 635.324 120.284 635.645C120.284 635.966 120.284 636.287 120.284 636.608C120.284 636.928 120.284 637.249 120.284 637.57C120.284 637.891 120.284 638.212 120.284 638.533C120.284 638.854 120.284 639.175 120.284 639.496C120.284 639.799 120.284 640.111 120.284 640.432C120.284 640.753 120.284 641.074 120.284 641.395C120.284 641.716 120.284 642.037 120.284 642.357C120.284 642.678 120.284 642.999 120.284 643.32C120.284 643.641 120.284 643.962 120.284 644.283C120.284 644.604 120.284 644.925 120.284 645.246C120.284 645.567 120.284 645.879 120.284 646.182C120.284 646.503 120.284 646.824 120.284 647.145C120.284 647.466 120.284 647.787 120.284 648.107C120.284 648.428 120.284 648.749 120.284 649.07C120.284 649.391 120.284 649.712 120.284 650.033C120.284 650.354 120.284 650.675 120.284 650.996C120.284 651.317 120.284 651.638 120.284 651.959C120.284 652.28 120.284 652.592 120.284 652.895C120.284 653.216 120.284 653.537 120.284 653.857C120.284 654.178 120.284 654.499 120.284 654.82C120.284 655.141 120.284 655.462 120.284 655.783C120.284 656.104 120.284 656.425 120.284 656.746C120.284 657.067 120.284 657.388 120.284 657.709C120.284 658.03 120.284 658.35 120.284 658.671C120.284 658.974 120.284 659.286 120.284 659.607C120.284 659.928 120.284 660.249 120.284 660.57C120.284 660.891 120.284 661.212 120.284 661.533C120.284 661.854 120.284 662.175 120.284 662.496C120.284 662.817 120.284 663.138 120.284 663.459C120.284 663.779 120.284 664.1 120.284 664.421C120.284 664.639 120.284 664.853 120.284 665.063L40.1316 637.784C34.0518 635.716 29.4518 634.254 26.3316 633.398C21.1611 631.99 16.4453 631.116 12.1841 630.777C8.74298 630.474 6.12202 630.858 4.32125 631.927C3.09103 632.676 2.09259 633.782 1.32593 635.244C0.648414 636.563 0.229436 638.025 0.0689716 639.63C-0.0558341 640.967 -0.0112607 642.482 0.202692 644.176C0.327498 645.05 0.585998 646.556 0.978244 648.696C2.85033 658.823 3.81313 669.084 3.86662 679.478C3.88445 682.081 3.86663 685.977 3.81314 691.165C3.86663 695.676 4.14295 699.536 4.64217 702.746C5.53364 708.308 7.21856 712.686 9.69684 715.877C11.1945 717.82 13.0042 719.336 15.1259 720.423C17.3724 721.582 19.6367 722.082 21.9189 721.921C25.5561 721.654 29.2557 719.666 33.0177 715.957C36.5835 712.48 39.57 708.362 41.9769 703.601C44.2591 699.108 45.9351 694.268 47.0048 689.079C48.8769 680.058 48.9125 669.868 47.1118 658.511C71.8946 666.588 96.8201 675.128 121.888 684.132C123.157 684.583 124.28 684.948 125.258 685.228C125.414 685.316 125.566 685.405 125.713 685.496C126.782 685.71 127.852 685.924 128.922 686.138C129.308 686.082 129.691 686.029 130.072 685.977C131.229 685.956 132.29 685.76 133.254 685.389C135.697 684.462 137.302 682.563 138.068 679.692C138.682 677.408 138.513 675.393 137.56 673.648C137.56 673.335 137.56 673.023 137.56 672.712C137.56 672.391 137.56 672.079 137.56 671.776C137.56 671.455 137.56 671.134 137.56 670.813C137.56 670.492 137.56 670.171 137.56 669.85C137.56 669.529 137.56 669.209 137.56 668.888C137.56 668.567 137.56 668.246 137.56 667.925C137.56 667.604 137.56 667.283 137.56 666.962C137.56 666.641 137.56 666.32 137.56 665.999C137.56 665.678 137.56 665.366 137.56 665.063C137.56 664.742 137.56 664.421 137.56 664.1C137.56 663.779 137.56 663.459 137.56 663.138C137.56 662.817 137.56 662.496 137.56 662.175C137.56 661.854 137.56 661.533 137.56 661.212C137.56 660.891 137.56 660.57 137.56 660.249C137.56 659.928 137.56 659.607 137.56 659.286C137.56 658.983 137.56 658.671 137.56 658.35C137.56 658.029 137.56 657.709 137.56 657.388C137.56 657.067 137.56 656.746 137.56 656.425C137.56 656.104 137.56 655.783 137.56 655.462C137.56 655.141 137.56 654.82 137.56 654.499C137.56 654.178 137.56 653.857 137.56 653.536C137.56 653.216 137.56 652.895 137.56 652.574C137.56 652.271 137.56 651.959 137.56 651.638C137.56 651.317 137.56 650.996 137.56 650.675C137.56 650.354 137.56 650.033 137.56 649.712C137.56 649.391 137.56 649.07 137.56 648.749C137.56 648.428 137.56 648.107 137.56 647.787C137.56 647.466 137.56 647.145 137.56 646.824C137.56 646.503 137.56 646.191 137.56 645.888C137.56 645.567 137.56 645.246 137.56 644.925C137.56 644.604 137.56 644.283 137.56 643.962C137.56 643.641 137.56 643.32 137.56 642.999C137.56 642.678 137.56 642.357 137.56 642.037C137.56 641.716 137.56 641.395 137.56 641.074C137.56 640.753 137.56 640.432 137.56 640.111C137.56 639.808 137.56 639.496 137.56 639.175C137.56 638.854 137.56 638.533 137.56 638.212C137.56 637.891 137.56 637.57 137.56 637.249C137.56 636.928 137.56 636.607 137.56 636.287C137.56 635.966 137.56 635.645 137.56 635.324C137.56 635.003 137.56 634.682 137.56 634.361C137.56 634.04 137.56 633.719 137.56 633.398C137.56 633.095 137.56 632.783 137.56 632.462C137.56 632.141 137.56 631.82 137.56 631.499C137.56 631.178 137.56 630.858 137.56 630.537C137.56 630.216 137.56 629.895 137.56 629.574C137.56 629.253 137.56 628.932 137.56 628.611C137.56 628.29 137.56 627.969 137.56 627.648C137.56 627.327 137.56 627.015 137.56 626.712C137.56 626.391 137.56 626.07 137.56 625.749C137.56 625.428 137.56 625.108 137.56 624.787C137.56 624.466 137.56 624.145 137.56 623.824C137.56 623.503 137.56 623.182 137.56 622.861C137.56 622.54 137.56 622.219 137.56 621.898C137.56 621.577 137.56 621.256 137.56 620.935C137.56 620.615 137.56 620.303 137.56 619.999C137.56 619.678 137.56 619.358 137.56 619.037C137.56 618.716 137.56 618.395 137.56 618.074C137.56 617.753 137.56 617.432 137.56 617.111C137.56 616.79 137.56 616.469 137.56 616.148C137.56 615.827 137.56 615.506 137.56 615.185C137.56 614.865 137.56 614.544 137.56 614.223C137.56 613.92 137.56 613.608 137.56 613.287C137.56 612.966 137.56 612.645 137.56 612.324C137.56 612.003 137.56 611.682 137.56 611.361C137.56 611.04 137.56 610.719 137.56 610.398C137.56 610.077 137.56 609.756 137.56 609.436C137.56 609.115 137.56 608.794 137.56 608.473C137.56 608.152 137.56 607.831 137.56 607.51C137.56 607.207 137.56 606.895 137.56 606.574C137.56 606.253 137.56 605.932 137.56 605.611C137.56 605.29 137.56 604.969 137.56 604.648C137.56 604.327 137.56 604.006 137.56 603.686C137.56 603.365 137.56 603.044 137.56 602.723C137.56 602.402 137.56 602.081 137.56 601.76C137.56 601.439 137.56 601.127 137.56 600.824C137.56 600.503 137.56 600.182 137.56 599.861C137.56 599.54 137.56 599.219 137.56 598.898C137.56 598.577 137.56 598.256 137.56 597.936C137.56 597.615 137.56 597.294 137.56 596.973C137.56 596.652 137.56 596.331 137.56 596.01C137.56 595.689 137.56 595.368 137.56 595.047C137.56 594.726 137.56 594.414 137.56 594.111C137.56 593.79 137.56 593.469 137.56 593.148C137.56 592.827 137.56 592.507 137.56 592.186C137.56 591.865 137.56 591.544 137.56 591.223C137.56 590.902 137.56 590.581 137.56 590.26C137.56 589.939 137.56 589.618 137.56 589.297C137.56 588.976 137.56 588.655 137.56 588.334C137.56 588.031 137.56 587.719 137.56 587.398C137.56 587.077 137.56 586.757 137.56 586.436C137.56 586.115 137.56 585.794 137.56 585.473C137.56 585.152 137.56 584.831 137.56 584.51C137.56 584.189 137.56 583.868 137.56 583.547C137.56 583.226 137.56 582.905 137.56 582.584C137.56 582.264 137.56 581.952 137.56 581.648C137.56 581.327 137.56 581.007 137.56 580.686C137.56 580.365 137.56 580.044 137.56 579.723C137.56 579.402 137.56 579.081 137.56 578.76C137.56 578.439 137.56 578.118 137.56 577.797C137.56 577.476 137.56 577.155 137.56 576.834C137.56 576.514 137.56 576.193 137.56 575.872C137.56 575.551 137.56 575.239 137.56 574.936C137.56 574.615 137.56 574.294 137.56 573.973C137.56 573.652 137.56 573.331 137.56 573.01C137.56 572.689 137.56 572.368 137.56 572.047C137.56 571.726 137.56 571.405 137.56 571.085C137.56 570.764 137.56 570.443 137.56 570.122C137.56 569.801 137.56 569.48 137.56 569.159C137.56 568.856 137.56 568.544 137.56 568.223C137.56 567.902 137.56 567.581 137.56 567.26C137.56 566.939 137.56 566.618 137.56 566.297C137.56 565.976 137.56 565.655 137.56 565.335C137.56 565.014 137.56 564.693 137.56 564.372C137.56 564.051 137.56 563.73 137.56 563.409C137.56 563.088 137.56 562.767 137.56 562.446C137.56 562.143 137.56 561.831 137.56 561.51C137.56 561.189 137.56 560.868 137.56 560.547C137.56 560.226 137.56 559.905 137.56 559.585C137.56 559.264 137.56 558.943 137.56 558.622C137.56 558.301 137.56 557.98 137.56 557.659C137.56 557.338 137.56 557.017 137.56 556.696C137.56 556.375 137.56 556.063 137.56 555.76C137.56 555.439 137.56 555.118 137.56 554.797C137.56 554.476 137.56 554.156 137.56 553.835C137.56 553.514 137.56 553.193 137.56 552.872C137.56 552.551 137.56 552.23 137.56 551.909C137.56 551.588 137.56 551.267 137.56 550.946C137.56 550.625 137.56 550.304 137.56 549.983C137.56 549.662 137.56 549.35 137.56 549.047C137.56 548.726 137.56 548.406 137.56 548.085C137.56 547.764 137.56 547.443 137.56 547.122C137.56 546.801 137.56 546.48 137.56 546.159C137.56 545.838 137.56 545.517 137.56 545.196C137.56 544.875 137.56 544.554 137.56 544.233C137.56 543.913 137.56 543.592 137.56 543.271C137.56 542.968 137.56 542.656 137.56 542.335C137.56 542.014 137.56 541.693 137.56 541.372C137.56 541.051 137.56 540.73 137.56 540.409C137.56 540.088 137.56 539.767 137.56 539.446C137.56 539.125 137.56 538.804 137.56 538.483C137.56 538.163 137.56 537.842 137.56 537.521C137.56 537.2 137.56 536.879 137.56 536.558C137.56 536.255 137.56 535.943 137.56 535.622C137.56 535.301 137.56 534.98 137.56 534.659C137.56 534.338 137.56 534.017 137.56 533.696C137.56 533.375 137.56 533.054 137.56 532.733C137.56 532.413 137.56 532.092 137.56 531.771C137.56 531.45 137.56 531.129 137.56 530.808C137.56 530.487 137.56 530.175 137.56 529.872C137.453 529.551 137.346 529.23 137.239 528.909C137.239 528.588 137.239 528.267 137.239 527.946C137.132 527.625 137.025 527.304 136.918 526.984Z" fill="#0A0A0A"/>
<path d="M375.208 741.605C370.519 741.819 365.295 742.416 359.536 743.397C356.113 744.003 353.287 744.636 351.058 745.295C350.559 745.438 350.087 745.607 349.641 745.803C348.375 740.918 346.708 734.803 344.64 727.457L302.759 577.877C297.338 558.479 292.667 543.904 288.745 534.151C282.451 518.39 274.936 505.321 266.199 494.944C265.112 493.66 264.167 492.671 263.365 491.975C262.241 490.995 261.1 490.3 259.941 489.889C257.73 489.158 255.52 489.435 253.309 490.718C251.062 492.02 249.707 493.812 249.244 496.094C248.798 498.412 249.306 500.899 250.768 503.556C251.517 504.982 253.095 507.211 255.502 510.242C261.546 517.819 266.841 527.215 271.388 538.43C274.258 545.526 277.681 555.885 281.657 569.507C299.701 631.071 316.951 693.011 333.407 755.324C334.281 758.623 335.235 761.181 336.269 763C337.731 765.621 339.594 767.315 341.858 768.081C342.839 768.402 343.829 768.536 344.827 768.483C345.754 768.839 346.779 769.178 347.903 769.499C348.776 769.731 350.47 770.123 352.984 770.676C355.658 771.228 363.298 773.038 375.904 776.105C385.211 778.387 392.877 779.956 398.903 780.812C400.99 781.097 402.701 781.213 404.038 781.159C405.928 781.017 407.488 780.508 408.719 779.635C409.788 778.904 410.653 777.879 411.313 776.559C411.883 775.382 412.231 774.081 412.356 772.655C412.481 771.442 412.463 770.096 412.302 768.616C412.177 767.636 411.946 766.298 411.607 764.605C410.947 761.164 410.305 758.516 409.681 756.662C408.719 753.809 407.435 751.464 405.83 749.628C402.692 746.062 397.691 743.682 390.827 742.487C386.013 741.667 380.807 741.373 375.208 741.605Z" fill="#0A0A0A"/>
<path d="M221.857 0.820514C216.883 1.74764 212.39 3.38795 208.378 5.74143C203.243 8.79026 198.287 13.4437 193.509 19.7018C188.017 26.9406 183.123 35.6948 178.826 45.9645C175.92 52.9715 172.613 62.5191 168.904 74.6074C164.108 90.3508 160.105 104.498 156.896 117.05C156.343 119.136 156.013 120.794 155.906 122.025C155.728 123.897 155.898 125.528 156.415 126.919C157.288 129.237 159.036 130.832 161.656 131.706C164.295 132.58 166.658 132.357 168.744 131.037C170.348 129.968 171.659 128.336 172.675 126.143C173.335 124.717 173.985 122.631 174.627 119.885C180.279 96.6356 187.268 73.9032 195.595 51.6878C202.816 54.7188 210.509 55.8955 218.675 55.218C226.752 54.5761 234.177 52.1959 240.953 48.0773C245.57 45.2781 249.208 42.0332 251.864 38.3425C253.861 35.5076 255.305 32.3785 256.197 28.9553C257.088 25.5321 257.338 22.0999 256.946 18.6588C256.625 15.8061 255.858 13.1852 254.646 10.7961C253.344 8.19298 251.65 6.08912 249.564 4.48447C246.426 2.11316 242.005 0.695721 236.299 0.232157C231.289 -0.213578 226.475 -0.0174674 221.857 0.820514ZM396.282 14.2193C393.287 10.2433 388.437 7.67593 381.733 6.51702C375.458 5.42942 369.155 5.70577 362.825 7.34608C356.46 8.98638 350.817 11.8302 345.896 15.8774C341.778 19.2115 337.945 23.5797 334.396 28.982C331.918 32.7797 329.065 37.9413 325.838 44.4669C320.721 54.9506 315.355 66.9141 309.738 80.3574C306.297 88.5946 301.403 100.763 295.056 116.863C294.254 118.913 293.728 120.545 293.478 121.757C293.068 123.594 293.086 125.243 293.531 126.705C294.209 129.005 295.814 130.636 298.345 131.599C300.859 132.562 303.186 132.455 305.326 131.278C306.734 130.494 308.009 129.29 309.15 127.668C309.899 126.544 310.755 124.949 311.717 122.881C314 117.888 318.386 107.03 324.876 90.3062C330.171 76.7202 334.949 66.0315 339.21 58.2401C343.686 59.4168 347.742 60.2726 351.379 60.8075C355.783 61.4315 359.91 61.6365 363.761 61.4226C368.094 61.1908 372.168 60.4152 375.984 59.0959C380.084 57.6695 383.668 55.6815 386.735 53.1319C389.552 50.7785 391.985 47.9347 394.036 44.6006C395.961 41.427 397.441 37.9502 398.475 34.1704C399.527 30.5154 399.919 27.0476 399.652 23.7669C399.385 20.0049 398.261 16.8224 396.282 14.2193Z" fill="#0A0A0A"/>
<path d="M331.963 399.361C331.054 396.793 330.1 394.342 329.101 392.006C327.586 388.512 325.955 385.267 324.207 382.271C319.768 374.64 314.009 367.589 306.931 361.117C300.369 355.144 292.89 349.858 284.492 345.258C276.951 341.157 268.562 337.529 259.326 334.373C251.517 331.716 242.674 329.265 232.796 327.018C218.622 323.791 205.508 321.705 193.456 320.76C181.439 319.797 169.386 319.842 157.298 320.894C153.268 321.25 149.907 321.687 147.215 322.204C143.578 322.917 140.36 323.916 137.56 325.199C135.635 326.055 133.602 327.187 131.463 328.596C129.965 329.577 128.057 330.932 125.739 332.661C112.991 342.307 101.046 352.871 89.9024 364.353C78.7412 375.888 68.5607 388.164 59.3607 401.179C36.3608 433.682 27.348 463.047 32.3224 489.274C35.0325 503.591 41.8701 516.794 52.8351 528.882C62.9444 540.008 75.2912 548.896 89.8757 555.546C93.8516 557.365 98.0326 559.041 102.419 560.574C111.797 563.837 122.102 566.449 133.335 568.41C145.031 570.461 160.186 572.101 178.8 573.331C189.48 574.044 198.029 574.356 204.447 574.267C213.861 574.142 222.33 573.269 229.854 571.646C233.295 570.897 237.102 569.863 241.274 568.544C243.984 567.688 247.719 566.422 252.48 564.746C261.787 561.43 269.275 558.586 274.945 556.215C283.039 552.827 290.207 549.315 296.447 545.678C311.994 536.62 323.601 525.851 331.268 513.371C335.422 506.613 338.569 499.054 340.708 490.692C342.67 482.99 343.73 474.833 343.891 466.221C344.034 458.537 343.463 450.335 342.179 441.616C341.11 434.36 339.46 426.292 337.232 417.413C335.484 410.388 333.728 404.371 331.963 399.361ZM314.446 403.399C314.713 404.13 314.981 404.888 315.248 405.672C316.389 408.989 317.673 413.33 319.099 418.697C321.274 426.97 322.897 434.11 323.967 440.119C325.375 447.964 326.124 455.238 326.213 461.942C326.32 469.662 325.58 476.945 323.993 483.792C322.246 491.298 319.536 498.038 315.863 504.01C309.48 514.369 299.389 523.694 285.589 531.985C271.771 540.275 257.615 545.731 243.119 548.352C242.174 548.513 241.631 548.593 241.488 548.593C217.365 553.3 189.373 553.523 157.511 549.261C113.936 543.431 81.3265 528.071 59.6816 503.181C50.7848 489.435 48.779 475.118 53.6642 460.23C58.5316 445.343 65.7347 431.267 75.2734 418.001C84.8121 404.719 93.4861 393.014 101.295 382.886C109.087 372.742 116.236 364.683 122.744 358.71C129.252 352.719 133.62 348.984 135.849 347.504C138.826 345.489 141.706 343.903 144.487 342.744C148.053 341.246 152.1 340.167 156.629 339.508C160.088 339.008 164.296 338.705 169.252 338.598C192.965 338.01 216.759 340.907 240.632 347.29C256.251 351.462 269.56 356.891 280.561 363.577C293.915 371.69 303.712 381.567 309.953 393.21C311.557 396.223 313.055 399.619 314.446 403.399Z" fill="#0A0A0A"/>
<path d="M315.248 405.672C314.981 404.888 314.713 404.13 314.446 403.399C313.055 399.619 311.558 396.223 309.953 393.21C303.713 381.567 293.915 371.69 280.561 363.577C269.56 356.891 256.251 351.462 240.632 347.29C216.759 340.907 192.965 338.01 169.252 338.598C164.296 338.705 160.088 339.008 156.629 339.507C152.1 340.167 148.053 341.246 144.487 342.744C141.706 343.902 138.826 345.489 135.849 347.504C133.62 348.984 129.252 352.719 122.744 358.71C116.237 364.683 109.087 372.741 101.296 382.886C93.4863 393.013 84.8123 404.718 75.2736 418.001C65.7349 431.266 58.5318 445.343 53.6644 460.23C48.7791 475.118 50.7849 489.435 59.6818 503.181C81.3267 528.071 113.937 543.431 157.512 549.261C189.373 553.523 217.365 553.3 241.488 548.593C241.631 548.593 242.174 548.512 243.119 548.352C257.615 545.731 271.771 540.275 285.589 531.985C299.389 523.694 309.48 514.369 315.863 504.01C319.536 498.037 322.246 491.298 323.993 483.792C325.58 476.945 326.32 469.662 326.213 461.942C326.124 455.238 325.375 447.964 323.967 440.119C322.897 434.11 321.275 426.97 319.099 418.697C317.673 413.33 316.389 408.989 315.248 405.672Z" fill="white"/>
<path d="M278.393 290.843C274.922 290.368 272.41 292.474 270.855 297.161C269.311 301.823 272.072 305.265 279.137 307.487C286.195 309.733 290.564 311.104 292.245 311.6C296.507 312.838 301.311 313.929 306.659 314.874C310.239 315.495 315.114 316.207 321.284 317.01C354.48 321.283 387.992 324.173 421.823 325.679C435.296 326.287 447.165 326.549 457.429 326.467C470.186 326.396 482.027 325.802 492.951 324.684C493.031 324.68 493.106 324.668 493.177 324.648C493.197 324.718 493.22 324.777 493.247 324.823C493.809 326.021 494.645 327.536 495.754 329.366C499.042 334.858 502.2 339.12 505.229 342.152C509.418 346.348 513.934 349.053 518.777 350.265C520.615 350.713 523.472 351.039 527.349 351.245C529.166 351.334 530.534 351.373 531.452 351.361C532.984 351.347 534.347 351.234 535.541 351.023C537.975 350.575 540.73 349.502 543.804 347.803C545.546 346.827 548.148 345.307 551.609 343.244C553.631 342.148 554.65 341.596 554.666 341.587C555.818 340.907 556.749 340.22 557.461 339.525C559.222 337.757 560.459 335.128 561.173 331.638C562.114 327.074 562.094 322.32 561.114 317.376C560.197 312.724 558.496 308.245 556.009 303.937C552.489 297.858 548.19 293.397 543.111 290.552C540.326 289.024 537.038 287.856 533.248 287.047C530.614 286.5 527.114 286.038 522.749 285.661C521.113 285.529 519.819 285.458 518.868 285.448C517.437 285.425 516.153 285.513 515.014 285.713C513.575 285.961 512.045 286.447 510.425 287.169C509.295 287.672 507.872 288.414 506.154 289.397C503.749 290.794 501.851 292.035 500.458 293.119C498.516 294.642 496.986 296.257 495.868 297.965C494.951 299.414 494.182 301.138 493.56 303.138C493.288 303.992 493.018 305.009 492.749 306.19C491.706 306.376 490.185 306.662 488.186 307.045C482.696 308.113 476.624 308.826 469.968 309.184C464.984 309.449 458.848 309.53 451.56 309.429C434.684 309.229 415.741 308.342 394.731 306.769C382.045 305.814 363.149 304.13 338.043 301.717C329.846 300.925 323.674 300.226 319.527 299.621C312.692 298.624 306.63 297.328 301.342 295.733C300.053 295.347 292.404 293.717 278.393 290.843ZM520.413 331.428C517.891 329.749 515.55 327.454 513.389 324.541C511.201 321.542 509.827 318.764 509.268 316.208C508.921 314.599 508.885 313.028 509.158 311.495C509.442 309.874 510.042 308.463 510.956 307.262C513.548 303.93 518.281 302.617 525.156 303.325C528.65 303.687 531.38 304.384 533.347 305.415C535.84 306.72 537.989 308.807 539.796 311.676C541.217 313.944 542.455 316.789 543.51 320.211C543.922 321.577 544.162 322.714 544.229 323.62C544.316 324.885 544.113 325.966 543.621 326.865C543.294 327.442 542.802 328.001 542.146 328.541C541.741 328.875 541.115 329.305 540.266 329.832C538.12 331.143 536.38 332.087 535.047 332.665C533.045 333.544 531.168 334.033 529.416 334.132C526.398 334.277 523.397 333.376 520.413 331.428Z" fill="#0A0A0A"/>
<path d="M513.389 324.541C515.55 327.454 517.891 329.749 520.413 331.428C523.397 333.376 526.398 334.277 529.416 334.132C531.168 334.033 533.045 333.544 535.047 332.665C536.38 332.087 538.12 331.143 540.266 329.832C541.115 329.305 541.741 328.875 542.146 328.541C542.802 328.001 543.294 327.442 543.621 326.865C544.113 325.966 544.316 324.885 544.229 323.62C544.162 322.714 543.922 321.577 543.51 320.211C542.455 316.789 541.217 313.944 539.796 311.676C537.989 308.807 535.84 306.72 533.347 305.415C531.38 304.384 528.65 303.687 525.156 303.325C518.281 302.617 513.547 303.93 510.956 307.262C510.041 308.463 509.442 309.874 509.158 311.495C508.885 313.028 508.921 314.599 509.267 316.208C509.826 318.764 511.2 321.542 513.389 324.541Z" fill="white"/>
<path d="M324.635 297.011C325.313 295.906 325.741 295.112 325.919 294.631C326.721 292.545 326.48 290.263 325.197 287.785C324.216 285.877 322.638 283.916 320.463 281.901C307.376 269.83 290.527 260.925 269.917 255.183C261.394 252.812 251.98 250.931 241.675 249.54C233.563 248.453 223.979 247.57 212.925 246.893C203.065 246.287 194.57 246.019 187.438 246.09C178.22 246.162 169.751 246.777 162.031 247.936C153.17 249.273 144.933 251.377 137.32 254.247C128.975 257.403 121.541 261.424 115.015 266.309C107.955 271.604 101.893 277.969 96.829 285.404C91.7841 292.837 87.4427 302.501 83.8046 314.395C80.1648 326.293 78.3819 335.921 78.4558 343.278C78.5475 350.636 81.534 358.392 87.4151 366.546C93.3157 374.714 101.357 383.379 111.538 392.541C118.51 398.835 126.256 404.121 134.779 408.4C138.024 410.005 141.376 411.476 144.835 412.813C166.925 421.318 192.591 423.832 221.831 420.355C231.584 419.196 240.525 417.493 248.655 415.247C257.106 412.893 265.326 409.764 273.313 405.86C284.617 400.297 294.414 393.522 302.705 385.534C311.816 376.78 318.493 367.116 322.736 356.544C325.963 348.52 327.72 340.105 328.005 331.297C328.023 330.887 328.032 330.477 328.032 330.067C328.174 321.687 326.962 313.584 324.394 305.757C323.913 304.277 323.61 303.225 323.485 302.601C323.253 301.388 323.262 300.327 323.512 299.418C323.672 298.794 324.047 297.992 324.635 297.011ZM289.574 281.5C292.052 282.908 294.129 284.459 295.805 286.153C297.641 288.043 299.3 290.45 300.779 293.374C301.742 295.264 302.883 297.983 304.203 301.531C306.431 307.504 308.018 312.362 308.963 316.106C310.354 321.562 311.005 326.581 310.915 331.163C310.862 333.535 310.621 335.915 310.193 338.304C309.427 342.387 308.098 346.488 306.208 350.606C303.516 356.472 299.799 362.142 295.056 367.616C290.652 372.715 285.714 377.306 280.24 381.389C274.766 385.436 268.945 388.841 262.776 391.605C257.784 393.834 252.248 395.759 246.168 397.382C241.104 398.737 235.354 399.958 228.918 401.046C215.243 403.328 202.62 404.308 191.048 403.988C177.534 403.577 165.187 401.393 154.008 397.435C142.24 393.245 131.962 387.067 123.172 378.902C122.708 378.474 122.254 378.037 121.808 377.591C112.144 368.177 105.797 357.551 102.766 345.712C101.09 339.187 102.338 330.388 106.51 319.316C110.682 308.244 115.853 299.962 122.022 294.471C128.191 288.961 130.072 285.253 127.665 283.345C125.258 281.437 126.996 278.843 132.88 275.562C138.443 272.46 144.852 270.026 152.109 268.261C157.921 266.835 164.75 265.738 172.595 264.972C187.447 263.51 202.352 263.34 217.311 264.464C232.27 265.587 246.988 267.976 261.466 271.631C269.275 273.592 276.264 275.785 282.433 278.21C285.286 279.333 287.666 280.43 289.574 281.5Z" fill="#0A0A0A"/>
<path d="M295.805 286.153C294.129 284.459 292.052 282.908 289.574 281.5C287.666 280.43 285.286 279.333 282.433 278.21C276.264 275.785 269.275 273.592 261.466 271.631C246.988 267.976 232.27 265.587 217.311 264.464C202.352 263.34 187.447 263.51 172.595 264.972C164.75 265.738 157.922 266.835 152.109 268.261C144.853 270.026 138.443 272.46 132.88 275.562C126.996 278.843 125.258 281.437 127.665 283.345C130.072 285.253 128.191 288.961 122.022 294.47C115.853 299.962 110.683 308.244 106.511 319.316C102.338 330.388 101.09 339.187 102.766 345.712C105.797 357.551 112.145 368.177 121.808 377.591C122.254 378.037 122.709 378.474 123.172 378.902C131.962 387.067 142.241 393.245 154.008 397.435C165.187 401.393 177.534 403.577 191.049 403.987C202.62 404.308 215.243 403.328 228.918 401.046C235.355 399.958 241.105 398.737 246.168 397.382C252.248 395.759 257.784 393.834 262.776 391.605C268.945 388.841 274.766 385.436 280.24 381.389C285.714 377.306 290.652 372.715 295.056 367.616C299.799 362.142 303.516 356.472 306.209 350.606C308.098 346.488 309.427 342.387 310.193 338.304C310.621 335.915 310.862 333.535 310.916 331.163C311.005 326.581 310.354 321.562 308.963 316.106C308.018 312.362 306.431 307.504 304.203 301.531C302.883 297.983 301.742 295.264 300.78 293.374C299.3 290.45 297.642 288.043 295.805 286.153Z" fill="white"/>
<path d="M1092.67 469.216C1092.67 381.335 1061.6 306.318 999.442 244.165C937.306 182.029 862.298 150.962 774.417 150.962C686.536 150.962 611.519 182.029 549.366 244.165C487.23 306.318 456.163 381.335 456.163 469.216C456.163 557.097 487.23 632.106 549.366 694.241C611.519 756.394 686.536 787.471 774.417 787.471C862.298 787.471 937.306 756.394 999.442 694.241C1061.6 632.106 1092.67 557.097 1092.67 469.216Z" fill="white"/>
<path d="M1092.67 469.216C1092.67 557.097 1061.6 632.106 999.442 694.241C937.306 756.394 862.298 787.471 774.417 787.471C686.536 787.471 611.519 756.394 549.366 694.241C487.23 632.106 456.163 557.097 456.163 469.216C456.163 381.335 487.23 306.318 549.366 244.165C611.519 182.029 686.536 150.962 774.417 150.962C862.298 150.962 937.306 182.029 999.442 244.165C1061.6 306.318 1092.67 381.335 1092.67 469.216Z" stroke="#0A0A0A" stroke-width="31.0231" stroke-linecap="round" stroke-linejoin="round"/>
<path d="M1113.64 469.216C1113.64 381.335 1082.56 306.318 1020.41 244.165C958.274 182.029 883.265 150.962 795.384 150.962C707.503 150.962 632.486 182.029 570.333 244.165C508.198 306.318 477.13 381.335 477.13 469.216C477.13 557.097 508.198 632.106 570.333 694.241C632.486 756.394 707.503 787.471 795.384 787.471C883.265 787.471 958.274 756.394 1020.41 694.241C1082.56 632.106 1113.64 557.097 1113.64 469.216ZM980.614 283.987C1031.78 335.139 1057.37 396.883 1057.37 469.216C1057.37 541.568 1031.78 603.311 980.614 654.446C929.479 705.616 867.736 731.201 795.384 731.201C723.051 731.201 661.307 705.616 610.155 654.446C559.002 603.311 533.426 541.568 533.426 469.216C533.426 396.883 559.002 335.139 610.155 283.987C661.307 232.834 723.051 207.258 795.384 207.258C867.736 207.258 929.479 232.834 980.614 283.987ZM1057.37 469.216C1057.37 396.883 1031.78 335.139 980.614 283.987C929.479 232.834 867.736 207.258 795.384 207.258C723.051 207.258 661.307 232.834 610.155 283.987C559.002 335.139 533.426 396.883 533.426 469.216C533.426 541.568 559.002 603.311 610.155 654.446C661.307 705.616 723.051 731.201 795.384 731.201C867.736 731.201 929.479 705.616 980.614 654.446C1031.78 603.311 1057.37 541.568 1057.37 469.216Z" fill="white"/>
<path d="M1057.37 469.216C1057.37 541.568 1031.78 603.311 980.614 654.446C929.479 705.616 867.736 731.201 795.384 731.201C723.051 731.201 661.307 705.616 610.155 654.446C559.002 603.311 533.426 541.568 533.426 469.216C533.426 396.883 559.002 335.139 610.155 283.987C661.307 232.834 723.051 207.258 795.384 207.258C867.736 207.258 929.479 232.834 980.614 283.987C1031.78 335.139 1057.37 396.883 1057.37 469.216ZM1113.64 469.216C1113.64 557.097 1082.56 632.106 1020.41 694.241C958.274 756.394 883.265 787.471 795.384 787.471C707.503 787.471 632.486 756.394 570.333 694.241C508.198 632.106 477.13 557.097 477.13 469.216C477.13 381.335 508.198 306.318 570.333 244.165C632.486 182.029 707.503 150.962 795.384 150.962C883.265 150.962 958.274 182.029 1020.41 244.165C1082.56 306.318 1113.64 381.335 1113.64 469.216Z" stroke="#0A0A0A" stroke-width="19.7906" stroke-linecap="round" stroke-linejoin="round"/>
<path d="M393.153 205.038C400.017 192.611 401.506 179.551 397.619 165.858C393.572 151.648 384.782 141.682 371.25 135.958C362.799 132.392 354.107 131.385 345.174 132.936C330.982 135.254 319.705 142.404 311.343 154.385C302.999 166.331 300.235 179.426 303.052 193.672C305.834 207.668 313.242 218.491 325.277 226.139C337.258 233.77 350.033 235.143 363.601 230.258C376.652 225.515 386.503 217.109 393.153 205.038ZM367.158 149.437C380.334 156.908 386.414 168.23 385.397 183.402C384.417 197.915 377.428 208.435 364.43 214.96C350.755 221.843 338.292 220.175 327.042 209.959C315.934 199.868 312.903 187.726 317.949 173.534C322.709 160.108 331.749 150.81 345.067 145.64C352.877 144.267 360.24 145.533 367.158 149.437ZM364.992 166.42C363.298 166.081 361.444 166.117 359.429 166.527C357.913 166.812 356.737 167.267 355.899 167.891C355.346 168.301 354.829 168.845 354.347 169.522C353.991 170.039 353.616 170.69 353.224 171.474C352.779 172.402 352.466 173.204 352.288 173.881C352.074 174.755 351.994 175.932 352.048 177.412C352.065 178.178 352.11 178.811 352.181 179.311C352.288 180.006 352.449 180.621 352.663 181.156C353.287 182.707 354.624 184.098 356.674 185.328C358.011 186.13 359.251 186.621 360.392 186.799C361.39 186.959 362.46 186.924 363.601 186.692C364.653 186.478 365.642 186.121 366.57 185.622C367.515 185.123 368.352 184.508 369.083 183.777C370.011 182.867 370.751 181.789 371.303 180.541C371.838 179.346 372.168 178.08 372.293 176.743C372.435 175.299 372.311 173.908 371.918 172.571C371.508 171.127 370.831 169.923 369.886 168.961C369.244 168.301 368.495 167.757 367.639 167.329C366.819 166.901 365.937 166.598 364.992 166.42Z" fill="#0A0A0A"/>
<path d="M385.397 183.402C386.413 168.23 380.334 156.908 367.158 149.437C360.24 145.533 352.876 144.267 345.067 145.64C331.749 150.81 322.709 160.108 317.949 173.534C312.903 187.726 315.934 199.868 327.042 209.959C338.292 220.175 350.755 221.842 364.43 214.96C377.427 208.435 384.417 197.915 385.397 183.402ZM359.429 166.527C361.443 166.117 363.298 166.081 364.991 166.42C365.936 166.598 366.819 166.901 367.639 167.329C368.495 167.757 369.244 168.301 369.886 168.961C370.831 169.923 371.508 171.127 371.918 172.571C372.31 173.908 372.435 175.299 372.293 176.743C372.168 178.08 371.838 179.346 371.303 180.541C370.75 181.789 370.01 182.867 369.083 183.777C368.352 184.508 367.514 185.123 366.569 185.622C365.642 186.121 364.653 186.478 363.601 186.692C362.46 186.924 361.39 186.959 360.391 186.799C359.25 186.621 358.011 186.13 356.674 185.328C354.624 184.098 353.286 182.707 352.662 181.156C352.448 180.621 352.288 180.006 352.181 179.31C352.11 178.811 352.065 178.178 352.047 177.412C351.994 175.932 352.074 174.755 352.288 173.881C352.466 173.204 352.778 172.402 353.224 171.474C353.616 170.69 353.991 170.039 354.347 169.522C354.829 168.845 355.346 168.301 355.898 167.891C356.736 167.267 357.913 166.812 359.429 166.527Z" fill="white"/>
<path d="M378.498 166.42C377.927 165.404 377.285 164.307 376.572 163.13C375.502 161.436 374.539 160.037 373.684 158.931C372.542 157.452 371.366 156.239 370.153 155.294C366.552 152.513 361.56 151.069 355.177 150.962C350.969 150.873 347.403 151.399 344.479 152.54C343.677 152.843 342.892 153.208 342.126 153.636C340.432 154.528 338.783 155.687 337.178 157.113C335.056 159.003 333.22 161.151 331.669 163.558C330.153 166.001 329.039 168.568 328.326 171.26C327.398 174.612 327.122 178.098 327.497 181.717C327.871 185.23 328.816 188.635 330.331 191.934C331.009 193.413 331.776 194.813 332.631 196.132C333.862 197.987 335.252 199.672 336.803 201.187C339.692 203.968 342.892 205.841 346.405 206.803C348.74 207.499 351.219 207.775 353.839 207.632C356.3 207.508 358.76 207.008 361.221 206.135C365.571 204.673 369.85 202.105 374.058 198.432C375.93 196.792 377.446 195.179 378.604 193.592C379.371 192.54 379.977 191.506 380.423 190.489C381.154 188.831 381.618 186.897 381.814 184.686C381.974 182.992 381.983 180.977 381.841 178.642C381.609 175.843 381.243 173.552 380.744 171.769C380.316 170.217 379.567 168.435 378.498 166.42Z" fill="#0A0A0A"/>
<path d="M329.637 299.338C343.33 286.394 353.653 269.848 360.606 249.701C375.583 206.269 366.909 168.301 334.584 135.798C302.527 103.598 263.819 89.9139 218.461 94.7457C186.279 98.1868 158.421 108.849 134.886 126.732C111.334 144.597 95.1088 161.918 86.212 178.695C77.2973 195.473 74.4267 218.954 77.6004 249.139C80.7562 279.307 103.551 302.824 145.985 319.69C186.03 335.612 227.403 338.839 270.104 329.371C294.281 323.987 314.125 313.976 329.637 299.338ZM250.608 112.45C296.608 117.015 327.871 140.612 344.399 183.242C351.888 202.569 351.879 221.718 344.373 240.688C332.534 270.677 313.287 292.099 286.632 304.954C275.934 310.107 264.06 313.878 251.009 316.267C208.379 324.112 168.887 316.427 132.533 293.214C93.4329 268.235 83.1097 234.626 101.563 192.388C105.753 182.778 110.665 174.051 116.299 166.206C134.966 140.104 161.514 123.745 195.943 117.13C213.915 112.263 232.137 110.703 250.608 112.45Z" fill="#0A0A0A"/>
<path d="M344.399 183.242C327.872 140.612 296.608 117.015 250.608 112.45C232.137 110.703 213.915 112.263 195.943 117.13C161.514 123.745 134.966 140.104 116.299 166.206C110.665 174.051 105.753 182.778 101.563 192.388C83.1097 234.626 93.4329 268.235 132.533 293.213C168.887 316.427 208.379 324.112 251.009 316.267C264.06 313.878 275.935 310.107 286.632 304.954C313.287 292.099 332.534 270.677 344.373 240.688C351.879 221.718 351.888 202.569 344.399 183.242Z" fill="white"/>
<path d="M179.04 163.13C174.833 163.041 171.267 163.567 168.343 164.708C167.54 165.011 166.756 165.377 165.989 165.805C164.295 166.696 162.646 167.855 161.042 169.281C158.92 171.171 157.084 173.32 155.532 175.727C154.017 178.169 152.903 180.737 152.189 183.429C151.262 186.781 150.986 190.267 151.36 193.886C151.735 197.398 152.68 200.804 154.195 204.102C154.873 205.582 155.639 206.982 156.495 208.301C157.725 210.155 159.116 211.84 160.667 213.356C163.556 216.137 166.756 218.009 170.268 218.972C172.604 219.667 175.082 219.944 177.703 219.801C180.164 219.676 182.624 219.177 185.085 218.303C189.435 216.841 193.714 214.274 197.922 210.601C199.794 208.961 201.309 207.347 202.468 205.76C203.235 204.708 203.841 203.674 204.287 202.658C205.018 201 205.481 199.065 205.678 196.855C205.838 195.161 205.847 193.146 205.704 190.81C205.472 188.011 205.107 185.72 204.608 183.937C204.18 182.386 203.431 180.603 202.361 178.588C201.791 177.572 201.149 176.476 200.436 175.299C199.366 173.605 198.403 172.205 197.547 171.1C196.406 169.62 195.229 168.408 194.017 167.463C190.416 164.681 185.423 163.237 179.04 163.13Z" fill="#0A0A0A"/>
<path d="M228.356 182.68C227.768 173.302 224.371 165.136 218.167 158.183C212.23 151.568 204.946 147.119 196.317 144.837C187.777 142.537 179.129 142.1 170.375 143.527C161.05 144.989 152.84 148.742 145.744 154.786C138.648 160.795 133.861 168.256 131.382 177.171C129.51 183.893 128.565 190.757 128.547 197.764C128.53 206.696 131.436 214.506 137.266 221.192C140.618 225.435 144.46 229.224 148.793 232.558C156.156 238.174 164.518 240.715 173.879 240.18C177.516 240.019 181.108 239.69 184.657 239.19C193.785 238.032 201.969 234.626 209.208 228.974C216.197 223.483 221.287 216.592 224.478 208.301C227.634 200.082 228.927 191.541 228.356 182.68ZM181.207 156.498C190.941 155.874 199.348 158.851 206.426 165.43C211.008 169.727 213.718 174.969 214.556 181.156C215.697 189.714 214.467 197.996 210.866 206.001C206.925 214.755 200.302 220.692 190.995 223.813C182.383 226.701 173.656 227.396 164.812 225.899C164.046 225.631 163.306 225.319 162.593 224.963C156.477 221.932 151.316 217.661 147.108 212.152C146.074 210.779 145.262 209.344 144.674 207.846C142.214 201.588 141.438 194.991 142.347 188.056C143.168 181.691 145.459 175.887 149.221 170.645C154.498 163.264 161.639 158.851 170.643 157.407C174.155 156.783 177.676 156.48 181.207 156.498ZM188.24 193.191C188.775 191.996 189.105 190.73 189.23 189.393C189.372 187.949 189.248 186.558 188.855 185.221C188.445 183.777 187.768 182.573 186.823 181.61C186.181 180.951 185.432 180.407 184.576 179.979C183.756 179.551 182.874 179.248 181.929 179.07C180.235 178.731 178.381 178.767 176.366 179.177C174.85 179.462 173.674 179.917 172.836 180.541C172.283 180.951 171.766 181.495 171.284 182.172C170.928 182.689 170.553 183.34 170.161 184.124C169.715 185.051 169.403 185.854 169.225 186.531C169.011 187.405 168.931 188.582 168.984 190.062C169.002 190.828 169.047 191.461 169.118 191.96C169.225 192.656 169.386 193.271 169.6 193.806C170.224 195.357 171.561 196.748 173.611 197.978C174.948 198.78 176.188 199.27 177.329 199.449C178.327 199.609 179.397 199.574 180.538 199.342C181.59 199.128 182.579 198.771 183.507 198.272C184.451 197.773 185.289 197.158 186.02 196.427C186.948 195.517 187.688 194.439 188.24 193.191Z" fill="#0A0A0A"/>
<path d="M206.426 165.43C199.348 158.851 190.942 155.874 181.207 156.498C177.676 156.48 174.155 156.783 170.643 157.407C161.639 158.851 154.498 163.264 149.221 170.645C145.459 175.887 143.168 181.691 142.348 188.056C141.438 194.991 142.214 201.588 144.674 207.846C145.263 209.344 146.074 210.779 147.108 212.152C151.316 217.661 156.477 221.932 162.593 224.963C163.306 225.319 164.046 225.631 164.813 225.899C173.656 227.396 182.383 226.701 190.995 223.813C200.302 220.692 206.926 214.755 210.866 206.001C214.467 197.996 215.698 189.714 214.557 181.156C213.719 174.969 211.009 169.727 206.426 165.43ZM189.23 189.393C189.105 190.73 188.775 191.996 188.24 193.191C187.688 194.439 186.948 195.517 186.021 196.427C185.29 197.158 184.452 197.773 183.507 198.272C182.58 198.771 181.59 199.128 180.538 199.342C179.397 199.574 178.327 199.609 177.329 199.449C176.188 199.27 174.949 198.78 173.611 197.978C171.561 196.748 170.224 195.357 169.6 193.806C169.386 193.271 169.225 192.656 169.118 191.96C169.047 191.461 169.002 190.828 168.985 190.062C168.931 188.582 169.011 187.405 169.225 186.531C169.404 185.854 169.716 185.051 170.161 184.124C170.554 183.34 170.928 182.689 171.285 182.172C171.766 181.495 172.283 180.951 172.836 180.541C173.674 179.917 174.851 179.462 176.366 179.177C178.381 178.767 180.235 178.731 181.929 179.07C182.874 179.248 183.756 179.551 184.576 179.979C185.432 180.407 186.181 180.951 186.823 181.61C187.768 182.573 188.445 183.777 188.855 185.221C189.248 186.558 189.373 187.949 189.23 189.393Z" fill="white"/>
<path d="M324.421 200.545C323.833 199.6 323.075 198.86 322.148 198.326C321.221 197.791 320.205 197.505 319.099 197.47C317.994 197.434 316.96 197.648 315.997 198.112C314.731 198.736 313.563 199.832 312.493 201.401C311.37 203.362 310.532 204.815 309.979 205.76C308.945 207.561 307.18 210.013 304.684 213.115C303.757 214.274 303.035 215.121 302.518 215.656C301.68 216.547 300.842 217.251 300.004 217.769C298.756 218.535 297.249 219.061 295.484 219.346C294.147 219.56 292.524 219.641 290.617 219.587C283.521 219.391 276.656 218.143 270.024 215.843C268.098 215.183 266.761 214.764 266.012 214.586C264.479 214.247 263.124 214.212 261.947 214.479C260.253 214.889 258.916 215.905 257.935 217.528C256.937 219.186 256.696 220.835 257.213 222.475C258.033 225.15 260.645 227.2 265.049 228.627C268.276 229.696 272.457 230.686 277.592 231.595C280.659 232.166 283.298 232.567 285.509 232.799C288.397 233.102 291.062 233.191 293.505 233.066C299.549 232.727 304.577 231.114 308.589 228.225C309.89 227.298 311.201 226.139 312.52 224.749C313.483 223.697 314.615 222.342 315.917 220.684C318.502 217.35 320.811 214.051 322.843 210.788C323.717 209.38 324.341 208.221 324.715 207.312C325.268 205.974 325.5 204.726 325.411 203.567C325.339 202.498 325.01 201.49 324.421 200.545Z" fill="#0A0A0A"/>
<path d="M178.933 163.13C174.726 163.041 171.16 163.567 168.236 164.708C167.434 165.011 166.649 165.377 165.882 165.805C164.189 166.696 162.539 167.855 160.935 169.281C158.813 171.171 156.977 173.32 155.425 175.727C153.91 178.169 152.796 180.737 152.082 183.429C151.155 186.781 150.879 190.267 151.253 193.886C151.628 197.398 152.573 200.804 154.088 204.102C154.766 205.582 155.532 206.982 156.388 208.301C157.618 210.155 159.009 211.84 160.56 213.356C163.449 216.137 166.649 218.009 170.161 218.972C172.497 219.667 174.975 219.944 177.596 219.801C180.057 219.676 182.517 219.177 184.978 218.303C189.328 216.841 193.607 214.274 197.815 210.601C199.687 208.961 201.202 207.347 202.361 205.76C203.128 204.708 203.734 203.674 204.18 202.658C204.911 201 205.374 199.065 205.571 196.855C205.731 195.161 205.74 193.146 205.597 190.81C205.366 188.011 205 185.72 204.501 183.937C204.073 182.386 203.324 180.603 202.254 178.588C201.684 177.572 201.042 176.476 200.329 175.299C199.259 173.605 198.296 172.205 197.44 171.1C196.299 169.62 195.123 168.408 193.91 167.463C190.309 164.681 185.316 163.237 178.933 163.13Z" fill="#0A0A0A"/>
<path d="M235.197 351.409C232.35 349.368 229.145 350.056 225.58 353.473C222.037 356.874 222.87 361.208 228.08 366.474C233.271 371.757 236.494 375.011 237.748 376.235C240.939 379.32 244.677 382.53 248.964 385.863C251.84 388.085 255.818 390.992 260.899 394.585C288.255 413.872 316.539 432.084 345.749 449.221C357.379 456.053 367.751 461.83 376.866 466.553C388.179 472.45 398.926 477.456 409.109 481.572C409.181 481.605 409.253 481.629 409.325 481.645C409.31 481.717 409.303 481.779 409.305 481.833C409.242 483.155 409.274 484.884 409.4 487.021C409.741 493.413 410.542 498.658 411.804 502.754C413.548 508.421 416.278 512.922 419.994 516.257C421.41 517.512 423.784 519.135 427.115 521.128C428.681 522.056 429.872 522.729 430.689 523.148C432.051 523.851 433.309 524.388 434.463 524.759C436.825 525.5 439.762 525.838 443.274 525.773C445.27 525.723 448.281 525.595 452.305 525.387C454.606 525.363 455.765 525.351 455.782 525.35C457.118 525.287 458.263 525.115 459.217 524.833C461.6 524.092 463.922 522.346 466.184 519.594C469.149 515.997 471.352 511.784 472.795 506.954C474.157 502.413 474.746 497.657 474.56 492.686C474.287 485.667 472.57 479.713 469.408 474.825C467.659 472.173 465.298 469.603 462.324 467.117C460.25 465.403 457.372 463.36 453.688 460.987C452.302 460.106 451.192 459.439 450.356 458.986C449.102 458.297 447.925 457.774 446.824 457.419C445.435 456.967 443.856 456.681 442.086 456.563C440.852 456.479 439.247 456.471 437.269 456.538C434.49 456.65 432.231 456.86 430.493 457.168C428.064 457.607 425.957 458.321 424.17 459.309C422.683 460.162 421.197 461.327 419.713 462.804C419.074 463.432 418.36 464.205 417.57 465.124C416.56 464.801 415.082 464.343 413.136 463.749C407.783 462.128 402.08 459.921 396.027 457.129C391.497 455.034 386.033 452.24 379.636 448.745C364.807 440.684 348.471 431.05 330.628 419.843C319.856 413.072 303.935 402.755 282.862 388.892C275.984 384.362 270.853 380.86 267.469 378.388C261.891 374.313 257.136 370.335 253.205 366.454C252.246 365.511 246.243 360.496 235.197 351.409ZM430.24 500.365C428.795 497.702 427.797 494.578 427.248 490.993C426.713 487.319 426.796 484.221 427.496 481.7C427.942 480.115 428.643 478.709 429.601 477.481C430.609 476.181 431.799 475.213 433.169 474.578C437.017 472.842 441.815 473.893 447.564 477.731C450.484 479.683 452.573 481.575 453.83 483.406C455.425 485.724 456.351 488.574 456.607 491.955C456.805 494.624 456.57 497.718 455.904 501.237C455.63 502.637 455.311 503.754 454.947 504.587C454.433 505.746 453.749 506.608 452.894 507.172C452.335 507.53 451.639 507.794 450.807 507.965C450.293 508.071 449.538 508.159 448.541 508.229C446.031 508.385 444.052 508.407 442.603 508.296C440.421 508.137 438.533 507.693 436.939 506.962C434.202 505.681 431.969 503.482 430.24 500.365Z" fill="#0A0A0A"/>
<path d="M427.248 490.993C427.797 494.578 428.795 497.702 430.24 500.365C431.969 503.482 434.202 505.681 436.939 506.962C438.533 507.693 440.421 508.137 442.603 508.296C444.052 508.407 446.031 508.385 448.541 508.229C449.538 508.159 450.293 508.071 450.807 507.965C451.639 507.794 452.335 507.53 452.894 507.172C453.749 506.608 454.433 505.746 454.947 504.587C455.312 503.754 455.631 502.638 455.904 501.237C456.57 497.718 456.805 494.624 456.608 491.955C456.351 488.574 455.425 485.724 453.83 483.406C452.573 481.575 450.484 479.683 447.564 477.731C441.815 473.893 437.017 472.842 433.169 474.578C431.799 475.213 430.61 476.181 429.601 477.481C428.644 478.709 427.942 480.115 427.496 481.7C426.796 484.221 426.714 487.319 427.248 490.993Z" fill="white"/>
</svg>
