<svg width="596" height="782" viewBox="0 0 596 782" fill="none" xmlns="http://www.w3.org/2000/svg">
<path d="M163.217 532.839C160.56 533.018 158.438 534.596 156.852 537.573C155.639 539.855 154.81 542.788 154.364 546.372C150.959 573.811 148.035 604.728 145.592 639.12C144.112 660.016 142.285 691.031 140.11 732.163C139.628 741.149 139.486 747.969 139.682 752.622C140.003 760.182 141.117 766.832 143.025 772.573C144.076 775.708 145.395 778.677 146.983 781.479H236.014C237.139 779.537 238.022 777.772 238.662 776.184C239.945 772.957 240.525 769.926 240.4 767.091C240.275 764.113 239.393 761.207 237.752 758.372C236.219 755.734 234.195 753.407 231.681 751.392C227.616 748.165 222.036 745.615 214.94 743.743C205.561 741.301 195.951 740.374 186.11 740.962C176.268 741.55 166.836 743.627 157.814 747.193C159.472 681.528 164.108 615.951 171.721 550.464C172.007 547.985 172.158 546.105 172.176 544.821C172.176 542.735 171.917 540.898 171.4 539.311C170.776 537.439 169.733 535.888 168.271 534.658C166.702 533.339 165.017 532.732 163.217 532.839ZM322.879 543.751C322.629 541.683 322.148 539.891 321.435 538.375C320.597 536.593 319.375 535.175 317.771 534.123C316.059 533.018 314.321 532.625 312.556 532.946C309.935 533.428 308.009 535.246 306.779 538.402C305.852 540.809 305.388 543.822 305.388 547.442C305.317 575.095 306.146 606.136 307.875 640.565C308.945 661.496 310.889 692.511 313.706 733.607C314.312 742.575 314.989 749.359 315.738 753.959C316.986 761.412 318.903 767.875 321.488 773.349C322.859 776.244 324.463 778.954 326.302 781.479H409.53C410.843 779.302 412.136 776.877 413.408 774.205C415.03 770.817 416.18 767.875 416.857 765.379C417.731 762.009 417.936 758.925 417.473 756.126C416.991 753.184 415.761 750.411 413.782 747.808C411.945 745.384 409.663 743.324 406.935 741.63C402.496 738.903 396.639 737.039 389.365 736.041C379.772 734.757 370.127 734.998 360.427 736.763C350.728 738.528 341.617 741.737 333.095 746.391C326.783 680.993 323.449 615.336 323.093 549.421C323.075 546.925 323.004 545.035 322.879 543.751Z" fill="#0A0A0A"/>
<path d="M295.787 7.79961C292.15 6.31977 287.514 6.088 281.88 7.10427C276.923 7.97791 272.323 9.42208 268.08 11.4368C263.516 13.612 259.602 16.3577 256.339 19.674C252.167 23.9352 248.584 29.7119 245.588 37.0041C242.165 45.4018 239.705 55.1188 238.207 66.1552C237.208 73.6792 236.486 83.7617 236.041 96.4027C235.47 112.841 235.256 127.542 235.399 140.504C235.417 142.661 235.532 144.346 235.746 145.558C236.05 147.413 236.638 148.946 237.512 150.158C238.956 152.173 241.06 153.27 243.823 153.448C246.587 153.608 248.806 152.77 250.482 150.934C251.766 149.508 252.613 147.6 253.023 145.211C253.273 143.66 253.362 141.475 253.291 138.658C252.72 114.731 253.585 90.9648 255.885 67.3587C263.641 68.4106 271.378 67.5548 279.099 64.7912C286.73 62.0633 293.282 57.8378 298.756 52.1145C302.5 48.2277 305.174 44.1537 306.779 39.8925C307.991 36.6476 308.579 33.2511 308.544 29.703C308.508 26.1728 307.857 22.7941 306.591 19.567C305.54 16.8926 304.122 14.5569 302.339 12.56C300.414 10.3849 298.23 8.79806 295.787 7.79961ZM453.978 12.1856C452.73 8.61977 450.822 5.82946 448.255 3.81474C444.315 0.765912 438.957 -0.455388 432.182 0.150811C425.834 0.721352 419.817 2.62016 414.129 5.84728C408.406 9.09223 403.69 13.3 399.982 18.4705C396.88 22.7674 394.312 27.9825 392.28 34.1158C390.853 38.4305 389.436 44.1448 388.027 51.2587C385.781 62.723 383.695 75.6761 381.769 90.1179C380.575 98.9612 378.997 111.986 377.035 129.191C376.768 131.366 376.67 133.069 376.741 134.299C376.848 136.189 377.294 137.776 378.078 139.06C379.326 141.11 381.306 142.278 384.016 142.563C386.69 142.83 388.91 142.126 390.675 140.45C391.834 139.327 392.752 137.829 393.43 135.957C393.875 134.674 394.285 132.917 394.66 130.689C395.587 125.269 397.022 113.635 398.966 95.7876C400.552 81.2923 402.398 69.7389 404.502 61.1273C409.137 61.0917 413.283 60.8598 416.938 60.4319C421.341 59.8971 425.371 59.0323 429.026 57.8378C433.162 56.4827 436.898 54.682 440.232 52.4355C443.833 49.9929 446.784 47.1402 449.084 43.8774C451.206 40.882 452.819 37.5034 453.925 33.7414C454.959 30.1755 455.494 26.4402 455.529 22.5356C455.583 18.7201 455.066 15.2701 453.978 12.1856Z" fill="#0A0A0A"/>
<path d="M227.269 326.723C223.239 327.079 219.878 327.516 217.186 328.033C213.549 328.746 210.331 329.745 207.532 331.029C205.606 331.884 203.573 333.017 201.434 334.425C199.936 335.406 198.029 336.761 195.711 338.49C182.963 348.136 171.017 358.7 159.874 370.182C148.712 381.718 138.532 393.993 129.332 407.009C106.332 439.511 97.3192 468.876 102.294 495.104C105.004 509.421 111.841 522.623 122.806 534.711C132.916 545.837 145.262 554.725 159.847 561.375C163.823 563.194 168.004 564.87 172.39 566.403C181.768 569.666 192.073 572.278 203.306 574.239C215.002 576.29 230.157 577.93 248.771 579.16C259.451 579.873 268 580.185 274.419 580.096C283.832 579.971 292.301 579.098 299.825 577.475C303.266 576.726 307.073 575.692 311.245 574.373C313.955 573.517 317.69 572.251 322.451 570.575C331.758 567.259 339.246 564.415 344.916 562.044C353.01 558.656 360.178 555.144 366.418 551.507C381.965 542.449 393.572 531.68 401.239 519.2C405.393 512.443 408.54 504.883 410.68 496.521C412.641 488.819 413.702 480.662 413.862 472.05C414.005 464.366 413.434 456.164 412.151 447.446C411.081 440.189 409.432 432.121 407.203 423.242C405.456 416.217 403.699 410.2 401.934 405.19C401.025 402.622 400.071 400.171 399.073 397.835C397.557 394.341 395.926 391.096 394.178 388.1C389.739 380.469 383.98 373.418 376.902 366.946C370.341 360.973 362.861 355.687 354.464 351.087C346.922 346.986 338.533 343.358 329.297 340.202C321.488 337.545 312.645 335.094 302.767 332.847C288.593 329.62 275.479 327.534 263.427 326.589C251.41 325.626 239.357 325.671 227.269 326.723ZM214.458 348.573C218.024 347.075 222.071 345.996 226.6 345.337C230.059 344.837 234.267 344.534 239.223 344.427C262.936 343.839 286.73 346.736 310.603 353.119C326.222 357.291 339.531 362.72 350.532 369.406C363.886 377.519 373.684 387.396 379.924 399.039C381.529 402.052 383.026 405.448 384.417 409.228C384.684 409.959 384.952 410.717 385.219 411.502C386.36 414.818 387.644 419.159 389.07 424.526C391.246 432.799 392.868 439.939 393.938 445.948C395.346 453.793 396.095 461.067 396.184 467.771C396.291 475.491 395.551 482.774 393.965 489.621C392.217 497.127 389.507 503.867 385.834 509.839C379.45 520.197 369.349 529.521 355.533 537.814C341.737 546.11 327.589 551.565 313.09 554.181C312.153 554.35 311.601 554.422 311.432 554.395C287.334 559.117 259.351 559.349 227.483 555.09C183.911 549.265 151.301 533.905 129.653 509.01C120.757 495.264 118.742 480.947 123.609 466.059C128.49 451.173 135.702 437.088 145.245 423.804C154.787 410.54 163.452 398.835 171.24 388.689C179.047 378.559 186.206 370.5 192.715 364.512C199.223 358.542 203.591 354.816 205.82 353.333C208.797 351.318 211.677 349.732 214.458 348.573Z" fill="#0A0A0A"/>
<path d="M226.6 345.337C222.072 345.996 218.024 347.075 214.458 348.573C211.677 349.732 208.798 351.318 205.82 353.333C203.591 354.816 199.223 358.542 192.715 364.512C186.206 370.5 179.048 378.558 171.24 388.689C163.452 398.835 154.787 410.54 145.245 423.804C135.702 437.088 128.49 451.173 123.609 466.059C118.742 480.947 120.757 495.264 129.653 509.01C151.301 533.905 183.911 549.265 227.483 555.09C259.351 559.349 287.334 559.117 311.432 554.395C311.601 554.422 312.153 554.35 313.091 554.181C327.589 551.565 341.737 546.11 355.533 537.814C369.349 529.521 379.45 520.197 385.834 509.839C389.507 503.867 392.217 497.127 393.965 489.621C395.551 482.774 396.291 475.491 396.184 467.771C396.095 461.067 395.346 453.793 393.938 445.948C392.868 439.939 391.246 432.799 389.07 424.526C387.644 419.159 386.36 414.818 385.219 411.501C384.952 410.717 384.684 409.959 384.417 409.228C383.026 405.448 381.529 402.052 379.924 399.039C373.684 387.396 363.886 377.519 350.532 369.406C339.532 362.72 326.222 357.291 310.603 353.119C286.73 346.736 262.936 343.839 239.223 344.427C234.267 344.534 230.059 344.837 226.6 345.337Z" fill="white"/>
<path d="M390.782 302.332L377.33 319.796C443.067 379.525 484.333 408.301 501.128 406.126C517.923 403.969 529.869 395 536.965 379.221C544.061 363.46 550.801 345.773 557.184 326.161C558.164 322.863 559.002 319.502 559.698 316.079L560.259 313.11C569.227 312.985 577.001 309.589 583.58 302.921C589.018 297.465 592.477 290.806 593.957 282.943C595.65 275.116 595.392 267.342 593.181 259.622C590.15 249.37 584.017 242.105 574.781 237.825C572.428 236.756 570.039 235.927 567.614 235.338C562.211 234.072 556.836 233.939 551.487 234.937C549.918 235.205 548.438 235.739 547.048 236.542C532.552 244.886 523.415 257.322 519.635 273.85C518.583 278.057 518.547 282.265 519.528 286.473C520.776 291.857 523.227 296.698 526.883 300.995C530.003 304.65 533.756 307.396 538.142 309.232C539.55 309.821 541.012 310.204 542.528 310.382C535.557 337.108 526.704 359.654 515.971 378.018C505.22 396.4 463.49 371.171 390.782 302.332ZM556.916 252.428C557.629 252.16 558.369 252.053 559.136 252.107C568.817 253.105 574.523 258.525 576.252 268.367C576.876 271.951 576.805 275.579 576.038 279.252C574.63 288.292 569.62 293.498 561.008 294.871C558.601 295.263 556.167 295.343 553.707 295.111C545.577 294.327 540.21 290.342 537.607 283.157C537.001 281.356 536.965 279.484 537.5 277.54C539.657 265.541 546.129 257.17 556.916 252.428ZM13.0217 345.47C7.01324 352.477 2.91248 360.367 0.719463 369.139C-1.02782 376.075 0.407475 382.306 5.02529 387.833C11.7648 395.838 19.9128 402.097 29.4693 406.607C42.9484 412.937 56.7127 418.633 70.7622 423.697C71.4398 423.946 71.8766 424.294 72.0727 424.74C72.6967 426.291 73.1424 427.949 73.4099 429.714C74.1944 435.01 76.3339 439.681 79.8285 443.728C90.3121 455.781 103.283 459.463 118.741 454.773C126.657 452.42 133.539 448.292 139.388 442.391C141.937 439.806 143.39 436.712 143.747 433.111C144.086 429.652 144.335 426.184 144.496 422.707C144.674 418.731 144.148 414.836 142.918 411.02C141.545 406.759 139.602 402.721 137.088 398.905C132.523 391.952 126.221 388.145 118.18 387.485C115.844 387.289 113.526 387.12 111.226 386.977C103.132 386.139 95.7144 387.895 88.9749 392.246C83.0199 396.061 78.206 400.635 74.5331 405.966C63.7285 402.489 53.2359 398.254 43.0554 393.262C38.9546 391.247 34.8628 389.242 30.7798 387.245C26.0907 384.927 22.1593 381.771 18.9857 377.777C17.9694 376.494 17.7198 375.13 18.2368 373.685C22.9795 360.135 31.2791 348.965 43.1356 340.175C54.9921 331.403 67.9452 324.735 81.9948 320.171C95.6521 315.677 109.595 312.37 123.822 310.248C138.924 308.109 154.106 306.415 169.368 305.167C177.052 304.614 184.719 304.668 192.368 305.328C198.269 305.916 203.868 305.051 209.163 302.733C211.053 301.895 212.265 300.496 212.8 298.535C214.226 293.328 212.158 290.101 206.595 288.853C197.77 286.928 188.793 286.232 179.664 286.767C164.295 287.766 148.998 289.299 133.771 291.367C119.561 293.364 105.512 295.985 91.6226 299.23C76.5211 302.689 62.2487 308.243 48.8053 315.891C35.1659 323.665 23.238 333.525 13.0217 345.47ZM113.152 404.575C114.382 404.7 115.568 405.038 116.709 405.591C122.86 408.497 126.203 413.525 126.738 420.675C126.88 422.547 126.755 424.365 126.363 426.131C125.169 431.515 121.692 435.331 115.933 437.577C107.304 440.929 99.8598 439.137 93.6017 432.201C91.9614 430.098 90.847 427.726 90.2587 425.088C89.3315 420.933 90.0179 417.082 92.3179 413.534C97.0606 406.242 104.005 403.255 113.152 404.575Z" fill="#0A0A0A"/>
<path d="M559.136 252.107C558.369 252.053 557.63 252.16 556.916 252.428C546.13 257.17 539.658 265.541 537.5 277.54C536.965 279.484 537.001 281.356 537.607 283.157C540.21 290.342 545.577 294.327 553.707 295.111C556.168 295.343 558.601 295.263 561.008 294.871C569.62 293.498 574.63 288.291 576.038 279.252C576.805 275.579 576.876 271.951 576.252 268.367C574.523 258.525 568.817 253.105 559.136 252.107ZM116.709 405.591C115.568 405.038 114.382 404.7 113.152 404.575C104.005 403.255 97.0608 406.242 92.3182 413.534C90.0182 417.082 89.3318 420.933 90.2589 425.087C90.8473 427.726 91.9616 430.098 93.6019 432.201C99.86 439.137 107.304 440.929 115.933 437.577C121.692 435.33 125.169 431.515 126.363 426.13C126.756 424.365 126.881 422.547 126.738 420.675C126.203 413.525 122.86 408.497 116.709 405.591Z" fill="white"/>
<path d="M219.566 260.077C211.222 263.232 203.787 267.253 197.262 272.138C190.201 277.433 184.139 283.799 179.076 291.233C174.03 298.668 170.339 306.647 168.003 315.169C165.668 323.674 164.776 332.41 165.329 341.379C165.9 350.347 167.87 358.914 171.24 367.08C176.089 378.776 183.604 389.206 193.785 398.37C200.756 404.664 208.503 409.95 217.025 414.229C220.27 415.834 223.622 417.305 227.081 418.642C249.172 427.147 274.837 429.661 304.077 426.184C313.83 425.025 322.771 423.322 330.902 421.076C339.353 418.722 347.572 415.593 355.56 411.689C366.864 406.126 376.661 399.351 384.951 391.363C394.062 382.609 400.739 372.945 404.983 362.373C408.21 354.349 409.966 345.934 410.251 337.126C410.269 336.716 410.278 336.306 410.278 335.896C410.421 327.516 409.208 319.413 406.641 311.586C406.16 310.106 405.856 309.054 405.732 308.43C405.5 307.217 405.509 306.157 405.758 305.247C405.919 304.623 406.293 303.821 406.882 302.84C407.559 301.735 407.987 300.941 408.165 300.46C408.968 298.374 408.727 296.092 407.443 293.614C406.463 291.706 404.885 289.745 402.71 287.73C389.623 275.659 372.774 266.754 352.163 261.013C343.641 258.641 334.227 256.76 323.921 255.37C315.809 254.282 306.226 253.399 295.172 252.722C285.312 252.116 276.816 251.848 269.684 251.92C260.467 251.991 251.998 252.606 244.278 253.765C235.416 255.102 227.179 257.206 219.566 260.077ZM234.356 274.09C240.168 272.664 246.997 271.568 254.842 270.801C269.693 269.339 284.599 269.17 299.558 270.293C314.516 271.416 329.235 273.805 343.712 277.46C351.521 279.421 358.51 281.614 364.679 284.039C367.532 285.162 369.912 286.259 371.82 287.329C374.298 288.737 376.376 290.288 378.051 291.982C379.888 293.872 381.546 296.279 383.026 299.203C383.989 301.093 385.13 303.812 386.449 307.36C388.678 313.333 390.265 318.191 391.21 321.936C392.6 327.391 393.251 332.41 393.162 336.993C393.108 339.364 392.868 341.744 392.44 344.133C391.673 348.216 390.345 352.317 388.455 356.435C385.763 362.301 382.045 367.971 377.303 373.445C372.899 378.544 367.96 383.135 362.486 387.218C357.013 391.265 351.192 394.671 345.023 397.434C340.03 399.663 334.494 401.588 328.414 403.211C323.351 404.566 317.601 405.787 311.165 406.875C297.489 409.157 284.866 410.138 273.295 409.817C259.78 409.407 247.433 407.222 236.254 403.264C224.487 399.074 214.208 392.897 205.418 384.731C204.955 384.303 204.5 383.866 204.055 383.42C194.391 374.006 188.044 363.38 185.013 351.541C183.339 345.014 184.587 336.216 188.757 325.145C192.924 314.078 198.094 305.788 204.268 300.273C210.443 294.776 212.324 291.076 209.911 289.174C207.502 287.268 209.24 284.673 215.127 281.392C220.689 278.289 227.099 275.856 234.356 274.09Z" fill="#0A0A0A"/>
<path d="M254.842 270.801C246.997 271.568 240.168 272.664 234.356 274.09C227.099 275.856 220.69 278.289 215.127 281.392C209.241 284.674 207.502 287.268 209.912 289.174C212.324 291.076 210.443 294.776 204.269 300.273C198.094 305.788 192.924 314.078 188.757 325.145C184.587 336.216 183.339 345.014 185.013 351.541C188.044 363.38 194.391 374.006 204.055 383.42C204.5 383.866 204.955 384.303 205.419 384.731C214.209 392.897 224.487 399.074 236.255 403.264C247.434 407.222 259.78 409.407 273.295 409.817C284.866 410.138 297.49 409.157 311.165 406.875C317.601 405.787 323.351 404.566 328.415 403.211C334.495 401.588 340.031 399.663 345.023 397.434C351.192 394.671 357.013 391.265 362.487 387.218C367.96 383.135 372.899 378.544 377.303 373.445C382.046 367.971 385.763 362.301 388.455 356.435C390.345 352.317 391.673 348.216 392.44 344.133C392.868 341.744 393.109 339.364 393.162 336.993C393.251 332.41 392.6 327.391 391.21 321.936C390.265 318.191 388.678 313.333 386.449 307.36C385.13 303.812 383.989 301.093 383.026 299.203C381.546 296.279 379.888 293.872 378.052 291.982C376.376 290.288 374.299 288.737 371.82 287.329C369.913 286.259 367.532 285.162 364.68 284.039C358.511 281.614 351.522 279.421 343.712 277.46C329.235 273.805 314.517 271.416 299.558 270.293C284.599 269.17 269.694 269.339 254.842 270.801Z" fill="white"/>
<path d="M494.95 171.687C490.903 157.477 482.113 147.511 468.581 141.787C460.13 138.222 451.438 137.214 442.505 138.765C428.313 141.083 417.036 148.233 408.674 160.214C400.33 172.16 397.566 185.256 400.383 199.501C403.165 213.497 410.573 224.32 422.608 231.968C434.589 239.599 447.364 240.972 460.932 236.087C473.983 231.344 483.834 222.938 490.484 210.867C497.349 198.44 498.837 185.38 494.95 171.687ZM482.728 189.231C481.748 203.745 474.759 214.264 461.761 220.789C448.086 227.672 435.623 226.005 424.373 215.788C413.265 205.697 410.234 193.555 415.28 179.363C420.04 165.937 429.08 156.639 442.398 151.469C450.208 150.096 457.571 151.362 464.489 155.266C477.665 162.737 483.745 174.059 482.728 189.231ZM468.287 166.713C467.146 165.233 465.969 164.021 464.756 163.076C461.155 160.294 456.163 158.85 449.78 158.743C445.572 158.654 442.006 159.18 439.082 160.321C438.28 160.624 437.495 160.99 436.729 161.418C435.035 162.309 433.386 163.468 431.781 164.894C429.659 166.784 427.823 168.933 426.272 171.34C424.756 173.782 423.642 176.35 422.929 179.042C422.002 182.394 421.725 185.88 422.1 189.499C422.474 193.011 423.419 196.417 424.934 199.715C425.612 201.195 426.379 202.595 427.234 203.914C428.465 205.768 429.855 207.453 431.407 208.969C434.295 211.75 437.495 213.622 441.008 214.585C443.343 215.28 445.822 215.557 448.443 215.414C450.903 215.289 453.363 214.79 455.824 213.916C460.174 212.454 464.453 209.887 468.661 206.214C470.533 204.574 472.049 202.96 473.208 201.373C473.974 200.321 474.58 199.287 475.026 198.271C475.757 196.613 476.221 194.678 476.417 192.467C476.577 190.774 476.586 188.759 476.444 186.423C476.212 183.624 475.846 181.333 475.347 179.55C474.919 177.999 474.17 176.216 473.101 174.201C472.53 173.185 471.888 172.088 471.175 170.912C470.105 169.218 469.142 167.818 468.287 166.713Z" fill="#0A0A0A"/>
<path d="M461.761 220.789C474.759 214.264 481.748 203.745 482.728 189.231C483.744 174.059 477.665 162.737 464.489 155.266C457.571 151.362 450.207 150.096 442.398 151.469C429.08 156.639 420.04 165.937 415.28 179.363C410.234 193.555 413.265 205.697 424.373 215.788C435.623 226.005 448.086 227.672 461.761 220.789ZM464.756 163.076C465.969 164.021 467.145 165.233 468.286 166.713C469.142 167.818 470.105 169.218 471.175 170.912C471.888 172.088 472.53 173.185 473.1 174.201C474.17 176.216 474.919 177.999 475.347 179.55C475.846 181.333 476.212 183.624 476.443 186.423C476.586 188.759 476.577 190.774 476.417 192.467C476.22 194.678 475.757 196.613 475.026 198.271C474.58 199.287 473.974 200.321 473.207 201.373C472.048 202.96 470.533 204.574 468.661 206.214C464.453 209.887 460.174 212.454 455.824 213.916C453.363 214.79 450.903 215.289 448.442 215.414C445.821 215.557 443.343 215.28 441.007 214.585C437.495 213.622 434.295 211.75 431.406 208.969C429.855 207.453 428.464 205.768 427.234 203.914C426.378 202.595 425.612 201.195 424.934 199.715C423.419 196.417 422.474 193.011 422.099 189.499C421.725 185.88 422.001 182.394 422.928 179.042C423.642 176.35 424.756 173.782 426.271 171.34C427.823 168.933 429.659 166.784 431.781 164.894C433.385 163.468 435.035 162.309 436.728 161.418C437.495 160.99 438.28 160.624 439.082 160.321C442.006 159.18 445.572 158.654 449.78 158.743C456.162 158.85 461.155 160.294 464.756 163.076Z" fill="white"/>
<path d="M431.914 141.627C399.857 109.427 361.15 95.7431 315.792 100.575C283.611 104.014 255.743 114.667 232.19 132.534C208.652 150.419 192.428 167.749 183.515 184.525C174.621 201.3 171.75 224.772 174.904 254.942C178.077 285.128 200.881 308.654 243.315 325.519C283.36 341.441 324.733 344.668 367.434 335.201C391.611 329.816 411.455 319.805 426.967 305.167C440.66 292.223 450.983 275.677 457.936 255.53C472.913 212.098 464.239 174.13 431.914 141.627ZM293.273 122.96C311.245 118.092 329.467 116.532 347.938 118.279C393.938 122.844 425.202 146.441 441.73 189.071C449.218 208.398 449.209 227.547 441.703 246.517C429.864 276.506 410.617 297.928 383.962 310.783C373.265 315.936 361.39 319.707 348.339 322.096C305.709 329.941 266.217 322.257 229.863 299.043C190.763 274.064 180.44 240.455 198.893 198.217C203.083 188.607 207.995 179.88 213.629 172.035C232.297 145.933 258.845 129.574 293.273 122.96Z" fill="#0A0A0A"/>
<path d="M347.938 118.279C329.467 116.532 311.245 118.092 293.273 122.96C258.845 129.574 232.297 145.933 213.629 172.035C207.995 179.88 203.083 188.607 198.893 198.217C180.44 240.455 190.763 274.064 229.863 299.043C266.217 322.257 305.709 329.941 348.339 322.096C361.39 319.707 373.265 315.936 383.962 310.783C410.617 297.928 429.864 276.506 441.703 246.517C449.209 227.547 449.218 208.398 441.729 189.071C425.202 146.441 393.938 122.844 347.938 118.279Z" fill="white"/>
<path d="M315.497 168.211C309.56 161.596 302.277 157.147 293.647 154.865C285.107 152.565 276.46 152.129 267.706 153.555C258.381 155.017 250.171 158.77 243.074 164.814C235.978 170.823 231.191 178.284 228.713 187.199C226.841 193.921 225.896 200.785 225.878 207.792C225.86 216.724 228.766 224.534 234.597 231.22C237.948 235.463 241.791 239.252 246.123 242.586C253.487 248.202 261.849 250.743 271.209 250.208C274.846 250.047 278.439 249.718 281.987 249.218C291.116 248.06 299.299 244.654 306.538 239.002C313.527 233.511 318.618 226.62 321.809 218.329C324.965 210.11 326.257 201.569 325.687 192.708C325.099 183.33 321.702 175.164 315.497 168.211ZM239.678 198.084C240.498 191.719 242.789 185.915 246.551 180.673C251.829 173.292 258.969 168.879 267.973 167.435C271.486 166.811 275.007 166.508 278.537 166.526C288.272 165.902 296.678 168.879 303.757 175.458C308.339 179.755 311.049 184.997 311.887 191.184C313.028 199.742 311.798 208.024 308.196 216.029C304.256 224.783 297.632 230.72 288.325 233.841C279.714 236.729 270.986 237.424 262.143 235.927C261.376 235.659 260.636 235.347 259.923 234.991C253.808 231.96 248.646 227.689 244.438 222.18C243.404 220.807 242.593 219.372 242.005 217.874C239.544 211.616 238.769 205.019 239.678 198.084ZM291.134 174.442C288.941 173.319 286.569 172.507 284.02 172.008C279.491 171.117 274.499 171.206 269.043 172.276C264.978 173.078 261.813 174.317 259.549 175.993C258.069 177.081 256.696 178.525 255.43 180.326C254.45 181.716 253.442 183.464 252.408 185.568C251.178 188.081 250.34 190.239 249.894 192.04C249.306 194.429 249.074 197.611 249.199 201.587C249.27 203.62 249.404 205.322 249.6 206.695C249.85 208.55 250.269 210.19 250.857 211.616C252.569 215.824 256.161 219.568 261.635 222.849C265.236 225.024 268.579 226.352 271.664 226.834C274.338 227.262 277.218 227.155 280.302 226.513C283.101 225.942 285.758 224.997 288.272 223.678C290.822 222.323 293.086 220.656 295.065 218.677C297.525 216.234 299.496 213.346 300.975 210.012C302.42 206.784 303.311 203.379 303.65 199.795C304.024 195.873 303.694 192.12 302.66 188.536C301.537 184.685 299.709 181.458 297.178 178.855C295.484 177.09 293.469 175.619 291.134 174.442Z" fill="#0A0A0A"/>
<path d="M246.551 180.673C242.789 185.915 240.498 191.719 239.678 198.084C238.769 205.019 239.544 211.616 242.005 217.874C242.593 219.372 243.404 220.807 244.439 222.18C248.646 227.689 253.808 231.96 259.923 234.991C260.637 235.347 261.376 235.659 262.143 235.927C270.987 237.424 279.714 236.729 288.326 233.841C297.633 230.72 304.256 224.783 308.196 216.029C311.798 208.024 313.028 199.742 311.887 191.184C311.049 184.997 308.339 179.755 303.757 175.458C296.679 168.879 288.272 165.902 278.537 166.526C275.007 166.508 271.486 166.811 267.973 167.435C258.97 168.879 251.829 173.292 246.551 180.673ZM284.02 172.008C286.569 172.507 288.941 173.319 291.134 174.442C293.469 175.619 295.484 177.09 297.178 178.855C299.71 181.458 301.537 184.685 302.66 188.536C303.695 192.12 304.024 195.873 303.65 199.795C303.311 203.379 302.42 206.784 300.976 210.012C299.496 213.346 297.526 216.234 295.065 218.677C293.086 220.656 290.822 222.323 288.272 223.678C285.758 224.997 283.102 225.942 280.302 226.513C277.218 227.155 274.338 227.262 271.664 226.834C268.58 226.352 265.237 225.024 261.635 222.849C256.161 219.568 252.569 215.824 250.857 211.616C250.269 210.19 249.85 208.55 249.6 206.695C249.404 205.322 249.27 203.62 249.199 201.587C249.074 197.611 249.306 194.429 249.894 192.04C250.34 190.239 251.178 188.081 252.408 185.568C253.442 183.464 254.45 181.716 255.43 180.326C256.696 178.525 258.069 177.081 259.549 175.993C261.813 174.317 264.978 173.078 269.043 172.276C274.499 171.206 279.491 171.117 284.02 172.008Z" fill="white"/>
<path d="M415.146 221.913C416.02 220.504 416.644 219.345 417.018 218.436C417.571 217.099 417.803 215.851 417.713 214.692C417.642 213.622 417.312 212.615 416.724 211.67C416.136 210.725 415.378 209.985 414.451 209.45C413.524 208.915 412.507 208.63 411.402 208.594C410.296 208.558 409.262 208.772 408.3 209.236C407.034 209.86 405.866 210.957 404.796 212.526C403.673 214.487 402.835 215.94 402.282 216.885C401.248 218.686 399.483 221.137 396.987 224.239C396.06 225.398 395.338 226.245 394.821 226.78C393.983 227.672 393.145 228.376 392.307 228.893C391.059 229.66 389.552 230.186 387.787 230.471C386.45 230.685 384.827 230.765 382.919 230.712C375.823 230.515 368.959 229.267 362.326 226.967C360.401 226.308 359.064 225.889 358.315 225.71C356.782 225.372 355.427 225.336 354.25 225.603C352.556 226.013 351.219 227.03 350.238 228.652C349.24 230.31 348.999 231.96 349.516 233.6C350.336 236.274 352.948 238.325 357.352 239.751C360.579 240.821 364.76 241.81 369.895 242.72C372.962 243.29 375.6 243.691 377.811 243.923C380.7 244.226 383.365 244.315 385.808 244.191C391.852 243.852 396.88 242.238 400.891 239.35C402.193 238.423 403.503 237.264 404.823 235.873C405.786 234.821 406.918 233.466 408.219 231.808C410.805 228.474 413.113 225.175 415.146 221.913Z" fill="#0A0A0A"/>
</svg>
