<svg width="507" height="802" viewBox="0 0 507 802" fill="none" xmlns="http://www.w3.org/2000/svg">
<path d="M149.986 552.776C147.33 552.954 145.208 554.532 143.621 557.509C142.409 559.792 141.58 562.724 141.134 566.308C137.728 593.748 134.804 624.664 132.362 659.057C130.882 679.953 129.054 710.967 126.879 752.099C126.398 761.085 126.255 767.905 126.451 772.559C126.772 780.118 127.887 786.769 129.794 792.51C130.845 795.644 132.165 798.613 133.753 801.415H222.784C223.909 799.473 224.791 797.708 225.431 796.12C226.715 792.893 227.294 789.862 227.17 787.027C227.045 784.05 226.162 781.143 224.522 778.309C222.989 775.67 220.965 773.343 218.451 771.328C214.386 768.101 208.805 765.552 201.709 763.679C192.331 761.237 182.721 760.31 172.879 760.898C163.037 761.486 153.606 763.564 144.584 767.129C146.242 701.464 150.878 635.887 158.491 570.4C158.776 567.922 158.928 566.041 158.945 564.757C158.945 562.671 158.687 560.835 158.17 559.248C157.546 557.376 156.503 555.825 155.041 554.594C153.472 553.275 151.787 552.669 149.986 552.776ZM309.648 563.687C309.399 561.619 308.917 559.827 308.204 558.312C307.366 556.529 306.145 555.111 304.54 554.059C302.829 552.954 301.09 552.562 299.325 552.883C296.704 553.364 294.779 555.183 293.548 558.338C292.621 560.745 292.158 563.759 292.158 567.378C292.086 595.031 292.915 626.072 294.645 660.501C295.715 681.433 297.658 712.447 300.475 753.544C301.081 762.512 301.759 769.296 302.508 773.896C303.756 781.348 305.672 787.812 308.258 793.285C309.628 796.18 311.233 798.891 313.072 801.415H396.299C397.613 799.238 398.905 796.814 400.177 794.141C401.799 790.753 402.949 787.812 403.627 785.315C404.501 781.946 404.706 778.861 404.242 776.062C403.761 773.12 402.53 770.348 400.551 767.745C398.715 765.32 396.433 763.261 393.705 761.567C389.265 758.839 383.408 756.976 376.134 755.977C366.542 754.693 356.896 754.934 347.197 756.699C337.498 758.464 328.387 761.674 319.865 766.327C313.553 700.929 310.219 635.272 309.862 569.357C309.844 566.861 309.773 564.971 309.648 563.687Z" fill="#0A0A0A"/>
<path d="M248.833 7.49061C247.46 5.45806 245.837 3.85342 243.965 2.67668C241.059 0.840252 237.591 -0.0512174 233.562 0.00227072C230.138 0.0379295 227.152 0.760046 224.602 2.16857C222.516 3.34531 220.626 5.03016 218.933 7.22317C217.899 8.54255 216.882 10.1116 215.884 11.9302C215.206 13.1782 214.377 14.8542 213.397 16.958C211.382 21.3619 210.071 24.9278 209.465 27.6557C208.164 33.4145 208.449 39.6637 210.321 46.4032C211.801 51.8055 214.19 57.1722 217.488 62.5032C218.915 64.7854 220.225 66.5148 221.42 67.6916C221.866 68.1373 222.329 68.5563 222.811 68.9485C222.811 69.0733 222.811 69.1981 222.811 69.3229C222.811 69.4477 222.811 69.5815 222.811 69.7241C222.811 69.8489 222.811 69.9737 222.811 70.0985C222.811 70.2412 222.811 70.3749 222.811 70.4997C222.811 70.6245 222.811 70.7493 222.811 70.8741C222.811 71.0167 222.811 71.1504 222.811 71.2752C222.811 71.4 222.811 71.5338 222.811 71.6764C222.811 71.8012 222.811 71.926 222.811 72.0508C222.811 72.1935 222.811 72.3272 222.811 72.452C222.811 72.5768 222.811 72.7105 222.811 72.8531C222.811 72.978 222.811 73.1028 222.811 73.2276C222.811 73.3702 222.811 73.5039 222.811 73.6287C222.811 73.7535 222.811 73.8873 222.811 74.0299C222.811 74.1547 222.811 74.2795 222.811 74.4043C222.811 74.547 222.811 74.6807 222.811 74.8055C222.811 74.9303 222.811 75.0551 222.811 75.1799C222.811 75.3225 222.811 75.4563 222.811 75.5811C222.811 75.7059 222.811 75.8396 222.811 75.9822C222.811 76.107 222.811 76.2318 222.811 76.3566C222.811 76.4993 222.811 76.633 222.811 76.7578C222.811 76.8826 222.811 77.0163 222.811 77.1589C222.811 77.2837 222.811 77.4086 222.811 77.5334C222.811 77.676 222.811 77.8097 222.811 77.9345C222.811 78.0593 222.811 78.193 222.811 78.3357C222.811 78.4605 222.811 78.5853 222.811 78.7101C222.811 78.8527 222.811 78.9865 222.811 79.1113C222.811 79.2361 222.811 79.3609 222.811 79.4857C222.811 79.6283 222.811 79.762 222.811 79.8869C222.811 80.0117 222.811 80.1454 222.811 80.288C222.811 80.4128 222.811 80.5376 222.811 80.6624C222.811 80.8051 222.811 80.9388 222.811 81.0636C222.811 81.1884 222.811 81.3221 222.811 81.4648C222.811 81.5896 222.811 81.7143 222.811 81.8391C222.811 81.9818 222.811 82.1155 222.811 82.2403C222.811 82.3651 222.811 82.4988 222.811 82.6415C222.811 82.7663 222.811 82.8911 222.811 83.0159C222.811 83.1585 222.811 83.2923 222.811 83.4171C222.811 83.5419 222.811 83.6667 222.811 83.7915C222.811 83.9341 222.811 84.0678 222.811 84.1926C222.811 84.3175 222.811 84.4512 222.811 84.5938C222.811 84.7186 222.811 84.8434 222.811 84.9682C222.811 85.1109 222.811 85.2446 222.811 85.3694C222.811 85.4942 222.811 85.6279 222.811 85.7706C222.811 85.8954 222.811 86.0202 222.811 86.145C222.811 86.2876 222.811 86.4213 222.811 86.5461C222.811 86.6709 222.811 86.8047 222.811 86.9473C222.811 87.0721 222.811 87.1969 222.811 87.3217C222.811 87.4643 222.811 87.598 222.811 87.7228C222.811 87.8477 222.811 87.9814 222.811 88.124C222.811 88.2488 222.811 88.3736 222.811 88.4984C222.811 88.6232 222.811 88.757 222.811 88.8996C222.811 89.0244 222.811 89.1492 222.811 89.274C222.811 89.4167 222.811 89.5504 222.811 89.6752C222.811 89.8 222.811 89.9337 222.811 90.0763C222.811 90.2011 222.811 90.326 222.811 90.4508C222.811 90.5934 222.811 90.7271 222.811 90.8519C222.811 90.9767 222.811 91.1105 222.811 91.2531C222.811 91.3779 222.811 91.5027 222.811 91.6275C222.811 91.7701 222.811 91.9039 222.811 92.0287C222.811 92.1535 222.811 92.2872 222.811 92.4298C222.811 92.5546 222.811 92.6794 222.811 92.8042C222.811 92.929 222.811 93.0628 222.811 93.2054C222.811 93.3302 222.811 93.455 222.811 93.5798C222.811 93.7224 222.811 93.8562 222.811 93.981C222.811 94.1058 222.811 94.2395 222.811 94.3821C222.811 94.5069 222.811 94.6318 222.811 94.7566C222.811 94.8992 222.811 95.0329 222.811 95.1577C222.811 95.2825 222.811 95.4162 222.811 95.5589C222.811 95.6837 222.811 95.8085 222.811 95.9333C222.811 96.0759 222.811 96.2097 222.811 96.3345C222.811 96.4593 222.811 96.593 222.811 96.7356C222.811 96.8604 222.811 96.9852 222.811 97.11C222.811 97.2349 222.811 97.3686 222.811 97.5112C222.811 97.636 222.811 97.7608 222.811 97.8856C222.811 98.0282 222.811 98.162 222.811 98.2868C222.811 98.4116 222.811 98.5453 222.811 98.6879C222.811 98.8127 222.811 98.9375 222.811 99.0623C222.811 99.205 222.811 99.3387 222.811 99.4635C222.811 99.5883 222.811 99.722 222.811 99.8647C222.811 99.9895 222.811 100.114 222.811 100.239C222.811 100.382 222.811 100.515 222.811 100.64C222.811 100.765 222.811 100.899 222.811 101.041C222.811 101.166 222.811 101.291 222.811 101.416C222.811 101.541 222.811 101.674 222.811 101.817C222.811 101.942 222.811 102.067 222.811 102.191C222.811 102.334 222.811 102.468 222.811 102.593C222.811 102.717 222.811 102.851 222.811 102.994C222.811 103.119 222.811 103.243 222.811 103.368C222.811 103.511 222.811 103.644 222.811 103.769C222.811 103.894 222.811 104.028 222.811 104.17C222.811 104.295 222.811 104.42 222.811 104.545C222.811 104.688 222.811 104.821 222.811 104.946C222.811 105.071 222.811 105.205 222.811 105.347C222.811 105.472 222.811 105.597 222.811 105.722C222.811 105.846 222.811 105.98 222.811 106.123C222.811 106.248 222.811 106.372 222.811 106.497C222.811 106.64 222.811 106.774 222.811 106.898C222.811 107.023 222.811 107.157 222.811 107.3C222.811 107.424 222.811 107.549 222.811 107.674C222.811 107.817 222.811 107.95 222.811 108.075C222.811 108.2 222.811 108.334 222.811 108.476C222.811 108.601 222.811 108.726 222.811 108.851C222.811 108.993 222.811 109.127 222.811 109.252C222.811 109.377 222.811 109.51 222.811 109.653C222.811 109.778 222.811 109.903 222.811 110.027C222.811 110.17 222.811 110.304 222.811 110.429C222.811 110.553 222.811 110.678 222.811 110.803C222.811 110.946 222.811 111.079 222.811 111.204C222.811 111.329 222.811 111.463 222.811 111.605C222.811 111.73 222.811 111.855 222.811 111.98C222.811 112.122 222.811 112.256 222.811 112.381C222.811 112.506 222.811 112.639 222.811 112.782C222.811 112.907 222.811 113.032 222.811 113.156C222.811 113.299 222.811 113.433 222.811 113.558C222.811 113.682 222.811 113.816 222.811 113.959C222.811 114.084 222.811 114.208 222.811 114.333C222.811 114.476 222.811 114.61 222.811 114.734C222.811 114.859 222.811 114.984 222.811 115.109C222.811 115.251 222.811 115.385 222.811 115.51C222.811 115.635 222.811 115.768 222.811 115.911C222.811 116.036 222.811 116.161 222.811 116.286C222.811 116.428 222.811 116.562 222.811 116.687C222.811 116.812 222.811 116.945 222.811 117.088C222.811 117.213 222.811 117.337 222.811 117.462C222.811 117.605 222.811 117.739 222.811 117.863C222.811 117.988 222.811 118.122 222.811 118.265C222.811 118.389 222.811 118.514 222.811 118.639C222.811 118.782 222.811 118.915 222.811 119.04C222.811 119.165 222.811 119.29 222.811 119.415C222.811 119.557 222.811 119.691 222.811 119.816C222.811 119.941 222.811 120.074 222.811 120.217C222.811 120.342 222.811 120.467 222.811 120.591C222.811 120.734 222.811 120.868 222.811 120.992C222.811 121.117 222.811 121.251 222.811 121.394C222.811 121.518 222.811 121.643 222.811 121.768C222.811 121.911 222.811 122.044 222.811 122.169C222.811 122.294 222.811 122.428 222.811 122.57C222.811 122.695 222.811 122.82 222.811 122.945C222.811 123.087 222.811 123.221 222.811 123.346C222.811 123.471 222.811 123.596 222.811 123.72C222.811 123.863 222.811 123.997 222.811 124.122C222.811 124.246 222.811 124.38 222.811 124.523C222.811 124.648 222.811 124.772 222.811 124.897C222.811 125.04 222.811 125.173 222.811 125.298C222.811 125.423 222.811 125.557 222.811 125.699C222.811 125.824 222.811 125.949 222.811 126.074C222.811 126.216 222.811 126.35 222.811 126.475C222.811 126.6 222.811 126.734 222.811 126.876C222.811 127.001 222.811 127.126 222.811 127.251C222.811 127.393 222.811 127.527 222.811 127.652C222.811 127.777 222.811 127.91 222.811 128.053C222.811 128.178 222.811 128.303 222.811 128.427C222.811 128.552 222.811 128.686 222.811 128.829C222.811 128.953 222.811 129.078 222.811 129.203C222.811 129.346 222.811 129.479 222.811 129.604C222.811 129.729 222.811 129.863 222.811 130.005C222.811 130.13 222.811 130.255 222.811 130.38C222.811 130.522 222.811 130.656 222.811 130.781C222.811 130.906 222.811 131.039 222.811 131.182C222.811 131.307 222.811 131.432 222.811 131.556C222.811 131.699 222.811 131.833 222.811 131.958C222.811 132.082 222.811 132.216 222.811 132.359C222.811 132.484 222.811 132.608 222.811 132.733C222.811 132.858 222.811 132.992 222.811 133.134C222.811 133.259 222.811 133.384 222.811 133.509C222.811 133.651 222.811 133.785 222.811 133.91C222.811 134.035 222.811 134.168 222.811 134.311C222.811 134.436 222.811 134.561 222.811 134.685C222.811 134.828 222.811 134.962 222.811 135.087C222.811 135.211 222.811 135.345 222.811 135.488C222.811 135.613 222.811 135.737 222.811 135.862C222.811 136.005 222.811 136.139 222.811 136.263C222.811 136.388 222.811 136.522 222.811 136.665C222.811 136.789 222.811 136.914 222.811 137.039C222.811 137.164 222.811 137.297 222.811 137.44C222.811 137.565 222.811 137.69 222.811 137.815C222.811 137.957 222.811 138.091 222.811 138.216C222.811 138.34 222.811 138.474 222.811 138.617C222.811 138.742 222.811 138.866 222.811 138.991C222.811 139.134 222.811 139.268 222.811 139.392C222.811 139.517 222.811 139.651 222.811 139.794C222.811 139.918 222.811 140.043 222.811 140.168C222.811 140.311 222.811 140.444 222.811 140.569C222.811 140.694 222.811 140.828 222.811 140.97C222.811 141.095 222.811 141.22 222.811 141.345C222.811 141.47 222.811 141.603 222.811 141.746C222.811 141.871 222.811 141.996 222.811 142.12C222.811 142.263 222.811 142.397 222.811 142.521C222.811 142.646 222.811 142.78 222.811 142.923C222.811 143.047 222.811 143.172 222.811 143.297C222.811 143.44 222.811 143.573 222.811 143.698C222.811 143.823 222.811 143.957 222.811 144.099C222.811 144.224 222.811 144.349 222.811 144.474C222.811 144.616 222.811 144.75 222.811 144.875C222.811 145 222.811 145.133 222.811 145.276C222.811 145.401 222.811 145.526 222.811 145.651C222.811 145.775 222.811 145.909 222.811 146.052C222.811 146.176 222.811 146.301 222.811 146.426C222.811 146.569 222.811 146.702 222.811 146.827C222.811 146.952 222.811 147.086 222.811 147.228C222.811 147.353 222.811 147.478 222.811 147.603C222.811 147.745 222.811 147.879 222.811 148.004C222.811 148.129 222.811 148.263 222.811 148.405C222.811 148.53 222.811 148.655 222.811 148.78C222.811 148.922 222.811 149.056 222.811 149.181C222.811 149.306 222.811 149.439 222.811 149.582C222.811 149.707 222.811 149.832 222.811 149.956C222.811 150.099 222.811 150.233 222.811 150.357C222.811 150.482 222.811 150.607 222.811 150.732C222.811 150.875 222.811 151.008 222.811 151.133C222.811 151.258 222.811 151.392 222.811 151.534C222.811 151.659 222.811 151.784 222.811 151.909C222.811 152.051 222.811 152.185 222.811 152.31C222.811 152.435 222.811 152.568 222.811 152.711C222.811 152.836 222.811 152.961 222.811 153.085C222.811 153.228 222.811 153.362 222.811 153.487C222.811 153.611 222.811 153.745 222.811 153.888C222.846 154.013 222.891 154.137 222.944 154.262C222.944 154.405 222.944 154.538 222.944 154.663C222.944 154.788 222.944 154.913 222.944 155.038C222.98 155.18 223.024 155.314 223.078 155.439C223.078 155.564 223.078 155.697 223.078 155.84C223.114 155.965 223.149 156.09 223.185 156.214C223.238 156.357 223.283 156.491 223.319 156.616C223.372 156.74 223.417 156.874 223.452 157.017C223.506 157.142 223.55 157.266 223.586 157.391C223.675 157.534 223.764 157.668 223.854 157.792C223.889 157.917 223.934 158.051 223.987 158.194C224.076 158.318 224.166 158.443 224.255 158.568C224.379 158.711 224.504 158.844 224.629 158.969C224.718 159.094 224.807 159.219 224.897 159.344C225.021 159.486 225.155 159.62 225.298 159.745C225.423 159.869 225.547 160.003 225.672 160.146C225.797 160.271 225.931 160.395 226.073 160.52C226.252 160.663 226.421 160.797 226.581 160.921C226.813 161.046 227.036 161.18 227.25 161.323C227.5 161.447 227.758 161.572 228.026 161.697C228.382 161.84 228.73 161.973 229.069 162.098C229.425 162.187 229.773 162.276 230.112 162.366C230.593 162.401 231.074 162.446 231.556 162.499C232.037 162.446 232.51 162.401 232.973 162.366C233.33 162.276 233.678 162.187 234.016 162.098C234.373 161.973 234.721 161.84 235.059 161.697C235.327 161.572 235.594 161.447 235.862 161.323C236.04 161.18 236.209 161.046 236.37 160.921C236.548 160.797 236.726 160.663 236.905 160.52C237.083 160.395 237.252 160.271 237.413 160.146C237.555 160.003 237.689 159.869 237.814 159.745C237.939 159.62 238.072 159.486 238.215 159.344C238.286 159.219 238.367 159.094 238.456 158.969C238.545 158.844 238.634 158.711 238.723 158.568C238.812 158.443 238.902 158.318 238.991 158.194C239.026 158.051 239.071 157.917 239.124 157.792C239.214 157.668 239.294 157.534 239.365 157.391C239.419 157.266 239.463 157.142 239.499 157.017C239.552 156.874 239.597 156.74 239.633 156.616C239.686 156.491 239.731 156.357 239.766 156.214C239.82 156.09 239.864 155.965 239.9 155.84C239.936 155.697 239.98 155.564 240.034 155.439C240.069 155.314 240.114 155.18 240.167 155.038C240.167 154.913 240.167 154.788 240.167 154.663C240.167 154.538 240.167 154.405 240.167 154.262C240.167 154.137 240.167 154.013 240.167 153.888C240.203 153.745 240.248 153.611 240.301 153.487C240.301 153.362 240.301 153.228 240.301 153.085C240.301 152.961 240.301 152.836 240.301 152.711C240.301 152.568 240.301 152.435 240.301 152.31C240.301 152.185 240.301 152.051 240.301 151.909C240.301 151.784 240.301 151.659 240.301 151.534C240.301 151.392 240.301 151.258 240.301 151.133C240.301 151.008 240.301 150.875 240.301 150.732C240.301 150.607 240.301 150.482 240.301 150.357C240.301 150.233 240.301 150.099 240.301 149.956C240.301 149.832 240.301 149.707 240.301 149.582C240.301 149.439 240.301 149.306 240.301 149.181C240.301 149.056 240.301 148.922 240.301 148.78C240.301 148.655 240.301 148.53 240.301 148.405C240.301 148.263 240.301 148.129 240.301 148.004C240.301 147.879 240.301 147.745 240.301 147.603C240.301 147.478 240.301 147.353 240.301 147.228C240.301 147.086 240.301 146.952 240.301 146.827C240.301 146.702 240.301 146.569 240.301 146.426C240.301 146.301 240.301 146.176 240.301 146.052C240.301 145.909 240.301 145.775 240.301 145.651C240.301 145.526 240.301 145.401 240.301 145.276C240.301 145.133 240.301 145 240.301 144.875C240.301 144.75 240.301 144.616 240.301 144.474C240.301 144.349 240.301 144.224 240.301 144.099C240.301 143.957 240.301 143.823 240.301 143.698C240.301 143.573 240.301 143.44 240.301 143.297C240.301 143.172 240.301 143.047 240.301 142.923C240.301 142.78 240.301 142.646 240.301 142.521C240.301 142.397 240.301 142.263 240.301 142.12C240.301 141.996 240.301 141.871 240.301 141.746C240.301 141.603 240.301 141.47 240.301 141.345C240.301 141.22 240.301 141.095 240.301 140.97C240.301 140.828 240.301 140.694 240.301 140.569C240.301 140.444 240.301 140.311 240.301 140.168C240.301 140.043 240.301 139.918 240.301 139.794C240.301 139.651 240.301 139.517 240.301 139.392C240.301 139.268 240.301 139.134 240.301 138.991C240.301 138.866 240.301 138.742 240.301 138.617C240.301 138.474 240.301 138.34 240.301 138.216C240.301 138.091 240.301 137.957 240.301 137.815C240.301 137.69 240.301 137.565 240.301 137.44C240.301 137.297 240.301 137.164 240.301 137.039C240.301 136.914 240.301 136.789 240.301 136.665C240.301 136.522 240.301 136.388 240.301 136.263C240.301 136.139 240.301 136.005 240.301 135.862C240.301 135.737 240.301 135.613 240.301 135.488C240.301 135.345 240.301 135.211 240.301 135.087C240.301 134.962 240.301 134.828 240.301 134.685C240.301 134.561 240.301 134.436 240.301 134.311C240.301 134.168 240.301 134.035 240.301 133.91C240.301 133.785 240.301 133.651 240.301 133.509C240.301 133.384 240.301 133.259 240.301 133.134C240.301 132.992 240.301 132.858 240.301 132.733C240.301 132.608 240.301 132.484 240.301 132.359C240.301 132.216 240.301 132.082 240.301 131.958C240.301 131.833 240.301 131.699 240.301 131.556C240.301 131.432 240.301 131.307 240.301 131.182C240.301 131.039 240.301 130.906 240.301 130.781C240.301 130.656 240.301 130.522 240.301 130.38C240.301 130.255 240.301 130.13 240.301 130.005C240.301 129.863 240.301 129.729 240.301 129.604C240.301 129.479 240.301 129.346 240.301 129.203C240.301 129.078 240.301 128.953 240.301 128.829C240.301 128.686 240.301 128.552 240.301 128.427C240.301 128.303 240.301 128.178 240.301 128.053C240.301 127.91 240.301 127.777 240.301 127.652C240.301 127.527 240.301 127.393 240.301 127.251C240.301 127.126 240.301 127.001 240.301 126.876C240.301 126.734 240.301 126.6 240.301 126.475C240.301 126.35 240.301 126.216 240.301 126.074C240.301 125.949 240.301 125.824 240.301 125.699C240.301 125.557 240.301 125.423 240.301 125.298C240.301 125.173 240.301 125.04 240.301 124.897C240.301 124.772 240.301 124.648 240.301 124.523C240.301 124.38 240.301 124.246 240.301 124.122C240.301 123.997 240.301 123.863 240.301 123.72C240.301 123.596 240.301 123.471 240.301 123.346C240.301 123.221 240.301 123.087 240.301 122.945C240.301 122.82 240.301 122.695 240.301 122.57C240.301 122.428 240.301 122.294 240.301 122.169C240.301 122.044 240.301 121.911 240.301 121.768C240.301 121.643 240.301 121.518 240.301 121.394C240.301 121.251 240.301 121.117 240.301 120.992C240.301 120.868 240.301 120.734 240.301 120.591C240.301 120.467 240.301 120.342 240.301 120.217C240.301 120.074 240.301 119.941 240.301 119.816C240.301 119.691 240.301 119.557 240.301 119.415C240.301 119.29 240.301 119.165 240.301 119.04C240.301 118.915 240.301 118.782 240.301 118.639C240.301 118.514 240.301 118.389 240.301 118.265C240.301 118.122 240.301 117.988 240.301 117.863C240.301 117.739 240.301 117.605 240.301 117.462C240.301 117.337 240.301 117.213 240.301 117.088C240.301 116.945 240.301 116.812 240.301 116.687C240.301 116.562 240.301 116.428 240.301 116.286C240.301 116.161 240.301 116.036 240.301 115.911C240.301 115.768 240.301 115.635 240.301 115.51C240.301 115.385 240.301 115.251 240.301 115.109C240.301 114.984 240.301 114.859 240.301 114.734C240.301 114.61 240.301 114.476 240.301 114.333C240.301 114.208 240.301 114.084 240.301 113.959C240.301 113.816 240.301 113.682 240.301 113.558C240.301 113.433 240.301 113.299 240.301 113.156C240.301 113.032 240.301 112.907 240.301 112.782C240.301 112.639 240.301 112.506 240.301 112.381C240.301 112.256 240.301 112.122 240.301 111.98C240.301 111.855 240.301 111.73 240.301 111.605C240.301 111.463 240.301 111.329 240.301 111.204C240.301 111.079 240.301 110.946 240.301 110.803C240.301 110.678 240.301 110.553 240.301 110.429C240.301 110.304 240.301 110.17 240.301 110.027C240.301 109.903 240.301 109.778 240.301 109.653C240.301 109.51 240.301 109.377 240.301 109.252C240.301 109.127 240.301 108.993 240.301 108.851C240.301 108.726 240.301 108.601 240.301 108.476C240.301 108.334 240.301 108.2 240.301 108.075C240.301 107.95 240.301 107.817 240.301 107.674C240.301 107.549 240.301 107.424 240.301 107.3C240.301 107.157 240.301 107.023 240.301 106.898C240.301 106.774 240.301 106.64 240.301 106.497C240.301 106.372 240.301 106.248 240.301 106.123C240.301 105.98 240.301 105.846 240.301 105.722C240.301 105.597 240.301 105.472 240.301 105.347C240.301 105.205 240.301 105.071 240.301 104.946C240.301 104.821 240.301 104.688 240.301 104.545C240.301 104.42 240.301 104.295 240.301 104.17C240.301 104.028 240.301 103.894 240.301 103.769C240.301 103.644 240.301 103.511 240.301 103.368C240.301 103.243 240.301 103.119 240.301 102.994C240.301 102.851 240.301 102.717 240.301 102.593C240.301 102.468 240.301 102.334 240.301 102.191C240.301 102.067 240.301 101.942 240.301 101.817C240.301 101.674 240.301 101.541 240.301 101.416C240.301 101.291 240.301 101.166 240.301 101.041C240.301 100.899 240.301 100.765 240.301 100.64C240.301 100.515 240.301 100.382 240.301 100.239C240.301 100.114 240.301 99.9895 240.301 99.8647C240.301 99.722 240.301 99.5883 240.301 99.4635C240.301 99.3387 240.301 99.205 240.301 99.0623C240.301 98.9375 240.301 98.8127 240.301 98.6879C240.301 98.5453 240.301 98.4116 240.301 98.2868C240.301 98.162 240.301 98.0282 240.301 97.8856C240.301 97.7608 240.301 97.636 240.301 97.5112C240.301 97.3686 240.301 97.2349 240.301 97.11C240.301 96.9852 240.301 96.8604 240.301 96.7356C240.301 96.593 240.301 96.4593 240.301 96.3345C240.301 96.2097 240.301 96.0759 240.301 95.9333C240.301 95.8085 240.301 95.6837 240.301 95.5589C240.301 95.4162 240.301 95.2825 240.301 95.1577C240.301 95.0329 240.301 94.8992 240.301 94.7566C240.301 94.6318 240.301 94.5069 240.301 94.3821C240.301 94.2395 240.301 94.1058 240.301 93.981C240.301 93.8562 240.301 93.7224 240.301 93.5798C240.301 93.455 240.301 93.3302 240.301 93.2054C240.301 93.0628 240.301 92.929 240.301 92.8042C240.301 92.6794 240.301 92.5546 240.301 92.4298C240.301 92.2872 240.301 92.1535 240.301 92.0287C240.301 91.9039 240.301 91.7701 240.301 91.6275C240.301 91.5027 240.301 91.3779 240.301 91.2531C240.301 91.1105 240.301 90.9767 240.301 90.8519C240.301 90.7271 240.301 90.5934 240.301 90.4508C240.301 90.326 240.301 90.2011 240.301 90.0763C240.301 89.9337 240.301 89.8 240.301 89.6752C240.301 89.5504 240.301 89.4167 240.301 89.274C240.301 89.1492 240.301 89.0244 240.301 88.8996C240.301 88.757 240.301 88.6232 240.301 88.4984C240.301 88.3736 240.301 88.2488 240.301 88.124C240.301 87.9814 240.301 87.8477 240.301 87.7228C240.301 87.598 240.301 87.4643 240.301 87.3217C240.301 87.1969 240.301 87.0721 240.301 86.9473C240.301 86.8047 240.301 86.6709 240.301 86.5461C240.301 86.4213 240.301 86.2876 240.301 86.145C240.301 86.0202 240.301 85.8954 240.301 85.7706C240.301 85.6279 240.301 85.4942 240.301 85.3694C240.301 85.2446 240.301 85.1109 240.301 84.9682C240.301 84.8434 240.301 84.7186 240.301 84.5938C240.301 84.4512 240.301 84.3175 240.301 84.1926C240.301 84.0678 240.301 83.9341 240.301 83.7915C240.301 83.6667 240.301 83.5419 240.301 83.4171C240.301 83.2923 240.301 83.1585 240.301 83.0159C240.301 82.8911 240.301 82.7663 240.301 82.6415C240.301 82.4988 240.301 82.3651 240.301 82.2403C240.301 82.1155 240.301 81.9818 240.301 81.8391C240.301 81.7143 240.301 81.5896 240.301 81.4648C240.301 81.3221 240.301 81.1884 240.301 81.0636C240.301 80.9388 240.301 80.8051 240.301 80.6624C240.301 80.5376 240.301 80.4128 240.301 80.288C240.301 80.1454 240.301 80.0117 240.301 79.8869C240.301 79.762 240.301 79.6283 240.301 79.4857C240.301 79.3609 240.301 79.2361 240.301 79.1113C240.301 78.9865 240.301 78.8527 240.301 78.7101C240.301 78.5853 240.301 78.4605 240.301 78.3357C240.301 78.193 240.301 78.0593 240.301 77.9345C240.301 77.8097 240.301 77.676 240.301 77.5334C240.301 77.4086 240.301 77.2837 240.301 77.1589C240.301 77.0163 240.301 76.8826 240.301 76.7578C240.301 76.633 240.301 76.4993 240.301 76.3566C240.301 76.2318 240.301 76.107 240.301 75.9822C240.301 75.8396 240.301 75.7059 240.301 75.5811C240.301 75.4563 240.301 75.3225 240.301 75.1799C240.301 75.0551 240.301 74.9303 240.301 74.8055C240.301 74.6807 240.301 74.547 240.301 74.4043C240.301 74.2795 240.301 74.1547 240.301 74.0299C240.301 73.8873 240.301 73.7535 240.301 73.6287C240.301 73.5039 240.301 73.3702 240.301 73.2276C240.301 73.1028 240.301 72.978 240.301 72.8531C240.301 72.7105 240.301 72.5768 240.301 72.452C240.301 72.3272 240.301 72.1935 240.301 72.0508C240.301 71.926 240.301 71.8012 240.301 71.6764C240.301 71.5338 240.301 71.4 240.301 71.2752C240.301 71.1504 240.301 71.0167 240.301 70.8741C240.301 70.7493 240.301 70.6245 240.301 70.4997C240.301 70.3749 240.301 70.2412 240.301 70.0985C240.301 69.9737 240.301 69.8489 240.301 69.7241C240.301 69.5815 240.301 69.4477 240.301 69.3229C240.301 69.1981 240.301 69.0644 240.301 68.9218C240.301 68.797 240.301 68.6722 240.301 68.5474C241.05 67.7094 241.817 66.7288 242.601 65.6055C249.162 55.9598 252.648 43.2653 253.058 27.5219C253.129 24.8297 253.085 22.5119 252.924 20.5685C252.728 18.0724 252.336 15.808 251.748 13.7755C251.052 11.4398 250.081 9.34487 248.833 7.49061ZM397.021 27.5219C397.093 24.8297 397.048 22.5119 396.888 20.5685C396.692 18.0724 396.299 15.808 395.711 13.7755C395.016 11.4398 394.044 9.34487 392.796 7.49061C391.423 5.45806 389.801 3.85342 387.928 2.67668C385.022 0.840252 381.554 -0.0512174 377.525 0.00227072C374.102 0.0379295 371.115 0.760046 368.566 2.16857C366.48 3.34531 364.59 5.03016 362.896 7.22317C361.862 8.54255 360.846 10.1116 359.847 11.9302C359.17 13.1782 358.341 14.8542 357.36 16.958C355.345 21.3619 354.035 24.9278 353.429 27.6557C352.127 33.4145 352.412 39.6637 354.284 46.4032C355.764 51.8055 358.153 57.1722 361.452 62.5032C362.878 64.7854 364.189 66.5148 365.383 67.6916C365.829 68.1373 366.293 68.5563 366.774 68.9485C366.774 69.0733 366.774 69.1981 366.774 69.3229C366.774 69.4477 366.774 69.5815 366.774 69.7241C366.774 69.8489 366.774 69.9737 366.774 70.0985C366.774 70.2412 366.774 70.3749 366.774 70.4997C366.774 70.6245 366.774 70.7493 366.774 70.8741C366.774 71.0167 366.774 71.1504 366.774 71.2752C366.774 71.4 366.774 71.5338 366.774 71.6764C366.774 71.8012 366.774 71.926 366.774 72.0508C366.774 72.1935 366.774 72.3272 366.774 72.452C366.774 72.5768 366.774 72.7105 366.774 72.8531C366.774 72.978 366.774 73.1028 366.774 73.2276C366.774 73.3702 366.774 73.5039 366.774 73.6287C366.774 73.7535 366.774 73.8873 366.774 74.0299C366.774 74.1547 366.774 74.2795 366.774 74.4043C366.774 74.547 366.774 74.6807 366.774 74.8055C366.774 74.9303 366.774 75.0551 366.774 75.1799C366.774 75.3225 366.774 75.4563 366.774 75.5811C366.774 75.7059 366.774 75.8396 366.774 75.9822C366.774 76.107 366.774 76.2318 366.774 76.3566C366.774 76.4993 366.774 76.633 366.774 76.7578C366.774 76.8826 366.774 77.0163 366.774 77.1589C366.774 77.2837 366.774 77.4086 366.774 77.5334C366.774 77.676 366.774 77.8097 366.774 77.9345C366.774 78.0593 366.774 78.193 366.774 78.3357C366.774 78.4605 366.774 78.5853 366.774 78.7101C366.774 78.8527 366.774 78.9865 366.774 79.1113C366.774 79.2361 366.774 79.3609 366.774 79.4857C366.774 79.6283 366.774 79.762 366.774 79.8869C366.774 80.0117 366.774 80.1454 366.774 80.288C366.774 80.4128 366.774 80.5376 366.774 80.6624C366.774 80.8051 366.774 80.9388 366.774 81.0636C366.774 81.1884 366.774 81.3221 366.774 81.4648C366.774 81.5896 366.774 81.7143 366.774 81.8391C366.774 81.9818 366.774 82.1155 366.774 82.2403C366.774 82.3651 366.774 82.4988 366.774 82.6415C366.774 82.7663 366.774 82.8911 366.774 83.0159C366.774 83.1585 366.774 83.2923 366.774 83.4171C366.774 83.5419 366.774 83.6667 366.774 83.7915C366.774 83.9341 366.774 84.0678 366.774 84.1926C366.774 84.3175 366.774 84.4512 366.774 84.5938C366.774 84.7186 366.774 84.8434 366.774 84.9682C366.774 85.1109 366.774 85.2446 366.774 85.3694C366.774 85.4942 366.774 85.6279 366.774 85.7706C366.774 85.8954 366.774 86.0202 366.774 86.145C366.774 86.2876 366.774 86.4213 366.774 86.5461C366.774 86.6709 366.774 86.8047 366.774 86.9473C366.774 87.0721 366.774 87.1969 366.774 87.3217C366.774 87.4643 366.774 87.598 366.774 87.7228C366.774 87.8477 366.774 87.9814 366.774 88.124C366.774 88.2488 366.774 88.3736 366.774 88.4984C366.774 88.6232 366.774 88.757 366.774 88.8996C366.774 89.0244 366.774 89.1492 366.774 89.274C366.774 89.4167 366.774 89.5504 366.774 89.6752C366.774 89.8 366.774 89.9337 366.774 90.0763C366.774 90.2011 366.774 90.326 366.774 90.4508C366.774 90.5934 366.774 90.7271 366.774 90.8519C366.774 90.9767 366.774 91.1105 366.774 91.2531C366.774 91.3779 366.774 91.5027 366.774 91.6275C366.774 91.7701 366.774 91.9039 366.774 92.0287C366.774 92.1535 366.774 92.2872 366.774 92.4298C366.774 92.5546 366.774 92.6794 366.774 92.8042C366.774 92.929 366.774 93.0628 366.774 93.2054C366.774 93.3302 366.774 93.455 366.774 93.5798C366.774 93.7224 366.774 93.8562 366.774 93.981C366.774 94.1058 366.774 94.2395 366.774 94.3821C366.774 94.5069 366.774 94.6318 366.774 94.7566C366.774 94.8992 366.774 95.0329 366.774 95.1577C366.774 95.2825 366.774 95.4162 366.774 95.5589C366.774 95.6837 366.774 95.8085 366.774 95.9333C366.774 96.0759 366.774 96.2097 366.774 96.3345C366.774 96.4593 366.774 96.593 366.774 96.7356C366.774 96.8604 366.774 96.9852 366.774 97.11C366.774 97.2349 366.774 97.3686 366.774 97.5112C366.774 97.636 366.774 97.7608 366.774 97.8856C366.774 98.0282 366.774 98.162 366.774 98.2868C366.774 98.4116 366.774 98.5453 366.774 98.6879C366.774 98.8127 366.774 98.9375 366.774 99.0623C366.774 99.205 366.774 99.3387 366.774 99.4635C366.774 99.5883 366.774 99.722 366.774 99.8647C366.774 99.9895 366.774 100.114 366.774 100.239C366.774 100.382 366.774 100.515 366.774 100.64C366.774 100.765 366.774 100.899 366.774 101.041C366.774 101.166 366.774 101.291 366.774 101.416C366.774 101.541 366.774 101.674 366.774 101.817C366.774 101.942 366.774 102.067 366.774 102.191C366.774 102.334 366.774 102.468 366.774 102.593C366.774 102.717 366.774 102.851 366.774 102.994C366.774 103.119 366.774 103.243 366.774 103.368C366.774 103.511 366.774 103.644 366.774 103.769C366.774 103.894 366.774 104.028 366.774 104.17C366.774 104.295 366.774 104.42 366.774 104.545C366.774 104.688 366.774 104.821 366.774 104.946C366.774 105.071 366.774 105.205 366.774 105.347C366.774 105.472 366.774 105.597 366.774 105.722C366.774 105.846 366.774 105.98 366.774 106.123C366.774 106.248 366.774 106.372 366.774 106.497C366.774 106.64 366.774 106.774 366.774 106.898C366.774 107.023 366.774 107.157 366.774 107.3C366.774 107.424 366.774 107.549 366.774 107.674C366.774 107.817 366.774 107.95 366.774 108.075C366.774 108.2 366.774 108.334 366.774 108.476C366.774 108.601 366.774 108.726 366.774 108.851C366.774 108.993 366.774 109.127 366.774 109.252C366.774 109.377 366.774 109.51 366.774 109.653C366.774 109.778 366.774 109.903 366.774 110.027C366.774 110.17 366.774 110.304 366.774 110.429C366.774 110.553 366.774 110.678 366.774 110.803C366.774 110.946 366.774 111.079 366.774 111.204C366.774 111.329 366.774 111.463 366.774 111.605C366.774 111.73 366.774 111.855 366.774 111.98C366.774 112.122 366.774 112.256 366.774 112.381C366.774 112.506 366.774 112.639 366.774 112.782C366.774 112.907 366.774 113.032 366.774 113.156C366.774 113.299 366.774 113.433 366.774 113.558C366.774 113.682 366.774 113.816 366.774 113.959C366.774 114.084 366.774 114.208 366.774 114.333C366.774 114.476 366.774 114.61 366.774 114.734C366.774 114.859 366.774 114.984 366.774 115.109C366.774 115.251 366.774 115.385 366.774 115.51C366.774 115.635 366.774 115.768 366.774 115.911C366.774 116.036 366.774 116.161 366.774 116.286C366.774 116.428 366.774 116.562 366.774 116.687C366.774 116.812 366.774 116.945 366.774 117.088C366.774 117.213 366.774 117.337 366.774 117.462C366.774 117.605 366.774 117.739 366.774 117.863C366.774 117.988 366.774 118.122 366.774 118.265C366.774 118.389 366.774 118.514 366.774 118.639C366.774 118.782 366.774 118.915 366.774 119.04C366.774 119.165 366.774 119.29 366.774 119.415C366.774 119.557 366.774 119.691 366.774 119.816C366.774 119.941 366.774 120.074 366.774 120.217C366.774 120.342 366.774 120.467 366.774 120.591C366.774 120.734 366.774 120.868 366.774 120.992C366.774 121.117 366.774 121.251 366.774 121.394C366.774 121.518 366.774 121.643 366.774 121.768C366.774 121.911 366.774 122.044 366.774 122.169C366.774 122.294 366.774 122.428 366.774 122.57C366.774 122.695 366.774 122.82 366.774 122.945C366.774 123.087 366.774 123.221 366.774 123.346C366.774 123.471 366.774 123.596 366.774 123.72C366.774 123.863 366.774 123.997 366.774 124.122C366.774 124.246 366.774 124.38 366.774 124.523C366.774 124.648 366.774 124.772 366.774 124.897C366.774 125.04 366.774 125.173 366.774 125.298C366.774 125.423 366.774 125.557 366.774 125.699C366.774 125.824 366.774 125.949 366.774 126.074C366.774 126.216 366.774 126.35 366.774 126.475C366.774 126.6 366.774 126.734 366.774 126.876C366.774 127.001 366.774 127.126 366.774 127.251C366.774 127.393 366.774 127.527 366.774 127.652C366.774 127.777 366.774 127.91 366.774 128.053C366.774 128.178 366.774 128.303 366.774 128.427C366.774 128.552 366.774 128.686 366.774 128.829C366.774 128.953 366.774 129.078 366.774 129.203C366.774 129.346 366.774 129.479 366.774 129.604C366.774 129.729 366.774 129.863 366.774 130.005C366.774 130.13 366.774 130.255 366.774 130.38C366.774 130.522 366.774 130.656 366.774 130.781C366.774 130.906 366.774 131.039 366.774 131.182C366.774 131.307 366.774 131.432 366.774 131.556C366.774 131.699 366.774 131.833 366.774 131.958C366.774 132.082 366.774 132.216 366.774 132.359C366.774 132.484 366.774 132.608 366.774 132.733C366.774 132.858 366.774 132.992 366.774 133.134C366.774 133.259 366.774 133.384 366.774 133.509C366.774 133.651 366.774 133.785 366.774 133.91C366.774 134.035 366.774 134.168 366.774 134.311C366.774 134.436 366.774 134.561 366.774 134.685C366.774 134.828 366.774 134.962 366.774 135.087C366.774 135.211 366.774 135.345 366.774 135.488C366.774 135.613 366.774 135.737 366.774 135.862C366.774 136.005 366.774 136.139 366.774 136.263C366.774 136.388 366.774 136.522 366.774 136.665C366.774 136.789 366.774 136.914 366.774 137.039C366.774 137.164 366.774 137.297 366.774 137.44C366.774 137.565 366.774 137.69 366.774 137.815C366.774 137.957 366.774 138.091 366.774 138.216C366.774 138.34 366.774 138.474 366.774 138.617C366.774 138.742 366.774 138.866 366.774 138.991C366.774 139.134 366.774 139.268 366.774 139.392C366.774 139.517 366.774 139.651 366.774 139.794C366.774 139.918 366.774 140.043 366.774 140.168C366.774 140.311 366.774 140.444 366.774 140.569C366.774 140.694 366.774 140.828 366.774 140.97C366.774 141.095 366.774 141.22 366.774 141.345C366.774 141.47 366.774 141.603 366.774 141.746C366.774 141.871 366.774 141.996 366.774 142.12C366.774 142.263 366.774 142.397 366.774 142.521C366.774 142.646 366.774 142.78 366.774 142.923C366.774 143.047 366.774 143.172 366.774 143.297C366.774 143.44 366.774 143.573 366.774 143.698C366.774 143.823 366.774 143.957 366.774 144.099C366.774 144.224 366.774 144.349 366.774 144.474C366.774 144.616 366.774 144.75 366.774 144.875C366.774 145 366.774 145.133 366.774 145.276C366.774 145.401 366.774 145.526 366.774 145.651C366.774 145.775 366.774 145.909 366.774 146.052C366.774 146.176 366.774 146.301 366.774 146.426C366.774 146.569 366.774 146.702 366.774 146.827C366.774 146.952 366.774 147.086 366.774 147.228C366.774 147.353 366.774 147.478 366.774 147.603C366.774 147.745 366.774 147.879 366.774 148.004C366.774 148.129 366.774 148.263 366.774 148.405C366.774 148.53 366.774 148.655 366.774 148.78C366.774 148.922 366.774 149.056 366.774 149.181C366.774 149.306 366.774 149.439 366.774 149.582C366.774 149.707 366.774 149.832 366.774 149.956C366.774 150.099 366.774 150.233 366.774 150.357C366.774 150.482 366.774 150.607 366.774 150.732C366.774 150.875 366.774 151.008 366.774 151.133C366.774 151.258 366.774 151.392 366.774 151.534C366.774 151.659 366.774 151.784 366.774 151.909C366.774 152.051 366.774 152.185 366.774 152.31C366.774 152.435 366.774 152.568 366.774 152.711C366.774 152.836 366.774 152.961 366.774 153.085C366.774 153.228 366.774 153.362 366.774 153.487C366.774 153.611 366.774 153.745 366.774 153.888C366.81 154.013 366.854 154.137 366.908 154.262C366.908 154.405 366.908 154.538 366.908 154.663C366.908 154.788 366.908 154.913 366.908 155.038C366.943 155.18 366.988 155.314 367.041 155.439C367.041 155.564 367.041 155.697 367.041 155.84C367.077 155.965 367.113 156.09 367.148 156.214C367.202 156.357 367.246 156.491 367.282 156.616C367.336 156.74 367.38 156.874 367.416 157.017C367.469 157.142 367.514 157.266 367.549 157.391C367.639 157.534 367.728 157.668 367.817 157.792C367.853 157.917 367.897 158.051 367.951 158.194C368.04 158.318 368.129 158.443 368.218 158.568C368.343 158.711 368.468 158.844 368.593 158.969C368.682 159.094 368.771 159.219 368.86 159.344C368.985 159.486 369.118 159.62 369.261 159.745C369.386 159.869 369.511 160.003 369.636 160.146C369.76 160.271 369.894 160.395 370.037 160.52C370.215 160.663 370.384 160.797 370.545 160.921C370.777 161.046 370.999 161.18 371.213 161.323C371.463 161.447 371.722 161.572 371.989 161.697C372.346 161.84 372.693 161.973 373.032 162.098C373.389 162.187 373.736 162.276 374.075 162.366C374.556 162.401 375.038 162.446 375.519 162.499C376.001 162.446 376.473 162.401 376.937 162.366C377.293 162.276 377.641 162.187 377.98 162.098C378.336 161.973 378.684 161.84 379.023 161.697C379.29 161.572 379.558 161.447 379.825 161.323C380.003 161.18 380.173 161.046 380.333 160.921C380.511 160.797 380.69 160.663 380.868 160.52C381.046 160.395 381.216 160.271 381.376 160.146C381.519 160.003 381.653 159.869 381.777 159.745C381.902 159.62 382.036 159.486 382.178 159.344C382.25 159.219 382.33 159.094 382.419 158.969C382.508 158.844 382.597 158.711 382.687 158.568C382.776 158.443 382.865 158.318 382.954 158.194C382.99 158.051 383.034 157.917 383.088 157.792C383.177 157.668 383.257 157.534 383.328 157.391C383.382 157.266 383.427 157.142 383.462 157.017C383.516 156.874 383.56 156.74 383.596 156.616C383.649 156.491 383.694 156.357 383.73 156.214C383.783 156.09 383.828 155.965 383.863 155.84C383.899 155.697 383.944 155.564 383.997 155.439C384.033 155.314 384.077 155.18 384.131 155.038C384.131 154.913 384.131 154.788 384.131 154.663C384.131 154.538 384.131 154.405 384.131 154.262C384.131 154.137 384.131 154.013 384.131 153.888C384.166 153.745 384.211 153.611 384.265 153.487C384.265 153.362 384.265 153.228 384.265 153.085C384.265 152.961 384.265 152.836 384.265 152.711C384.265 152.568 384.265 152.435 384.265 152.31C384.265 152.185 384.265 152.051 384.265 151.909C384.265 151.784 384.265 151.659 384.265 151.534C384.265 151.392 384.265 151.258 384.265 151.133C384.265 151.008 384.265 150.875 384.265 150.732C384.265 150.607 384.265 150.482 384.265 150.357C384.265 150.233 384.265 150.099 384.265 149.956C384.265 149.832 384.265 149.707 384.265 149.582C384.265 149.439 384.265 149.306 384.265 149.181C384.265 149.056 384.265 148.922 384.265 148.78C384.265 148.655 384.265 148.53 384.265 148.405C384.265 148.263 384.265 148.129 384.265 148.004C384.265 147.879 384.265 147.745 384.265 147.603C384.265 147.478 384.265 147.353 384.265 147.228C384.265 147.086 384.265 146.952 384.265 146.827C384.265 146.702 384.265 146.569 384.265 146.426C384.265 146.301 384.265 146.176 384.265 146.052C384.265 145.909 384.265 145.775 384.265 145.651C384.265 145.526 384.265 145.401 384.265 145.276C384.265 145.133 384.265 145 384.265 144.875C384.265 144.75 384.265 144.616 384.265 144.474C384.265 144.349 384.265 144.224 384.265 144.099C384.265 143.957 384.265 143.823 384.265 143.698C384.265 143.573 384.265 143.44 384.265 143.297C384.265 143.172 384.265 143.047 384.265 142.923C384.265 142.78 384.265 142.646 384.265 142.521C384.265 142.397 384.265 142.263 384.265 142.12C384.265 141.996 384.265 141.871 384.265 141.746C384.265 141.603 384.265 141.47 384.265 141.345C384.265 141.22 384.265 141.095 384.265 140.97C384.265 140.828 384.265 140.694 384.265 140.569C384.265 140.444 384.265 140.311 384.265 140.168C384.265 140.043 384.265 139.918 384.265 139.794C384.265 139.651 384.265 139.517 384.265 139.392C384.265 139.268 384.265 139.134 384.265 138.991C384.265 138.866 384.265 138.742 384.265 138.617C384.265 138.474 384.265 138.34 384.265 138.216C384.265 138.091 384.265 137.957 384.265 137.815C384.265 137.69 384.265 137.565 384.265 137.44C384.265 137.297 384.265 137.164 384.265 137.039C384.265 136.914 384.265 136.789 384.265 136.665C384.265 136.522 384.265 136.388 384.265 136.263C384.265 136.139 384.265 136.005 384.265 135.862C384.265 135.737 384.265 135.613 384.265 135.488C384.265 135.345 384.265 135.211 384.265 135.087C384.265 134.962 384.265 134.828 384.265 134.685C384.265 134.561 384.265 134.436 384.265 134.311C384.265 134.168 384.265 134.035 384.265 133.91C384.265 133.785 384.265 133.651 384.265 133.509C384.265 133.384 384.265 133.259 384.265 133.134C384.265 132.992 384.265 132.858 384.265 132.733C384.265 132.608 384.265 132.484 384.265 132.359C384.265 132.216 384.265 132.082 384.265 131.958C384.265 131.833 384.265 131.699 384.265 131.556C384.265 131.432 384.265 131.307 384.265 131.182C384.265 131.039 384.265 130.906 384.265 130.781C384.265 130.656 384.265 130.522 384.265 130.38C384.265 130.255 384.265 130.13 384.265 130.005C384.265 129.863 384.265 129.729 384.265 129.604C384.265 129.479 384.265 129.346 384.265 129.203C384.265 129.078 384.265 128.953 384.265 128.829C384.265 128.686 384.265 128.552 384.265 128.427C384.265 128.303 384.265 128.178 384.265 128.053C384.265 127.91 384.265 127.777 384.265 127.652C384.265 127.527 384.265 127.393 384.265 127.251C384.265 127.126 384.265 127.001 384.265 126.876C384.265 126.734 384.265 126.6 384.265 126.475C384.265 126.35 384.265 126.216 384.265 126.074C384.265 125.949 384.265 125.824 384.265 125.699C384.265 125.557 384.265 125.423 384.265 125.298C384.265 125.173 384.265 125.04 384.265 124.897C384.265 124.772 384.265 124.648 384.265 124.523C384.265 124.38 384.265 124.246 384.265 124.122C384.265 123.997 384.265 123.863 384.265 123.72C384.265 123.596 384.265 123.471 384.265 123.346C384.265 123.221 384.265 123.087 384.265 122.945C384.265 122.82 384.265 122.695 384.265 122.57C384.265 122.428 384.265 122.294 384.265 122.169C384.265 122.044 384.265 121.911 384.265 121.768C384.265 121.643 384.265 121.518 384.265 121.394C384.265 121.251 384.265 121.117 384.265 120.992C384.265 120.868 384.265 120.734 384.265 120.591C384.265 120.467 384.265 120.342 384.265 120.217C384.265 120.074 384.265 119.941 384.265 119.816C384.265 119.691 384.265 119.557 384.265 119.415C384.265 119.29 384.265 119.165 384.265 119.04C384.265 118.915 384.265 118.782 384.265 118.639C384.265 118.514 384.265 118.389 384.265 118.265C384.265 118.122 384.265 117.988 384.265 117.863C384.265 117.739 384.265 117.605 384.265 117.462C384.265 117.337 384.265 117.213 384.265 117.088C384.265 116.945 384.265 116.812 384.265 116.687C384.265 116.562 384.265 116.428 384.265 116.286C384.265 116.161 384.265 116.036 384.265 115.911C384.265 115.768 384.265 115.635 384.265 115.51C384.265 115.385 384.265 115.251 384.265 115.109C384.265 114.984 384.265 114.859 384.265 114.734C384.265 114.61 384.265 114.476 384.265 114.333C384.265 114.208 384.265 114.084 384.265 113.959C384.265 113.816 384.265 113.682 384.265 113.558C384.265 113.433 384.265 113.299 384.265 113.156C384.265 113.032 384.265 112.907 384.265 112.782C384.265 112.639 384.265 112.506 384.265 112.381C384.265 112.256 384.265 112.122 384.265 111.98C384.265 111.855 384.265 111.73 384.265 111.605C384.265 111.463 384.265 111.329 384.265 111.204C384.265 111.079 384.265 110.946 384.265 110.803C384.265 110.678 384.265 110.553 384.265 110.429C384.265 110.304 384.265 110.17 384.265 110.027C384.265 109.903 384.265 109.778 384.265 109.653C384.265 109.51 384.265 109.377 384.265 109.252C384.265 109.127 384.265 108.993 384.265 108.851C384.265 108.726 384.265 108.601 384.265 108.476C384.265 108.334 384.265 108.2 384.265 108.075C384.265 107.95 384.265 107.817 384.265 107.674C384.265 107.549 384.265 107.424 384.265 107.3C384.265 107.157 384.265 107.023 384.265 106.898C384.265 106.774 384.265 106.64 384.265 106.497C384.265 106.372 384.265 106.248 384.265 106.123C384.265 105.98 384.265 105.846 384.265 105.722C384.265 105.597 384.265 105.472 384.265 105.347C384.265 105.205 384.265 105.071 384.265 104.946C384.265 104.821 384.265 104.688 384.265 104.545C384.265 104.42 384.265 104.295 384.265 104.17C384.265 104.028 384.265 103.894 384.265 103.769C384.265 103.644 384.265 103.511 384.265 103.368C384.265 103.243 384.265 103.119 384.265 102.994C384.265 102.851 384.265 102.717 384.265 102.593C384.265 102.468 384.265 102.334 384.265 102.191C384.265 102.067 384.265 101.942 384.265 101.817C384.265 101.674 384.265 101.541 384.265 101.416C384.265 101.291 384.265 101.166 384.265 101.041C384.265 100.899 384.265 100.765 384.265 100.64C384.265 100.515 384.265 100.382 384.265 100.239C384.265 100.114 384.265 99.9895 384.265 99.8647C384.265 99.722 384.265 99.5883 384.265 99.4635C384.265 99.3387 384.265 99.205 384.265 99.0623C384.265 98.9375 384.265 98.8127 384.265 98.6879C384.265 98.5453 384.265 98.4116 384.265 98.2868C384.265 98.162 384.265 98.0282 384.265 97.8856C384.265 97.7608 384.265 97.636 384.265 97.5112C384.265 97.3686 384.265 97.2349 384.265 97.11C384.265 96.9852 384.265 96.8604 384.265 96.7356C384.265 96.593 384.265 96.4593 384.265 96.3345C384.265 96.2097 384.265 96.0759 384.265 95.9333C384.265 95.8085 384.265 95.6837 384.265 95.5589C384.265 95.4162 384.265 95.2825 384.265 95.1577C384.265 95.0329 384.265 94.8992 384.265 94.7566C384.265 94.6318 384.265 94.5069 384.265 94.3821C384.265 94.2395 384.265 94.1058 384.265 93.981C384.265 93.8562 384.265 93.7224 384.265 93.5798C384.265 93.455 384.265 93.3302 384.265 93.2054C384.265 93.0628 384.265 92.929 384.265 92.8042C384.265 92.6794 384.265 92.5546 384.265 92.4298C384.265 92.2872 384.265 92.1535 384.265 92.0287C384.265 91.9039 384.265 91.7701 384.265 91.6275C384.265 91.5027 384.265 91.3779 384.265 91.2531C384.265 91.1105 384.265 90.9767 384.265 90.8519C384.265 90.7271 384.265 90.5934 384.265 90.4508C384.265 90.326 384.265 90.2011 384.265 90.0763C384.265 89.9337 384.265 89.8 384.265 89.6752C384.265 89.5504 384.265 89.4167 384.265 89.274C384.265 89.1492 384.265 89.0244 384.265 88.8996C384.265 88.757 384.265 88.6232 384.265 88.4984C384.265 88.3736 384.265 88.2488 384.265 88.124C384.265 87.9814 384.265 87.8477 384.265 87.7228C384.265 87.598 384.265 87.4643 384.265 87.3217C384.265 87.1969 384.265 87.0721 384.265 86.9473C384.265 86.8047 384.265 86.6709 384.265 86.5461C384.265 86.4213 384.265 86.2876 384.265 86.145C384.265 86.0202 384.265 85.8954 384.265 85.7706C384.265 85.6279 384.265 85.4942 384.265 85.3694C384.265 85.2446 384.265 85.1109 384.265 84.9682C384.265 84.8434 384.265 84.7186 384.265 84.5938C384.265 84.4512 384.265 84.3175 384.265 84.1926C384.265 84.0678 384.265 83.9341 384.265 83.7915C384.265 83.6667 384.265 83.5419 384.265 83.4171C384.265 83.2923 384.265 83.1585 384.265 83.0159C384.265 82.8911 384.265 82.7663 384.265 82.6415C384.265 82.4988 384.265 82.3651 384.265 82.2403C384.265 82.1155 384.265 81.9818 384.265 81.8391C384.265 81.7143 384.265 81.5896 384.265 81.4648C384.265 81.3221 384.265 81.1884 384.265 81.0636C384.265 80.9388 384.265 80.8051 384.265 80.6624C384.265 80.5376 384.265 80.4128 384.265 80.288C384.265 80.1454 384.265 80.0117 384.265 79.8869C384.265 79.762 384.265 79.6283 384.265 79.4857C384.265 79.3609 384.265 79.2361 384.265 79.1113C384.265 78.9865 384.265 78.8527 384.265 78.7101C384.265 78.5853 384.265 78.4605 384.265 78.3357C384.265 78.193 384.265 78.0593 384.265 77.9345C384.265 77.8097 384.265 77.676 384.265 77.5334C384.265 77.4086 384.265 77.2837 384.265 77.1589C384.265 77.0163 384.265 76.8826 384.265 76.7578C384.265 76.633 384.265 76.4993 384.265 76.3566C384.265 76.2318 384.265 76.107 384.265 75.9822C384.265 75.8396 384.265 75.7059 384.265 75.5811C384.265 75.4563 384.265 75.3225 384.265 75.1799C384.265 75.0551 384.265 74.9303 384.265 74.8055C384.265 74.6807 384.265 74.547 384.265 74.4043C384.265 74.2795 384.265 74.1547 384.265 74.0299C384.265 73.8873 384.265 73.7535 384.265 73.6287C384.265 73.5039 384.265 73.3702 384.265 73.2276C384.265 73.1028 384.265 72.978 384.265 72.8531C384.265 72.7105 384.265 72.5768 384.265 72.452C384.265 72.3272 384.265 72.1935 384.265 72.0508C384.265 71.926 384.265 71.8012 384.265 71.6764C384.265 71.5338 384.265 71.4 384.265 71.2752C384.265 71.1504 384.265 71.0167 384.265 70.8741C384.265 70.7493 384.265 70.6245 384.265 70.4997C384.265 70.3749 384.265 70.2412 384.265 70.0985C384.265 69.9737 384.265 69.8489 384.265 69.7241C384.265 69.5815 384.265 69.4477 384.265 69.3229C384.265 69.1981 384.265 69.0644 384.265 68.9218C384.265 68.797 384.265 68.6722 384.265 68.5474C385.013 67.7094 385.78 66.7288 386.565 65.6055C393.126 55.9598 396.611 43.2653 397.021 27.5219Z" fill="#0A0A0A"/>
<path d="M214.038 346.659C210.009 347.016 206.648 347.452 203.956 347.97C200.319 348.683 197.1 349.681 194.301 350.965C192.376 351.821 190.343 352.953 188.203 354.361C186.706 355.342 184.798 356.697 182.48 358.426C169.732 368.072 157.787 378.636 146.643 390.118C135.482 401.654 125.301 413.929 116.101 426.945C93.1015 459.448 84.0888 488.813 89.0631 515.04C91.7732 529.357 98.6108 542.559 109.576 554.648C119.685 565.773 132.032 574.661 146.616 581.312C150.592 583.13 154.773 584.806 159.159 586.339C168.538 589.602 178.843 592.214 190.076 594.176C201.772 596.226 216.927 597.866 235.54 599.096C246.22 599.81 254.77 600.122 261.188 600.032C270.602 599.908 279.071 599.034 286.595 597.412C290.036 596.663 293.843 595.629 298.015 594.309C300.725 593.453 304.46 592.188 309.22 590.512C318.527 587.195 326.016 584.352 331.685 581.98C339.78 578.593 346.947 575.08 353.188 571.443C368.735 562.386 380.342 551.617 388.008 539.136C392.163 532.379 395.31 524.819 397.449 516.457C399.41 508.755 400.471 500.598 400.632 491.986C400.774 484.302 400.204 476.1 398.92 467.382C397.85 460.125 396.201 452.057 393.972 443.178C392.225 436.154 390.469 430.136 388.704 425.126C387.795 422.559 386.841 420.107 385.842 417.772C384.327 414.277 382.695 411.032 380.948 408.037C376.509 400.406 370.75 393.354 363.671 386.882C357.11 380.909 349.631 375.623 341.233 371.023C333.691 366.922 325.303 363.294 316.067 360.138C308.258 357.481 299.414 355.03 289.537 352.783C275.362 349.556 262.249 347.47 250.196 346.525C238.179 345.563 226.127 345.607 214.038 346.659ZM201.228 368.509C204.794 367.011 208.841 365.933 213.37 365.273C216.829 364.774 221.036 364.471 225.993 364.364C249.706 363.775 273.499 366.673 297.373 373.055C312.991 377.228 326.301 382.657 337.302 389.343C350.656 397.455 360.453 407.332 366.693 418.975C368.298 421.988 369.796 425.385 371.186 429.165C371.454 429.896 371.721 430.653 371.989 431.438C373.13 434.754 374.414 439.096 375.84 444.462C378.015 452.735 379.638 459.876 380.707 465.884C382.116 473.729 382.865 481.003 382.954 487.707C383.061 495.427 382.321 502.711 380.734 509.557C378.987 517.063 376.277 523.803 372.604 529.776C366.219 540.133 356.119 549.458 342.303 557.75C328.506 566.046 314.359 571.502 299.86 574.117C298.923 574.286 298.37 574.358 298.202 574.331C274.104 579.053 246.12 579.285 214.252 575.027C170.68 569.201 138.07 553.841 116.422 528.947C107.526 515.2 105.512 500.883 110.378 485.996C115.259 471.109 122.471 457.024 132.014 443.74C141.557 430.476 150.222 418.771 158.009 408.625C165.817 398.495 172.976 390.436 179.485 384.448C185.993 378.478 190.361 374.752 192.59 373.269C195.567 371.255 198.446 369.668 201.228 368.509Z" fill="#0A0A0A"/>
<path d="M213.37 365.273C208.841 365.933 204.794 367.011 201.228 368.509C198.447 369.668 195.567 371.255 192.59 373.269C190.361 374.752 185.993 378.478 179.485 384.448C172.976 390.436 165.817 398.495 158.009 408.625C150.222 418.771 141.557 430.476 132.014 443.74C122.471 457.024 115.259 471.109 110.378 485.996C105.512 500.883 107.526 515.2 116.422 528.947C138.07 553.841 170.68 569.201 214.252 575.027C246.121 579.285 274.104 579.053 298.202 574.331C298.37 574.358 298.923 574.286 299.86 574.117C314.359 571.502 328.506 566.046 342.303 557.75C356.119 549.458 366.219 540.133 372.604 529.776C376.277 523.803 378.987 517.063 380.734 509.557C382.321 502.711 383.061 495.427 382.954 487.707C382.865 481.003 382.116 473.729 380.707 465.884C379.638 459.876 378.015 452.735 375.84 444.462C374.414 439.096 373.13 434.754 371.989 431.438C371.721 430.653 371.454 429.896 371.186 429.165C369.796 425.385 368.298 421.988 366.694 418.975C360.453 407.332 350.656 397.455 337.302 389.343C326.301 382.657 312.991 377.228 297.373 373.055C273.499 366.673 249.706 363.775 225.993 364.364C221.036 364.471 216.829 364.774 213.37 365.273Z" fill="white"/>
<path d="M206.336 280.013C197.992 283.169 190.557 287.189 184.031 292.074C176.971 297.37 170.909 303.735 165.845 311.17C160.8 318.604 154.774 328.196 147.766 339.946C140.775 351.697 138.635 361.307 141.348 368.776C144.078 376.246 148.749 384.073 155.362 392.258C161.975 400.46 170.373 409.142 180.554 418.306C187.526 424.6 195.273 429.887 203.795 434.166C207.04 435.77 210.392 437.241 213.851 438.578C235.941 447.083 261.607 449.597 290.847 446.12C300.6 444.961 309.541 443.259 317.671 441.012C326.122 438.659 334.342 435.53 342.329 431.625C353.633 426.062 363.43 419.287 371.721 411.299C380.832 402.545 387.509 392.882 391.752 382.309C394.98 374.286 396.736 365.87 397.021 357.062C397.039 356.652 397.048 356.242 397.048 355.832C397.19 347.452 395.978 339.349 393.411 331.522C392.929 330.042 392.626 328.99 392.501 328.366C392.269 327.154 392.278 326.093 392.528 325.184C392.688 324.56 393.063 323.757 393.651 322.777C394.329 321.671 394.757 320.878 394.935 320.396C395.737 318.31 395.497 316.028 394.213 313.55C393.232 311.642 391.654 309.681 389.479 307.666C376.392 295.596 359.544 286.69 338.933 280.949C330.41 278.578 320.997 276.697 310.691 275.306C302.579 274.218 292.995 273.336 281.941 272.658C272.082 272.052 263.586 271.785 256.454 271.856C247.236 271.927 238.767 272.542 231.047 273.701C222.186 275.038 213.949 277.142 206.336 280.013ZM221.125 294.027C226.938 292.6 233.766 291.504 241.611 290.737C256.463 289.275 271.368 289.106 286.327 290.229C301.286 291.352 316.004 293.741 330.482 297.396C338.291 299.358 345.28 301.551 351.449 303.975C354.302 305.099 356.682 306.195 358.59 307.265C361.068 308.674 363.145 310.225 364.821 311.918C366.658 313.808 368.316 316.215 369.796 319.139C370.758 321.029 371.899 323.748 373.219 327.296C375.447 333.269 377.034 338.128 377.979 341.872C379.37 347.328 380.021 352.347 379.932 356.929C379.878 359.3 379.637 361.68 379.209 364.069C378.443 368.152 377.114 372.253 375.225 376.372C372.532 382.238 368.815 387.907 364.072 393.381C359.668 398.48 354.73 403.071 349.256 407.154C343.782 411.201 337.961 414.607 331.792 417.37C326.8 419.599 321.264 421.525 315.184 423.147C310.121 424.502 304.371 425.723 297.934 426.811C284.259 429.093 271.636 430.074 260.065 429.753C246.55 429.343 234.203 427.159 223.024 423.201C211.257 419.011 200.978 412.833 192.188 404.667C191.725 404.239 191.27 403.802 190.824 403.357C181.161 393.943 174.813 383.316 171.782 371.478C170.109 364.951 171.357 356.152 175.527 345.081C179.693 334.014 184.864 325.724 191.038 320.209C197.212 314.712 199.093 311.013 196.681 309.11C194.272 307.204 196.01 304.61 201.896 301.328C207.459 298.226 213.869 295.792 221.125 294.027Z" fill="#0A0A0A"/>
<path d="M241.611 290.737C233.766 291.504 226.938 292.6 221.125 294.027C213.869 295.792 207.459 298.226 201.896 301.328C196.01 304.61 194.272 307.204 196.681 309.11C199.093 311.013 197.212 314.712 191.038 320.209C184.864 325.724 179.693 334.014 175.527 345.081C171.357 356.152 170.109 364.951 171.782 371.478C174.813 383.316 181.161 393.943 190.824 403.356C191.27 403.802 191.725 404.239 192.188 404.667C200.978 412.833 211.257 419.011 223.024 423.201C234.203 427.159 246.55 429.343 260.065 429.753C271.636 430.074 284.259 429.093 297.934 426.811C304.371 425.723 310.121 424.502 315.184 423.147C321.264 421.525 326.8 419.599 331.792 417.37C337.961 414.607 343.783 411.201 349.256 407.154C354.73 403.071 359.669 398.48 364.072 393.381C368.815 387.907 372.532 382.238 375.225 376.372C377.115 372.253 378.443 368.152 379.21 364.069C379.637 361.68 379.878 359.3 379.932 356.929C380.021 352.347 379.37 347.328 377.979 341.872C377.034 338.128 375.448 333.269 373.219 327.296C371.9 323.748 370.758 321.029 369.796 319.139C368.316 316.215 366.658 313.808 364.821 311.918C363.145 310.225 361.068 308.674 358.59 307.265C356.682 306.195 354.302 305.099 351.449 303.975C345.28 301.551 338.291 299.358 330.482 297.396C316.004 293.741 301.286 291.352 286.327 290.229C271.369 289.106 256.463 289.275 241.611 290.737Z" fill="white"/>
<path d="M481.72 191.624C477.673 177.414 468.883 167.447 455.35 161.724C446.899 158.158 438.207 157.15 429.275 158.702C415.083 161.019 403.806 168.169 395.444 180.15C387.099 192.096 384.336 205.192 387.153 219.437C389.934 233.434 397.342 244.256 409.377 251.905C421.359 259.536 434.133 260.909 447.702 256.023C460.753 251.281 470.603 242.874 477.254 230.804C484.118 218.377 485.607 205.317 481.72 191.624ZM469.498 209.168C468.517 223.681 461.528 234.2 448.531 240.726C434.855 247.608 422.393 245.941 411.142 235.725C400.035 225.633 397.004 213.491 402.049 199.299C406.81 185.874 415.849 176.576 429.168 171.405C436.977 170.032 444.341 171.298 451.258 175.203C464.434 182.673 470.514 193.995 469.498 209.168ZM453.986 194.726C453.345 194.066 452.596 193.522 451.74 193.095C450.92 192.667 450.037 192.364 449.092 192.185C447.398 191.846 445.544 191.882 443.529 192.292C442.014 192.577 440.837 193.032 439.999 193.656C439.447 194.066 438.929 194.61 438.448 195.288C438.091 195.805 437.717 196.455 437.325 197.24C436.879 198.167 436.567 198.969 436.389 199.647C436.175 200.52 436.095 201.697 436.148 203.177C436.166 203.944 436.21 204.577 436.282 205.076C436.389 205.771 436.549 206.386 436.763 206.921C437.387 208.472 438.724 209.863 440.775 211.093C442.112 211.896 443.351 212.386 444.492 212.564C445.491 212.725 446.56 212.689 447.702 212.457C448.753 212.243 449.743 211.887 450.67 211.387C451.615 210.888 452.453 210.273 453.184 209.542C454.111 208.633 454.851 207.554 455.404 206.306C455.939 205.112 456.269 203.846 456.393 202.508C456.536 201.064 456.411 199.674 456.019 198.336C455.609 196.892 454.931 195.689 453.986 194.726Z" fill="#0A0A0A"/>
<path d="M448.53 240.726C461.528 234.2 468.517 223.681 469.498 209.168C470.514 193.995 464.434 182.673 451.258 175.203C444.34 171.298 436.977 170.032 429.168 171.405C415.849 176.576 406.81 185.874 402.049 199.299C397.003 213.491 400.034 225.633 411.142 235.725C422.393 245.941 434.855 247.608 448.53 240.726ZM451.74 193.095C452.596 193.522 453.344 194.066 453.986 194.726C454.931 195.689 455.609 196.892 456.019 198.336C456.411 199.674 456.536 201.064 456.393 202.508C456.268 203.846 455.939 205.112 455.404 206.306C454.851 207.554 454.111 208.633 453.184 209.542C452.453 210.273 451.615 210.888 450.67 211.387C449.743 211.887 448.753 212.243 447.701 212.457C446.56 212.689 445.49 212.725 444.492 212.564C443.351 212.386 442.112 211.896 440.775 211.093C438.724 209.863 437.387 208.472 436.763 206.921C436.549 206.386 436.389 205.771 436.282 205.076C436.21 204.577 436.166 203.944 436.148 203.177C436.094 201.697 436.175 200.52 436.389 199.647C436.567 198.969 436.879 198.167 437.325 197.24C437.717 196.455 438.091 195.805 438.448 195.288C438.929 194.61 439.446 194.066 439.999 193.656C440.837 193.032 442.014 192.577 443.529 192.292C445.544 191.882 447.398 191.846 449.092 192.185C450.037 192.364 450.92 192.667 451.74 193.095Z" fill="white"/>
<path d="M418.684 161.563C386.627 129.363 347.919 115.679 302.561 120.511C270.38 123.951 242.513 134.604 218.959 152.47C195.422 170.355 179.197 187.686 170.285 204.461C161.39 221.236 158.52 244.708 161.673 274.878C164.846 305.064 187.65 328.59 230.085 345.456C270.13 361.377 311.503 364.604 354.204 355.137C378.381 349.752 398.225 339.741 413.736 325.103C427.429 312.159 437.753 295.614 444.706 275.466C459.683 232.034 451.009 194.066 418.684 161.563ZM280.043 142.896C298.015 138.028 316.236 136.468 334.708 138.216C380.707 142.78 411.971 166.377 428.499 209.007C435.987 228.334 435.979 247.483 428.472 266.454C416.634 296.443 397.387 317.865 370.732 330.72C360.034 335.872 348.16 339.643 335.109 342.032C292.479 349.877 252.987 342.193 216.632 318.979C177.533 294 167.209 260.392 185.663 218.154C189.853 208.544 194.765 199.816 200.399 191.971C219.066 165.869 245.614 149.511 280.043 142.896Z" fill="#0A0A0A"/>
<path d="M334.708 138.216C316.236 136.468 298.015 138.028 280.043 142.896C245.614 149.511 219.066 165.869 200.399 191.971C194.765 199.816 189.853 208.544 185.663 218.154C167.209 260.392 177.533 294 216.632 318.979C252.987 342.193 292.479 349.877 335.109 342.032C348.16 339.643 360.034 335.872 370.732 330.72C397.387 317.865 416.634 296.443 428.472 266.454C435.978 247.483 435.987 228.334 428.499 209.007C411.971 166.377 380.707 142.78 334.708 138.216Z" fill="white"/>
<path d="M302.267 188.147C296.33 181.532 289.046 177.084 280.417 174.802C271.877 172.502 263.229 172.065 254.475 173.491C245.15 174.953 236.94 178.706 229.844 184.75C222.748 190.759 217.961 198.22 215.482 207.135C213.61 213.857 212.665 220.721 212.648 227.728C212.63 236.661 215.536 244.47 221.366 251.156C224.718 255.399 228.56 259.188 232.893 262.522C240.256 268.138 248.618 270.679 257.979 270.144C261.616 269.984 265.209 269.654 268.757 269.155C277.885 267.996 286.069 264.59 293.308 258.938C300.297 253.447 305.387 246.556 308.579 238.265C311.734 230.046 313.027 221.506 312.456 212.644C311.868 203.266 308.472 195.1 302.267 188.147ZM226.447 218.02C227.268 211.655 229.559 205.851 233.321 200.61C238.598 193.228 245.739 188.815 254.743 187.371C258.255 186.747 261.776 186.444 265.307 186.462C275.041 185.838 283.448 188.815 290.526 195.395C295.108 199.691 297.819 204.933 298.656 211.12C299.798 219.678 298.567 227.96 294.966 235.965C291.026 244.72 284.402 250.657 275.095 253.777C266.483 256.665 257.756 257.361 248.913 255.863C248.146 255.595 247.406 255.283 246.693 254.927C240.577 251.896 235.416 247.626 231.208 242.116C230.174 240.744 229.363 239.308 228.774 237.811C226.314 231.553 225.538 224.956 226.447 218.02ZM260.466 209.141C258.95 209.426 257.774 209.881 256.936 210.505C256.383 210.915 255.866 211.459 255.385 212.136C255.028 212.653 254.654 213.304 254.261 214.089C253.816 215.016 253.504 215.818 253.325 216.496C253.111 217.369 253.031 218.546 253.085 220.026C253.102 220.793 253.147 221.425 253.218 221.925C253.325 222.62 253.486 223.235 253.7 223.77C254.324 225.321 255.661 226.712 257.711 227.942C259.049 228.744 260.288 229.235 261.429 229.413C262.427 229.573 263.497 229.538 264.638 229.306C265.69 229.092 266.679 228.735 267.607 228.236C268.552 227.737 269.39 227.122 270.121 226.391C271.048 225.482 271.788 224.403 272.34 223.155C272.875 221.96 273.205 220.694 273.33 219.357C273.472 217.913 273.348 216.522 272.955 215.185C272.545 213.741 271.868 212.537 270.923 211.575C270.281 210.915 269.532 210.371 268.676 209.943C267.856 209.515 266.974 209.212 266.029 209.034C264.335 208.695 262.481 208.731 260.466 209.141Z" fill="#0A0A0A"/>
<path d="M233.321 200.61C229.559 205.851 227.268 211.655 226.448 218.02C225.538 224.956 226.314 231.553 228.774 237.811C229.363 239.308 230.174 240.744 231.208 242.116C235.416 247.626 240.577 251.896 246.693 254.927C247.406 255.283 248.146 255.595 248.913 255.863C257.756 257.361 266.484 256.665 275.095 253.777C284.402 250.657 291.026 244.72 294.966 235.965C298.568 227.96 299.798 219.678 298.657 211.12C297.819 204.933 295.109 199.691 290.526 195.395C283.448 188.815 275.042 185.838 265.307 186.462C261.777 186.444 258.255 186.747 254.743 187.371C245.739 188.815 238.598 193.228 233.321 200.61ZM270.789 191.945C273.339 192.444 275.71 193.255 277.903 194.378C280.239 195.555 282.254 197.026 283.947 198.791C286.479 201.394 288.307 204.621 289.43 208.472C290.464 212.056 290.794 215.809 290.419 219.732C290.081 223.315 289.189 226.721 287.745 229.948C286.265 233.282 284.295 236.17 281.835 238.613C279.856 240.592 277.591 242.259 275.042 243.614C272.528 244.933 269.871 245.878 267.072 246.449C263.987 247.091 261.108 247.198 258.434 246.77C255.349 246.289 252.006 244.96 248.405 242.785C242.931 239.504 239.338 235.76 237.627 231.553C237.038 230.126 236.619 228.486 236.37 226.632C236.174 225.259 236.04 223.556 235.969 221.523C235.844 217.548 236.076 214.365 236.664 211.976C237.11 210.175 237.948 208.018 239.178 205.504C240.212 203.4 241.219 201.653 242.2 200.262C243.466 198.461 244.839 197.017 246.318 195.929C248.583 194.253 251.748 193.014 255.813 192.212C261.268 191.142 266.261 191.053 270.789 191.945Z" fill="white"/>
<path d="M371.668 268.513C378.835 268.317 385.254 268.272 390.924 268.379C392.297 268.397 393.295 268.379 393.919 268.326C395.042 268.237 396.005 268.005 396.807 267.63C397.824 267.167 398.671 266.489 399.348 265.598C400.043 264.671 400.462 263.663 400.605 262.576C400.765 261.488 400.641 260.409 400.231 259.34C399.803 258.27 399.161 257.387 398.305 256.692C397.271 255.836 395.916 255.275 394.24 255.007C393.134 254.829 391.601 254.766 389.64 254.82L351.048 255.676C349.461 255.711 348.258 255.792 347.438 255.916C346.118 256.13 345.013 256.532 344.122 257.12C343.284 257.673 342.606 258.395 342.089 259.286C341.572 260.195 341.287 261.14 341.233 262.121C341.162 263.119 341.331 264.1 341.741 265.063C342.151 266.008 342.749 266.801 343.533 267.443C344.603 268.317 346.003 268.878 347.732 269.128C348.855 269.288 350.424 269.324 352.439 269.235C361.282 268.861 367.692 268.62 371.668 268.513Z" fill="#0A0A0A"/>
<path d="M169.857 307.559C169.495 307.672 169.138 307.805 168.787 307.96C171.145 305.472 172.633 303.769 173.254 302.852C174.184 301.497 171.92 303.325 166.461 308.335C161.021 313.363 157.67 316.483 156.405 317.695C153.213 320.78 149.879 324.408 146.402 328.58C144.085 331.379 141.045 335.257 137.283 340.214C117.082 366.904 97.9244 394.558 79.8097 423.174C72.5888 434.567 66.4644 444.739 61.4365 453.689C55.1605 464.797 49.7939 475.369 45.3366 485.407C45.3009 485.479 45.2741 485.55 45.2563 485.621C45.185 485.603 45.1226 485.595 45.0691 485.595C43.7497 485.488 42.0203 485.461 39.8808 485.514C33.48 485.639 28.2114 486.263 24.075 487.386C18.3518 488.938 13.7607 491.514 10.3018 495.115C9.00027 496.488 7.29761 498.806 5.19374 502.069C4.21312 503.602 3.49995 504.77 3.05421 505.572C2.30538 506.91 1.72592 508.149 1.31585 509.29C0.495695 511.625 0.0588356 514.549 0.00534746 518.062C-0.0124819 520.059 0.0142752 523.072 0.0855928 527.101C0.0321046 529.401 0.00534746 530.56 0.00534746 530.578C0.0231768 531.915 0.156897 533.065 0.406509 534.028C1.0662 536.435 2.73323 538.815 5.40764 541.169C8.9022 544.253 13.0387 546.598 17.8169 548.202C22.3099 549.718 27.0436 550.467 32.018 550.449C39.0428 550.413 45.0513 548.898 50.0435 545.902C52.7536 544.244 55.4013 541.971 57.9865 539.083C59.7695 537.068 61.909 534.26 64.4051 530.658C65.3322 529.303 66.0365 528.216 66.5179 527.396C67.2489 526.165 67.8105 525.006 68.2028 523.919C68.702 522.546 69.0407 520.977 69.219 519.212C69.3438 517.982 69.4062 516.377 69.4062 514.398C69.3884 511.617 69.2547 509.352 69.0051 507.605C68.6485 505.162 68.0066 503.032 67.0795 501.213C66.2772 499.698 65.1628 498.173 63.7365 496.64C63.1303 495.98 62.3815 495.24 61.49 494.42C61.8466 493.422 62.3547 491.96 63.0144 490.034C64.8152 484.739 67.2132 479.114 70.2086 473.159C72.4551 468.701 75.4326 463.335 79.1411 457.059C87.6992 442.51 97.8798 426.508 109.683 409.053C116.815 398.516 127.664 382.951 142.23 362.358C146.991 355.636 150.664 350.626 153.249 347.328C157.51 341.89 161.647 337.272 165.658 333.474C167.102 332.101 168.199 331.049 168.948 330.318C169.358 330.604 169.795 330.853 170.258 331.067C171.595 331.691 172.968 331.959 174.377 331.87C175.785 331.78 177.114 331.335 178.362 330.532C179.61 329.73 180.564 328.696 181.223 327.43C182.026 325.932 182.391 324.132 182.32 322.028C182.284 320.477 181.981 318.596 181.41 316.385C181.036 314.923 180.662 313.746 180.287 312.855C179.752 311.589 179.102 310.555 178.335 309.752C177.283 308.629 175.973 307.871 174.404 307.479C172.852 307.069 171.337 307.096 169.857 307.559ZM35.3075 503.219C38.9982 502.809 42.0916 502.996 44.5877 503.781C46.1567 504.28 47.5385 505.029 48.733 506.027C49.9989 507.079 50.9261 508.3 51.5145 509.691C53.1191 513.596 51.9067 518.356 47.8772 523.972C45.8269 526.825 43.8656 528.849 41.9935 530.043C39.6222 531.559 36.7428 532.388 33.3552 532.53C30.6808 532.637 27.5963 532.299 24.1018 531.514C22.7111 531.193 21.6056 530.837 20.7855 530.444C19.6444 529.892 18.8064 529.178 18.2716 528.305C17.9328 527.734 17.6921 527.03 17.5495 526.192C17.4603 525.675 17.398 524.917 17.3623 523.919C17.291 521.405 17.3356 519.426 17.496 517.982C17.7278 515.806 18.2359 513.934 19.0204 512.365C20.3933 509.673 22.6665 507.516 25.8402 505.893C28.5502 504.538 31.706 503.647 35.3075 503.219ZM463.186 507.284C460.654 497.335 457.374 485.924 453.344 473.052C443.253 440.727 431.904 409.062 419.299 378.057C416.946 372.28 415.02 367.733 413.522 364.417C411.222 359.496 408.931 355.137 406.649 351.339C405.74 349.842 404.929 348.629 404.215 347.702C403.217 346.454 402.183 345.438 401.113 344.653C400.792 344.404 400.462 344.19 400.124 344.011C400.088 343.726 400.034 343.459 399.963 343.209C399.713 342.157 399.268 341.177 398.626 340.267C397.984 339.376 397.208 338.636 396.299 338.047C394.98 337.227 393.518 336.808 391.913 336.79C390.291 336.79 388.829 337.183 387.527 337.967C386.582 338.556 385.691 339.394 384.853 340.481C384.264 341.248 383.596 342.291 382.847 343.61C381.706 345.589 380.921 347.328 380.493 348.825C379.887 350.84 379.78 352.668 380.172 354.308C380.476 355.716 381.126 356.964 382.125 358.052C383.123 359.14 384.291 359.915 385.628 360.379C386.965 360.825 388.356 360.914 389.8 360.646C390.317 360.575 390.808 360.45 391.271 360.272C391.806 361.181 392.591 362.483 393.625 364.176C396.531 368.883 399.33 374.419 402.022 380.785C403.663 384.636 405.918 390.421 408.789 398.141C417.543 421.801 423.997 439.648 428.151 451.683C435.016 471.598 440.703 489.686 445.214 505.947C447.175 512.972 448.664 518.927 449.68 523.812C451.035 530.337 451.891 536.39 452.248 541.971C452.39 544.004 452.515 545.546 452.622 546.598C451.535 547.168 450.607 547.685 449.841 548.149C448.076 549.272 446.614 550.467 445.455 551.733C444.082 553.23 442.905 555.111 441.925 557.376C441.247 559.016 440.534 561.173 439.785 563.848C439.286 565.755 438.929 567.324 438.715 568.555C438.43 570.302 438.35 571.907 438.475 573.369C438.564 574.528 438.813 575.784 439.223 577.14C439.473 578.067 439.865 579.306 440.4 580.857C441.88 584.976 443.217 588.238 444.412 590.645C446.177 594.104 448.147 596.993 450.322 599.31C454.369 603.482 459.79 606.496 466.583 608.35C471.361 609.651 476.121 610.16 480.864 609.874C485.91 609.553 490.51 608.359 494.664 606.291C497.855 604.704 500.084 602.832 501.35 600.674C501.831 599.819 502.259 598.74 502.634 597.438C502.634 597.42 502.901 596.297 503.436 594.069C504.559 590.182 505.37 587.276 505.87 585.35C506.725 581.945 507.064 579.003 506.886 576.524C506.779 575.312 506.538 573.966 506.164 572.486C505.932 571.612 505.549 570.302 505.014 568.555C503.819 564.864 502.767 562.181 501.858 560.505C499.451 556.137 495.689 552.464 490.572 549.486C486.863 547.329 481.934 545.368 475.783 543.602C473.732 542.996 472.056 542.568 470.755 542.319C470.701 542.301 470.639 542.292 470.567 542.292C470.567 542.239 470.559 542.167 470.541 542.078C468.829 531.238 466.378 519.64 463.186 507.284ZM466.502 560.023C469.123 559.916 472.163 560.531 475.622 561.869C478.974 563.224 481.791 564.909 484.073 566.923C486.712 569.295 488.343 571.96 488.967 574.92C489.324 576.631 489.333 578.575 488.994 580.75C488.78 582.176 488.308 584.102 487.577 586.527C487.291 587.489 487.042 588.203 486.828 588.666C486.471 589.433 486.052 590.048 485.571 590.512C484.822 591.207 483.832 591.679 482.602 591.929C481.693 592.107 480.534 592.17 479.126 592.116C475.542 591.956 472.475 591.483 469.926 590.699C466.681 589.683 464.113 588.14 462.223 586.072C460.708 584.414 459.335 581.953 458.105 578.691C455.662 572.201 455.724 567.289 458.292 563.955C459.219 562.742 460.423 561.788 461.902 561.093C463.329 560.451 464.862 560.095 466.502 560.023Z" fill="#0A0A0A"/>
<path d="M44.5879 503.781C42.0918 502.996 38.9984 502.809 35.3077 503.219C31.7062 503.647 28.5504 504.538 25.8404 505.893C22.6667 507.516 20.3935 509.673 19.0206 512.365C18.2361 513.934 17.728 515.806 17.4962 517.982C17.3358 519.426 17.2912 521.405 17.3625 523.919C17.3982 524.917 17.4606 525.675 17.5497 526.192C17.6923 527.03 17.933 527.734 18.2718 528.305C18.8067 529.178 19.6446 529.892 20.7857 530.444C21.6058 530.837 22.7113 531.193 24.102 531.514C27.5966 532.299 30.681 532.637 33.3554 532.53C36.743 532.388 39.6225 531.559 41.9938 530.043C43.8658 528.849 45.8271 526.825 47.8775 523.972C51.9069 518.356 53.1193 513.596 51.5147 509.691C50.9263 508.3 49.9991 507.079 48.7333 506.027C47.5387 505.029 46.1569 504.28 44.5879 503.781ZM475.622 561.869C472.163 560.531 469.123 559.916 466.503 560.023C464.862 560.095 463.329 560.451 461.903 561.093C460.423 561.788 459.219 562.742 458.292 563.955C455.725 567.289 455.662 572.201 458.105 578.691C459.335 581.953 460.708 584.414 462.223 586.072C464.113 588.14 466.681 589.682 469.926 590.699C472.475 591.483 475.542 591.956 479.126 592.116C480.534 592.17 481.693 592.107 482.602 591.929C483.833 591.679 484.822 591.207 485.571 590.512C486.052 590.048 486.471 589.433 486.828 588.666C487.042 588.203 487.292 587.489 487.577 586.527C488.308 584.102 488.78 582.176 488.994 580.75C489.333 578.575 489.324 576.631 488.968 574.92C488.344 571.96 486.712 569.295 484.073 566.923C481.791 564.909 478.974 563.224 475.622 561.869Z" fill="white"/>
</svg>
