<svg width="327" height="296" viewBox="0 0 327 296" fill="none" xmlns="http://www.w3.org/2000/svg">
<path d="M54.5003 212.374C53.6132 212.434 52.9048 212.961 52.3749 213.955C51.9701 214.717 51.6932 215.696 51.5444 216.893C50.4073 226.055 49.4309 236.379 48.6153 247.863C48.1212 254.84 47.5109 265.196 46.7846 278.931C46.6239 281.932 46.5762 284.209 46.6417 285.763C46.7489 288.287 47.121 290.508 47.758 292.425C48.1089 293.471 48.5494 294.463 49.0797 295.398H78.8084C79.1841 294.75 79.4788 294.16 79.6925 293.63C80.1211 292.553 80.3146 291.541 80.273 290.594C80.2313 289.6 79.9366 288.629 79.3889 287.683C78.8769 286.802 78.2011 286.025 77.3617 285.352C76.0043 284.274 74.1409 283.423 71.7714 282.798C68.6398 281.982 65.4309 281.673 62.1446 281.869C58.8583 282.066 55.7089 282.759 52.6964 283.95C53.2501 262.023 54.798 240.126 57.3401 218.259C57.4354 217.432 57.486 216.804 57.4919 216.375C57.4919 215.678 57.4056 215.065 57.233 214.535C57.0246 213.91 56.6763 213.392 56.1881 212.981C55.6642 212.541 55.1016 212.338 54.5003 212.374ZM107.814 216.018C107.73 215.327 107.57 214.729 107.332 214.223C107.052 213.627 106.644 213.154 106.108 212.803C105.537 212.434 104.956 212.303 104.367 212.41C103.492 212.571 102.849 213.178 102.438 214.232C102.128 215.035 101.973 216.041 101.973 217.25C101.95 226.484 102.226 236.849 102.804 248.345C103.161 255.334 103.81 265.691 104.751 279.413C104.953 282.408 105.179 284.673 105.429 286.209C105.846 288.698 106.486 290.856 107.349 292.684C107.807 293.65 108.343 294.555 108.957 295.398H136.748C137.186 294.672 137.618 293.862 138.043 292.969C138.584 291.838 138.968 290.856 139.195 290.022C139.486 288.897 139.555 287.867 139.4 286.933C139.239 285.95 138.828 285.025 138.168 284.155C137.554 283.346 136.792 282.658 135.881 282.092C134.399 281.182 132.443 280.559 130.014 280.226C126.811 279.797 123.591 279.878 120.352 280.467C117.113 281.057 114.071 282.128 111.225 283.682C109.118 261.845 108.004 239.921 107.885 217.911C107.879 217.077 107.855 216.446 107.814 216.018Z" fill="#0A0A0A"/>
<path d="M98.7674 37.0559C97.5529 36.5618 96.0049 36.4844 94.1236 36.8238C92.4686 37.1155 90.9326 37.5977 89.5157 38.2704C87.9916 38.9968 86.6848 39.9136 85.5953 41.021C84.2022 42.4438 83.0055 44.3728 82.0053 46.8077C80.8623 49.6118 80.0407 52.8565 79.5406 56.5417C79.2072 59.0541 78.9661 62.4208 78.8172 66.6418C78.6267 72.1309 78.5553 77.0395 78.6029 81.3677C78.6089 82.0881 78.6476 82.6507 78.719 83.0555C78.8202 83.6747 79.0167 84.1867 79.3084 84.5915C79.7906 85.2643 80.4931 85.6304 81.4159 85.69C82.3387 85.7435 83.0799 85.4637 83.6396 84.8505C84.0682 84.3742 84.351 83.7372 84.4879 82.9394C84.5713 82.4215 84.6011 81.6922 84.5772 80.7515C84.3867 72.762 84.6755 64.826 85.4435 56.9436C88.0332 57.2948 90.6171 57.009 93.1949 56.0863C95.743 55.1754 97.9309 53.7644 99.7586 51.8533C101.009 50.5555 101.902 49.1951 102.438 47.7722C102.843 46.6887 103.039 45.5545 103.027 44.3698C103.015 43.191 102.798 42.0628 102.375 40.9852C102.024 40.0922 101.551 39.3123 100.955 38.6455C100.312 37.9192 99.583 37.3893 98.7674 37.0559ZM151.59 38.5205C151.173 37.3298 150.536 36.3981 149.679 35.7253C148.363 34.7073 146.574 34.2995 144.312 34.5019C142.192 34.6924 140.183 35.3264 138.284 36.404C136.373 37.4876 134.798 38.8926 133.56 40.6191C132.524 42.0539 131.666 43.7953 130.988 45.8433C130.511 47.284 130.038 49.1921 129.568 51.5676C128.818 55.3957 128.121 59.7208 127.478 64.5432C127.079 67.4961 126.552 71.8451 125.897 77.5902C125.808 78.3166 125.775 78.8851 125.799 79.2959C125.835 79.927 125.984 80.4568 126.246 80.8855C126.662 81.5701 127.323 81.9601 128.228 82.0554C129.121 82.1447 129.862 81.9095 130.452 81.3499C130.839 80.9748 131.145 80.4747 131.372 79.8496C131.52 79.4209 131.657 78.8345 131.782 78.0903C132.092 76.2805 132.571 72.3958 133.22 66.4364C133.75 61.5962 134.366 57.7383 135.069 54.8628C136.617 54.8509 138.001 54.7735 139.221 54.6306C140.692 54.452 142.037 54.1633 143.258 53.7644C144.639 53.3119 145.886 52.7106 147 51.9605C148.202 51.1449 149.187 50.1923 149.955 49.1028C150.664 48.1026 151.203 46.9744 151.572 45.7183C151.917 44.5276 152.096 43.2803 152.108 41.9765C152.125 40.7024 151.953 39.5505 151.59 38.5205Z" fill="#0A0A0A"/>
<path d="M75.8881 143.549C74.5426 143.668 73.4204 143.814 72.5214 143.986C71.3069 144.225 70.2323 144.558 69.2976 144.987C68.6546 145.272 67.9759 145.65 67.2615 146.121C66.7614 146.448 66.1244 146.901 65.3504 147.478C61.0937 150.699 57.1049 154.226 53.3839 158.061C49.6571 161.912 46.2576 166.011 43.1856 170.357C35.5056 181.211 32.4961 191.016 34.1572 199.774C35.0621 204.554 37.3452 208.963 41.0066 212.999C44.3823 216.714 48.505 219.682 53.375 221.903C54.7026 222.51 56.0987 223.07 57.5633 223.582C60.6948 224.671 64.1359 225.543 67.8866 226.198C71.7921 226.883 76.8526 227.431 83.068 227.841C86.6342 228.079 89.4889 228.184 91.6321 228.154C94.7755 228.112 97.6035 227.82 100.116 227.279C101.265 227.029 102.536 226.683 103.929 226.243C104.834 225.957 106.081 225.534 107.671 224.975C110.779 223.867 113.279 222.918 115.172 222.126C117.875 220.995 120.268 219.822 122.352 218.607C127.544 215.583 131.419 211.987 133.979 207.82C135.366 205.563 136.417 203.039 137.132 200.247C137.786 197.675 138.141 194.951 138.194 192.076C138.242 189.51 138.051 186.771 137.623 183.86C137.266 181.437 136.715 178.743 135.971 175.778C135.387 173.432 134.801 171.423 134.211 169.75C133.908 168.893 133.589 168.074 133.256 167.294C132.75 166.127 132.205 165.044 131.622 164.044C130.139 161.496 128.216 159.141 125.853 156.98C123.662 154.986 121.164 153.22 118.36 151.684C115.842 150.315 113.041 149.104 109.957 148.05C107.349 147.163 104.396 146.344 101.098 145.594C96.3651 144.516 91.9863 143.82 87.9618 143.504C83.9491 143.183 79.9246 143.198 75.8881 143.549ZM71.6105 150.845C72.8012 150.345 74.1527 149.985 75.6649 149.764C76.8198 149.598 78.2248 149.496 79.8799 149.461C87.7981 149.264 95.743 150.232 103.715 152.363C108.93 153.756 113.374 155.569 117.048 157.802C121.507 160.51 124.778 163.809 126.862 167.696C127.398 168.702 127.898 169.837 128.362 171.099C128.451 171.343 128.541 171.596 128.63 171.858C129.011 172.965 129.44 174.415 129.916 176.207C130.642 178.969 131.184 181.354 131.541 183.36C132.012 185.979 132.262 188.408 132.291 190.647C132.327 193.225 132.08 195.657 131.55 197.943C130.967 200.449 130.062 202.7 128.835 204.694C126.703 208.153 123.331 211.266 118.717 214.035C114.111 216.805 109.387 218.627 104.545 219.5C104.232 219.557 104.048 219.581 103.992 219.572C95.9448 221.149 86.6008 221.226 75.9596 219.804C61.4103 217.859 50.5214 212.73 43.2928 204.417C40.3222 199.827 39.6495 195.046 41.2745 190.075C42.9044 185.105 45.3126 180.401 48.4991 175.966C51.6855 171.537 54.5789 167.628 57.1793 164.24C59.7864 160.858 62.1767 158.167 64.3503 156.167C66.5233 154.174 67.9819 152.929 68.7261 152.434C69.7203 151.762 70.6818 151.232 71.6105 150.845Z" fill="#0A0A0A"/>
<path d="M75.6649 149.764C74.1527 149.985 72.8012 150.345 71.6105 150.845C70.6818 151.232 69.7203 151.762 68.7261 152.434C67.9819 152.929 66.5233 154.174 64.3503 156.167C62.1767 158.167 59.7864 160.858 57.1793 164.24C54.5789 167.628 51.6855 171.537 48.4991 175.966C45.3126 180.401 42.9045 185.105 41.2745 190.075C39.6495 195.047 40.3223 199.827 43.2928 204.417C50.5214 212.73 61.4103 217.859 75.9596 219.804C86.6008 221.226 95.9448 221.149 103.992 219.572C104.048 219.581 104.232 219.557 104.545 219.5C109.387 218.627 114.111 216.805 118.717 214.035C123.331 211.266 126.704 208.153 128.835 204.694C130.062 202.7 130.967 200.449 131.55 197.943C132.08 195.657 132.327 193.225 132.291 190.647C132.262 188.408 132.012 185.979 131.541 183.36C131.184 181.354 130.642 178.969 129.916 176.207C129.44 174.415 129.011 172.965 128.63 171.858C128.541 171.596 128.451 171.343 128.362 171.099C127.898 169.837 127.398 168.702 126.862 167.696C124.778 163.809 121.507 160.51 117.048 157.802C113.374 155.569 108.93 153.756 103.715 152.363C95.743 150.232 87.7981 149.264 79.8799 149.461C78.2249 149.496 76.8198 149.598 75.6649 149.764Z" fill="white"/>
<path d="M143.472 136.708C140.87 136.792 138.531 136.726 136.453 136.512C135.238 136.393 134.316 136.366 133.685 136.431C132.69 136.539 131.991 136.866 131.586 137.414C131.199 137.956 131.178 138.587 131.524 139.307C131.78 139.861 132.175 140.319 132.711 140.682C132.241 141.444 132.155 142.233 132.452 143.049C132.72 143.775 133.238 144.495 134.006 145.21C134.5 145.686 135.259 146.275 136.283 146.978L231.14 213.097V213.106C231.158 213.803 231.319 214.422 231.622 214.964C231.98 215.565 232.524 216.03 233.257 216.357C234.025 216.69 234.727 216.726 235.364 216.464C235.93 216.244 236.347 215.815 236.614 215.178C236.769 214.821 236.924 214.217 237.079 213.365C237.329 212.008 237.784 210.531 238.445 208.936C238.868 207.954 239.541 206.549 240.463 204.721C244.131 197.511 246.658 192.266 248.045 188.986C250.581 183.032 252.272 177.543 253.117 172.518C253.368 171.024 253.585 169.33 253.769 167.437C253.877 166.294 254.01 164.579 254.171 162.293L255.046 150.139C255.201 148.008 255.273 146.401 255.261 145.317C255.243 143.525 255.049 141.918 254.68 140.495C254.252 138.804 253.54 137.262 252.546 135.869C251.451 134.345 250.114 133.145 248.536 132.27C247.322 131.597 245.905 131.094 244.285 130.761C242.97 130.487 241.446 130.308 239.713 130.225C238.671 130.189 237.817 130.201 237.15 130.261C236.233 130.362 235.462 130.585 234.837 130.93C234.462 131.133 234.15 131.383 233.9 131.681C233.376 131.704 232.757 131.731 232.042 131.761L219.075 132.368C203.614 133.106 192.16 133.678 184.712 134.083C171.977 134.779 160.553 135.506 150.438 136.262C147.223 136.506 144.901 136.655 143.472 136.708ZM138.802 141.772C140.754 141.766 142.913 141.7 145.276 141.575C146.77 141.504 149.256 141.34 152.733 141.084C181.869 138.965 211.059 137.53 240.303 136.78C241.023 136.762 241.577 136.714 241.964 136.637C242.559 136.518 243.008 136.3 243.312 135.985C243.419 135.884 243.509 135.774 243.58 135.654C244.437 135.905 245.256 136.336 246.036 136.949C247.185 137.848 248.027 138.929 248.563 140.191C249.021 141.263 249.292 142.495 249.376 143.888C249.423 144.751 249.394 145.999 249.286 147.63L248.599 158.489C248.432 161.126 248.292 163.103 248.179 164.419C247.977 166.604 247.736 168.565 247.456 170.304C246.61 175.454 245 180.946 242.624 186.78C240.88 191.078 238.383 196.306 235.132 202.462C234.084 204.438 233.364 205.861 232.971 206.73C232.792 207.117 232.632 207.489 232.489 207.846L159.591 157.275C154.686 153.875 151.021 151.282 148.598 149.496C144.883 146.764 141.618 144.189 138.802 141.772ZM4.34814 149.809C2.34182 152.149 0.972518 154.783 0.240239 157.712C-0.343203 160.028 0.136062 162.109 1.67801 163.954C3.92843 166.627 6.64917 168.717 9.84023 170.223C14.3411 172.337 18.9372 174.239 23.6285 175.93C23.8547 176.013 24.0006 176.129 24.0661 176.278C24.2745 176.796 24.4233 177.35 24.5126 177.939C24.7746 179.707 25.489 181.267 26.6559 182.619C30.1565 186.643 34.4877 187.872 39.6493 186.307C42.2927 185.521 44.5907 184.143 46.5435 182.172C47.3948 181.309 47.88 180.276 47.9991 179.073C48.1122 177.918 48.1956 176.76 48.2491 175.599C48.3087 174.272 48.1331 172.971 47.7223 171.697C47.2639 170.274 46.6149 168.926 45.7755 167.651C44.2514 165.33 42.1468 164.059 39.4618 163.838C38.6819 163.773 37.908 163.716 37.14 163.669C34.4371 163.389 31.9604 163.975 29.71 165.428C27.7215 166.702 26.1141 168.229 24.8877 170.009C21.2799 168.848 17.7762 167.434 14.3768 165.767C13.0075 165.094 11.6412 164.425 10.2778 163.758C8.71206 162.984 7.39931 161.93 6.33959 160.597C6.00024 160.168 5.91689 159.713 6.08954 159.23C7.67316 154.706 10.4445 150.976 14.4036 148.041C18.3627 145.112 22.6879 142.885 27.3792 141.361C31.9396 139.861 36.5952 138.756 41.3461 138.048C46.3887 137.333 51.4581 136.768 56.5543 136.351C59.1202 136.166 61.6802 136.184 64.2343 136.405C66.2049 136.601 68.0743 136.312 69.8424 135.538C70.4735 135.259 70.8783 134.791 71.0569 134.136C71.5332 132.398 70.8426 131.32 68.9851 130.904C66.0382 130.261 63.0406 130.028 59.9924 130.207C54.8605 130.54 49.7524 131.052 44.6681 131.743C39.9232 132.41 35.2319 133.285 30.5941 134.369C25.5515 135.524 20.7857 137.378 16.2968 139.932C11.7424 142.528 7.75949 145.82 4.34814 149.809ZM37.7829 169.545C38.1937 169.586 38.5896 169.699 38.9707 169.884C41.0246 170.854 42.1409 172.533 42.3195 174.921C42.3671 175.546 42.3254 176.153 42.1945 176.742C41.7956 178.54 40.6346 179.814 38.7117 180.565C35.8302 181.684 33.3446 181.086 31.2549 178.77C30.7072 178.067 30.3351 177.275 30.1386 176.394C29.8291 175.007 30.0583 173.721 30.8263 172.536C32.4099 170.101 34.7288 169.104 37.7829 169.545Z" fill="#0A0A0A"/>
<path d="M145.276 141.575C142.912 141.7 140.754 141.766 138.802 141.772C141.618 144.189 144.883 146.764 148.598 149.496C151.021 151.282 154.685 153.875 159.591 157.275L232.489 207.846C232.631 207.489 232.792 207.117 232.971 206.73C233.364 205.861 234.084 204.438 235.132 202.462C238.383 196.306 240.88 191.079 242.624 186.78C245 180.946 246.61 175.454 247.456 170.304C247.735 168.565 247.977 166.604 248.179 164.419C248.292 163.103 248.432 161.127 248.599 158.489L249.286 147.63C249.393 145.999 249.423 144.751 249.376 143.888C249.292 142.495 249.021 141.263 248.563 140.191C248.027 138.929 247.185 137.848 246.036 136.949C245.256 136.336 244.437 135.905 243.58 135.655C243.508 135.774 243.419 135.884 243.312 135.985C243.008 136.3 242.559 136.518 241.964 136.637C241.577 136.714 241.023 136.762 240.303 136.78C211.059 137.53 181.869 138.965 152.733 141.084C149.256 141.34 146.77 141.504 145.276 141.575ZM38.9705 169.884C38.5895 169.7 38.1936 169.586 37.7828 169.545C34.7287 169.104 32.4098 170.101 30.8262 172.536C30.0582 173.721 29.829 175.007 30.1385 176.394C30.335 177.275 30.7071 178.067 31.2548 178.77C33.3445 181.086 35.8301 181.684 38.7116 180.565C40.6345 179.815 41.7955 178.54 42.1943 176.743C42.3253 176.153 42.367 175.546 42.3194 174.921C42.1408 172.533 41.0245 170.855 38.9705 169.884Z" fill="white"/>
<path d="M73.3163 121.295C70.5301 122.349 68.0475 123.691 65.8685 125.322C63.5109 127.09 61.4867 129.216 59.796 131.698C58.1111 134.181 56.8787 136.845 56.0988 139.691C55.3189 142.531 55.0212 145.448 55.2058 148.443C55.3963 151.437 56.0542 154.298 57.1794 157.025C58.7987 160.93 61.3081 164.413 64.7076 167.473C67.0354 169.575 69.6222 171.34 72.4679 172.769C73.5515 173.304 74.6707 173.796 75.8257 174.242C83.2021 177.082 91.7721 177.921 101.536 176.76C104.792 176.373 107.778 175.805 110.493 175.055C113.315 174.269 116.059 173.224 118.727 171.92C122.501 170.063 125.772 167.8 128.541 165.133C131.583 162.21 133.813 158.983 135.23 155.453C136.307 152.774 136.894 149.964 136.989 147.023C136.995 146.886 136.998 146.749 136.998 146.612C137.045 143.814 136.641 141.108 135.783 138.494C135.622 138 135.521 137.649 135.48 137.441C135.402 137.036 135.405 136.682 135.489 136.378C135.542 136.17 135.667 135.902 135.864 135.574C136.09 135.205 136.233 134.94 136.292 134.779C136.56 134.083 136.48 133.321 136.051 132.493C135.724 131.856 135.197 131.201 134.471 130.529C130.101 126.498 124.475 123.524 117.592 121.607C114.747 120.815 111.603 120.187 108.162 119.723C105.453 119.36 102.253 119.065 98.5621 118.839C95.2698 118.637 92.4329 118.547 90.0516 118.571C86.9736 118.595 84.1457 118.8 81.5679 119.187C78.609 119.634 75.8584 120.336 73.3163 121.295ZM78.2547 125.974C80.1956 125.498 82.4757 125.132 85.0953 124.876C90.0545 124.388 95.0317 124.331 100.027 124.706C105.022 125.081 109.936 125.879 114.77 127.099C117.378 127.754 119.712 128.487 121.772 129.296C122.724 129.671 123.519 130.037 124.156 130.395C124.984 130.865 125.677 131.383 126.237 131.949C126.85 132.58 127.404 133.383 127.898 134.36C128.219 134.991 128.6 135.899 129.041 137.083C129.785 139.078 130.315 140.7 130.631 141.95C131.095 143.772 131.312 145.448 131.282 146.978C131.265 147.77 131.184 148.565 131.041 149.362C130.785 150.726 130.342 152.095 129.711 153.47C128.812 155.429 127.57 157.322 125.987 159.15C124.516 160.853 122.867 162.386 121.039 163.749C119.212 165.1 117.268 166.238 115.208 167.16C113.541 167.905 111.692 168.548 109.662 169.089C107.972 169.542 106.052 169.95 103.902 170.313C99.336 171.075 95.1209 171.402 91.2571 171.295C86.7444 171.158 82.6216 170.429 78.8888 169.107C74.9595 167.708 71.5273 165.645 68.5922 162.919C68.4374 162.776 68.2856 162.63 68.1368 162.481C64.91 159.338 62.7906 155.789 61.7785 151.836C61.2196 149.657 61.6364 146.719 63.0287 143.022C64.42 139.327 66.1466 136.558 68.2082 134.717C70.2699 132.881 70.898 131.646 70.0925 131.011C69.288 130.374 69.8684 129.508 71.8339 128.412C73.6914 127.376 75.8317 126.564 78.2547 125.974Z" fill="#0A0A0A"/>
<path d="M85.0952 124.876C82.4757 125.132 80.1955 125.498 78.2547 125.974C75.8316 126.564 73.6913 127.376 71.8339 128.412C69.8684 129.508 69.2879 130.374 70.0925 131.011C70.8979 131.646 70.2698 132.881 68.2082 134.717C66.1465 136.558 64.42 139.327 63.0286 143.022C61.6363 146.719 61.2196 149.657 61.7784 151.836C62.7905 155.789 64.9099 159.338 68.1367 162.481C68.2856 162.63 68.4374 162.776 68.5922 162.919C71.5273 165.645 74.9594 167.708 78.8887 169.107C82.6216 170.429 86.7443 171.158 91.2571 171.295C95.1209 171.402 99.336 171.075 103.902 170.313C106.051 169.95 107.971 169.542 109.662 169.089C111.692 168.548 113.541 167.905 115.208 167.16C117.268 166.238 119.212 165.101 121.039 163.749C122.867 162.386 124.516 160.853 125.987 159.15C127.57 157.322 128.812 155.429 129.711 153.47C130.342 152.095 130.785 150.726 131.041 149.362C131.184 148.565 131.265 147.77 131.282 146.978C131.312 145.448 131.095 143.772 130.63 141.95C130.315 140.7 129.785 139.078 129.041 137.083C128.6 135.899 128.219 134.991 127.898 134.36C127.404 133.383 126.85 132.58 126.237 131.949C125.677 131.383 124.984 130.865 124.156 130.395C123.519 130.037 122.724 129.671 121.772 129.296C119.712 128.487 117.378 127.754 114.77 127.099C109.936 125.879 105.022 125.081 100.027 124.706C95.0316 124.331 90.0545 124.388 85.0952 124.876Z" fill="white"/>
<path d="M165.271 91.7804C163.919 87.0355 160.984 83.7075 156.466 81.7964C153.644 80.6057 150.741 80.2693 147.759 80.7873C143.02 81.5612 139.254 83.9486 136.462 87.9493C133.676 91.9381 132.753 96.311 133.694 101.068C134.622 105.741 137.096 109.355 141.115 111.909C145.115 114.457 149.381 114.916 153.912 113.284C158.269 111.701 161.559 108.894 163.779 104.863C166.072 100.714 166.569 96.3527 165.271 91.7804ZM161.19 97.6386C160.862 102.485 158.528 105.997 154.188 108.176C149.622 110.474 145.461 109.918 141.704 106.506C137.995 103.137 136.983 99.0823 138.668 94.3434C140.257 89.8604 143.276 86.7556 147.723 85.0291C150.331 84.5707 152.789 84.9934 155.099 86.2972C159.499 88.7917 161.529 92.5722 161.19 97.6386ZM156.367 90.1194C155.986 89.6252 155.593 89.2204 155.189 88.9049C153.986 87.9761 152.319 87.4939 150.188 87.4582C148.783 87.4284 147.592 87.604 146.616 87.985C146.348 88.0862 146.086 88.2083 145.83 88.3512C145.264 88.6488 144.713 89.0358 144.178 89.5121C143.469 90.1432 142.856 90.8606 142.338 91.6643C141.832 92.4799 141.46 93.3372 141.222 94.2362C140.912 95.3555 140.82 96.5194 140.945 97.7279C141.07 98.9007 141.385 100.038 141.891 101.139C142.118 101.633 142.374 102.101 142.659 102.541C143.07 103.16 143.535 103.723 144.053 104.229C145.017 105.158 146.086 105.783 147.259 106.104C148.038 106.337 148.866 106.429 149.741 106.381C150.563 106.34 151.384 106.173 152.206 105.881C153.659 105.393 155.087 104.536 156.492 103.309C157.118 102.762 157.624 102.223 158.011 101.693C158.267 101.342 158.469 100.996 158.618 100.657C158.862 100.103 159.017 99.4574 159.082 98.7192C159.136 98.1536 159.139 97.4808 159.091 96.7009C159.014 95.7662 158.892 95.0012 158.725 94.4059C158.582 93.8879 158.332 93.2926 157.975 92.6198C157.784 92.2805 157.57 91.9143 157.332 91.5214C156.975 90.9558 156.653 90.4885 156.367 90.1194Z" fill="#0A0A0A"/>
<path d="M154.188 108.176C158.528 105.997 160.862 102.485 161.19 97.6386C161.529 92.5722 159.499 88.7917 155.099 86.2972C152.789 84.9934 150.33 84.5707 147.723 85.0291C143.276 86.7556 140.257 89.8604 138.668 94.3433C136.983 99.0823 137.995 103.137 141.704 106.506C145.461 109.918 149.622 110.474 154.188 108.176ZM155.189 88.9048C155.593 89.2204 155.986 89.6252 156.367 90.1193C156.653 90.4884 156.975 90.9558 157.332 91.5214C157.57 91.9143 157.784 92.2804 157.975 92.6198C158.332 93.2925 158.582 93.8879 158.725 94.4058C158.892 95.0012 159.014 95.7662 159.091 96.7009C159.139 97.4808 159.136 98.1536 159.082 98.7191C159.017 99.4574 158.862 100.103 158.618 100.657C158.469 100.996 158.266 101.342 158.01 101.693C157.623 102.223 157.117 102.762 156.492 103.309C155.087 104.536 153.658 105.393 152.206 105.881C151.384 106.173 150.563 106.34 149.741 106.381C148.866 106.429 148.038 106.337 147.258 106.104C146.086 105.783 145.017 105.158 144.053 104.229C143.535 103.723 143.07 103.16 142.659 102.541C142.374 102.101 142.118 101.633 141.891 101.139C141.385 100.038 141.07 98.9007 140.945 97.7279C140.82 96.5193 140.912 95.3554 141.222 94.2362C141.46 93.3372 141.832 92.4799 142.338 91.6643C142.856 90.8605 143.469 90.1431 144.178 89.5121C144.713 89.0358 145.264 88.6488 145.83 88.3511C146.086 88.2083 146.348 88.0862 146.615 87.985C147.592 87.604 148.783 87.4284 150.188 87.4581C152.319 87.4938 153.986 87.9761 155.189 88.9048Z" fill="white"/>
<path d="M144.222 81.7428C133.518 70.9908 120.593 66.4215 105.447 68.0349C94.7015 69.1833 85.3962 72.7405 77.5313 78.7065C69.6719 84.6786 64.2542 90.4654 61.2783 96.0669C58.3081 101.668 57.3496 109.506 58.4027 119.58C59.4623 129.66 67.0768 137.515 81.2463 143.147C94.6178 148.463 108.433 149.541 122.691 146.38C130.764 144.582 137.391 141.239 142.57 136.351C147.142 132.029 150.589 126.504 152.911 119.777C157.912 105.274 155.016 92.596 144.222 81.7428ZM97.9279 75.5095C103.929 73.8842 110.014 73.3632 116.181 73.9467C131.541 75.4708 141.981 83.3502 147.5 97.585C150 104.039 149.997 110.433 147.491 116.767C143.538 126.781 137.111 133.934 128.21 138.226C124.638 139.947 120.673 141.206 116.315 142.004C102.08 144.623 88.8935 142.058 76.7544 134.306C63.6984 125.965 60.2513 114.743 66.4132 100.639C67.8122 97.4302 69.4524 94.516 71.3337 91.8964C77.567 83.1805 86.4318 77.7182 97.9279 75.5095Z" fill="#0A0A0A"/>
<path d="M116.182 73.9467C110.014 73.3632 103.929 73.8842 97.9283 75.5095C86.4321 77.7182 77.5673 83.1805 71.334 91.8964C69.4527 94.516 67.8126 97.4302 66.4135 100.639C60.2516 114.743 63.6987 125.965 76.7547 134.306C88.8938 142.058 102.081 144.623 116.316 142.004C120.674 141.206 124.639 139.947 128.211 138.226C137.111 133.934 143.538 126.781 147.491 116.767C149.997 110.433 150 104.039 147.5 97.585C141.981 83.3502 131.542 75.4708 116.182 73.9467Z" fill="white"/>
<path d="M105.349 90.6194C103.366 88.4107 100.934 86.9253 98.0528 86.1632C95.2011 85.3953 92.3136 85.2494 89.3905 85.7257C86.2768 86.2139 83.5352 87.4671 81.1658 89.4853C78.7963 91.4916 77.1977 93.9832 76.3702 96.9599C75.7451 99.2044 75.4296 101.496 75.4236 103.836C75.4177 106.819 76.3881 109.426 78.3349 111.659C79.4541 113.076 80.7371 114.341 82.1838 115.454C84.6426 117.33 87.4348 118.178 90.5603 118C91.7749 117.946 92.9745 117.836 94.1592 117.669C97.2074 117.282 99.9401 116.145 102.357 114.258C104.691 112.424 106.391 110.123 107.456 107.355C108.51 104.61 108.942 101.758 108.751 98.7995C108.555 95.668 107.421 92.9413 105.349 90.6194ZM80.0316 100.595C80.3055 98.4691 81.0705 96.5312 82.3267 94.7809C84.0889 92.3162 86.4733 90.8427 89.4798 90.3605C90.6526 90.1521 91.8284 90.0509 93.0072 90.0568C96.2578 89.8485 99.0649 90.8427 101.428 93.0395C102.958 94.4743 103.863 96.2246 104.143 98.2905C104.524 101.148 104.113 103.914 102.911 106.587C101.595 109.51 99.3834 111.492 96.2757 112.534C93.4002 113.499 90.4859 113.731 87.533 113.231C87.277 113.141 87.0299 113.037 86.7918 112.918C84.7497 111.906 83.0262 110.48 81.6212 108.641C81.2759 108.182 81.005 107.703 80.8085 107.203C79.987 105.113 79.728 102.91 80.0316 100.595ZM97.2134 92.7002C96.4811 92.3251 95.6893 92.0542 94.8379 91.8875C93.3257 91.5899 91.6588 91.6196 89.837 91.9768C88.4796 92.2447 87.4229 92.6585 86.6668 93.2181C86.1726 93.5813 85.7142 94.0635 85.2915 94.6648C84.9641 95.1292 84.6277 95.7126 84.2824 96.4152C83.8716 97.2546 83.5918 97.975 83.4429 98.5763C83.2465 99.374 83.1691 100.437 83.2108 101.764C83.2346 102.443 83.2792 103.012 83.3447 103.47C83.4281 104.089 83.568 104.637 83.7644 105.113C84.336 106.518 85.5356 107.768 87.3633 108.864C88.5659 109.59 89.6822 110.034 90.7122 110.194C91.6052 110.337 92.5667 110.302 93.5966 110.087C94.5313 109.897 95.4184 109.581 96.2578 109.141C97.1092 108.688 97.8653 108.132 98.5261 107.471C99.3477 106.655 100.006 105.691 100.5 104.577C100.982 103.5 101.28 102.363 101.393 101.166C101.518 99.8563 101.408 98.6031 101.062 97.4064C100.687 96.1205 100.077 95.0429 99.2316 94.1737C98.666 93.5843 97.9933 93.0931 97.2134 92.7002Z" fill="#0A0A0A"/>
<path d="M82.3267 94.7808C81.0705 96.5312 80.3054 98.469 80.0316 100.594C79.728 102.91 79.987 105.113 80.8085 107.203C81.005 107.703 81.2759 108.182 81.6212 108.641C83.0262 110.48 84.7497 111.906 86.7918 112.918C87.0299 113.037 87.277 113.141 87.533 113.231C90.4859 113.731 93.4001 113.499 96.2757 112.534C99.3834 111.492 101.595 109.51 102.911 106.587C104.113 103.913 104.524 101.148 104.143 98.2904C103.863 96.2245 102.958 94.4742 101.428 93.0394C99.0649 90.8426 96.2578 89.8484 93.0072 90.0567C91.8284 90.0508 90.6526 90.152 89.4798 90.3604C86.4733 90.8426 84.0889 92.3161 82.3267 94.7808ZM94.8379 91.8874C95.6893 92.0541 96.4811 92.325 97.2134 92.7001C97.9933 93.093 98.666 93.5842 99.2316 94.1736C100.077 95.0428 100.687 96.1204 101.062 97.4063C101.408 98.603 101.518 99.8562 101.393 101.166C101.28 102.363 100.982 103.5 100.5 104.577C100.006 105.691 99.3477 106.655 98.5261 107.471C97.8653 108.132 97.1092 108.688 96.2578 109.141C95.4184 109.581 94.5313 109.897 93.5966 110.087C92.5667 110.302 91.6052 110.337 90.7121 110.194C89.6822 110.034 88.5659 109.59 87.3633 108.864C85.5356 107.768 84.336 106.518 83.7644 105.113C83.568 104.637 83.4281 104.089 83.3447 103.47C83.2792 103.012 83.2346 102.443 83.2108 101.764C83.1691 100.437 83.2465 99.3739 83.4429 98.5762C83.5918 97.9749 83.8716 97.2545 84.2824 96.4151C84.6277 95.7125 84.9641 95.1291 85.2915 94.6647C85.7142 94.0634 86.1726 93.5812 86.6667 93.218C87.4228 92.6584 88.4796 92.2446 89.837 91.9767C91.6587 91.6195 93.3257 91.5898 94.8379 91.8874Z" fill="white"/>
<path d="M138.623 108.551C138.915 108.081 139.123 107.694 139.248 107.39C139.433 106.944 139.51 106.527 139.48 106.14C139.456 105.783 139.346 105.447 139.15 105.131C138.953 104.816 138.7 104.568 138.391 104.39C138.081 104.211 137.742 104.116 137.373 104.104C137.004 104.092 136.658 104.164 136.337 104.318C135.914 104.527 135.524 104.893 135.167 105.417C134.792 106.072 134.512 106.557 134.328 106.872C133.982 107.474 133.393 108.292 132.559 109.328C132.25 109.715 132.009 109.998 131.836 110.177C131.556 110.474 131.276 110.71 130.997 110.882C130.58 111.138 130.077 111.314 129.487 111.409C129.041 111.48 128.499 111.507 127.862 111.489C125.493 111.424 123.201 111.007 120.986 110.239C120.343 110.019 119.896 109.879 119.646 109.819C119.134 109.706 118.682 109.694 118.289 109.784C117.723 109.921 117.277 110.26 116.949 110.802C116.616 111.355 116.536 111.906 116.708 112.454C116.982 113.347 117.854 114.032 119.325 114.508C120.402 114.865 121.798 115.195 123.513 115.499C124.537 115.69 125.418 115.824 126.156 115.901C127.121 116.002 128.011 116.032 128.827 115.99C130.845 115.877 132.524 115.338 133.863 114.374C134.298 114.064 134.735 113.677 135.176 113.213C135.497 112.862 135.875 112.409 136.31 111.856C137.173 110.742 137.944 109.641 138.623 108.551Z" fill="#0A0A0A"/>
<path d="M276.399 2.21015C276.333 2.20419 276.271 2.19824 276.211 2.19229C270.918 5.06187 266.465 8.79471 262.851 13.3908C259.244 17.9988 256.776 22.0233 255.448 25.4645C254.627 27.6196 253.68 30.8137 252.608 35.0466C251.06 41.2323 250.081 45.998 249.67 49.3439C249.146 53.684 249.093 62.4237 249.51 75.563C249.551 76.7894 249.593 78.0575 249.635 79.3673C249.706 81.3384 249.792 83.3953 249.894 85.5381C249.941 84.5498 249.983 83.6002 250.019 82.6894C250.09 83.8681 250.048 84.8177 249.894 85.5381C249.893 85.5441 249.893 85.55 249.894 85.556C244.643 85.1333 239.389 84.9874 234.132 85.1184C231.727 85.1958 229.786 85.3773 228.309 85.6631C226.196 86.0858 224.431 86.8121 223.014 87.8421C221.966 88.616 220.966 89.6698 220.013 91.0034C219.442 91.819 218.676 93.0812 217.718 94.7898C215.67 98.4988 214.223 101.196 213.378 102.881C210.3 108.989 207.799 115.306 205.876 121.831C205.597 122.771 205.4 123.524 205.287 124.09C205.108 124.941 205.028 125.715 205.046 126.412C205.076 127.198 205.236 128.117 205.528 129.171C205.891 130.38 206.156 131.291 206.323 131.904C206.68 133.166 207.028 134.845 207.368 136.94C207.838 139.792 208.13 141.498 208.243 142.057C209.011 145.874 210.27 148.785 212.02 150.791C211.449 151.077 210.988 151.345 210.636 151.595C209.964 152.077 209.449 152.598 209.091 153.158C208.871 153.545 208.69 153.997 208.547 154.515C208.457 154.866 208.356 155.352 208.243 155.971C206.868 164.389 206.74 172.849 207.859 181.35C208.002 182.398 208.166 183.232 208.35 183.851C208.6 184.756 208.969 185.506 209.458 186.101C209.517 186.167 209.574 186.232 209.627 186.298C208.544 187.578 207.737 188.575 207.207 189.289C206.159 190.706 205.043 192.519 203.858 194.728C202.846 196.603 202.114 198.235 201.661 199.622C201.042 201.467 200.78 203.197 200.876 204.81C200.971 206.513 201.462 208.159 202.349 209.749C203.2 211.273 204.317 212.594 205.698 213.714C206.579 214.422 207.648 215.098 208.904 215.741C206.076 220.962 203.641 226.332 201.599 231.851C201.188 232.982 200.929 233.905 200.822 234.619C200.679 235.667 200.789 236.575 201.152 237.343C201.498 238.028 202.069 238.635 202.867 239.165C203.397 239.51 204.171 239.894 205.189 240.317C213.887 243.936 223.838 247.565 235.043 251.203C241.77 253.37 251.915 256.451 265.477 260.446C266.459 260.731 267.197 260.925 267.692 261.026C268.525 261.181 269.275 261.222 269.942 261.151C271.121 261.032 272.332 260.544 273.577 259.686C274.249 259.216 275.285 258.341 276.684 257.061C281.388 252.727 286.513 248.943 292.062 245.711C294.283 244.413 295.726 243.529 296.393 243.058C297.935 241.957 299.102 240.793 299.894 239.567C300.912 237.971 301.606 235.608 301.975 232.476C302.147 230.785 302.296 229.517 302.421 228.672C302.63 227.237 302.912 226.011 303.27 224.993C303.77 223.576 304.579 222.069 305.699 220.474C306.211 219.765 307.291 218.399 308.94 216.375C310.327 214.684 311.348 213.294 312.003 212.204C312.974 210.615 313.608 209.067 313.905 207.561C314.054 206.822 314.17 205.426 314.254 203.372C314.337 201.604 314.539 200.232 314.861 199.256C315.242 198.118 315.93 196.904 316.924 195.612C318.144 194.177 319.052 193.094 319.648 192.361C321.749 189.796 323.416 186.938 324.649 183.788C325.875 180.645 326.592 177.421 326.801 174.117C326.932 172.087 326.872 169.783 326.622 167.205C326.491 165.877 326.193 163.579 325.729 160.311C325.312 157.394 325.044 155.105 324.925 153.444C324.735 150.913 324.756 148.618 324.988 146.558C325.083 145.737 325.512 143.409 326.274 139.575C326.839 136.723 327.075 134.38 326.979 132.547C326.854 129.707 326.024 126.733 324.488 123.626C323.357 121.351 321.66 118.69 319.398 115.642C315.48 110.385 311.283 105.414 306.806 100.728C306.943 100.437 307.101 100.097 307.279 99.7104C308.583 96.8825 309.693 94.257 310.61 91.8339C311.694 89.012 312.584 86.3031 313.28 83.7074C314.197 80.302 314.95 76.4114 315.54 72.0356C315.885 69.4041 316.302 65.451 316.79 60.1763C317.153 56.2053 317.406 53.2285 317.549 51.246C317.781 47.9299 317.93 44.9443 317.995 42.289C318.079 37.8239 317.882 33.8797 317.406 30.4565C316.805 26.2414 315.748 22.4758 314.236 19.1597C312.438 15.2066 309.911 11.7149 306.654 8.68456C303.398 5.64233 299.742 3.3562 295.688 1.82615C291.943 0.409224 288.189 -0.18315 284.427 0.0490355C281.438 0.257407 278.762 0.977775 276.399 2.21015ZM273.228 12.3638C274.312 11.1434 275.348 10.1342 276.336 9.33647C277.55 8.35415 278.786 7.62782 280.042 7.15749C281.703 6.52642 283.703 6.24661 286.043 6.31805C289.246 6.41926 292.351 7.12773 295.357 8.44345C298.358 9.75917 300.983 11.5541 303.234 13.8284C306.294 16.9361 308.592 20.8535 310.128 25.5806C311.479 29.7182 312.2 34.2965 312.289 39.3152C312.349 42.9469 312.06 47.5519 311.423 53.1303C311.06 56.1904 310.792 58.4884 310.619 60.0244C310.31 62.7214 310.077 65.0164 309.923 66.9096C309.726 70.059 309.559 72.4196 309.422 73.9913C309.178 76.7061 308.815 79.0369 308.333 80.9837C307.976 82.4066 307.467 83.9723 306.806 85.681C306.413 86.7109 305.785 88.235 304.922 90.2533L302.278 96.3794C301.873 96.1055 301.472 95.8823 301.073 95.7096C299.936 95.2214 298.968 95.2601 298.17 95.8257C297.182 96.5342 296.917 97.6266 297.376 99.1031C297.763 100.353 298.504 101.538 299.599 102.657C301.338 104.42 303.978 107.027 307.52 110.48C310.569 113.552 312.986 116.338 314.772 118.839C317.111 122.078 318.814 125.379 319.88 128.743C321.076 132.535 321.383 136.155 320.8 139.602C320.651 140.53 320.118 142.587 319.201 145.772C318.463 148.297 318.088 150.366 318.076 151.979C318.076 153.414 318.332 155.143 318.844 157.167C319.142 158.305 319.603 160.007 320.228 162.276C321.401 167.27 321.347 172.349 320.067 177.51C318.799 182.678 316.483 187.206 313.12 191.093C312.596 191.695 311.801 192.603 310.735 193.817C309.872 194.895 309.265 195.916 308.913 196.88C308.556 197.862 308.348 199.22 308.288 200.952C308.217 203.113 308.128 204.51 308.02 205.141C307.723 206.837 307.011 208.588 305.886 210.392C305.196 211.493 304.029 213.056 302.385 215.08C300.701 217.146 299.522 218.709 298.849 219.768C297.7 221.566 296.971 223.308 296.661 224.993C296.524 225.689 296.438 226.529 296.402 227.511C296.372 228.07 296.343 228.922 296.313 230.065C296.23 232.131 295.899 233.744 295.322 234.905C294.762 236.018 293.851 237.072 292.589 238.066C291.928 238.578 290.726 239.358 288.981 240.406C283.736 243.567 278.807 247.211 274.193 251.337C273.151 252.259 272.371 252.905 271.853 253.275C270.912 253.9 269.999 254.269 269.111 254.382C268.57 254.447 267.956 254.424 267.272 254.31C266.837 254.227 266.236 254.075 265.468 253.855C247.197 248.705 229.101 242.874 211.181 236.361C211.02 236.301 210.871 236.245 210.735 236.191C210.752 236.155 210.77 236.12 210.788 236.084C210.967 235.804 211.19 235.381 211.458 234.816L213.387 230.735C213.762 229.937 214.006 229.389 214.119 229.091C214.441 228.204 214.691 227.538 214.869 227.091C215.101 226.52 215.709 225.287 216.691 223.394C217.489 221.888 218.016 220.629 218.272 219.617C218.331 219.384 218.376 219.161 218.406 218.947C219.561 219.125 220.933 219.247 222.522 219.313C223.481 219.349 224.922 219.387 226.845 219.429C228.488 219.477 230.319 219.578 232.337 219.733C233.641 219.84 235.462 220.009 237.802 220.242L254.439 221.84C256.261 222.013 257.675 222.165 258.681 222.296C260.241 222.486 261.64 222.712 262.878 222.974C263.896 223.189 264.533 223.32 264.789 223.367C265.516 223.468 266.156 223.477 266.709 223.394C267.382 223.281 267.974 223.01 268.486 222.581C269.028 222.129 269.326 221.596 269.379 220.983C269.463 220.233 269.177 219.524 268.522 218.857C267.974 218.316 267.257 217.869 266.37 217.518C264.608 216.803 262.476 216.315 259.976 216.053C259.511 216.012 257.3 215.89 253.341 215.687C251.12 215.562 248.524 215.33 245.553 214.991C242.089 214.574 239.49 214.261 237.757 214.053C235.447 213.773 233.554 213.571 232.078 213.446C230.006 213.279 228.113 213.196 226.398 213.196C225.196 213.214 224.291 213.219 223.683 213.214C222.647 213.214 221.751 213.166 220.995 213.071C220.215 212.981 219.346 212.812 218.388 212.562C217.727 212.395 216.867 212.145 215.807 211.811C214.586 211.425 213.625 211.082 212.922 210.785C211.875 210.368 210.976 209.894 210.226 209.365C209.344 208.751 208.621 208.031 208.055 207.203C207.686 206.674 207.41 206.129 207.225 205.569C207.314 205.468 207.398 205.361 207.475 205.248C207.66 204.98 207.838 204.629 208.011 204.194C208.219 203.694 208.377 203.316 208.484 203.06C208.74 202.47 209.202 201.643 209.868 200.577C210.434 199.69 211.306 198.377 212.485 196.639L215.753 191.754C216.164 191.165 216.468 190.692 216.664 190.334C216.789 190.108 216.896 189.897 216.986 189.7C220.98 190.945 225.413 192.105 230.283 193.183C233.962 193.999 239.478 195.082 246.831 196.434L267.388 200.193C268.215 200.354 268.876 200.419 269.37 200.39C270.103 200.348 270.686 200.14 271.121 199.765C271.508 199.425 271.77 198.97 271.907 198.398C272.026 197.904 272.052 197.356 271.987 196.755C271.927 196.094 271.779 195.511 271.54 195.005C271.261 194.409 270.883 193.963 270.406 193.665C269.984 193.397 269.442 193.237 268.781 193.183C268.495 193.159 267.906 193.159 267.013 193.183C265.703 193.213 264.233 193.129 262.601 192.933C261.631 192.814 260.166 192.588 258.208 192.254C249.045 190.677 242.169 189.417 237.579 188.477C229.976 186.905 223.201 185.208 217.254 183.387C216.664 183.202 216.224 183.044 215.932 182.913C215.444 182.699 215.051 182.437 214.753 182.127C214.432 181.788 214.173 181.35 213.976 180.815C213.827 180.434 213.699 179.925 213.592 179.288C213.158 176.894 212.952 174.177 212.976 171.134C212.982 169.271 213.104 166.535 213.342 162.927C213.408 161.957 213.491 161.231 213.592 160.748C213.759 159.963 214.027 159.305 214.396 158.775C214.723 158.311 215.188 157.882 215.789 157.489C216.164 157.233 216.73 156.92 217.486 156.551L230.426 150.104C232.206 149.217 233.572 148.585 234.525 148.21C236.073 147.597 237.507 147.213 238.829 147.058C240.615 146.856 242.648 147.008 244.928 147.514C245.708 147.692 247.7 148.264 250.903 149.228C253.528 150.026 256.517 150.791 259.869 151.524C261.839 151.97 264.864 152.598 268.942 153.408L293.205 158.203C295.473 158.644 297.111 158.956 298.117 159.141C299.95 159.457 301.603 159.698 303.073 159.864C304.222 159.995 305.222 159.936 306.074 159.686C307.145 159.37 307.782 158.784 307.985 157.927C308.11 157.432 308.047 156.917 307.797 156.382C307.571 155.887 307.235 155.471 306.788 155.131C306.407 154.834 305.94 154.578 305.386 154.363C305.053 154.25 304.538 154.095 303.841 153.899L284.257 148.559C277.018 146.582 271.537 145.144 267.817 144.245C261.696 142.757 256.145 141.626 251.162 140.852C248.691 140.477 246.601 140.239 244.893 140.137C242.607 140.012 240.517 140.096 238.624 140.388C236.957 140.632 235.126 141.096 233.132 141.781C231.923 142.191 230.158 142.87 227.836 143.817C224.567 145.15 222.007 146.222 220.156 147.032C219.959 147.109 219.766 147.192 219.575 147.282C219.343 147.186 219.058 147.082 218.718 146.969C218.164 146.791 217.757 146.597 217.495 146.389C217.203 146.151 216.953 145.811 216.745 145.371C216.602 145.091 216.45 144.674 216.289 144.12L213.914 136.074C213.473 134.503 213.167 133.327 212.994 132.547C212.72 131.213 212.604 130.011 212.646 128.939C212.681 128.07 212.827 127.099 213.083 126.028C213.244 125.373 213.521 124.429 213.914 123.197L217.843 110.623C218.319 109.135 218.697 108.024 218.977 107.292C219.447 106.078 219.948 105.027 220.477 104.14C221.591 102.324 223.115 100.743 225.05 99.3978C226.806 98.1714 228.803 97.2039 231.042 96.4955C232.971 95.8942 235.141 95.4685 237.552 95.2185C239.344 95.028 241.559 94.9208 244.196 94.897C247.673 94.8553 251.489 94.9238 255.645 95.1024C258.711 95.2452 262.518 95.4745 267.066 95.79C270.591 96.046 273.312 96.3079 275.229 96.5759C278.217 96.9866 280.861 97.5939 283.159 98.3976C284.54 98.862 285.35 99.1269 285.588 99.1924C286.51 99.4305 287.338 99.505 288.07 99.4157C288.951 99.3085 289.702 98.9245 290.321 98.2637C290.976 97.579 291.211 96.8378 291.026 96.04C290.871 95.3911 290.452 94.8345 289.767 94.3701C289.285 94.0426 288.6 93.7212 287.713 93.4056C280.015 90.7504 272.145 88.7292 264.102 87.342C264.09 87.0622 264.063 86.7764 264.021 86.4847C263.92 85.8239 263.7 84.904 263.36 83.7253C261.741 78.0516 260.693 74.2979 260.217 72.4642C259.121 68.2254 258.321 64.4211 257.815 61.0514C256.517 52.3117 256.916 44.6079 259.011 37.94C259.452 36.5409 260.017 35.0347 260.708 33.4213C261.226 32.2306 261.902 30.766 262.735 29.0276C264.408 25.6282 265.977 22.7318 267.441 20.3385C269.299 17.3022 271.228 14.644 273.228 12.3638Z" fill="#0A0A0A"/>
<path d="M276.336 9.33651C275.348 10.1343 274.312 11.1434 273.228 12.3639C271.228 14.644 269.299 17.3023 267.442 20.3385C265.977 22.7318 264.408 25.6282 262.735 29.0277C261.902 30.7661 261.226 32.2306 260.708 33.4213C260.018 35.0347 259.452 36.541 259.011 37.94C256.916 44.6079 256.517 52.3117 257.815 61.0514C258.321 64.4211 259.122 68.2254 260.217 72.4643C260.693 74.298 261.741 78.0516 263.361 83.7253C263.7 84.9041 263.92 85.8239 264.021 86.4847C264.063 86.7765 264.09 87.0622 264.102 87.342C272.145 88.7292 280.015 90.7504 287.713 93.4057C288.6 93.7212 289.285 94.0427 289.767 94.3701C290.452 94.8345 290.872 95.3911 291.026 96.0401C291.211 96.8378 290.976 97.579 290.321 98.2637C289.702 98.9245 288.952 99.3085 288.07 99.4157C287.338 99.505 286.511 99.4306 285.588 99.1924C285.35 99.127 284.54 98.862 283.159 98.3977C280.861 97.5939 278.217 96.9867 275.229 96.5759C273.312 96.308 270.591 96.046 267.067 95.79C262.518 95.4745 258.711 95.2453 255.645 95.1024C251.489 94.9238 247.673 94.8553 244.196 94.897C241.559 94.9208 239.344 95.028 237.552 95.2185C235.141 95.4685 232.971 95.8942 231.042 96.4955C228.804 97.204 226.806 98.1714 225.05 99.3978C223.115 100.743 221.591 102.324 220.478 104.14C219.948 105.027 219.448 106.078 218.977 107.292C218.697 108.024 218.319 109.135 217.843 110.623L213.914 123.197C213.521 124.429 213.244 125.373 213.083 126.028C212.827 127.099 212.681 128.07 212.646 128.939C212.604 130.011 212.72 131.213 212.994 132.547C213.167 133.327 213.473 134.503 213.914 136.074L216.289 144.12C216.45 144.674 216.602 145.091 216.745 145.371C216.953 145.811 217.203 146.151 217.495 146.389C217.757 146.597 218.165 146.791 218.718 146.969C219.058 147.082 219.343 147.186 219.576 147.282C219.766 147.192 219.96 147.109 220.156 147.032C222.008 146.222 224.568 145.15 227.836 143.817C230.158 142.87 231.923 142.191 233.132 141.781C235.126 141.096 236.957 140.632 238.624 140.388C240.517 140.096 242.607 140.013 244.893 140.138C246.601 140.239 248.691 140.477 251.162 140.852C256.145 141.626 261.697 142.757 267.817 144.245C271.538 145.144 277.018 146.582 284.257 148.559L303.841 153.899C304.538 154.095 305.053 154.25 305.386 154.363C305.94 154.578 306.407 154.834 306.788 155.131C307.235 155.471 307.571 155.887 307.797 156.382C308.047 156.917 308.11 157.432 307.985 157.927C307.782 158.784 307.145 159.37 306.074 159.686C305.222 159.936 304.222 159.995 303.073 159.864C301.603 159.698 299.951 159.457 298.117 159.141C297.111 158.956 295.474 158.644 293.205 158.203L268.942 153.408C264.864 152.598 261.839 151.97 259.869 151.524C256.517 150.791 253.528 150.026 250.903 149.229C247.7 148.264 245.708 147.693 244.929 147.514C242.648 147.008 240.615 146.856 238.829 147.058C237.507 147.213 236.073 147.597 234.525 148.21C233.572 148.586 232.206 149.217 230.426 150.104L217.486 156.551C216.73 156.92 216.164 157.233 215.789 157.489C215.188 157.882 214.724 158.311 214.396 158.775C214.027 159.305 213.759 159.963 213.592 160.749C213.491 161.231 213.408 161.957 213.342 162.927C213.104 166.535 212.982 169.271 212.976 171.134C212.952 174.177 213.158 176.894 213.592 179.288C213.7 179.925 213.828 180.434 213.976 180.815C214.173 181.351 214.432 181.788 214.753 182.127C215.051 182.437 215.444 182.699 215.932 182.913C216.224 183.044 216.664 183.202 217.254 183.387C223.201 185.208 229.976 186.905 237.579 188.477C242.169 189.418 249.045 190.677 258.208 192.254C260.166 192.588 261.631 192.814 262.601 192.933C264.233 193.129 265.703 193.213 267.013 193.183C267.906 193.159 268.495 193.159 268.781 193.183C269.442 193.237 269.984 193.397 270.406 193.665C270.883 193.963 271.261 194.409 271.541 195.005C271.779 195.511 271.928 196.094 271.987 196.755C272.053 197.356 272.026 197.904 271.907 198.398C271.77 198.97 271.508 199.425 271.121 199.765C270.686 200.14 270.103 200.348 269.371 200.39C268.876 200.42 268.216 200.354 267.388 200.193L246.831 196.434C239.478 195.082 233.962 193.999 230.283 193.183C225.413 192.105 220.981 190.945 216.986 189.7C216.897 189.897 216.789 190.108 216.664 190.334C216.468 190.692 216.164 191.165 215.753 191.754L212.485 196.639C211.306 198.377 210.434 199.69 209.868 200.577C209.202 201.643 208.74 202.471 208.484 203.06C208.377 203.316 208.219 203.694 208.011 204.194C207.838 204.629 207.66 204.98 207.475 205.248C207.398 205.361 207.314 205.468 207.225 205.569C207.41 206.129 207.686 206.674 208.056 207.204C208.621 208.031 209.345 208.751 210.226 209.365C210.976 209.895 211.875 210.368 212.923 210.785C213.625 211.082 214.587 211.425 215.807 211.812C216.867 212.145 217.727 212.395 218.388 212.562C219.346 212.812 220.216 212.981 220.996 213.071C221.752 213.166 222.648 213.214 223.684 213.214C224.291 213.22 225.196 213.214 226.398 213.196C228.113 213.196 230.006 213.279 232.078 213.446C233.554 213.571 235.448 213.773 237.758 214.053C239.49 214.261 242.089 214.574 245.554 214.991C248.524 215.33 251.12 215.562 253.341 215.687C257.3 215.89 259.512 216.012 259.976 216.053C262.476 216.315 264.608 216.804 266.37 217.518C267.257 217.869 267.974 218.316 268.522 218.857C269.177 219.524 269.463 220.233 269.379 220.983C269.326 221.596 269.028 222.129 268.486 222.581C267.974 223.01 267.382 223.281 266.709 223.394C266.156 223.477 265.516 223.468 264.789 223.367C264.533 223.32 263.896 223.189 262.878 222.974C261.64 222.712 260.241 222.486 258.681 222.296C257.675 222.165 256.261 222.013 254.439 221.84L237.802 220.242C235.462 220.009 233.641 219.84 232.337 219.733C230.319 219.578 228.488 219.477 226.845 219.429C224.922 219.387 223.481 219.349 222.523 219.313C220.933 219.247 219.561 219.125 218.406 218.947C218.376 219.161 218.331 219.384 218.272 219.617C218.016 220.629 217.489 221.888 216.691 223.394C215.709 225.287 215.102 226.52 214.869 227.091C214.691 227.538 214.441 228.204 214.119 229.092C214.006 229.389 213.762 229.937 213.387 230.735L211.458 234.816C211.19 235.381 210.967 235.804 210.788 236.084C210.77 236.12 210.753 236.155 210.735 236.191C210.872 236.245 211.02 236.301 211.181 236.361C229.101 242.874 247.197 248.705 265.468 253.855C266.236 254.075 266.837 254.227 267.272 254.31C267.957 254.424 268.57 254.447 269.112 254.382C269.999 254.269 270.913 253.9 271.853 253.275C272.371 252.905 273.151 252.26 274.193 251.337C278.807 247.211 283.736 243.567 288.981 240.406C290.726 239.358 291.928 238.578 292.589 238.066C293.851 237.072 294.762 236.018 295.322 234.905C295.899 233.744 296.23 232.131 296.313 230.065C296.343 228.922 296.373 228.07 296.402 227.511C296.438 226.529 296.524 225.689 296.661 224.993C296.971 223.308 297.7 221.566 298.849 219.768C299.522 218.709 300.701 217.146 302.386 215.08C304.029 213.056 305.196 211.493 305.886 210.392C307.011 208.588 307.723 206.837 308.021 205.141C308.128 204.51 308.217 203.113 308.288 200.952C308.348 199.22 308.556 197.863 308.914 196.88C309.265 195.916 309.872 194.895 310.735 193.817C311.801 192.603 312.596 191.695 313.12 191.093C316.483 187.206 318.799 182.678 320.067 177.511C321.347 172.349 321.401 167.271 320.228 162.276C319.603 160.007 319.142 158.305 318.844 157.167C318.332 155.143 318.076 153.414 318.076 151.979C318.088 150.366 318.463 148.297 319.201 145.773C320.118 142.587 320.651 140.53 320.8 139.602C321.383 136.155 321.077 132.535 319.88 128.743C318.814 125.379 317.112 122.078 314.772 118.839C312.986 116.338 310.569 113.552 307.52 110.48C303.978 107.027 301.338 104.42 299.599 102.657C298.504 101.538 297.763 100.353 297.376 99.1031C296.917 97.6267 297.182 96.5342 298.171 95.8258C298.968 95.2602 299.936 95.2215 301.073 95.7097C301.472 95.8823 301.874 96.1056 302.278 96.3794L304.922 90.2533C305.785 88.2351 306.413 86.711 306.806 85.681C307.467 83.9724 307.976 82.4066 308.333 80.9837C308.815 79.0369 309.179 76.7061 309.423 73.9913C309.56 72.4196 309.726 70.0591 309.923 66.9097C310.077 65.0165 310.31 62.7214 310.619 60.0245C310.792 58.4885 311.06 56.1904 311.423 53.1303C312.06 47.5519 312.349 42.9469 312.289 39.3153C312.2 34.2965 311.48 29.7183 310.128 25.5806C308.592 20.8535 306.294 16.9361 303.234 13.8284C300.984 11.5542 298.358 9.75921 295.358 8.44349C292.351 7.12777 289.246 6.4193 286.043 6.31809C283.704 6.24665 281.703 6.52646 280.042 7.15753C278.786 7.62786 277.551 8.35418 276.336 9.33651Z" fill="white"/>
</svg>
