<svg width="191" height="277" viewBox="0 0 191 277" fill="none" xmlns="http://www.w3.org/2000/svg">
<path d="M27.3007 190.183C26.478 190.563 25.6007 191.209 24.6687 192.121C23.2869 193.471 21.2109 195.483 18.4407 198.156C16.0433 200.502 14.022 202.569 12.3766 204.356C10.8083 206.052 9.1083 208.003 7.27652 210.208C6.11319 211.596 4.47743 213.601 2.36928 216.224C1.74583 216.988 1.29592 217.593 1.01955 218.036C0.576066 218.737 0.280416 219.411 0.132589 220.061C-0.111648 221.108 -0.0184621 222.265 0.412166 223.531C0.707821 224.418 1.2413 225.508 2.01257 226.8C3.35587 229.068 4.8213 231.328 6.40884 233.577C6.85232 234.207 7.81642 235.528 9.30112 237.54C10.5094 239.179 11.4607 240.512 12.1548 241.541C13.2153 243.115 14.6679 245.471 16.5125 248.607C17.8301 250.851 18.7846 252.531 19.3759 253.65C20.3785 255.546 21.1627 257.304 21.7283 258.923C19.1445 258.46 16.4322 258.917 13.5913 260.292C11.2968 261.398 8.94761 263.085 6.5438 265.354C5.67612 266.17 4.99483 266.887 4.49993 267.504C3.81864 268.346 3.3173 269.188 2.99594 270.03C2.62958 270.994 2.51068 271.971 2.63923 272.96C2.78063 274.021 3.19198 274.879 3.87327 275.535C4.48386 276.126 5.30334 276.534 6.33171 276.759C7.05157 276.913 8.00279 276.994 9.18541 277C15.2528 277.006 21.5001 276.306 27.9274 274.898C29.0007 274.66 29.8491 274.41 30.4726 274.146C31.366 273.767 32.0569 273.272 32.5454 272.662C33.3874 271.601 33.6605 270.226 33.3649 268.535C33.1528 267.32 32.6193 265.865 31.7645 264.168L28.3612 257.467C26.1695 253.193 24.3377 249.755 22.8659 247.152C20.7642 243.424 18.7042 240.12 16.6861 237.241C16.249 236.617 15.4392 235.496 14.2565 233.876C13.2218 232.462 12.4183 231.334 11.8463 230.492C9.89885 227.658 8.14741 224.672 6.59201 221.536C12.6401 212.582 19.784 204.648 28.0238 197.732C28.8401 197.051 29.4217 196.53 29.7688 196.17C30.373 195.547 30.8132 194.92 31.0896 194.29C31.4174 193.545 31.5074 192.777 31.3595 191.986C31.1924 191.144 30.7907 190.53 30.1544 190.145C29.3446 189.663 28.3934 189.676 27.3007 190.183Z" fill="#0A0A0A"/>
<path d="M128.791 267.031C128.624 267.108 128.463 267.192 128.309 267.282C127.582 265.617 126.647 263.535 125.503 261.035L102.163 210.14C99.1353 203.539 96.6511 198.613 94.7101 195.361C91.58 190.103 88.1671 185.874 84.4714 182.673C84.0151 182.275 83.623 181.973 83.2952 181.767C82.8389 181.484 82.3922 181.304 81.9551 181.227C81.1324 181.086 80.3612 181.307 79.6413 181.892C78.915 182.484 78.5358 183.197 78.5037 184.033C78.4715 184.881 78.7897 185.739 79.4581 186.607C79.8116 187.069 80.5026 187.773 81.5309 188.718C84.1083 191.077 86.5217 194.123 88.7713 197.858C90.1917 200.223 91.9945 203.719 94.1798 208.347C104.071 229.248 113.703 250.33 123.074 271.591C123.569 272.716 124.047 273.574 124.51 274.166C125.185 275.02 125.947 275.519 126.795 275.66C127.161 275.718 127.521 275.708 127.875 275.631C128.222 275.708 128.604 275.772 129.022 275.824C129.35 275.856 129.977 275.898 130.902 275.949C131.885 276.001 134.707 276.216 139.367 276.595C142.812 276.884 145.63 277.013 147.822 276.981C148.587 276.968 149.204 276.91 149.673 276.807C150.335 276.653 150.862 276.386 151.254 276.007C151.588 275.686 151.836 275.274 151.996 274.773C152.138 274.317 152.192 273.831 152.16 273.317C152.135 272.88 152.048 272.401 151.9 271.881C151.804 271.54 151.649 271.077 151.437 270.492C151.007 269.303 150.627 268.397 150.3 267.774C149.792 266.81 149.204 266.048 148.535 265.489C147.218 264.396 145.302 263.83 142.789 263.792C141.028 263.773 139.158 263.962 137.178 264.361C135.52 264.695 133.695 265.2 131.702 265.874C130.513 266.279 129.543 266.665 128.791 267.031Z" fill="#0A0A0A"/>
<path d="M76.1127 0.295786C74.3195 0.630004 72.6998 1.22132 71.2537 2.06972C69.4026 3.16878 67.6159 4.8463 65.8933 7.10228C63.9137 9.71176 62.1494 12.8676 60.6005 16.5697C59.5528 19.0956 58.3606 22.5374 57.0237 26.8951C55.2947 32.5704 53.8518 37.6704 52.6949 42.1953C52.4957 42.9473 52.3768 43.545 52.3382 43.9885C52.2739 44.6633 52.335 45.2514 52.5214 45.7528C52.8363 46.5883 53.4662 47.1635 54.411 47.4785C55.3622 47.7934 56.2139 47.7131 56.9658 47.2375C57.5443 46.8518 58.0167 46.2637 58.3831 45.4732C58.6209 44.959 58.8555 44.207 59.0868 43.2172C61.1243 34.836 63.6438 26.6412 66.6453 18.6328C69.2484 19.7255 72.0218 20.1497 74.9654 19.9054C77.877 19.6741 80.554 18.816 82.9963 17.3313C84.661 16.3222 85.9722 15.1525 86.9299 13.822C87.6497 12.8001 88.1703 11.6721 88.4917 10.438C88.813 9.20401 88.903 7.96676 88.7616 6.72629C88.6459 5.69793 88.3696 4.75311 87.9325 3.89186C87.4633 2.95347 86.8527 2.19506 86.1007 1.6166C84.9695 0.761771 83.3756 0.250799 81.3188 0.0836899C79.5128 -0.0769922 77.7774 -0.00629679 76.1127 0.295786ZM138.991 5.12589C137.911 3.6926 136.163 2.76708 133.746 2.34931C131.484 1.95724 129.212 2.05686 126.93 2.64817C124.636 3.23948 122.601 4.26464 120.827 5.72363C119.343 6.92553 117.961 8.50022 116.682 10.4477C115.788 11.8167 114.76 13.6774 113.597 16.0298C111.752 19.809 109.817 24.1217 107.793 28.9679C106.552 31.9373 104.788 36.3239 102.5 42.1278C102.211 42.8669 102.021 43.455 101.931 43.8921C101.783 44.5541 101.79 45.1486 101.95 45.6756C102.195 46.5047 102.773 47.0928 103.686 47.4399C104.592 47.787 105.431 47.7484 106.202 47.3242C106.71 47.0414 107.169 46.6076 107.581 46.0227C107.851 45.6178 108.159 45.0425 108.506 44.297C109.329 42.4973 110.91 38.5831 113.25 32.5543C115.158 27.6567 116.881 23.8036 118.417 20.9949C120.03 21.4191 121.493 21.7276 122.804 21.9204C124.391 22.1453 125.879 22.2193 127.267 22.1421C128.829 22.0586 130.298 21.779 131.673 21.3034C133.152 20.7892 134.444 20.0725 135.549 19.1534C136.565 18.305 137.442 17.2799 138.181 16.078C138.875 14.9339 139.409 13.6806 139.781 12.318C140.161 11.0004 140.302 9.75033 140.206 8.56771C140.109 7.21155 139.704 6.06427 138.991 5.12589Z" fill="#0A0A0A"/>
<path d="M114.773 141.314C114.227 140.054 113.638 138.884 113.009 137.804C111.408 135.054 109.332 132.512 106.781 130.178C104.415 128.025 101.719 126.12 98.6918 124.461C95.9731 122.983 92.949 121.675 89.6197 120.537C86.8046 119.58 83.6166 118.696 80.0559 117.886C74.9462 116.723 70.2189 115.971 65.8741 115.63C61.5421 115.283 57.1973 115.299 52.8396 115.678C51.387 115.807 50.1755 115.964 49.2049 116.151C47.8938 116.408 46.7336 116.768 45.7246 117.231C45.0304 117.539 44.2977 117.947 43.5264 118.455C42.9865 118.809 42.2988 119.297 41.4633 119.92C36.8678 123.398 32.5615 127.206 28.5444 131.345C24.5209 135.503 20.851 139.929 17.5345 144.621C9.24329 156.337 5.9943 166.923 7.78751 176.378C8.76446 181.539 11.2293 186.298 15.1821 190.656C18.8264 194.667 23.2773 197.871 28.5348 200.268C29.9681 200.924 31.4753 201.528 33.0564 202.08C36.4371 203.257 40.1521 204.198 44.2013 204.905C48.4176 205.644 53.8808 206.236 60.5909 206.679C64.4408 206.936 67.5227 207.049 69.8365 207.017C73.2301 206.972 76.2831 206.657 78.9954 206.072C80.2359 205.802 81.6081 205.429 83.1121 204.953C84.089 204.645 85.4355 204.189 87.1516 203.584C90.5067 202.389 93.2061 201.364 95.25 200.509C98.168 199.288 100.752 198.022 103.001 196.71C108.606 193.445 112.79 189.563 115.554 185.064C117.051 182.628 118.186 179.903 118.957 176.889C119.664 174.112 120.046 171.172 120.104 168.067C120.156 165.297 119.95 162.341 119.487 159.198C119.102 156.582 118.507 153.673 117.704 150.473C117.074 147.94 116.441 145.771 115.804 143.965C115.477 143.039 115.133 142.156 114.773 141.314ZM109.779 146.24C110.19 147.436 110.653 149.001 111.167 150.935C111.951 153.918 112.536 156.492 112.922 158.658C113.43 161.486 113.7 164.108 113.732 166.525C113.77 169.308 113.503 171.933 112.931 174.401C112.302 177.107 111.325 179.537 110.001 181.69C107.7 185.424 104.062 188.786 99.0871 191.774C94.1059 194.763 89.0027 196.73 83.7773 197.675C83.4367 197.732 83.2406 197.761 83.1892 197.761C74.4931 199.458 64.4022 199.538 52.9167 198.002C37.2084 195.901 25.4529 190.364 17.6502 181.391C14.443 176.436 13.7199 171.274 15.481 165.908C17.2356 160.541 19.8322 155.467 23.2708 150.685C26.7094 145.896 29.8363 141.677 32.6515 138.026C35.4602 134.369 38.0375 131.464 40.3835 129.311C42.7294 127.151 44.3041 125.805 45.1075 125.271C46.1809 124.545 47.2189 123.973 48.2216 123.555C49.507 123.015 50.966 122.626 52.5985 122.389C53.8454 122.209 55.3623 122.099 57.1491 122.061C65.6973 121.849 74.2746 122.893 82.8807 125.194C88.511 126.698 93.309 128.655 97.2746 131.065C102.089 133.99 105.62 137.551 107.87 141.748C108.448 142.834 108.988 144.058 109.49 145.421C109.586 145.684 109.682 145.957 109.779 146.24Z" fill="#0A0A0A"/>
<path d="M111.167 150.935C110.653 149.001 110.19 147.436 109.779 146.24C109.682 145.957 109.586 145.684 109.49 145.421C108.988 144.058 108.448 142.834 107.87 141.747C105.62 137.55 102.089 133.99 97.2745 131.065C93.3089 128.655 88.5109 126.698 82.8806 125.194C74.2745 122.893 65.6973 121.849 57.149 122.061C55.3622 122.099 53.8454 122.209 52.5985 122.389C50.9659 122.626 49.507 123.015 48.2215 123.555C47.2188 123.973 46.1808 124.545 45.1075 125.271C44.3041 125.805 42.7294 127.151 40.3834 129.311C38.0375 131.464 35.4601 134.369 32.6514 138.026C29.8362 141.677 26.7094 145.896 23.2708 150.685C19.8322 155.467 17.2356 160.541 15.4809 165.908C13.7198 171.274 14.4429 176.436 17.6501 181.391C25.4528 190.363 37.2083 195.901 52.9166 198.002C64.4022 199.538 74.493 199.458 83.1891 197.761C83.2405 197.761 83.4366 197.732 83.7772 197.675C89.0026 196.73 94.1059 194.763 99.087 191.774C104.062 188.786 107.7 185.424 110.001 181.69C111.325 179.537 112.302 177.107 112.931 174.401C113.503 171.933 113.77 169.308 113.732 166.525C113.699 164.108 113.43 161.486 112.922 158.658C112.536 156.492 111.951 153.918 111.167 150.935Z" fill="white"/>
<path d="M88.0975 107.278C86.8915 107.652 86.3921 108.723 86.5993 110.491C86.8065 112.25 88.2335 112.953 90.8804 112.6C93.5283 112.257 95.1646 112.038 95.7894 111.944C97.3702 111.698 99.1061 111.321 100.997 110.814C102.261 110.47 103.962 109.959 106.1 109.28C117.594 105.61 128.981 101.44 140.261 96.7697C144.755 94.9122 148.671 93.1868 152.011 91.5937C156.167 89.624 159.944 87.6231 163.342 85.591C163.367 85.5774 163.39 85.5619 163.41 85.5446C163.427 85.5647 163.444 85.5802 163.459 85.5914C163.826 85.8968 164.33 86.2639 164.972 86.6924C166.883 87.9847 168.565 88.8949 170.018 89.4229C172.026 90.1543 173.914 90.3485 175.681 90.0056C176.349 89.8713 177.332 89.542 178.63 89.0174C179.237 88.7693 179.69 88.5733 179.988 88.4294C180.486 88.1909 180.914 87.9461 181.272 87.6951C181.999 87.1772 182.734 86.4063 183.48 85.3825C183.899 84.7978 184.517 83.9044 185.333 82.7023C185.826 82.0357 186.075 81.6998 186.079 81.6946C186.351 81.2968 186.55 80.9302 186.677 80.5947C186.982 79.7485 186.985 78.701 186.686 77.4522C186.297 75.8177 185.565 74.2679 184.49 72.8029C183.481 71.4233 182.242 70.2197 180.772 69.192C178.695 67.7438 176.61 66.9427 174.517 66.7886C173.374 66.7144 172.122 66.8344 170.76 67.1486C169.817 67.3721 168.603 67.7552 167.12 68.2981C166.565 68.5048 166.132 68.679 165.82 68.8207C165.349 69.0314 164.943 69.2563 164.601 69.4953C164.169 69.7961 163.744 70.1881 163.324 70.6712C163.032 71.0077 162.681 71.4676 162.27 72.0507C161.697 72.874 161.267 73.5689 160.977 74.1356C160.575 74.9293 160.322 75.6904 160.217 76.4188C160.139 77.0319 160.151 77.7125 160.253 78.4605C160.294 78.7808 160.361 79.1543 160.454 79.581C160.141 79.8012 159.688 80.1265 159.094 80.5568C157.464 81.7432 155.589 82.9027 153.47 84.0353C151.882 84.8822 149.89 85.8452 147.495 86.9243C141.952 89.434 135.629 92.035 128.527 94.7272C124.237 96.351 117.808 98.6844 109.24 101.727C106.442 102.719 104.319 103.433 102.873 103.868C100.488 104.585 98.31 105.087 96.3394 105.373C95.8597 105.444 93.1124 106.079 88.0975 107.278ZM173.34 83.6033C172.261 83.4398 171.146 83.0471 169.996 82.4254C168.823 81.7798 167.95 81.0823 167.378 80.3328C167.019 79.8599 166.767 79.3523 166.623 78.8101C166.468 78.2372 166.449 77.6849 166.564 77.1529C166.902 75.6692 168.248 74.5183 170.601 73.7002C171.798 73.2854 172.796 73.0964 173.596 73.1331C174.609 73.179 175.63 73.5327 176.657 74.1941C177.468 74.7179 178.306 75.4582 179.173 76.415C179.516 76.7984 179.768 77.133 179.928 77.4189C180.149 77.8187 180.248 78.2028 180.224 78.5713C180.206 78.8098 180.13 79.0673 179.998 79.3438C179.917 79.5147 179.778 79.7509 179.582 80.0525C179.081 80.808 178.656 81.3819 178.309 81.7741C177.789 82.3669 177.251 82.813 176.694 83.1124C175.73 83.6206 174.612 83.7842 173.34 83.6033Z" fill="#0A0A0A"/>
<path d="M169.995 82.4253C171.146 83.0471 172.26 83.4397 173.34 83.6032C174.612 83.7842 175.73 83.6206 176.694 83.1124C177.251 82.813 177.789 82.3669 178.309 81.7741C178.656 81.3819 179.08 80.808 179.581 80.0524C179.778 79.7509 179.917 79.5146 179.998 79.3438C180.13 79.0672 180.206 78.8097 180.224 78.5713C180.248 78.2028 180.149 77.8186 179.928 77.4188C179.768 77.133 179.516 76.7983 179.173 76.415C178.306 75.4582 177.468 74.7179 176.657 74.194C175.63 73.5326 174.609 73.179 173.596 73.1331C172.796 73.0963 171.798 73.2854 170.601 73.7001C168.248 74.5182 166.902 75.6692 166.564 77.1529C166.449 77.6848 166.468 78.2372 166.623 78.81C166.767 79.3523 167.019 79.8599 167.378 80.3328C167.95 81.0822 168.823 81.7798 169.995 82.4253Z" fill="white"/>
<path d="M115.216 103.743C114.863 103.055 114.294 102.348 113.51 101.622C108.792 97.2706 102.718 94.0602 95.2885 91.9906C92.2163 91.1358 88.8227 90.4577 85.1077 89.9564C82.1833 89.5643 78.7286 89.2461 74.7437 89.0019C71.1894 88.7834 68.1268 88.687 65.5559 88.7127C62.233 88.7384 59.18 88.9601 56.397 89.3779C53.2026 89.8599 50.2332 90.6184 47.4888 91.6532C44.4808 92.7908 41.8006 94.2401 39.4483 96.0012C36.9031 97.9101 34.7178 100.205 32.8924 102.885C31.0738 105.564 29.5088 109.048 28.1973 113.336C26.8852 117.625 26.2424 121.096 26.2691 123.748C26.3022 126.4 27.3787 129.196 29.4988 132.135C31.6259 135.08 34.5246 138.203 38.1949 141.506C40.708 143.775 43.5007 145.681 46.5729 147.223C47.7427 147.802 48.951 148.332 50.1979 148.814C58.1613 151.88 67.4134 152.786 77.9541 151.533C81.4698 151.115 84.6931 150.501 87.624 149.692C90.6705 148.843 93.6335 147.715 96.5129 146.308C100.588 144.302 104.12 141.86 107.108 138.98C110.393 135.825 112.8 132.341 114.329 128.53C115.493 125.637 116.126 122.604 116.229 119.429C116.235 119.281 116.238 119.133 116.238 118.985C116.29 115.964 115.853 113.043 114.927 110.222C114.754 109.688 114.644 109.309 114.599 109.084C114.516 108.647 114.519 108.264 114.609 107.937C114.667 107.712 114.802 107.423 115.014 107.069C115.258 106.671 115.412 106.384 115.477 106.211C115.766 105.459 115.679 104.636 115.216 103.743ZM104.621 103.155C105.283 103.836 105.881 104.704 106.414 105.758C106.761 106.439 107.173 107.419 107.648 108.698C108.452 110.851 109.024 112.603 109.364 113.953C109.866 115.919 110.1 117.729 110.068 119.38C110.049 120.235 109.962 121.093 109.808 121.955C109.531 123.426 109.053 124.905 108.371 126.389C107.401 128.504 106.061 130.548 104.351 132.521C102.763 134.359 100.983 136.014 99.0099 137.486C97.0367 138.945 94.9382 140.173 92.7144 141.169C90.9147 141.972 88.9191 142.667 86.7274 143.251C84.902 143.74 82.8292 144.18 80.509 144.572C75.5792 145.395 71.0287 145.748 66.8574 145.633C61.9855 145.485 57.5346 144.698 53.5047 143.271C49.2627 141.76 45.5574 139.533 42.3887 136.59C42.2216 136.435 42.0577 136.278 41.897 136.117C38.4135 132.724 36.1253 128.893 35.0327 124.625C34.4285 122.273 34.8785 119.101 36.3824 115.11C37.8864 111.118 39.7503 108.133 41.9742 106.153C44.198 104.167 44.8761 102.83 44.0084 102.142C43.1407 101.455 43.7674 100.52 45.8884 99.337C47.8937 98.2186 50.2043 97.3413 52.8202 96.705C54.9155 96.1908 57.3772 95.7955 60.2052 95.5192C65.5591 94.9921 70.9323 94.9311 76.3248 95.336C81.7173 95.7409 87.023 96.6022 92.242 97.9198C95.0571 98.6268 97.5766 99.4173 99.8005 100.291C100.829 100.696 101.687 101.092 102.375 101.477C103.268 101.985 104.017 102.544 104.621 103.155Z" fill="#0A0A0A"/>
<path d="M106.414 105.758C105.881 104.704 105.283 103.836 104.621 103.155C104.017 102.544 103.268 101.985 102.375 101.477C101.687 101.092 100.829 100.696 99.8004 100.291C97.5766 99.4173 95.0571 98.6267 92.2419 97.9197C87.023 96.6022 81.7172 95.7409 76.3248 95.336C70.9323 94.9311 65.5591 94.9921 60.2051 95.5192C57.3771 95.7955 54.9155 96.1908 52.8202 96.705C50.2043 97.3413 47.8937 98.2186 45.8884 99.337C43.7673 100.52 43.1407 101.455 44.0084 102.142C44.8761 102.83 44.198 104.167 41.9741 106.153C39.7503 108.133 37.8864 111.118 36.3824 115.11C34.8784 119.101 34.4285 122.273 35.0327 124.625C36.1253 128.893 38.4134 132.723 41.897 136.117C42.0577 136.278 42.2216 136.435 42.3887 136.589C45.5573 139.533 49.2627 141.76 53.5047 143.271C57.5346 144.698 61.9855 145.485 66.8574 145.633C71.0287 145.748 75.5792 145.395 80.5089 144.572C82.8292 144.18 84.902 143.74 86.7273 143.251C88.919 142.666 90.9147 141.972 92.7143 141.169C94.9382 140.173 97.0367 138.945 99.0099 137.486C100.983 136.014 102.763 134.359 104.351 132.521C106.061 130.548 107.401 128.504 108.371 126.389C109.052 124.905 109.531 123.426 109.808 121.955C109.962 121.093 110.049 120.235 110.068 119.38C110.1 117.729 109.866 115.919 109.364 113.953C109.024 112.603 108.452 110.851 107.648 108.698C107.173 107.419 106.761 106.439 106.414 105.758Z" fill="white"/>
<path d="M137.863 73.9139C140.337 69.4341 140.874 64.7261 139.473 59.79C138.014 54.6674 134.845 51.0746 129.967 49.0114C126.92 47.726 123.787 47.3628 120.567 47.922C115.451 48.7575 111.386 51.3349 108.371 55.654C105.363 59.9603 104.367 64.6811 105.383 69.8165C106.385 74.8619 109.056 78.7633 113.394 81.5206C117.713 84.2715 122.319 84.7664 127.21 83.0053C131.914 81.2957 135.466 78.2652 137.863 73.9139ZM128.492 53.8704C133.242 56.5635 135.433 60.6448 135.067 66.1144C134.714 71.3462 132.194 75.1383 127.509 77.4907C122.579 79.9716 118.086 79.3707 114.031 75.6879C110.026 72.05 108.934 67.673 110.753 62.5569C112.469 57.7172 115.727 54.3653 120.529 52.5014C123.344 52.0065 125.998 52.4629 128.492 53.8704ZM124.433 60.5227C124.234 60.6705 124.047 60.8665 123.874 61.1108C123.745 61.2972 123.61 61.5318 123.469 61.8146C123.308 62.1488 123.196 62.438 123.132 62.6822C123.054 62.9972 123.026 63.4214 123.045 63.9548C123.051 64.2312 123.067 64.4594 123.093 64.6393C123.132 64.89 123.189 65.1118 123.267 65.3046C123.492 65.8637 123.974 66.3651 124.713 66.8086C125.195 67.0978 125.641 67.2745 126.053 67.3388C126.413 67.3967 126.798 67.3838 127.21 67.3002C127.589 67.2231 127.946 67.0946 128.28 66.9146C128.62 66.7346 128.923 66.5129 129.186 66.2494C129.52 65.9216 129.787 65.5327 129.986 65.0828C130.179 64.6522 130.298 64.1959 130.343 63.7138C130.394 63.1932 130.349 62.6919 130.208 62.2098C130.06 61.6892 129.816 61.2554 129.475 60.9083C129.244 60.6705 128.974 60.4745 128.665 60.3202C128.37 60.166 128.052 60.0567 127.711 59.9924C127.1 59.8703 126.432 59.8832 125.706 60.031C125.159 60.1338 124.735 60.2977 124.433 60.5227Z" fill="#0A0A0A"/>
<path d="M135.067 66.1144C135.433 60.6448 133.242 56.5634 128.492 53.8704C125.998 52.4628 123.344 52.0065 120.529 52.5014C115.727 54.3653 112.469 57.7171 110.753 62.5569C108.934 67.673 110.026 72.05 114.031 75.6878C118.086 79.3707 122.579 79.9716 127.509 77.4907C132.194 75.1383 134.714 71.3462 135.067 66.1144ZM123.874 61.1107C124.047 60.8665 124.234 60.6705 124.433 60.5227C124.735 60.2977 125.159 60.1338 125.706 60.031C126.432 59.8831 127.1 59.8703 127.711 59.9924C128.052 60.0567 128.37 60.1659 128.665 60.3202C128.974 60.4744 129.244 60.6705 129.475 60.9083C129.816 61.2554 130.06 61.6892 130.208 62.2098C130.349 62.6919 130.394 63.1932 130.343 63.7138C130.298 64.1958 130.179 64.6522 129.986 65.0828C129.787 65.5327 129.52 65.9216 129.186 66.2494C128.923 66.5129 128.62 66.7346 128.28 66.9146C127.946 67.0946 127.589 67.2231 127.21 67.3002C126.798 67.3838 126.413 67.3966 126.053 67.3388C125.641 67.2745 125.195 67.0978 124.713 66.8085C123.974 66.3651 123.492 65.8637 123.267 65.3046C123.189 65.1117 123.132 64.89 123.093 64.6393C123.067 64.4594 123.051 64.2312 123.045 63.9548C123.026 63.4214 123.054 62.9972 123.132 62.6822C123.196 62.438 123.308 62.1488 123.469 61.8145C123.61 61.5317 123.745 61.2971 123.874 61.1107Z" fill="white"/>
<path d="M131.886 58.8065C131.5 58.1959 131.153 57.6914 130.844 57.2929C130.433 56.7594 130.009 56.3224 129.572 55.9817C128.273 54.979 126.474 54.4584 124.173 54.4199C122.656 54.3877 121.371 54.5773 120.316 54.9887C120.027 55.098 119.744 55.2297 119.468 55.384C118.857 55.7053 118.263 56.1231 117.684 56.6373C116.92 57.3186 116.258 58.0931 115.698 58.9607C115.152 59.8413 114.75 60.7668 114.493 61.7373C114.159 62.9457 114.059 64.2022 114.194 65.5069C114.329 66.7731 114.67 68.0007 115.216 69.1898C115.461 69.7232 115.737 70.2278 116.046 70.7034C116.489 71.3718 116.99 71.9792 117.55 72.5255C118.591 73.5282 119.744 74.2031 121.011 74.5501C121.853 74.8008 122.746 74.9004 123.691 74.849C124.578 74.804 125.465 74.624 126.352 74.3091C127.92 73.7821 129.462 72.8565 130.979 71.5325C131.654 70.9412 132.201 70.3595 132.618 69.7875C132.895 69.4083 133.113 69.0355 133.274 68.6692C133.537 68.0714 133.704 67.3741 133.775 66.5771C133.833 65.9665 133.836 65.2402 133.785 64.3982C133.701 63.3891 133.57 62.5632 133.39 61.9205C133.235 61.3613 132.965 60.7186 132.58 59.9923C132.374 59.626 132.143 59.2307 131.886 58.8065Z" fill="#0A0A0A"/>
<path d="M126.13 90.0142C131.529 74.3573 128.402 60.6704 116.749 48.9535C105.193 37.3458 91.2393 32.4129 74.8882 34.1547C63.287 35.3951 53.2444 39.2387 44.7603 45.6852C36.2699 52.1254 30.4211 58.3695 27.2138 64.4175C24.0002 70.4656 22.9654 78.9304 24.1095 89.8117C25.2471 100.687 33.4644 109.164 48.7613 115.245C63.197 120.984 78.1115 122.147 93.5049 118.735C102.22 116.793 109.374 113.185 114.966 107.908C119.902 103.242 123.623 97.277 126.13 90.0142ZM86.4766 40.537C103.059 42.1824 114.329 50.6889 120.287 66.0565C122.987 73.0237 122.984 79.9266 120.278 86.7652C116.01 97.5759 109.072 105.298 99.463 109.932C95.6066 111.79 91.326 113.149 86.6212 114.01C71.2536 116.838 57.0172 114.068 43.9119 105.7C29.8169 96.6954 26.0955 84.5799 32.7477 69.3537C34.2582 65.8894 36.0289 62.7432 38.0599 59.9152C44.7893 50.5057 54.3595 44.6087 66.7706 42.2241C73.2493 40.4695 79.818 39.9071 86.4766 40.537Z" fill="#0A0A0A"/>
<path d="M120.287 66.0565C114.329 50.6888 103.059 42.1823 86.4766 40.5369C79.8179 39.9071 73.2493 40.4694 66.7705 42.2241C54.3595 44.6086 44.7892 50.5056 38.0599 59.9152C36.0288 62.7432 34.2581 65.8894 32.7477 69.3537C26.0955 84.5799 29.8169 96.6953 43.9119 105.7C57.0171 114.068 71.2536 116.838 86.6212 114.01C91.326 113.149 95.6066 111.79 99.4629 109.932C109.072 105.298 116.01 97.5759 120.278 86.7652C122.984 79.9265 122.987 73.0236 120.287 66.0565Z" fill="white"/>
<path d="M74.8209 65.8541C74.6088 62.4733 73.3844 59.5296 71.1477 57.023C69.0074 54.6384 66.3819 53.0348 63.2711 52.2121C60.1924 51.383 57.0752 51.2256 53.9194 51.7397C50.5579 52.2668 47.5981 53.6197 45.0401 55.7986C42.482 57.9646 40.7563 60.6544 39.8629 63.868C39.188 66.2911 38.8474 68.7656 38.841 71.2915C38.8345 74.5116 39.8822 77.3268 41.9839 79.737C43.1922 81.2667 44.5773 82.6325 46.1392 83.8344C48.7936 85.859 51.808 86.7749 55.1823 86.5821C56.4935 86.5242 57.7886 86.4053 59.0676 86.2253C62.3584 85.8076 65.3085 84.58 67.918 82.5425C70.4375 80.5629 72.2725 78.0788 73.423 75.0901C74.5606 72.1271 75.0266 69.0484 74.8209 65.8541ZM66.9154 59.6357C68.5672 61.1846 69.5441 63.0743 69.8462 65.3045C70.2575 68.3896 69.8141 71.3751 68.5157 74.2609C67.0953 77.4167 64.7076 79.557 61.3525 80.6818C58.2482 81.723 55.102 81.9737 51.9141 81.4338C51.6377 81.3374 51.371 81.2249 51.1139 81.0964C48.9093 80.0037 47.0486 78.4644 45.5318 76.4784C45.159 75.9835 44.8666 75.4661 44.6545 74.9262C43.7675 72.6702 43.4879 70.2921 43.8157 67.7919C44.1113 65.4973 44.9373 63.4053 46.2934 61.5156C48.1959 58.8547 50.77 57.264 54.0158 56.7434C55.282 56.5184 56.5514 56.4092 57.824 56.4156C61.3333 56.1906 64.3637 57.264 66.9154 59.6357ZM60.3595 69.6429C60.5523 69.2123 60.6712 68.756 60.7162 68.2739C60.7677 67.7533 60.7227 67.252 60.5813 66.7699C60.4334 66.2493 60.1892 65.8155 59.8486 65.4684C59.6172 65.2306 59.3472 65.0346 59.0387 64.8803C58.7431 64.7261 58.4249 64.6168 58.0843 64.5525C57.4737 64.4304 56.8052 64.4433 56.0789 64.5911C55.5326 64.6939 55.1084 64.8578 54.8063 65.0828C54.6071 65.2306 54.4207 65.4266 54.2472 65.6709C54.1186 65.8573 53.9837 66.0919 53.8423 66.3747C53.6816 66.7089 53.5691 66.9981 53.5048 67.2424C53.4277 67.5573 53.3988 67.9815 53.4181 68.515C53.4245 68.7913 53.4405 69.0195 53.4663 69.1995C53.5048 69.4501 53.5627 69.6719 53.6398 69.8647C53.8647 70.4239 54.3468 70.9252 55.0859 71.3687C55.568 71.6579 56.0147 71.8346 56.426 71.8989C56.7859 71.9568 57.1716 71.9439 57.5829 71.8604C57.9621 71.7832 58.3189 71.6547 58.6531 71.4747C58.9937 71.2948 59.2958 71.073 59.5593 70.8095C59.8935 70.4817 60.1603 70.0929 60.3595 69.6429Z" fill="#0A0A0A"/>
<path d="M69.8462 65.3045C69.5441 63.0743 68.5671 61.1846 66.9153 59.6357C64.3637 57.264 61.3332 56.1906 57.8239 56.4156C56.5513 56.4092 55.2819 56.5184 54.0158 56.7434C50.77 57.264 48.1959 58.8547 46.2934 61.5156C44.9372 63.4053 44.1113 65.4973 43.8157 67.7919C43.4879 70.2921 43.7675 72.6702 44.6544 74.9262C44.8665 75.4661 45.159 75.9835 45.5317 76.4784C47.0486 78.4644 48.9093 80.0037 51.1138 81.0964C51.3709 81.2249 51.6377 81.3374 51.914 81.4338C55.102 81.9737 58.2481 81.723 61.3525 80.6818C64.7076 79.557 67.0953 77.4167 68.5157 74.2609C69.814 71.3751 70.2575 68.3896 69.8462 65.3045ZM60.7162 68.2739C60.6712 68.756 60.5523 69.2123 60.3595 69.6429C60.1602 70.0928 59.8935 70.4817 59.5593 70.8095C59.2958 71.073 58.9937 71.2947 58.653 71.4747C58.3188 71.6547 57.9621 71.7832 57.5829 71.8604C57.1716 71.9439 56.7859 71.9568 56.426 71.8989C56.0146 71.8346 55.568 71.6579 55.0859 71.3687C54.3468 70.9252 53.8647 70.4239 53.6398 69.8647C53.5626 69.6719 53.5048 69.4501 53.4662 69.1995C53.4405 69.0195 53.4245 68.7913 53.418 68.5149C53.3987 67.9815 53.4277 67.5573 53.5048 67.2423C53.5691 66.9981 53.6815 66.7089 53.8422 66.3747C53.9836 66.0919 54.1186 65.8573 54.2471 65.6709C54.4207 65.4266 54.6071 65.2306 54.8063 65.0828C55.1084 64.8578 55.5326 64.6939 56.0789 64.5911C56.8052 64.4433 57.4736 64.4304 58.0842 64.5525C58.4249 64.6168 58.743 64.7261 59.0387 64.8803C59.3472 65.0346 59.6171 65.2306 59.8485 65.4684C60.1892 65.8155 60.4334 66.2493 60.5812 66.7699C60.7226 67.252 60.7676 67.7533 60.7162 68.2739Z" fill="white"/>
<path d="M127.586 70.2118C127.393 70.1989 127.01 70.1443 126.438 70.0479C125.963 69.9708 125.58 69.9354 125.291 69.9418C124.873 69.9418 124.494 70.019 124.154 70.1732C123.768 70.3468 123.485 70.5942 123.305 70.9156C123.112 71.2819 123.077 71.6901 123.199 72.14C123.321 72.577 123.549 72.9369 123.884 73.2197C124.43 73.6825 125.23 73.9621 126.284 74.0585C125.892 74.9198 125.651 75.8132 125.561 76.7387C125.51 77.33 125.545 77.857 125.667 78.3198C125.809 78.879 126.066 79.3128 126.438 79.6213C126.824 79.9363 127.3 80.0969 127.865 80.1034C128.386 80.1162 128.897 80.007 129.398 79.7756C129.797 79.5956 130.234 79.3192 130.709 78.9465C131.256 78.5094 131.664 78.1816 131.934 77.9631C132.043 77.8795 132.477 77.5646 133.235 77.0183C133.762 76.6391 134.18 76.3081 134.489 76.0253C134.913 75.646 135.337 75.1865 135.761 74.6466C136.07 74.2545 136.433 73.7436 136.851 73.1137C137.268 72.4903 137.548 71.9407 137.689 71.4651C137.882 70.8095 137.84 70.2503 137.564 69.7876C137.326 69.3827 136.937 69.0966 136.397 68.9295C135.941 68.7881 135.427 68.7431 134.855 68.7946C134.199 68.8524 132.988 69.1384 131.22 69.6526C129.716 70.0961 128.505 70.2825 127.586 70.2118ZM62.1334 60.0888C61.3429 59.6839 60.488 59.3914 59.5689 59.2115C57.9364 58.8901 56.1368 58.9223 54.17 59.3079C52.7046 59.5971 51.5638 60.0438 50.7475 60.648C50.214 61.04 49.7191 61.5607 49.2628 62.2098C48.9093 62.7111 48.5461 63.341 48.1734 64.0994C47.7299 65.0057 47.4278 65.7834 47.2671 66.4325C47.055 67.2938 46.9715 68.4411 47.0165 69.8743C47.0422 70.6071 47.0904 71.2209 47.1611 71.7158C47.2511 72.3842 47.4021 72.9755 47.6142 73.4897C47.9647 74.3513 48.5335 75.158 49.3206 75.9096C47.8708 76.4378 46.5211 77.0419 45.2714 77.7221C44.9372 77.902 44.6769 78.0691 44.4905 78.2234C44.227 78.4419 44.047 78.6797 43.9506 78.9368C43.8285 79.2582 43.8253 79.7209 43.941 80.3251C44.1017 81.1607 44.3491 81.7584 44.6834 82.1183C45.0111 82.4718 45.4514 82.7 46.0042 82.8028C46.4862 82.8928 47.0036 82.8832 47.5563 82.7739C47.7877 82.7353 48.2891 82.61 49.0603 82.3979C49.6773 82.2308 50.1787 82.1344 50.5643 82.1087C50.6607 82.4365 50.8567 82.7225 51.1524 82.9667C51.4159 83.1917 51.7276 83.362 52.0876 83.4777C52.3897 83.5741 52.74 83.632 53.1384 83.6512C53.357 83.6577 53.7137 83.6544 54.2086 83.6416C54.17 84.0594 54.3275 84.4321 54.681 84.7599C55.0152 85.0813 55.4041 85.2581 55.8475 85.2902C56.2396 85.3223 56.6574 85.2548 57.1009 85.0877C57.4351 84.9656 57.8239 84.7696 58.2674 84.4996C58.4667 84.3775 59.2122 83.8794 60.5041 83.0053C61.4039 82.3947 62.172 81.9384 62.8083 81.6363C63.3482 81.3985 63.7499 81.2121 64.0134 81.0771C64.4762 80.8457 64.8393 80.6015 65.1028 80.3444C65.2121 80.2351 65.3535 80.068 65.527 79.8431C65.7134 79.6053 65.8548 79.4349 65.9512 79.3321C66.234 79.0364 66.6679 78.7119 67.2528 78.3584C67.9276 77.9663 68.6378 77.6192 69.3834 77.3171C69.8655 77.1179 70.1932 76.9701 70.3668 76.8737C70.7139 76.668 70.9645 76.4302 71.1188 76.1602C71.363 75.7425 71.3791 75.2733 71.167 74.7527C70.9742 74.2642 70.6496 73.885 70.1932 73.615C69.8076 73.3836 69.3384 73.2326 68.7857 73.1619C68.4193 73.1105 67.9148 73.088 67.272 73.0944C66.7059 73.1048 66.1403 73.1209 65.5752 73.1426C65.6112 73.0667 65.6465 72.9896 65.6813 72.9112C66.2019 71.7479 66.5233 70.5203 66.6454 69.2284C66.7804 67.8144 66.6614 66.4615 66.2887 65.1696C65.8837 63.7813 65.2249 62.6179 64.3123 61.6796C63.7017 61.0433 62.9754 60.513 62.1334 60.0888ZM111.264 71.9568C111.116 71.4683 110.833 71.073 110.415 70.771C110.049 70.5267 109.602 70.3532 109.075 70.2503C108.722 70.1796 108.233 70.1347 107.61 70.1154C105.784 70.0575 102.757 70.1732 98.5279 70.4624C94.6458 70.7324 91.625 70.7934 89.4655 70.6456C88.8549 70.6071 88.4082 70.5974 88.1254 70.6167C87.624 70.6424 87.2063 70.7581 86.872 70.9638C86.4478 71.2144 86.0429 71.6997 85.6573 72.4196C84.0248 75.4147 83.276 79.1521 83.411 83.6319C83.5331 87.6554 84.3783 90.8787 85.9465 93.3018C86.8978 94.7736 88.1093 95.9338 89.5812 96.7822C91.1558 97.6884 92.7498 98.0741 94.363 97.9391C95.4428 97.8555 96.7315 97.4827 98.2291 96.8207C99.5595 96.2166 100.607 95.5899 101.372 94.9408C101.963 94.4394 102.529 93.8128 103.069 93.0608C103.474 92.4759 103.917 91.7496 104.399 90.8819C106.919 86.2157 108.522 81.2892 109.21 76.1024C109.261 75.7296 109.31 75.4629 109.355 75.3022C109.432 75.0065 109.544 74.7591 109.692 74.5598C109.814 74.4056 110.052 74.2031 110.406 73.9525C110.746 73.7082 110.981 73.4961 111.109 73.3162C111.379 72.9305 111.431 72.4774 111.264 71.9568ZM105.99 73.8753C105.946 73.9143 105.901 73.9529 105.855 73.991C105.617 75.1456 105.161 76.9999 104.486 79.5538C103.644 82.7542 103.017 84.7756 102.606 85.618C101.983 86.8906 101.645 87.5847 101.594 87.7004C101.26 88.4524 101.006 89.0148 100.832 89.3876C100.524 90.0239 100.205 90.5477 99.8776 90.9591C99.3313 91.6596 98.5793 92.2959 97.6217 92.868C96.7219 93.4014 95.806 93.7549 94.874 93.9285C93.8392 94.1148 92.8848 94.0506 92.0107 93.7356C91.4001 93.5107 90.8313 93.1508 90.3042 92.6559C89.8222 92.2124 89.4044 91.6853 89.0509 91.0747C88.4853 90.1042 88.0418 88.8316 87.7204 87.2569C87.2898 85.1681 87.1291 83.1467 87.2384 81.1928C87.3477 79.0654 87.7719 77.0986 88.511 75.2925C88.6267 75.0162 88.7456 74.833 88.8677 74.743C89.0091 74.6273 89.2758 74.5695 89.6679 74.5695C93.9292 74.5952 98.2066 74.4216 102.5 74.0489C103.123 73.9899 104.235 73.9385 105.836 73.8946C105.847 73.8903 105.857 73.8839 105.865 73.8753C105.868 73.8839 105.871 73.8903 105.874 73.8946C105.908 73.8968 105.947 73.8904 105.99 73.8753Z" fill="#0A0A0A"/>
<path d="M75.1414 132.101C74.4023 131.077 73.2278 130.945 71.6178 131.705C70.0171 132.461 69.8053 134.038 70.9826 136.434C72.1516 138.835 72.8803 140.317 73.1688 140.879C73.9057 142.299 74.8159 143.824 75.8991 145.455C76.6275 146.544 77.6541 147.993 78.979 149.803C86.1195 159.53 93.7 168.996 101.72 178.201C104.913 181.868 107.796 185.031 110.37 187.69C113.561 191.002 116.661 193.945 119.67 196.518C119.691 196.538 119.713 196.554 119.736 196.568C119.722 196.591 119.713 196.611 119.707 196.63C119.534 197.074 119.347 197.669 119.145 198.414C118.529 200.638 118.202 202.522 118.164 204.067C118.111 206.204 118.528 208.055 119.416 209.621C119.756 210.212 120.382 211.039 121.292 212.101C121.721 212.598 122.051 212.965 122.282 213.201C122.667 213.598 123.035 213.925 123.387 214.185C124.11 214.708 125.075 215.16 126.283 215.541C126.971 215.752 128.015 216.053 129.414 216.444C130.203 216.699 130.601 216.828 130.607 216.829C131.071 216.961 131.482 217.033 131.84 217.046C132.739 217.066 133.733 216.735 134.822 216.054C136.247 215.164 137.483 213.976 138.529 212.491C139.516 211.095 140.262 209.537 140.768 207.816C141.479 205.386 141.574 203.154 141.053 201.121C140.759 200.014 140.247 198.865 139.515 197.675C139.003 196.852 138.253 195.823 137.266 194.59C136.893 194.13 136.59 193.775 136.356 193.524C136.006 193.145 135.664 192.832 135.329 192.584C134.906 192.27 134.399 191.992 133.807 191.748C133.395 191.579 132.847 191.392 132.163 191.188C131.201 190.908 130.405 190.721 129.775 190.627C128.895 190.499 128.093 190.501 127.369 190.634C126.763 190.755 126.122 190.983 125.445 191.318C125.155 191.46 124.822 191.642 124.447 191.866C124.139 191.64 123.686 191.314 123.089 190.887C121.445 189.72 119.748 188.312 118 186.664C116.691 185.429 115.144 183.848 113.357 181.921C109.213 177.466 104.733 172.301 99.9183 166.427C97.0125 162.878 92.7525 157.527 87.1384 150.374C85.3065 148.038 83.954 146.253 83.0807 145.02C81.6409 142.988 80.4715 141.084 79.5727 139.307C79.3529 138.875 77.8758 136.473 75.1414 132.101ZM124.739 205.363C124.55 204.287 124.567 203.105 124.79 201.817C125.029 200.499 125.412 199.45 125.94 198.669C126.274 198.178 126.675 197.778 127.143 197.468C127.637 197.139 128.154 196.944 128.695 196.884C130.209 196.732 131.729 197.641 133.254 199.611C134.029 200.613 134.526 201.499 134.746 202.269C135.025 203.244 135.015 204.324 134.715 205.509C134.477 206.444 134.042 207.475 133.411 208.601C133.157 209.049 132.92 209.394 132.7 209.637C132.392 209.974 132.059 210.19 131.702 210.285C131.47 210.343 131.202 210.354 130.898 210.317C130.71 210.295 130.442 210.238 130.094 210.148C129.218 209.913 128.539 209.694 128.056 209.49C127.329 209.186 126.734 208.818 126.273 208.385C125.484 207.634 124.973 206.626 124.739 205.363Z" fill="#0A0A0A"/>
<path d="M124.79 201.817C124.567 203.105 124.55 204.287 124.739 205.363C124.973 206.626 125.484 207.634 126.273 208.385C126.734 208.818 127.329 209.186 128.056 209.49C128.539 209.694 129.218 209.913 130.093 210.147C130.442 210.238 130.71 210.294 130.898 210.317C131.202 210.354 131.47 210.343 131.702 210.285C132.059 210.19 132.392 209.974 132.7 209.637C132.92 209.394 133.157 209.049 133.411 208.601C134.042 207.475 134.477 206.444 134.715 205.509C135.015 204.324 135.025 203.244 134.745 202.269C134.526 201.499 134.028 200.613 133.254 199.611C131.729 197.641 130.209 196.732 128.695 196.884C128.154 196.944 127.637 197.139 127.143 197.468C126.675 197.778 126.274 198.178 125.94 198.668C125.412 199.45 125.029 200.499 124.79 201.817Z" fill="white"/>
</svg>
