<svg width="192" height="159" viewBox="0 0 192 159" fill="none" xmlns="http://www.w3.org/2000/svg">
<path d="M27.1837 106.165C27.0532 106.099 26.9227 106.034 26.7922 105.969C26.6001 105.925 26.4062 105.882 26.2104 105.838C26.2104 105.86 26.2104 105.882 26.2104 105.904C26.0582 105.904 25.9059 105.904 25.7537 105.904C25.645 105.947 25.5362 105.991 25.4275 106.034C25.3223 106.099 25.2154 106.165 25.1067 106.23C25.0414 106.295 24.9762 106.36 24.9109 106.426C24.8674 106.487 24.8239 106.551 24.7804 106.616C24.7369 106.681 24.6934 106.746 24.6499 106.812C24.6282 106.877 24.6064 106.942 24.5847 107.007C24.563 107.073 24.5412 107.138 24.5195 107.203C24.5195 107.268 24.5195 107.334 24.5195 107.399C24.4977 107.464 24.476 107.529 24.4542 107.595C24.4542 107.66 24.4542 107.723 24.4542 107.785C24.4542 107.85 24.4542 107.915 24.4542 107.981C24.4542 108.046 24.4542 108.111 24.4542 108.176C24.4542 108.242 24.4542 108.307 24.4542 108.372C24.4542 108.437 24.4542 108.503 24.4542 108.568C24.4542 108.633 24.4542 108.698 24.4542 108.764C24.4542 108.829 24.4542 108.894 24.4542 108.959C24.4542 109.025 24.4542 109.088 24.4542 109.15C24.4542 109.215 24.4542 109.28 24.4542 109.345C24.4542 109.411 24.4542 109.476 24.4542 109.541C24.4542 109.606 24.4542 109.672 24.4542 109.737C24.4542 109.802 24.4542 109.867 24.4542 109.933C24.4542 109.998 24.4542 110.063 24.4542 110.128C24.4542 110.194 24.4542 110.259 24.4542 110.324C24.4542 110.386 24.4542 110.449 24.4542 110.514C24.4542 110.58 24.4542 110.645 24.4542 110.71C24.4542 110.775 24.4542 110.841 24.4542 110.906C24.4542 110.971 24.4542 111.036 24.4542 111.102C24.4542 111.167 24.4542 111.232 24.4542 111.297C24.4542 111.363 24.4542 111.428 24.4542 111.493C24.4542 111.558 24.4542 111.624 24.4542 111.689C24.4542 111.751 24.4542 111.814 24.4542 111.879C24.4542 111.944 24.4542 112.01 24.4542 112.075C24.4542 112.14 24.4542 112.205 24.4542 112.271C24.4542 112.336 24.4542 112.401 24.4542 112.466C24.4542 112.532 24.4542 112.597 24.4542 112.662C24.4542 112.727 24.4542 112.793 24.4542 112.858C24.4542 112.923 24.4542 112.987 24.4542 113.048C24.4542 113.113 24.4542 113.179 24.4542 113.244C24.4542 113.309 24.4542 113.374 24.4542 113.44C24.4542 113.505 24.4542 113.57 24.4542 113.635C24.4542 113.701 24.4542 113.766 24.4542 113.831C24.4542 113.896 24.4542 113.962 24.4542 114.027C24.4542 114.092 24.4542 114.157 24.4542 114.223C24.4542 114.288 24.4542 114.351 24.4542 114.413C24.4542 114.478 24.4542 114.543 24.4542 114.609C24.4542 114.674 24.4542 114.739 24.4542 114.804C24.4542 114.87 24.4542 114.935 24.4542 115C24.4542 115.065 24.4542 115.131 24.4542 115.196C24.4542 115.261 24.4542 115.326 24.4542 115.392C24.4542 115.457 24.4542 115.522 24.4542 115.587C24.4542 115.649 24.4542 115.712 24.4542 115.778C24.4542 115.843 24.4542 115.908 24.4542 115.973C24.4542 116.039 24.4542 116.104 24.4542 116.169C24.4542 116.234 24.4542 116.3 24.4542 116.365C24.4542 116.43 24.4542 116.495 24.4542 116.561C24.4542 116.626 24.4542 116.691 24.4542 116.756C24.4542 116.822 24.4542 116.885 24.4542 116.947C24.4542 117.012 24.4542 117.077 24.4542 117.142C24.4542 117.208 24.4542 117.273 24.4542 117.338C24.4542 117.403 24.4542 117.469 24.4542 117.534C24.4542 117.599 24.4542 117.664 24.4542 117.73C24.4542 117.795 24.4542 117.86 24.4542 117.925C24.4542 117.991 24.4542 118.056 24.4542 118.121C24.4542 118.186 24.4542 118.25 24.4542 118.311C24.4542 118.377 24.4542 118.442 24.4542 118.507C24.4542 118.572 24.4542 118.638 24.4542 118.703C24.4542 118.768 24.4542 118.833 24.4542 118.899C24.4542 118.964 24.4542 119.029 24.4542 119.094C24.4542 119.16 24.4542 119.225 24.4542 119.29C24.4542 119.355 24.4542 119.421 24.4542 119.486C24.4542 119.547 24.4542 119.611 24.4542 119.676C24.4542 119.741 24.4542 119.807 24.4542 119.872C24.4542 119.937 24.4542 120.002 24.4542 120.068C24.4542 120.133 24.4542 120.198 24.4542 120.263C24.4542 120.329 24.4542 120.394 24.4542 120.459C24.4542 120.524 24.4542 120.59 24.4542 120.655C24.4542 120.72 24.4542 120.785 24.4542 120.851C24.4542 120.912 24.4542 120.976 24.4542 121.041C24.4542 121.106 24.4542 121.171 24.4542 121.237C24.4542 121.302 24.4542 121.367 24.4542 121.432C24.4542 121.498 24.4542 121.563 24.4542 121.628C24.4542 121.693 24.4542 121.759 24.4542 121.824C24.4542 121.889 24.4542 121.954 24.4542 122.02C24.4542 122.085 24.4542 122.148 24.4542 122.21C24.4542 122.275 24.4542 122.34 24.4542 122.406C24.4542 122.471 24.4542 122.536 24.4542 122.601C24.4542 122.667 24.4542 122.732 24.4542 122.797C24.4542 122.862 24.4542 122.928 24.4542 122.993C24.4542 123.058 24.4542 123.123 24.4542 123.189C24.4542 123.254 24.4542 123.319 24.4542 123.384C24.4542 123.449 24.4542 123.513 24.4542 123.575C24.4542 123.64 24.4542 123.705 24.4542 123.77C24.4542 123.836 24.4542 123.901 24.4542 123.966C24.4542 124.031 24.4542 124.097 24.4542 124.162C24.4542 124.227 24.4542 124.292 24.4542 124.358C24.4542 124.423 24.4542 124.488 24.4542 124.553C24.4542 124.618 24.4542 124.684 24.4542 124.749C24.4542 124.811 24.4542 124.874 24.4542 124.939C24.4542 125.005 24.4542 125.07 24.4542 125.135C24.4542 125.2 24.4542 125.266 24.4542 125.331C24.4542 125.396 24.4542 125.461 24.4542 125.527C24.4542 125.592 24.4542 125.657 24.4542 125.722C24.4542 125.787 24.4542 125.853 24.4542 125.918C24.4542 125.983 24.4542 126.048 24.4542 126.114C24.4542 126.175 24.4542 126.239 24.4542 126.304C24.4542 126.369 24.4542 126.435 24.4542 126.5C24.4542 126.565 24.4542 126.63 24.4542 126.695C24.4542 126.761 24.4542 126.826 24.4542 126.891C24.4542 126.956 24.4542 127.022 24.4542 127.087C24.4542 127.152 24.4542 127.217 24.4542 127.283C24.4542 127.348 24.4542 127.411 24.4542 127.473C24.4542 127.538 24.4542 127.604 24.4542 127.669C24.4542 127.734 24.4542 127.799 24.4542 127.864C24.4542 127.93 24.4542 127.995 24.4542 128.06C24.4542 128.125 24.4542 128.191 24.4542 128.256C24.4542 128.321 24.4542 128.386 24.4542 128.452C24.4542 128.517 24.4542 128.582 24.4542 128.647C24.4542 128.709 24.4542 128.772 24.4542 128.838C24.4542 128.903 24.4542 128.968 24.4542 129.033C24.4542 129.099 24.4542 129.164 24.4542 129.229C24.4542 129.294 24.4542 129.36 24.4542 129.425C24.4542 129.49 24.4542 129.555 24.4542 129.621C24.4542 129.686 24.4542 129.751 24.4542 129.816C24.4542 129.882 24.4542 129.947 24.4542 130.012C24.4542 130.074 24.4542 130.137 24.4542 130.202C24.4542 130.268 24.4542 130.333 24.4542 130.398C24.4542 130.463 24.4542 130.529 24.4542 130.594C24.4542 130.659 24.4542 130.724 24.4542 130.79C24.4542 130.855 24.4542 130.92 24.4542 130.985C24.4542 131.051 24.4542 131.116 24.4542 131.181C24.4542 131.246 24.4542 131.31 24.4542 131.371C24.4542 131.437 24.4542 131.502 24.4542 131.567C24.4542 131.632 24.4542 131.698 24.4542 131.763C24.4542 131.828 24.4542 131.893 24.4542 131.959C24.4542 132.024 24.4542 132.089 24.4542 132.154C24.4542 132.22 24.4542 132.285 24.4542 132.35C24.4542 132.415 24.4542 132.481 24.4542 132.546C24.4542 132.611 24.4542 132.675 24.4542 132.736C24.4542 132.801 24.4542 132.867 24.4542 132.932C24.4542 132.997 24.4542 133.062 24.4542 133.128C24.4542 133.193 24.4542 133.258 24.4542 133.323C24.4542 133.389 24.4542 133.454 24.4542 133.519C24.4542 133.584 24.4542 133.65 24.4542 133.715C24.4542 133.78 24.4542 133.845 24.4542 133.911C24.4542 133.972 24.4542 134.036 24.4542 134.101C24.4542 134.166 24.4542 134.231 24.4542 134.297C24.4542 134.362 24.4542 134.427 24.4542 134.492C24.4542 134.558 24.4542 134.623 24.4542 134.688C24.4542 134.753 24.4542 134.819 24.4542 134.884C24.4542 134.949 24.4542 135.014 24.4542 135.08C24.4542 135.124 24.4542 135.167 24.4542 135.21L8.15898 129.664C6.92293 129.244 5.98773 128.946 5.35339 128.773C4.3022 128.486 3.34345 128.309 2.47713 128.24C1.77755 128.178 1.24469 128.256 0.87859 128.473C0.628479 128.626 0.425494 128.85 0.269628 129.148C0.131886 129.416 0.0467063 129.713 0.0140832 130.039C-0.0112903 130.311 -0.0022283 130.619 0.0412691 130.964C0.0666427 131.141 0.119197 131.448 0.198942 131.883C0.579545 133.941 0.775286 136.028 0.78616 138.141C0.789785 138.67 0.786163 139.462 0.775289 140.517C0.786163 141.434 0.842339 142.219 0.943833 142.871C1.12507 144.002 1.46762 144.892 1.97147 145.541C2.27595 145.936 2.64387 146.244 3.07522 146.465C3.53194 146.701 3.99228 146.802 4.45626 146.77C5.19571 146.715 5.94786 146.311 6.71269 145.557C7.43765 144.85 8.0448 144.013 8.53414 143.045C8.99812 142.132 9.33885 141.148 9.55634 140.093C9.93694 138.259 9.94418 136.187 9.57808 133.878C14.6165 135.52 19.684 137.256 24.7804 139.087C25.0384 139.179 25.2667 139.253 25.4655 139.31C25.4973 139.328 25.5282 139.346 25.558 139.364C25.7754 139.408 25.9929 139.451 26.2104 139.495C26.2888 139.483 26.3667 139.473 26.4442 139.462C26.6795 139.458 26.8952 139.418 27.0912 139.342C27.5878 139.154 27.9141 138.768 28.0699 138.184C28.1948 137.72 28.1603 137.31 27.9666 136.955C27.9666 136.892 27.9666 136.828 27.9666 136.765C27.9666 136.7 27.9666 136.636 27.9666 136.575C27.9666 136.51 27.9666 136.444 27.9666 136.379C27.9666 136.314 27.9666 136.249 27.9666 136.183C27.9666 136.118 27.9666 136.053 27.9666 135.988C27.9666 135.922 27.9666 135.857 27.9666 135.792C27.9666 135.727 27.9666 135.661 27.9666 135.596C27.9666 135.531 27.9666 135.466 27.9666 135.4C27.9666 135.335 27.9666 135.272 27.9666 135.21C27.9666 135.145 27.9666 135.08 27.9666 135.014C27.9666 134.949 27.9666 134.884 27.9666 134.819C27.9666 134.753 27.9666 134.688 27.9666 134.623C27.9666 134.558 27.9666 134.492 27.9666 134.427C27.9666 134.362 27.9666 134.297 27.9666 134.231C27.9666 134.166 27.9666 134.101 27.9666 134.036C27.9666 133.974 27.9666 133.911 27.9666 133.845C27.9666 133.78 27.9666 133.715 27.9666 133.65C27.9666 133.584 27.9666 133.519 27.9666 133.454C27.9666 133.389 27.9666 133.323 27.9666 133.258C27.9666 133.193 27.9666 133.128 27.9666 133.062C27.9666 132.997 27.9666 132.932 27.9666 132.867C27.9666 132.801 27.9666 132.736 27.9666 132.671C27.9666 132.609 27.9666 132.546 27.9666 132.481C27.9666 132.415 27.9666 132.35 27.9666 132.285C27.9666 132.22 27.9666 132.154 27.9666 132.089C27.9666 132.024 27.9666 131.959 27.9666 131.893C27.9666 131.828 27.9666 131.763 27.9666 131.698C27.9666 131.632 27.9666 131.567 27.9666 131.502C27.9666 131.437 27.9666 131.373 27.9666 131.312C27.9666 131.246 27.9666 131.181 27.9666 131.116C27.9666 131.051 27.9666 130.985 27.9666 130.92C27.9666 130.855 27.9666 130.79 27.9666 130.724C27.9666 130.659 27.9666 130.594 27.9666 130.529C27.9666 130.463 27.9666 130.398 27.9666 130.333C27.9666 130.268 27.9666 130.202 27.9666 130.137C27.9666 130.076 27.9666 130.012 27.9666 129.947C27.9666 129.882 27.9666 129.816 27.9666 129.751C27.9666 129.686 27.9666 129.621 27.9666 129.555C27.9666 129.49 27.9666 129.425 27.9666 129.36C27.9666 129.294 27.9666 129.229 27.9666 129.164C27.9666 129.099 27.9666 129.033 27.9666 128.968C27.9666 128.903 27.9666 128.838 27.9666 128.773C27.9666 128.711 27.9666 128.647 27.9666 128.582C27.9666 128.517 27.9666 128.452 27.9666 128.386C27.9666 128.321 27.9666 128.256 27.9666 128.191C27.9666 128.125 27.9666 128.06 27.9666 127.995C27.9666 127.93 27.9666 127.864 27.9666 127.799C27.9666 127.734 27.9666 127.669 27.9666 127.604C27.9666 127.538 27.9666 127.475 27.9666 127.413C27.9666 127.348 27.9666 127.283 27.9666 127.217C27.9666 127.152 27.9666 127.087 27.9666 127.022C27.9666 126.956 27.9666 126.891 27.9666 126.826C27.9666 126.761 27.9666 126.695 27.9666 126.63C27.9666 126.565 27.9666 126.5 27.9666 126.435C27.9666 126.369 27.9666 126.304 27.9666 126.239C27.9666 126.174 27.9666 126.11 27.9666 126.048C27.9666 125.983 27.9666 125.918 27.9666 125.853C27.9666 125.787 27.9666 125.722 27.9666 125.657C27.9666 125.592 27.9666 125.527 27.9666 125.461C27.9666 125.396 27.9666 125.331 27.9666 125.266C27.9666 125.2 27.9666 125.135 27.9666 125.07C27.9666 125.005 27.9666 124.939 27.9666 124.874C27.9666 124.812 27.9666 124.749 27.9666 124.684C27.9666 124.618 27.9666 124.553 27.9666 124.488C27.9666 124.423 27.9666 124.358 27.9666 124.292C27.9666 124.227 27.9666 124.162 27.9666 124.097C27.9666 124.031 27.9666 123.966 27.9666 123.901C27.9666 123.836 27.9666 123.77 27.9666 123.705C27.9666 123.64 27.9666 123.575 27.9666 123.509C27.9666 123.448 27.9666 123.384 27.9666 123.319C27.9666 123.254 27.9666 123.189 27.9666 123.123C27.9666 123.058 27.9666 122.993 27.9666 122.928C27.9666 122.862 27.9666 122.797 27.9666 122.732C27.9666 122.667 27.9666 122.601 27.9666 122.536C27.9666 122.471 27.9666 122.406 27.9666 122.34C27.9666 122.275 27.9666 122.212 27.9666 122.15C27.9666 122.085 27.9666 122.02 27.9666 121.954C27.9666 121.889 27.9666 121.824 27.9666 121.759C27.9666 121.693 27.9666 121.628 27.9666 121.563C27.9666 121.498 27.9666 121.432 27.9666 121.367C27.9666 121.302 27.9666 121.237 27.9666 121.171C27.9666 121.106 27.9666 121.041 27.9666 120.976C27.9666 120.91 27.9666 120.847 27.9666 120.785C27.9666 120.72 27.9666 120.655 27.9666 120.59C27.9666 120.524 27.9666 120.459 27.9666 120.394C27.9666 120.329 27.9666 120.263 27.9666 120.198C27.9666 120.133 27.9666 120.068 27.9666 120.002C27.9666 119.937 27.9666 119.872 27.9666 119.807C27.9666 119.741 27.9666 119.676 27.9666 119.611C27.9666 119.549 27.9666 119.486 27.9666 119.421C27.9666 119.355 27.9666 119.29 27.9666 119.225C27.9666 119.16 27.9666 119.094 27.9666 119.029C27.9666 118.964 27.9666 118.899 27.9666 118.833C27.9666 118.768 27.9666 118.703 27.9666 118.638C27.9666 118.572 27.9666 118.507 27.9666 118.442C27.9666 118.377 27.9666 118.313 27.9666 118.252C27.9666 118.186 27.9666 118.121 27.9666 118.056C27.9666 117.991 27.9666 117.925 27.9666 117.86C27.9666 117.795 27.9666 117.73 27.9666 117.664C27.9666 117.599 27.9666 117.534 27.9666 117.469C27.9666 117.403 27.9666 117.338 27.9666 117.273C27.9666 117.208 27.9666 117.142 27.9666 117.077C27.9666 117.012 27.9666 116.948 27.9666 116.887C27.9666 116.822 27.9666 116.756 27.9666 116.691C27.9666 116.626 27.9666 116.561 27.9666 116.495C27.9666 116.43 27.9666 116.365 27.9666 116.3C27.9666 116.234 27.9666 116.169 27.9666 116.104C27.9666 116.039 27.9666 115.973 27.9666 115.908C27.9666 115.843 27.9666 115.778 27.9666 115.712C27.9666 115.651 27.9666 115.587 27.9666 115.522C27.9666 115.457 27.9666 115.392 27.9666 115.326C27.9666 115.261 27.9666 115.196 27.9666 115.131C27.9666 115.065 27.9666 115 27.9666 114.935C27.9666 114.87 27.9666 114.804 27.9666 114.739C27.9666 114.674 27.9666 114.609 27.9666 114.543C27.9666 114.478 27.9666 114.413 27.9666 114.348C27.9666 114.286 27.9666 114.223 27.9666 114.157C27.9666 114.092 27.9666 114.027 27.9666 113.962C27.9666 113.896 27.9666 113.831 27.9666 113.766C27.9666 113.701 27.9666 113.635 27.9666 113.57C27.9666 113.505 27.9666 113.44 27.9666 113.374C27.9666 113.309 27.9666 113.244 27.9666 113.179C27.9666 113.113 27.9666 113.05 27.9666 112.988C27.9666 112.923 27.9666 112.858 27.9666 112.793C27.9666 112.727 27.9666 112.662 27.9666 112.597C27.9666 112.532 27.9666 112.466 27.9666 112.401C27.9666 112.336 27.9666 112.271 27.9666 112.205C27.9666 112.14 27.9666 112.075 27.9666 112.01C27.9666 111.944 27.9666 111.879 27.9666 111.814C27.9666 111.749 27.9666 111.685 27.9666 111.624C27.9666 111.558 27.9666 111.493 27.9666 111.428C27.9666 111.363 27.9666 111.297 27.9666 111.232C27.9666 111.167 27.9666 111.102 27.9666 111.036C27.9666 110.971 27.9666 110.906 27.9666 110.841C27.9666 110.775 27.9666 110.71 27.9666 110.645C27.9666 110.58 27.9666 110.514 27.9666 110.449C27.9666 110.388 27.9666 110.324 27.9666 110.259C27.9666 110.194 27.9666 110.128 27.9666 110.063C27.9666 109.998 27.9666 109.933 27.9666 109.867C27.9666 109.802 27.9666 109.737 27.9666 109.672C27.9666 109.606 27.9666 109.541 27.9666 109.476C27.9666 109.411 27.9666 109.345 27.9666 109.28C27.9666 109.215 27.9666 109.15 27.9666 109.084C27.9666 109.023 27.9666 108.959 27.9666 108.894C27.9666 108.829 27.9666 108.764 27.9666 108.698C27.9666 108.633 27.9666 108.568 27.9666 108.503C27.9666 108.437 27.9666 108.372 27.9666 108.307C27.9666 108.242 27.9666 108.176 27.9666 108.111C27.9666 108.046 27.9666 107.981 27.9666 107.915C27.9666 107.85 27.9666 107.787 27.9666 107.725C27.9449 107.66 27.9231 107.595 27.9014 107.529C27.9014 107.464 27.9014 107.399 27.9014 107.334C27.8796 107.268 27.8579 107.203 27.8361 107.138C27.8144 107.073 27.7926 107.007 27.7709 106.942C27.7491 106.877 27.7274 106.812 27.7057 106.746C27.6622 106.681 27.6186 106.616 27.5751 106.551C27.5317 106.489 27.4882 106.426 27.4447 106.36C27.3577 106.295 27.2707 106.23 27.1837 106.165Z" fill="#0A0A0A"/>
<path d="M76.2814 150.771C75.328 150.815 74.266 150.936 73.0952 151.136C72.3992 151.259 71.8247 151.388 71.3716 151.522C71.2701 151.551 71.174 151.585 71.0834 151.625C70.826 150.632 70.4871 149.388 70.0667 147.895L61.552 117.485C60.4501 113.541 59.5004 110.578 58.7029 108.595C57.4234 105.391 55.8956 102.734 54.1194 100.624C53.8983 100.363 53.7062 100.162 53.5431 100.021C53.3147 99.8213 53.0827 99.68 52.8471 99.5966C52.3976 99.448 51.9482 99.5042 51.4987 99.7652C51.042 100.03 50.7665 100.394 50.6722 100.858C50.5816 101.329 50.6849 101.835 50.9821 102.375C51.1344 102.665 51.4552 103.118 51.9445 103.734C53.1733 105.275 54.2499 107.185 55.1742 109.465C55.7578 110.908 56.4538 113.014 57.2621 115.783C60.9304 128.299 64.4374 140.892 67.783 153.561C67.9606 154.231 68.1546 154.751 68.3648 155.121C68.6621 155.654 69.0408 155.998 69.5012 156.154C69.7006 156.219 69.9017 156.247 70.1047 156.236C70.2932 156.308 70.5016 156.377 70.73 156.442C70.9076 156.489 71.252 156.569 71.7631 156.682C72.3068 156.794 73.86 157.162 76.4227 157.785C78.3149 158.249 79.8735 158.568 81.0987 158.742C81.5228 158.8 81.8708 158.824 82.1426 158.813C82.5269 158.784 82.844 158.681 83.0941 158.503C83.3116 158.354 83.4874 158.146 83.6215 157.878C83.7375 157.639 83.8082 157.374 83.8336 157.084C83.859 156.837 83.8553 156.564 83.8227 156.263C83.7973 156.064 83.7502 155.792 83.6814 155.447C83.5472 154.748 83.4167 154.209 83.2899 153.832C83.0941 153.253 82.8332 152.776 82.5069 152.402C81.869 151.678 80.8522 151.194 79.4567 150.951C78.478 150.784 77.4195 150.724 76.2814 150.771Z" fill="#0A0A0A"/>
<path d="M45.1046 0.166814C44.0933 0.355303 43.1799 0.688784 42.3643 1.16726C41.3204 1.78709 40.3127 2.73316 39.3412 4.00546C38.2248 5.47713 37.2298 7.2569 36.3562 9.34478C35.7654 10.7693 35.093 12.7104 34.339 15.168C33.364 18.3687 32.5502 21.245 31.8977 23.7968C31.7854 24.2209 31.7183 24.558 31.6966 24.8081C31.6603 25.1887 31.6947 25.5204 31.7999 25.8031C31.9775 26.2743 32.3327 26.5988 32.8656 26.7764C33.402 26.954 33.8823 26.9087 34.3064 26.6404C34.6326 26.423 34.8991 26.0913 35.1057 25.6454C35.2398 25.3555 35.3721 24.9314 35.5026 24.3731C36.6516 19.6464 38.0726 15.0248 39.7653 10.5083C41.2334 11.1245 42.7975 11.3638 44.4576 11.226C46.0996 11.0955 47.6094 10.6116 48.9868 9.77431C49.9256 9.20522 50.6651 8.54551 51.2052 7.79518C51.6111 7.21884 51.9048 6.58269 52.086 5.88673C52.2672 5.19077 52.318 4.493 52.2382 3.79342C52.173 3.21345 52.0171 2.68061 51.7706 2.19488C51.506 1.66567 51.1617 1.23794 50.7376 0.911711C50.0996 0.429615 49.2007 0.141443 48.0407 0.0471985C47.0222 -0.0434212 46.0435 -0.00355119 45.1046 0.166814ZM80.5659 2.89084C79.957 2.08251 78.971 1.56055 77.6081 1.32494C76.3322 1.10382 75.0508 1.16001 73.764 1.49349C72.47 1.82697 71.3227 2.40512 70.3223 3.22795C69.485 3.90578 68.7056 4.79386 67.9843 5.89217C67.4805 6.66425 66.9005 7.71362 66.2444 9.0403C65.2041 11.1717 64.113 13.6039 62.9712 16.337C62.2716 18.0116 61.2766 20.4856 59.9862 23.7587C59.8231 24.1756 59.7162 24.5073 59.6654 24.7537C59.5821 25.1271 59.5857 25.4624 59.6763 25.7596C59.814 26.2272 60.1403 26.5589 60.655 26.7546C61.1661 26.9504 61.6391 26.9286 62.0741 26.6894C62.3604 26.5299 62.6196 26.2852 62.8516 25.9554C63.0038 25.727 63.1778 25.4026 63.3736 24.9821C63.8375 23.9672 64.7292 21.7597 66.0487 18.3596C67.1252 15.5975 68.0967 13.4245 68.963 11.8404C69.8728 12.0797 70.6975 12.2537 71.4369 12.3624C72.3322 12.4893 73.1714 12.531 73.9543 12.4875C74.8352 12.4403 75.6634 12.2827 76.4391 12.0144C77.2728 11.7244 78.0014 11.3203 78.6249 10.8019C79.1976 10.3235 79.6924 9.74532 80.1092 9.06748C80.5007 8.42227 80.8016 7.71544 81.0118 6.94698C81.2257 6.2039 81.3054 5.49888 81.251 4.83192C81.1967 4.06709 80.9683 3.42006 80.5659 2.89084Z" fill="#0A0A0A"/>
<path d="M66.9076 79.6965C66.5995 78.986 66.2679 78.3263 65.9127 77.7173C65.0101 76.1659 63.8393 74.7323 62.4002 73.4165C61.0663 72.2022 59.5457 71.1275 57.8384 70.1923C56.3052 69.3586 54.5997 68.6209 52.722 67.9793C51.1344 67.4392 49.3365 66.9408 47.3284 66.4841C44.4467 65.828 41.7806 65.4039 39.3303 65.2118C36.8872 65.0161 34.4368 65.0251 31.9792 65.239C31.16 65.3115 30.4767 65.4003 29.9294 65.5054C29.1899 65.6504 28.5357 65.8534 27.9666 66.1144C27.5751 66.2884 27.1619 66.5185 26.7269 66.8049C26.4224 67.0043 26.0346 67.2798 25.5633 67.6314C22.9716 69.5924 20.543 71.7401 18.2775 74.0744C16.0084 76.4197 13.9386 78.9153 12.0683 81.5614C7.39228 88.1694 5.55995 94.1394 6.57126 99.4715C7.12223 102.382 8.51234 105.066 10.7416 107.524C12.7968 109.786 15.307 111.593 18.2721 112.945C19.0804 113.315 19.9304 113.655 20.8221 113.967C22.7288 114.63 24.8239 115.161 27.1075 115.56C29.4854 115.977 32.5664 116.31 36.3507 116.561C38.5219 116.706 40.26 116.769 41.565 116.751C43.4788 116.725 45.2006 116.548 46.7303 116.218C47.4299 116.066 48.2038 115.856 49.052 115.587C49.6029 115.413 50.3623 115.156 51.3301 114.815C53.2223 114.141 54.7447 113.563 55.8974 113.081C57.543 112.392 59.0002 111.678 60.2689 110.938C63.4297 109.097 65.7894 106.908 67.3481 104.37C68.1926 102.997 68.8324 101.46 69.2674 99.7597C69.6661 98.1937 69.8818 96.5354 69.9144 94.7846C69.9434 93.2224 69.8274 91.555 69.5664 89.7824C69.3489 88.3071 69.0137 86.6669 68.5606 84.8618C68.2053 83.4336 67.8483 82.2103 67.4894 81.1917C67.3046 80.6697 67.1106 80.1713 66.9076 79.6965ZM64.0912 82.4749C64.3232 83.1491 64.5842 84.0317 64.8741 85.1228C65.3164 86.8047 65.6462 88.2564 65.8637 89.4779C66.1501 91.0729 66.3023 92.5518 66.3204 93.9147C66.3422 95.4842 66.1918 96.9649 65.8692 98.3569C65.5139 99.8829 64.963 101.253 64.2162 102.467C62.9186 104.573 60.8669 106.469 58.0614 108.155C55.2522 109.84 52.3741 110.949 49.4271 111.482C49.235 111.515 49.1244 111.531 49.0954 111.531C44.1911 112.488 38.5002 112.533 32.0227 111.667C23.1637 110.482 16.534 107.359 12.1335 102.299C10.3247 99.5041 9.91694 96.5934 10.9101 93.5667C11.8997 90.54 13.3641 87.6782 15.3034 84.9814C17.2426 82.2809 19.0061 79.9013 20.5938 77.8424C22.1778 75.7799 23.6313 74.1415 24.9544 72.9272C26.2774 71.7092 27.1655 70.9498 27.6186 70.649C28.2239 70.2394 28.8093 69.9168 29.3748 69.6812C30.0998 69.3767 30.9226 69.1574 31.8433 69.0233C32.5465 68.9218 33.4019 68.8602 34.4096 68.8384C39.2306 68.7188 44.0679 69.3078 48.9215 70.6055C52.0968 71.4537 54.8027 72.5574 57.0392 73.9167C59.7541 75.566 61.746 77.5741 63.0146 79.9411C63.3409 80.5537 63.6453 81.2442 63.9281 82.0127C63.9825 82.1613 64.0368 82.3154 64.0912 82.4749Z" fill="#0A0A0A"/>
<path d="M64.8741 85.1228C64.5841 84.0317 64.3231 83.1491 64.0911 82.4749C64.0368 82.3154 63.9824 82.1614 63.928 82.0127C63.6453 81.2443 63.3408 80.5538 63.0146 79.9412C61.7459 77.5742 59.7541 75.5661 57.0391 73.9168C54.8026 72.5575 52.0967 71.4537 48.9214 70.6055C44.0678 69.3079 39.2305 68.7188 34.4096 68.8384C33.4019 68.8602 32.5464 68.9218 31.8432 69.0233C30.9225 69.1574 30.0997 69.3767 29.3747 69.6812C28.8093 69.9168 28.2239 70.2394 27.6185 70.649C27.1654 70.9499 26.2774 71.7093 24.9543 72.9272C23.6313 74.1415 22.1777 75.7799 20.5937 77.8424C19.006 79.9013 17.2426 82.281 15.3033 84.9814C13.364 87.6783 11.8996 90.54 10.9101 93.5667C9.91687 96.5934 10.3247 99.5041 12.1334 102.299C16.5339 107.359 23.1637 110.482 32.0226 111.667C38.5001 112.533 44.191 112.488 49.0954 111.531C49.1244 111.531 49.2349 111.515 49.4271 111.482C52.374 110.949 55.2521 109.84 58.0613 108.155C60.8669 106.469 62.9185 104.573 64.2162 102.467C64.9629 101.253 65.5139 99.8829 65.8691 98.3569C66.1917 96.965 66.3421 95.4843 66.3204 93.9147C66.3022 92.5518 66.15 91.0729 65.8637 89.478C65.6462 88.2564 65.3163 86.8047 64.8741 85.1228Z" fill="white"/>
<path d="M56.5984 59.1291C55.8929 59.0325 55.3821 59.4606 55.0659 60.4134C54.752 61.3613 55.3133 62.0611 56.7498 62.5128C58.1847 62.9695 59.0729 63.2483 59.4147 63.3492C60.2811 63.6008 61.2579 63.8226 62.3451 64.0147C63.073 64.141 64.0642 64.2858 65.3185 64.449C72.0674 65.3178 78.8808 65.9054 85.7587 66.2117C88.498 66.3353 90.911 66.3887 92.9978 66.3719C95.5913 66.3576 97.9986 66.2368 100.22 66.0096C100.236 66.0086 100.251 66.0062 100.265 66.0021C100.27 66.0165 100.274 66.0284 100.28 66.0378C100.394 66.2814 100.564 66.5892 100.789 66.9613C101.458 68.078 102.1 68.9445 102.716 69.5609C103.567 70.414 104.486 70.9638 105.47 71.2104C105.844 71.3014 106.425 71.3678 107.213 71.4095C107.582 71.4277 107.86 71.4356 108.047 71.4332C108.359 71.4303 108.636 71.4074 108.878 71.3645C109.373 71.2734 109.933 71.0552 110.558 70.7099C110.912 70.5114 111.441 70.2024 112.145 69.783C112.556 69.5602 112.763 69.4479 112.767 69.4461C113.001 69.3079 113.19 69.1682 113.335 69.0269C113.693 68.6675 113.944 68.133 114.09 67.4235C114.281 66.4955 114.277 65.5289 114.077 64.5239C113.891 63.5781 113.545 62.6674 113.04 61.7915C112.324 60.5557 111.45 59.6487 110.417 59.0704C109.851 58.7597 109.183 58.5221 108.412 58.3576C107.877 58.2465 107.165 58.1526 106.278 58.0759C105.945 58.0492 105.682 58.0347 105.489 58.0326C105.198 58.0279 104.937 58.0458 104.705 58.0864C104.413 58.137 104.102 58.2357 103.772 58.3824C103.542 58.4846 103.253 58.6357 102.904 58.8355C102.415 59.1195 102.029 59.3718 101.746 59.5922C101.351 59.9018 101.04 60.2302 100.813 60.5774C100.626 60.872 100.47 61.2225 100.343 61.629C100.288 61.8026 100.233 62.0094 100.179 62.2495C99.9665 62.2874 99.6572 62.3454 99.2509 62.4235C98.1348 62.6405 96.9002 62.7854 95.547 62.8583C94.5338 62.912 93.2863 62.9286 91.8045 62.9081C88.3735 62.8673 84.5223 62.687 80.2508 62.3671C77.6716 62.1729 73.8299 61.8305 68.7258 61.34C67.0592 61.1788 65.8044 61.0368 64.9614 60.9137C63.5717 60.711 62.3393 60.4475 61.2642 60.1233C61.0022 60.0448 59.447 59.7135 56.5984 59.1291ZM105.803 67.3807C105.29 67.0394 104.814 66.5726 104.375 65.9804C103.93 65.3706 103.65 64.806 103.537 64.2864C103.466 63.9591 103.459 63.6397 103.515 63.3282C103.572 62.9986 103.694 62.7117 103.88 62.4675C104.407 61.7901 105.369 61.5233 106.767 61.6671C107.477 61.7407 108.033 61.8824 108.432 62.0921C108.939 62.3574 109.376 62.7817 109.743 63.365C110.032 63.826 110.284 64.4044 110.499 65.1002C110.582 65.378 110.631 65.609 110.645 65.7933C110.662 66.0504 110.621 66.2703 110.521 66.4529C110.455 66.5703 110.355 66.6839 110.221 66.7936C110.139 66.8616 110.012 66.9491 109.839 67.0562C109.403 67.3227 109.049 67.5146 108.778 67.6322C108.371 67.8109 107.989 67.9103 107.633 67.9303C107.02 67.96 106.409 67.7768 105.803 67.3807Z" fill="#0A0A0A"/>
<path d="M104.375 65.9804C104.814 66.5726 105.29 67.0393 105.803 67.3806C106.409 67.7767 107.02 67.96 107.633 67.9303C107.989 67.9103 108.371 67.8109 108.778 67.6321C109.049 67.5146 109.403 67.3226 109.839 67.0562C110.011 66.9491 110.139 66.8616 110.221 66.7936C110.355 66.6838 110.454 66.5703 110.521 66.4529C110.621 66.2703 110.662 66.0504 110.645 65.7933C110.631 65.609 110.582 65.3779 110.498 65.1002C110.284 64.4044 110.032 63.826 109.743 63.365C109.376 62.7817 108.939 62.3574 108.432 62.0921C108.032 61.8824 107.477 61.7407 106.767 61.667C105.369 61.5232 104.407 61.79 103.88 62.4674C103.694 62.7117 103.572 62.9986 103.515 63.3281C103.459 63.6397 103.466 63.9591 103.537 64.2864C103.65 64.806 103.93 65.3706 104.375 65.9804Z" fill="white"/>
<path d="M66.1138 58.5078C65.9145 58.1199 65.5937 57.7212 65.1514 57.3116C62.4908 54.8576 59.0654 53.047 54.8752 51.8798C53.1425 51.3977 51.2286 51.0153 49.1335 50.7326C47.4842 50.5115 45.5359 50.332 43.2885 50.1943C41.284 50.0711 39.5568 50.0167 38.1069 50.0312C36.2329 50.0457 34.5111 50.1707 32.9416 50.4064C31.1401 50.6782 29.4654 51.1059 27.9176 51.6895C26.2212 52.3311 24.7097 53.1485 23.383 54.1417C21.9476 55.2183 20.7152 56.5123 19.6857 58.0238C18.6601 59.535 17.7775 61.4996 17.0378 63.9177C16.2978 66.3367 15.9354 68.2941 15.9504 69.7899C15.969 71.2857 16.5762 72.8625 17.7719 74.5203C18.9715 76.1808 20.6063 77.9425 22.6762 79.8052C24.0935 81.0847 25.6685 82.1595 27.4011 83.0294C28.0608 83.3557 28.7423 83.6547 29.4455 83.9266C33.9366 85.6556 39.1545 86.1667 45.0991 85.4599C47.0819 85.2242 48.8997 84.8781 50.5526 84.4214C52.2708 83.9429 53.9418 83.3067 55.5657 82.5129C57.8638 81.382 59.8556 80.0046 61.5412 78.3807C63.3934 76.6009 64.7509 74.6362 65.6136 72.4867C66.2697 70.8556 66.6267 69.1447 66.6847 67.354C66.6884 67.2707 66.6902 67.1873 66.6902 67.1039C66.7192 65.4003 66.4727 63.7528 65.9507 62.1615C65.8528 61.8607 65.7912 61.6468 65.7658 61.52C65.7187 61.2735 65.7205 61.0578 65.7713 60.8729C65.8039 60.7461 65.88 60.5829 65.9996 60.3836C66.1374 60.1588 66.2244 59.9975 66.2606 59.8997C66.4237 59.4756 66.3748 59.0116 66.1138 58.5078ZM60.1384 58.1761C60.5117 58.5603 60.8488 59.0497 61.1497 59.6441C61.3454 60.0284 61.5774 60.5811 61.8456 61.3025C62.2987 62.5168 62.6213 63.5045 62.8135 64.2657C63.0962 65.3749 63.2285 66.3953 63.2104 67.3269C63.1995 67.809 63.1506 68.2929 63.0636 68.7786C62.9077 69.6087 62.6377 70.4424 62.2534 71.2797C61.7061 72.4722 60.9503 73.6249 59.9861 74.7377C59.0908 75.7744 58.0867 76.7078 56.9739 77.5379C55.8611 78.3607 54.6776 79.053 53.4234 79.6149C52.4085 80.068 51.283 80.4595 50.047 80.7893C49.0175 81.0648 47.8485 81.3131 46.54 81.5342C43.7598 81.9982 41.1934 82.1976 38.8409 82.1323C36.0933 82.0489 33.5832 81.6049 31.3104 80.8002C28.9181 79.9484 26.8284 78.6924 25.0414 77.0322C24.9471 76.9452 24.8547 76.8564 24.7641 76.7658C22.7994 74.8519 21.509 72.6915 20.8928 70.2847C20.5521 68.958 20.8058 67.1692 21.654 64.9182C22.5022 62.6672 23.5534 60.9835 24.8076 59.867C26.0617 58.747 26.4442 57.993 25.9548 57.6052C25.4655 57.2173 25.8189 56.6899 27.0151 56.023C28.146 55.3922 29.4491 54.8975 30.9244 54.5386C32.1061 54.2486 33.4944 54.0257 35.0893 53.8698C38.1087 53.5726 41.139 53.5382 44.1802 53.7665C47.2214 53.9949 50.2137 54.4806 53.157 55.2237C54.7447 55.6224 56.1656 56.0683 57.4198 56.5612C57.9997 56.7896 58.4836 57.0125 58.8715 57.23C59.3753 57.5164 59.7976 57.8317 60.1384 58.1761Z" fill="#0A0A0A"/>
<path d="M61.1496 59.6442C60.8488 59.0497 60.5117 58.5603 60.1383 58.1761C59.7976 57.8318 59.3753 57.5164 58.8715 57.23C58.4836 57.0126 57.9997 56.7896 57.4197 56.5613C56.1656 56.0683 54.7446 55.6225 53.157 55.2237C50.2137 54.4806 47.2214 53.9949 44.1802 53.7666C41.139 53.5382 38.1087 53.5726 35.0892 53.8699C33.4943 54.0257 32.106 54.2487 30.9243 54.5386C29.4491 54.8975 28.1459 55.3923 27.015 56.023C25.8188 56.69 25.4654 57.2174 25.9548 57.6052C26.4441 57.9931 26.0617 58.747 24.8075 59.8671C23.5533 60.9835 22.5022 62.6672 21.654 64.9182C20.8058 67.1692 20.552 68.958 20.8927 70.2847C21.509 72.6916 22.7994 74.852 24.764 76.7658C24.8546 76.8565 24.9471 76.9453 25.0413 77.0323C26.8283 78.6924 28.918 79.9484 31.3104 80.8002C33.5831 81.6049 36.0933 82.049 38.8409 82.1323C41.1934 82.1976 43.7597 81.9982 46.5399 81.5342C47.8485 81.3131 49.0175 81.0648 50.0469 80.7894C51.283 80.4595 52.4085 80.068 53.4234 79.6149C54.6776 79.0531 55.8611 78.3607 56.9739 77.5379C58.0867 76.7078 59.0908 75.7745 59.9861 74.7378C60.9503 73.625 61.706 72.4723 62.2534 71.2797C62.6376 70.4424 62.9077 69.6087 63.0635 68.7786C63.1505 68.2929 63.1995 67.809 63.2103 67.3269C63.2285 66.3953 63.0961 65.3749 62.8134 64.2658C62.6213 63.5046 62.2987 62.5168 61.8456 61.3025C61.5774 60.5812 61.3454 60.0284 61.1496 59.6442Z" fill="white"/>
<path d="M186.505 103.194C186.505 88.6989 181.358 76.3255 171.063 66.0738C160.771 55.8251 148.347 50.7008 133.791 50.7008C119.235 50.7008 106.81 55.8251 96.5152 66.0738C86.2235 76.3255 81.0776 88.6989 81.0776 103.194C81.0776 117.689 86.2235 130.061 96.5152 140.31C106.81 150.562 119.235 155.687 133.791 155.687C148.347 155.687 160.771 150.562 171.063 140.31C181.358 130.061 186.505 117.689 186.505 103.194Z" fill="white"/>
<path d="M186.505 103.194C186.505 117.689 181.358 130.061 171.063 140.31C160.771 150.562 148.347 155.687 133.791 155.687C119.235 155.687 106.81 150.562 96.5152 140.31C86.2235 130.061 81.0776 117.689 81.0776 103.194C81.0776 88.6989 86.2235 76.3255 96.5152 66.0738C106.81 55.8251 119.235 50.7008 133.791 50.7008C148.347 50.7008 160.771 55.8251 171.063 66.0738C181.358 76.3255 186.505 88.6989 186.505 103.194Z" stroke="#0A0A0A" stroke-width="4" stroke-linecap="round" stroke-linejoin="round"/>
<path d="M190 103.194C190 88.6989 184.82 76.3255 174.459 66.0739C164.102 55.8252 151.599 50.7008 136.95 50.7008C122.301 50.7008 109.796 55.8252 99.4356 66.0739C89.0781 76.3255 83.8994 88.6989 83.8994 103.194C83.8994 117.689 89.0781 130.061 99.4356 140.31C109.796 150.562 122.301 155.687 136.95 155.687C151.599 155.687 164.102 150.562 174.459 140.31C184.82 130.061 190 117.689 190 103.194ZM167.826 72.6421C176.356 81.0793 180.62 91.2633 180.62 103.194C180.62 115.128 176.356 125.312 167.826 133.746C159.302 142.186 149.01 146.406 136.95 146.406C124.892 146.406 114.6 142.186 106.074 133.746C97.5469 125.312 93.2835 115.128 93.2835 103.194C93.2835 91.2633 97.5469 81.0793 106.074 72.6421C114.6 64.205 124.892 59.9864 136.95 59.9864C149.01 59.9864 159.302 64.205 167.826 72.6421ZM180.62 103.194C180.62 91.2633 176.356 81.0793 167.826 72.6421C159.302 64.205 149.01 59.9864 136.95 59.9864C124.892 59.9864 114.6 64.205 106.074 72.6421C97.5469 81.0793 93.2835 91.2633 93.2835 103.194C93.2835 115.128 97.5469 125.312 106.074 133.746C114.6 142.186 124.892 146.406 136.95 146.406C149.01 146.406 159.302 142.186 167.826 133.746C176.356 125.312 180.62 115.128 180.62 103.194Z" fill="white"/>
<path d="M180.62 103.194C180.62 115.128 176.356 125.312 167.826 133.746C159.302 142.186 149.01 146.406 136.95 146.406C124.892 146.406 114.6 142.186 106.074 133.746C97.5469 125.312 93.2835 115.128 93.2835 103.194C93.2835 91.2633 97.5469 81.0793 106.074 72.6421C114.6 64.205 124.892 59.9864 136.95 59.9864C149.01 59.9864 159.302 64.205 167.826 72.6421C176.356 81.0793 180.62 91.2633 180.62 103.194ZM190 103.194C190 117.689 184.82 130.061 174.459 140.31C164.102 150.562 151.599 155.687 136.95 155.687C122.301 155.687 109.796 150.562 99.4356 140.31C89.0781 130.061 83.8994 117.689 83.8994 103.194C83.8994 88.6989 89.0781 76.3255 99.4356 66.0739C109.796 55.8252 122.301 50.7008 136.95 50.7008C151.599 50.7008 164.102 55.8252 174.459 66.0739C184.82 76.3255 190 88.6989 190 103.194Z" stroke="#0A0A0A" stroke-width="4" stroke-linecap="round" stroke-linejoin="round"/>
<path d="M79.9297 41.6851C81.3253 39.1586 81.6279 36.5035 80.8377 33.7196C80.0149 30.8307 78.2279 28.8044 75.4767 27.6409C73.7585 26.9159 71.9914 26.7111 70.1754 27.0265C67.2901 27.4977 64.9974 28.9512 63.2974 31.3871C61.601 33.8157 61.0391 36.4781 61.6118 39.3743C62.1773 42.2198 63.6834 44.42 66.1301 45.9751C68.566 47.5265 71.1632 47.8056 73.9216 46.8124C76.575 45.8482 78.5777 44.1391 79.9297 41.6851ZM74.6448 30.3812C77.3235 31.9 78.5595 34.2017 78.3529 37.2864C78.1536 40.237 76.7326 42.3756 74.0902 43.7023C71.31 45.1015 68.7762 44.7626 66.489 42.6856C64.2308 40.6339 63.6145 38.1655 64.6404 35.2801C65.6082 32.5507 67.4459 30.6603 70.1537 29.6091C71.7413 29.33 73.2383 29.5874 74.6448 30.3812ZM72.3557 34.1329C72.2433 34.2162 72.1382 34.3268 72.0404 34.4645C71.9679 34.5697 71.8917 34.702 71.812 34.8615C71.7214 35.0499 71.6579 35.2131 71.6217 35.3508C71.5782 35.5284 71.5619 35.7677 71.5728 36.0685C71.5764 36.2244 71.5854 36.3531 71.5999 36.4546C71.6217 36.5959 71.6543 36.721 71.6978 36.8297C71.8247 37.1451 72.0965 37.4278 72.5134 37.6779C72.7853 37.841 73.0372 37.9407 73.2692 37.977C73.4721 38.0096 73.6896 38.0023 73.9216 37.9552C74.1355 37.9117 74.3367 37.8392 74.5251 37.7377C74.7173 37.6362 74.8876 37.5112 75.0362 37.3626C75.2247 37.1777 75.3752 36.9584 75.4875 36.7047C75.5963 36.4618 75.6633 36.2044 75.6887 35.9326C75.7177 35.639 75.6923 35.3562 75.6126 35.0844C75.5292 34.7908 75.3915 34.5461 75.1994 34.3504C75.0689 34.2162 74.9166 34.1057 74.7426 34.0187C74.5759 33.9317 74.3965 33.8701 74.2044 33.8338C73.86 33.765 73.483 33.7722 73.0734 33.8556C72.7653 33.9136 72.5261 34.006 72.3557 34.1329Z" fill="#0A0A0A"/>
<path d="M78.3529 37.2865C78.5595 34.2018 77.3235 31.9 74.6448 30.3813C73.2384 29.5874 71.7413 29.3301 70.1537 29.6092C67.446 30.6604 65.6082 32.5507 64.6404 35.2802C63.6146 38.1655 64.2308 40.634 66.489 42.6856C68.7762 44.7626 71.31 45.1015 74.0902 43.7024C76.7327 42.3757 78.1536 40.2371 78.3529 37.2865ZM72.0404 34.4646C72.1382 34.3268 72.2434 34.2163 72.3557 34.1329C72.5261 34.0061 72.7653 33.9136 73.0734 33.8556C73.483 33.7723 73.86 33.765 74.2044 33.8339C74.3965 33.8701 74.5759 33.9317 74.7426 34.0187C74.9166 34.1057 75.0689 34.2163 75.1994 34.3504C75.3915 34.5461 75.5292 34.7908 75.6126 35.0844C75.6923 35.3563 75.7177 35.639 75.6887 35.9326C75.6633 36.2045 75.5963 36.4618 75.4875 36.7047C75.3752 36.9584 75.2247 37.1777 75.0363 37.3626C74.8876 37.5112 74.7173 37.6363 74.5252 37.7378C74.3367 37.8393 74.1355 37.9118 73.9216 37.9553C73.6896 38.0024 73.4722 38.0096 73.2692 37.977C73.0372 37.9408 72.7853 37.8411 72.5134 37.678C72.0966 37.4278 71.8247 37.1451 71.6978 36.8298C71.6543 36.721 71.6217 36.596 71.6 36.4546C71.5855 36.3531 71.5764 36.2244 71.5728 36.0686C71.5619 35.7677 71.5782 35.5285 71.6217 35.3508C71.658 35.2131 71.7214 35.05 71.812 34.8615C71.8918 34.702 71.9679 34.5697 72.0404 34.4646Z" fill="white"/>
<path d="M76.9501 33.8339C76.8341 33.6273 76.7036 33.4043 76.5586 33.1651C76.3411 32.8207 76.1454 32.5362 75.9714 32.3115C75.7394 32.0106 75.5002 31.7641 75.2537 31.572C74.5215 31.0065 73.5066 30.7129 72.2089 30.6912C71.3534 30.6731 70.6285 30.78 70.034 31.012C69.8709 31.0736 69.7114 31.1479 69.5555 31.2349C69.2112 31.4161 68.8759 31.6517 68.5497 31.9417C68.1183 32.326 67.745 32.7627 67.4296 33.2521C67.1215 33.7487 66.8949 34.2707 66.75 34.818C66.5615 35.4995 66.5053 36.2081 66.5814 36.9439C66.6575 37.658 66.8496 38.3504 67.1577 39.0209C67.2955 39.3218 67.4514 39.6063 67.6253 39.8746C67.8755 40.2516 68.1582 40.5941 68.4735 40.9022C69.0608 41.4677 69.7114 41.8483 70.4255 42.044C70.9003 42.1854 71.4042 42.2416 71.937 42.2126C72.4372 42.1872 72.9375 42.0857 73.4377 41.9081C74.3221 41.6108 75.1921 41.0889 76.0475 40.3422C76.4281 40.0087 76.7362 39.6807 76.9719 39.358C77.1277 39.1442 77.251 38.9339 77.3416 38.7273C77.4902 38.3902 77.5844 37.9969 77.6243 37.5475C77.6569 37.2031 77.6588 36.7935 77.6298 36.3187C77.5826 35.7496 77.5083 35.2838 77.4068 34.9213C77.3198 34.6059 77.1676 34.2435 76.9501 33.8339Z" fill="#0A0A0A"/>
<path d="M73.3126 50.7653C76.3575 41.9353 74.594 34.2163 68.0223 27.6083C61.5049 21.0619 53.6355 18.2799 44.414 19.2622C37.8713 19.9618 32.2076 22.1294 27.4228 25.7651C22.6345 29.3971 19.3359 32.9186 17.5272 36.3295C15.7148 39.7405 15.1312 44.5143 15.7764 50.6511C16.418 56.7842 21.0523 61.5653 29.6793 64.9944C37.8205 68.2313 46.2319 68.8874 54.9132 66.9626C59.8284 65.8679 63.8628 63.8326 67.0164 60.8567C69.8002 58.2251 71.899 54.8613 73.3126 50.7653ZM50.9495 22.8616C60.3015 23.7896 66.6575 28.587 70.0177 37.2539C71.5401 41.1831 71.5383 45.0762 70.0123 48.9329C67.6054 55.0298 63.6925 59.385 58.2734 61.9985C56.0985 63.046 53.6844 63.8127 51.0311 64.2984C42.3642 65.8933 34.3353 64.331 26.9444 59.6115C18.9952 54.5332 16.8965 47.7005 20.6481 39.1134C21.4999 37.1596 22.4986 35.3853 23.644 33.7904C27.4391 28.4837 32.8365 25.1579 39.8359 23.8132C43.4897 22.8236 47.1942 22.5064 50.9495 22.8616Z" fill="#0A0A0A"/>
<path d="M70.0178 37.2539C66.6576 28.587 60.3015 23.7896 50.9496 22.8616C47.1943 22.5064 43.4898 22.8236 39.836 23.8131C32.8365 25.1579 27.4392 28.4837 23.6441 33.7904C22.4986 35.3853 21.5 37.1596 20.6482 39.1134C16.8965 47.7005 18.9953 54.5332 26.9444 59.6115C34.3354 64.331 42.3643 65.8933 51.0312 64.2984C53.6845 63.8127 56.0986 63.046 58.2735 61.9985C63.6925 59.385 67.6055 55.0298 70.0124 48.9329C71.5384 45.0761 71.5402 41.1831 70.0178 37.2539Z" fill="white"/>
<path d="M34.2248 33.4859C34.0617 33.5475 33.9022 33.6218 33.7463 33.7088C33.4019 33.89 33.0667 34.1257 32.7404 34.4156C32.3091 34.7999 31.9357 35.2367 31.6204 35.726C31.3123 36.2226 31.0857 36.7446 30.9407 37.2919C30.7522 37.9734 30.696 38.682 30.7722 39.4178C30.8483 40.1319 31.0404 40.8243 31.3485 41.4948C31.4863 41.7957 31.6421 42.0803 31.8161 42.3485C32.0662 42.7255 32.3489 43.068 32.6643 43.3761C33.2515 43.9416 33.9022 44.3222 34.6162 44.5179C35.0911 44.6593 35.5949 44.7155 36.1278 44.6865C36.628 44.6611 37.1282 44.5596 37.6284 44.382C38.5129 44.0848 39.3828 43.5628 40.2383 42.8161C40.6189 42.4826 40.927 42.1546 41.1626 41.832C41.3185 41.6181 41.4417 41.4079 41.5323 41.2012C41.681 40.8641 41.7752 40.4708 41.8151 40.0214C41.8477 39.677 41.8495 39.2674 41.8205 38.7926C41.7734 38.2235 41.6991 37.7577 41.5976 37.3952C41.5106 37.0799 41.3584 36.7174 41.1409 36.3078C41.0249 36.1012 40.8944 35.8782 40.7494 35.639C40.5319 35.2946 40.3362 35.0101 40.1622 34.7854C39.9302 34.4845 39.691 34.238 39.4445 34.0459C38.7123 33.4804 37.6973 33.1868 36.3996 33.1651C35.5442 33.147 34.8192 33.2539 34.2248 33.4859Z" fill="#0A0A0A"/>
<path d="M46.4257 37.1397C46.3061 35.233 45.6156 33.5729 44.3542 32.1592C43.1471 30.8144 41.6664 29.91 39.912 29.4461C38.1757 28.9785 36.4177 28.8897 34.6379 29.1797C32.7422 29.4769 31.0729 30.2399 29.6303 31.4687C28.1876 32.6903 27.2144 34.2072 26.7105 36.0196C26.3299 37.3862 26.1378 38.7817 26.1342 40.2063C26.1305 42.0223 26.7214 43.6099 27.9067 44.9692C28.5882 45.8319 29.3693 46.6022 30.2501 47.28C31.7472 48.4218 33.4472 48.9384 35.3502 48.8296C36.0897 48.797 36.82 48.7299 37.5414 48.6284C39.3973 48.3928 41.061 47.7005 42.5327 46.5514C43.9536 45.435 44.9885 44.034 45.6373 42.3485C46.2789 40.6775 46.5417 38.9412 46.4257 37.1397ZM41.9672 33.6327C42.8988 34.5063 43.4498 35.572 43.6201 36.8298C43.8521 38.5697 43.602 40.2534 42.8698 41.8809C42.0687 43.6607 40.7221 44.8677 38.83 45.5021C37.0792 46.0893 35.3049 46.2306 33.507 45.9262C33.3511 45.8718 33.2007 45.8084 33.0557 45.7359C31.8124 45.1196 30.763 44.2515 29.9076 43.1315C29.6973 42.8523 29.5324 42.5606 29.4128 42.2561C28.9126 40.9838 28.7549 39.6426 28.9398 38.2326C29.1065 36.9385 29.5723 35.7586 30.3371 34.693C31.41 33.1923 32.8618 32.2952 34.6923 32.0015C35.4064 31.8747 36.1223 31.8131 36.84 31.8167C38.8191 31.6898 40.5282 32.2952 41.9672 33.6327ZM38.27 39.2765C38.3787 39.0336 38.4458 38.7763 38.4711 38.5044C38.5001 38.2108 38.4748 37.9281 38.395 37.6562C38.3116 37.3626 38.1739 37.1179 37.9818 36.9222C37.8513 36.7881 37.6991 36.6775 37.5251 36.5905C37.3583 36.5035 37.1789 36.4419 36.9868 36.4057C36.6424 36.3368 36.2655 36.344 35.8559 36.4274C35.5477 36.4854 35.3085 36.5778 35.1381 36.7047C35.0258 36.7881 34.9207 36.8986 34.8228 37.0364C34.7503 37.1415 34.6742 37.2738 34.5944 37.4333C34.5038 37.6218 34.4404 37.7849 34.4041 37.9226C34.3606 38.1003 34.3443 38.3395 34.3552 38.6403C34.3588 38.7962 34.3679 38.9249 34.3824 39.0264C34.4041 39.1678 34.4367 39.2928 34.4802 39.4016C34.6071 39.7169 34.879 39.9996 35.2958 40.2498C35.5677 40.4129 35.8196 40.5125 36.0516 40.5488C36.2546 40.5814 36.4721 40.5742 36.7041 40.527C36.9179 40.4835 37.1191 40.4111 37.3076 40.3096C37.4997 40.2081 37.6701 40.083 37.8187 39.9344C38.0072 39.7495 38.1576 39.5302 38.27 39.2765Z" fill="#0A0A0A"/>
<path d="M43.6202 36.8297C43.4498 35.5719 42.8988 34.5062 41.9673 33.6327C40.5282 32.2951 38.8191 31.6898 36.84 31.8167C36.1223 31.813 35.4064 31.8747 34.6923 32.0015C32.8618 32.2951 31.4101 33.1923 30.3371 34.6929C29.5723 35.7586 29.1065 36.9385 28.9398 38.2325C28.7549 39.6426 28.9126 40.9837 29.4128 42.256C29.5324 42.5605 29.6974 42.8523 29.9076 43.1314C30.7631 44.2515 31.8124 45.1196 33.0557 45.7358C33.2007 45.8083 33.3512 45.8718 33.507 45.9261C35.3049 46.2306 37.0792 46.0893 38.83 45.502C40.7222 44.8677 42.0688 43.6606 42.8698 41.8809C43.602 40.2533 43.8522 38.5696 43.6202 36.8297ZM38.4712 38.5044C38.4458 38.7762 38.3787 39.0336 38.27 39.2765C38.1576 39.5302 38.0072 39.7495 37.8187 39.9344C37.6701 40.083 37.4997 40.208 37.3076 40.3095C37.1191 40.411 36.9179 40.4835 36.7041 40.527C36.4721 40.5741 36.2546 40.5814 36.0516 40.5488C35.8196 40.5125 35.5677 40.4128 35.2958 40.2497C34.879 39.9996 34.6071 39.7169 34.4803 39.4015C34.4368 39.2928 34.4042 39.1677 34.3824 39.0264C34.3679 38.9249 34.3588 38.7962 34.3552 38.6403C34.3443 38.3395 34.3607 38.1002 34.4042 37.9226C34.4404 37.7849 34.5038 37.6218 34.5945 37.4333C34.6742 37.2738 34.7503 37.1415 34.8228 37.0364C34.9207 36.8986 35.0258 36.7881 35.1382 36.7047C35.3085 36.5778 35.5478 36.4854 35.8559 36.4274C36.2655 36.344 36.6425 36.3368 36.9868 36.4056C37.1789 36.4419 37.3584 36.5035 37.5251 36.5905C37.6991 36.6775 37.8513 36.7881 37.9818 36.9222C38.1739 37.1179 38.3117 37.3626 38.395 37.6562C38.4748 37.928 38.5002 38.2108 38.4712 38.5044Z" fill="white"/>
<path d="M64.8741 40.1464C64.6494 40.1392 64.4392 40.1827 64.2434 40.2769C63.9861 40.4038 63.7486 40.6267 63.5312 40.9457C63.3028 41.3444 63.1324 41.6398 63.0201 41.832C62.8098 42.1981 62.451 42.6965 61.9435 43.3272C61.755 43.5628 61.6082 43.735 61.5031 43.8437C61.3327 44.025 61.1624 44.1681 60.992 44.2733C60.7383 44.4291 60.432 44.5361 60.0731 44.5941C59.8013 44.6375 59.4714 44.6539 59.0835 44.643C57.6409 44.6031 56.2453 44.3494 54.8969 43.8818C54.5054 43.7477 54.2336 43.6625 54.0813 43.6262C53.7696 43.5574 53.4941 43.5501 53.2549 43.6045C52.9105 43.6879 52.6387 43.8945 52.4393 44.2243C52.2363 44.5614 52.1874 44.8967 52.2925 45.2302C52.4592 45.7739 52.9903 46.1908 53.8856 46.4808C54.5417 46.6982 55.3917 46.8994 56.4356 47.0843C57.0591 47.2003 57.5956 47.2818 58.045 47.329C58.6323 47.3906 59.1742 47.4087 59.6708 47.3833C60.8996 47.3145 61.9218 46.9864 62.7373 46.3992C63.0019 46.2107 63.2684 45.9751 63.5366 45.6924C63.7323 45.4785 63.9625 45.203 64.2271 44.8659C64.7527 44.1881 65.2221 43.5175 65.6353 42.8542C65.813 42.5678 65.9398 42.3322 66.0159 42.1473C66.1283 41.8755 66.1754 41.6217 66.1573 41.3861C66.1428 41.1686 66.0758 40.9638 65.9561 40.7717C65.8365 40.5796 65.6825 40.4292 65.494 40.3204C65.3055 40.2117 65.0989 40.1537 64.8741 40.1464Z" fill="#0A0A0A"/>
<path d="M34.203 33.4859C34.0399 33.5475 33.8804 33.6218 33.7245 33.7088C33.3802 33.89 33.0449 34.1257 32.7187 34.4156C32.2873 34.7999 31.914 35.2367 31.5986 35.726C31.2905 36.2226 31.0639 36.7446 30.919 37.2919C30.7305 37.9734 30.6743 38.682 30.7504 39.4178C30.8265 40.1319 31.0186 40.8243 31.3267 41.4948C31.4645 41.7957 31.6204 42.0803 31.7943 42.3485C32.0445 42.7255 32.3272 43.068 32.6425 43.3761C33.2298 43.9416 33.8804 44.3222 34.5945 44.5179C35.0693 44.6593 35.5732 44.7155 36.106 44.6865C36.6062 44.6611 37.1065 44.5596 37.6067 44.382C38.4911 44.0848 39.3611 43.5628 40.2165 42.8161C40.5971 42.4826 40.9052 42.1546 41.1409 41.832C41.2967 41.6181 41.42 41.4079 41.5106 41.2012C41.6592 40.8641 41.7534 40.4708 41.7933 40.0214C41.8259 39.677 41.8278 39.2674 41.7988 38.7926C41.7516 38.2235 41.6773 37.7577 41.5758 37.3952C41.4888 37.0799 41.3366 36.7174 41.1191 36.3078C41.0031 36.1012 40.8726 35.8782 40.7276 35.639C40.5101 35.2946 40.3144 35.0101 40.1404 34.7854C39.9084 34.4845 39.6692 34.238 39.4227 34.0459C38.6905 33.4804 37.6756 33.1868 36.3779 33.1651C35.5224 33.147 34.7975 33.2539 34.203 33.4859Z" fill="#0A0A0A"/>
<path d="M47.8165 71.443C47.2378 71.0279 46.5861 71.1678 45.8614 71.8626C45.141 72.5541 45.3104 73.4351 46.3696 74.5057C47.425 75.5798 48.0802 76.2413 48.3352 76.4901C48.9838 77.1174 49.7439 77.7699 50.6154 78.4477C51.2001 78.8994 52.0089 79.4904 53.0418 80.2208C58.6035 84.1419 64.3536 87.8445 70.2922 91.3286C72.6566 92.7175 74.7653 93.8921 76.6183 94.8522C78.9183 96.0511 81.1033 97.0689 83.1734 97.9056C83.1882 97.9124 83.2028 97.9173 83.2175 97.9204C83.2143 97.9351 83.2129 97.9478 83.2133 97.9587C83.2006 98.2275 83.2071 98.579 83.2326 99.0134C83.3019 100.313 83.4649 101.379 83.7215 102.212C84.076 103.364 84.6309 104.279 85.3864 104.957C85.6743 105.212 86.1569 105.542 86.8343 105.947C87.1526 106.136 87.3948 106.273 87.5608 106.358C87.8377 106.501 88.0934 106.61 88.3281 106.686C88.8083 106.836 89.4054 106.905 90.1194 106.892C90.5252 106.882 91.1373 106.856 91.9555 106.813C92.4232 106.809 92.6588 106.806 92.6624 106.806C92.934 106.793 93.1667 106.758 93.3606 106.701C93.8452 106.55 94.3173 106.195 94.7772 105.636C95.3799 104.904 95.8278 104.048 96.1211 103.066C96.3981 102.143 96.5178 101.176 96.48 100.165C96.4246 98.7381 96.0754 97.5277 95.4325 96.5339C95.077 95.9947 94.597 95.4723 93.9924 94.9669C93.5708 94.6185 92.9855 94.203 92.2366 93.7206C91.9549 93.5415 91.7291 93.4059 91.5592 93.3137C91.3042 93.1737 91.0649 93.0675 90.8412 92.9953C90.5589 92.9033 90.2377 92.8452 89.8779 92.8211C89.6271 92.8042 89.3006 92.8025 88.8985 92.8161C88.3335 92.8388 87.8744 92.8815 87.5211 92.9443C87.0272 93.0335 86.5987 93.1785 86.2356 93.3794C85.9332 93.5528 85.6311 93.7897 85.3293 94.09C85.1995 94.2177 85.0543 94.3749 84.8938 94.5617C84.6884 94.4961 84.3879 94.4029 83.9921 94.2821C82.9039 93.9525 81.7445 93.5039 80.514 92.9362C79.5929 92.5104 78.4821 91.9422 77.1815 91.2318C74.1667 89.5929 70.8455 87.6342 67.218 85.3559C65.0281 83.9792 61.7911 81.8817 57.5071 79.0635C56.1087 78.1424 55.0655 77.4305 54.3776 76.9279C53.2434 76.0994 52.2768 75.2907 51.4776 74.5017C51.2826 74.31 50.0623 73.2904 47.8165 71.443ZM87.4696 101.726C87.1757 101.185 86.9729 100.55 86.8612 99.821C86.7526 99.074 86.7694 98.4442 86.9116 97.9316C87.0023 97.6094 87.145 97.3235 87.3396 97.074C87.5447 96.8095 87.7865 96.6128 88.065 96.4837C88.8473 96.1308 89.8229 96.3445 90.9916 97.1246C91.5853 97.5217 92.0099 97.9062 92.2655 98.2784C92.5897 98.7498 92.7779 99.3292 92.8302 100.016C92.8703 100.559 92.8226 101.188 92.6872 101.904C92.6315 102.188 92.5667 102.415 92.4926 102.585C92.3881 102.82 92.249 102.996 92.0752 103.11C91.9616 103.183 91.8201 103.237 91.6508 103.271C91.5464 103.293 91.3929 103.311 91.1902 103.325C90.68 103.357 90.2775 103.361 89.983 103.339C89.5395 103.306 89.1556 103.216 88.8314 103.067C88.275 102.807 87.8211 102.36 87.4696 101.726Z" fill="#0A0A0A"/>
<path d="M86.8613 99.821C86.973 100.55 87.1758 101.185 87.4697 101.726C87.8211 102.36 88.2751 102.807 88.8315 103.067C89.1557 103.216 89.5395 103.306 89.9831 103.339C90.2776 103.361 90.68 103.357 91.1903 103.325C91.3929 103.311 91.5465 103.293 91.6509 103.271C91.8202 103.237 91.9616 103.183 92.0752 103.11C92.2491 102.995 92.3882 102.82 92.4927 102.585C92.5667 102.415 92.6316 102.188 92.6873 101.904C92.8227 101.188 92.8703 100.559 92.8302 100.016C92.778 99.3291 92.5898 98.7498 92.2656 98.2784C92.01 97.9062 91.5854 97.5216 90.9917 97.1246C89.8229 96.3445 88.8474 96.1308 88.065 96.4836C87.7865 96.6127 87.5447 96.8095 87.3397 97.0739C87.145 97.3235 87.0024 97.6094 86.9117 97.9316C86.7695 98.4441 86.7527 99.0739 86.8613 99.821Z" fill="white"/>
</svg>
