<svg width="172" height="172" viewBox="0 0 172 172" fill="none" xmlns="http://www.w3.org/2000/svg">
<rect width="172" height="172" rx="15" fill="#44C669"/>
<path d="M70.8055 22.5509C69.3797 21.9708 67.5625 21.8799 65.3539 22.2783C63.4109 22.6208 61.6077 23.1869 59.9443 23.9767C58.155 24.8294 56.6209 25.9057 55.3419 27.2057C53.7064 28.8761 52.3016 31.1406 51.1274 33.9992C49.7855 37.2911 48.821 41.1002 48.2339 45.4265C47.8425 48.3759 47.5595 52.3283 47.3847 57.2836C47.1611 63.7276 47.0772 69.4902 47.1331 74.5713C47.1401 75.417 47.1855 76.0775 47.2694 76.5528C47.3882 77.2796 47.6189 77.8807 47.9613 78.356C48.5275 79.1458 49.3522 79.5756 50.4355 79.6455C51.5188 79.7084 52.389 79.3799 53.046 78.66C53.5492 78.1009 53.8812 77.353 54.0419 76.4165C54.1398 75.8084 54.1747 74.9523 54.1468 73.848C53.9231 64.4685 54.2621 55.1519 55.1637 45.8982C58.204 46.3106 61.2373 45.9751 64.2636 44.8918C67.255 43.8224 69.8235 42.166 71.9692 39.9225C73.4369 38.3988 74.4853 36.8018 75.1143 35.1314C75.5896 33.8594 75.8202 32.5279 75.8062 31.1371C75.7922 29.7532 75.5371 28.4288 75.0409 27.1637C74.6285 26.1154 74.0729 25.1998 73.374 24.417C72.6192 23.5643 71.763 22.9423 70.8055 22.5509ZM132.817 24.2702C132.328 22.8724 131.58 21.7786 130.573 20.9888C129.029 19.7936 126.929 19.3149 124.273 19.5525C121.785 19.7762 119.426 20.5205 117.196 21.7856C114.953 23.0576 113.104 24.707 111.65 26.7339C110.434 28.4183 109.428 30.4626 108.631 32.8669C108.072 34.5583 107.516 36.7983 106.964 39.587C106.083 44.081 105.266 49.1587 104.511 54.8199C104.042 58.2865 103.424 63.3921 102.655 70.1367C102.55 70.9894 102.512 71.6569 102.54 72.1391C102.582 72.88 102.756 73.502 103.064 74.0052C103.553 74.809 104.329 75.2668 105.391 75.3786C106.44 75.4834 107.31 75.2074 108.002 74.5504C108.456 74.1101 108.816 73.523 109.082 72.7891C109.256 72.2859 109.417 71.5974 109.564 70.7238C109.927 68.5991 110.49 64.0386 111.252 57.0425C111.874 51.3603 112.597 46.8313 113.422 43.4555C115.239 43.4415 116.864 43.3507 118.297 43.1829C120.023 42.9733 121.603 42.6343 123.036 42.166C124.657 41.6348 126.121 40.9289 127.428 40.0483C128.84 39.0908 129.997 37.9725 130.898 36.6935C131.73 35.5193 132.363 34.1949 132.796 32.7201C133.201 31.3223 133.411 29.8581 133.425 28.3274C133.446 26.8318 133.243 25.4794 132.817 24.2702Z" fill="#0A0A0A"/>
<path d="M148.878 86.7955C147.292 81.2252 143.846 77.3182 138.541 75.0747C135.228 73.6768 131.821 73.282 128.319 73.89C122.756 74.7986 118.335 77.6013 115.057 82.298C111.787 86.9807 110.703 92.1143 111.807 97.6986C112.898 103.185 115.802 107.428 120.519 110.426C125.216 113.417 130.224 113.955 135.543 112.04C140.659 110.181 144.52 106.886 147.127 102.154C149.818 97.2828 150.402 92.1632 148.878 86.7955ZM144.087 93.6729C143.703 99.3621 140.963 103.486 135.868 106.044C130.507 108.742 125.622 108.088 121.211 104.083C116.857 100.127 115.669 95.3678 117.647 89.8044C119.513 84.5415 123.057 80.8967 128.277 78.8698C131.339 78.3316 134.225 78.8279 136.937 80.3585C142.102 83.287 144.485 87.7251 144.087 93.6729ZM138.426 84.8455C137.978 84.2654 137.517 83.7902 137.042 83.4198C135.63 82.3294 133.673 81.7633 131.171 81.7214C129.522 81.6864 128.124 81.8926 126.977 82.3399C126.663 82.4587 126.355 82.602 126.055 82.7698C125.391 83.1192 124.744 83.5735 124.115 84.1327C123.284 84.8735 122.564 85.7157 121.956 86.6592C121.362 87.6168 120.925 88.6232 120.645 89.6786C120.282 90.9925 120.174 92.3589 120.32 93.7777C120.467 95.1546 120.837 96.4895 121.432 97.7825C121.697 98.3626 121.998 98.9113 122.333 99.4285C122.815 100.155 123.361 100.816 123.969 101.41C125.101 102.5 126.355 103.234 127.732 103.611C128.648 103.884 129.619 103.992 130.647 103.936C131.611 103.888 132.576 103.692 133.54 103.349C135.246 102.776 136.923 101.77 138.573 100.33C139.306 99.6871 139.9 99.0545 140.355 98.4325C140.655 98.0202 140.893 97.6148 141.068 97.2164C141.354 96.5664 141.536 95.8081 141.613 94.9414C141.676 94.2774 141.679 93.4877 141.623 92.5721C141.532 91.4748 141.389 90.5767 141.193 89.8778C141.026 89.2697 140.732 88.5708 140.313 87.781C140.089 87.3826 139.838 86.9528 139.558 86.4915C139.139 85.8275 138.761 85.2789 138.426 84.8455Z" fill="#0A0A0A"/>
<path d="M135.868 106.044C140.963 103.486 143.703 99.3619 144.087 93.6727C144.485 87.725 142.102 83.2868 136.937 80.3584C134.225 78.8277 131.339 78.3315 128.278 78.8697C123.057 80.8965 119.513 84.5414 117.647 89.8042C115.669 95.3676 116.857 100.127 121.211 104.083C125.622 108.088 130.507 108.741 135.868 106.044ZM137.042 83.4196C137.517 83.79 137.978 84.2653 138.426 84.8454C138.761 85.2787 139.139 85.8274 139.558 86.4914C139.838 86.9526 140.089 87.3825 140.313 87.7809C140.732 88.5706 141.026 89.2696 141.194 89.8776C141.389 90.5765 141.532 91.4746 141.623 92.5719C141.679 93.4875 141.676 94.2773 141.613 94.9413C141.536 95.8079 141.354 96.5663 141.068 97.2163C140.893 97.6146 140.655 98.02 140.355 98.4324C139.901 99.0544 139.306 99.6869 138.573 100.33C136.923 101.77 135.246 102.776 133.54 103.349C132.576 103.692 131.611 103.887 130.647 103.936C129.619 103.992 128.648 103.884 127.732 103.611C126.355 103.234 125.101 102.5 123.969 101.41C123.361 100.816 122.815 100.155 122.333 99.4283C121.998 98.9111 121.697 98.3625 121.432 97.7824C120.838 96.4894 120.467 95.1544 120.32 93.7776C120.174 92.3588 120.282 90.9924 120.645 89.6784C120.925 88.6231 121.362 87.6166 121.956 86.6591C122.564 85.7156 123.284 84.8734 124.115 84.1325C124.744 83.5734 125.391 83.1191 126.055 82.7696C126.355 82.6019 126.663 82.4586 126.978 82.3398C128.124 81.8925 129.522 81.6863 131.171 81.7212C133.673 81.7632 135.63 82.3293 137.042 83.4196Z" fill="white"/>
<path d="M124.168 75.0116C111.601 62.3892 96.4277 57.025 78.6473 58.919C66.0322 60.2673 55.1081 64.4433 45.875 71.4471C36.6484 78.4581 30.2882 85.2516 26.7945 91.8276C23.3077 98.4035 22.1825 107.605 23.4188 119.431C24.6626 131.264 33.6018 140.487 50.2363 147.098C65.934 153.339 82.1523 154.604 98.8914 150.893C108.369 148.782 116.148 144.858 122.228 139.12C127.596 134.046 131.643 127.56 134.368 119.662C140.239 102.636 136.839 87.7529 124.168 75.0116ZM69.8199 67.6939C76.865 65.7859 84.008 65.1743 91.2488 65.8593C109.281 67.6485 121.536 76.8987 128.015 93.6098C130.951 101.186 130.947 108.692 128.005 116.129C123.364 127.885 115.819 136.282 105.37 141.321C101.177 143.341 96.5221 144.82 91.406 145.756C74.6949 148.831 59.2139 145.819 44.9629 136.719C29.6356 126.927 25.5889 113.753 32.8227 97.1953C34.4652 93.4281 36.3907 90.0069 38.5993 86.9317C45.9169 76.6995 56.3238 70.2869 69.8199 67.6939Z" fill="#0A0A0A"/>
<path d="M91.2487 65.8593C84.008 65.1743 76.865 65.7859 69.8199 67.6939C56.3238 70.2869 45.9169 76.6995 38.5993 86.9317C36.3907 90.0069 34.4652 93.4281 32.8227 97.1953C25.5889 113.753 29.6356 126.927 44.9629 136.719C59.2138 145.819 74.6949 148.831 91.406 145.756C96.5221 144.82 101.177 143.341 105.37 141.321C115.819 136.282 123.364 127.885 128.005 116.129C130.947 108.692 130.951 101.186 128.015 93.6098C121.536 76.8987 109.281 67.6485 91.2487 65.8593Z" fill="white"/>
<path d="M78.5319 85.4326C76.2045 82.8396 73.3494 81.0958 69.9666 80.2012C66.6188 79.2996 63.2291 79.1284 59.7974 79.6875C56.1421 80.2606 52.9235 81.7318 50.1419 84.1012C47.3602 86.4565 45.4835 89.3815 44.5121 92.8761C43.7782 95.511 43.4078 98.2018 43.4008 100.949C43.3938 104.45 44.533 107.511 46.8185 110.132C48.1324 111.796 49.6386 113.281 51.337 114.588C54.2235 116.79 57.5015 117.786 61.1708 117.576C62.5966 117.513 64.0049 117.384 65.3957 117.188C68.9742 116.734 72.1822 115.399 75.0198 113.183C77.7596 111.03 79.755 108.329 81.0061 105.079C82.2431 101.857 82.7499 98.5093 82.5262 95.0357C82.2956 91.3594 80.9641 88.1584 78.5319 85.4326ZM48.8104 97.143C49.1319 94.6478 50.03 92.3728 51.5047 90.318C53.5735 87.4245 56.3727 85.6947 59.9022 85.1286C61.2791 84.8839 62.6595 84.7651 64.0433 84.7721C67.8594 84.5275 71.1548 85.6947 73.9295 88.2737C75.7257 89.9581 76.7881 92.0129 77.1166 94.4381C77.5639 97.793 77.0816 101.039 75.6698 104.178C74.1252 107.609 71.5287 109.937 67.8804 111.16C64.5046 112.292 61.0834 112.565 57.6168 111.977C57.3162 111.873 57.0262 111.75 56.7466 111.611C54.3493 110.422 52.326 108.748 50.6765 106.589C50.2711 106.051 49.9531 105.488 49.7225 104.901C48.758 102.448 48.4539 99.8618 48.8104 97.143ZM68.9812 87.8753C68.1215 87.435 67.1919 87.117 66.1925 86.9213C64.4172 86.5718 62.4603 86.6068 60.3216 87.0261C58.728 87.3406 57.4875 87.8264 56.5998 88.4834C56.0197 88.9097 55.4816 89.4758 54.9854 90.1817C54.6009 90.7269 54.2061 91.4118 53.8007 92.2366C53.3184 93.222 52.9899 94.0677 52.8152 94.7736C52.5846 95.7102 52.4937 96.9577 52.5426 98.5163C52.5706 99.3131 52.623 99.9806 52.6999 100.519C52.7977 101.246 52.962 101.889 53.1926 102.448C53.8636 104.097 55.2719 105.565 57.4176 106.851C58.8294 107.704 60.1399 108.224 61.349 108.413C62.3974 108.581 63.5261 108.539 64.7353 108.287C65.8326 108.064 66.8739 107.693 67.8594 107.176C68.8589 106.645 69.7465 105.991 70.5223 105.215C71.4868 104.258 72.2591 103.126 72.8392 101.819C73.4053 100.554 73.7548 99.2187 73.8876 97.8139C74.0344 96.2763 73.9051 94.8051 73.4997 93.4003C73.0594 91.8906 72.343 90.6256 71.3505 89.6051C70.6865 88.9132 69.8968 88.3366 68.9812 87.8753Z" fill="#0A0A0A"/>
<path d="M51.5048 90.3179C50.03 92.3728 49.1319 94.6477 48.8104 97.1429C48.454 99.8617 48.758 102.448 49.7225 104.901C49.9532 105.488 50.2712 106.051 50.6765 106.589C52.326 108.748 54.3493 110.422 56.7466 111.61C57.0262 111.75 57.3163 111.873 57.6168 111.977C61.0834 112.564 64.5046 112.292 67.8804 111.16C71.5288 109.937 74.1252 107.609 75.6698 104.177C77.0816 101.039 77.5639 97.7929 77.1166 94.4381C76.7881 92.0128 75.7257 89.958 73.9295 88.2736C71.1548 85.6946 67.8594 84.5274 64.0433 84.772C62.6595 84.765 61.2791 84.8838 59.9022 85.1285C56.3727 85.6946 53.5736 87.4244 51.5048 90.3179ZM66.1925 86.9212C67.192 87.1169 68.1215 87.4349 68.9812 87.8752C69.8968 88.3365 70.6866 88.9131 71.3505 89.605C72.343 90.6255 73.0594 91.8905 73.4997 93.4002C73.9051 94.805 74.0344 96.2762 73.8876 97.8138C73.7548 99.2186 73.4053 100.554 72.8392 101.819C72.2591 103.126 71.4868 104.258 70.5223 105.215C69.7465 105.991 68.8589 106.645 67.8594 107.176C66.874 107.693 65.8326 108.063 64.7353 108.287C63.5261 108.539 62.3974 108.581 61.349 108.413C60.1399 108.224 58.8294 107.704 57.4176 106.851C55.2719 105.565 53.8636 104.097 53.1926 102.448C52.962 101.889 52.7977 101.246 52.6999 100.519C52.623 99.9805 52.5706 99.313 52.5426 98.5162C52.4937 96.9577 52.5846 95.7101 52.8152 94.7735C52.9899 94.0676 53.3184 93.2219 53.8007 92.2365C54.2061 91.4117 54.601 90.7268 54.9854 90.1816C55.4816 89.4757 56.0198 88.9096 56.5999 88.4833C57.4875 87.8263 58.7281 87.3405 60.3216 87.026C62.4603 86.6067 64.4173 86.5717 66.1925 86.9212Z" fill="white"/>
<path d="M117.594 106.484C117.937 105.932 118.182 105.477 118.328 105.121C118.545 104.597 118.636 104.108 118.601 103.653C118.573 103.234 118.444 102.839 118.213 102.469C117.982 102.098 117.685 101.808 117.322 101.598C116.958 101.389 116.56 101.277 116.127 101.263C115.693 101.249 115.288 101.333 114.911 101.515C114.414 101.759 113.957 102.189 113.537 102.804C113.097 103.573 112.768 104.143 112.552 104.513C112.146 105.219 111.454 106.18 110.476 107.396C110.113 107.85 109.829 108.182 109.627 108.392C109.298 108.741 108.97 109.017 108.641 109.22C108.152 109.521 107.561 109.727 106.87 109.839C106.345 109.923 105.709 109.954 104.962 109.933C102.18 109.856 99.489 109.367 96.889 108.465C96.1342 108.207 95.61 108.042 95.3164 107.973C94.7154 107.84 94.1842 107.826 93.7229 107.931C93.0589 108.091 92.5347 108.49 92.1503 109.126C91.759 109.776 91.6646 110.422 91.8673 111.065C92.1888 112.114 93.2127 112.917 94.939 113.477C96.2041 113.896 97.843 114.284 99.8559 114.64C101.058 114.864 102.092 115.021 102.959 115.112C104.091 115.231 105.136 115.266 106.094 115.217C108.463 115.084 110.434 114.452 112.007 113.319C112.517 112.956 113.031 112.502 113.548 111.956C113.925 111.544 114.369 111.013 114.879 110.363C115.893 109.056 116.798 107.763 117.594 106.484Z" fill="#0A0A0A"/>
</svg>
