<svg width="172" height="235" viewBox="0 0 172 235" fill="none" xmlns="http://www.w3.org/2000/svg">
<path d="M48.9653 159.853C48.1683 159.907 47.5318 160.38 47.0558 161.273C46.692 161.958 46.4433 162.838 46.3096 163.913C45.288 172.145 44.4108 181.42 43.678 191.738C43.234 198.007 42.6858 207.311 42.0332 219.651C41.8888 222.347 41.846 224.393 41.9048 225.789C42.0011 228.057 42.3354 230.052 42.9077 231.774C43.223 232.714 43.6188 233.605 44.0952 234.446H70.8047C71.1423 233.863 71.4071 233.334 71.599 232.857C71.9841 231.889 72.158 230.98 72.1205 230.129C72.0831 229.236 71.8183 228.364 71.3262 227.514C70.8662 226.722 70.2591 226.024 69.5049 225.42C68.2854 224.451 66.6112 223.687 64.4824 223.125C61.6689 222.392 58.7858 222.114 55.8333 222.29C52.8807 222.467 50.0511 223.09 47.3446 224.16C47.8421 204.46 49.2328 184.787 51.5167 165.141C51.6023 164.397 51.6478 163.833 51.6531 163.448C51.6531 162.822 51.5756 162.271 51.4205 161.795C51.2332 161.233 50.9203 160.768 50.4817 160.399C50.011 160.003 49.5056 159.821 48.9653 159.853ZM96.8644 163.127C96.7895 162.506 96.6451 161.969 96.4311 161.514C96.1797 160.979 95.8133 160.554 95.3319 160.238C94.8184 159.907 94.2969 159.789 93.7674 159.885C92.9811 160.03 92.4034 160.575 92.0344 161.522C91.7562 162.244 91.6171 163.148 91.6171 164.234C91.5957 172.53 91.8445 181.842 92.3633 192.171C92.6842 198.451 93.2673 207.755 94.1124 220.084C94.2942 222.775 94.4975 224.81 94.7222 226.19C95.0966 228.426 95.6716 230.365 96.4472 232.007C96.8583 232.875 97.3397 233.688 97.8914 234.446H122.86C123.254 233.793 123.642 233.065 124.023 232.263C124.51 231.247 124.855 230.365 125.058 229.616C125.32 228.605 125.382 227.679 125.243 226.84C125.098 225.957 124.729 225.125 124.136 224.344C123.585 223.617 122.9 222.999 122.082 222.491C120.75 221.673 118.993 221.114 116.81 220.814C113.933 220.429 111.039 220.501 108.129 221.031C105.219 221.56 102.486 222.523 99.9293 223.919C98.0358 204.3 97.0355 184.602 96.9286 164.828C96.9232 164.079 96.9018 163.512 96.8644 163.127Z" fill="#0A0A0A"/>
<path d="M88.7369 2.3399C87.6457 1.89595 86.255 1.82641 84.5647 2.1313C83.0778 2.39339 81.6978 2.82665 80.4247 3.43107C79.0554 4.08363 77.8813 4.90736 76.9025 5.90225C75.6509 7.18062 74.5757 8.91365 73.6771 11.1013C72.6502 13.6206 71.912 16.5358 71.4627 19.8467C71.1632 22.1039 70.9466 25.1287 70.8128 28.9211C70.6417 33.8527 70.5775 38.2629 70.6203 42.1515C70.6256 42.7987 70.6604 43.3042 70.7246 43.6679C70.8155 44.2242 70.992 44.6842 71.2541 45.0479C71.6874 45.6523 72.3185 45.9813 73.1476 46.0348C73.9767 46.0829 74.6426 45.8315 75.1454 45.2806C75.5305 44.8527 75.7846 44.2803 75.9076 43.5636C75.9825 43.0982 76.0092 42.443 75.9879 41.5979C75.8167 34.4197 76.0761 27.2897 76.7661 20.2078C79.0929 20.5234 81.4143 20.2666 83.7303 19.4375C86.0196 18.6192 87.9853 17.3515 89.6274 15.6345C90.7507 14.4684 91.553 13.2462 92.0344 11.9679C92.3982 10.9944 92.5747 9.97541 92.564 8.91098C92.5533 7.85191 92.358 6.8383 91.9783 5.87015C91.6627 5.06782 91.2374 4.36712 90.7026 3.76804C90.1249 3.11548 89.4696 2.63944 88.7369 2.3399ZM136.195 3.65573C135.82 2.58595 135.248 1.74885 134.478 1.14443C133.296 0.229776 131.688 -0.136617 129.656 0.0452438C127.751 0.216407 125.946 0.786055 124.24 1.7542C122.523 2.72769 121.108 3.99003 119.996 5.5412C119.065 6.83027 118.295 8.39482 117.685 10.2348C117.257 11.5293 116.832 13.2436 116.409 15.3778C115.735 18.8171 115.109 22.703 114.532 27.0356C114.173 29.6886 113.7 33.596 113.112 38.7576C113.031 39.4102 113.002 39.921 113.023 40.2901C113.055 40.8571 113.189 41.3331 113.425 41.7182C113.799 42.3333 114.393 42.6837 115.206 42.7693C116.008 42.8495 116.674 42.6382 117.203 42.1354C117.551 41.7985 117.827 41.3491 118.03 40.7875C118.164 40.4024 118.287 39.8755 118.399 39.2069C118.677 37.5809 119.108 34.0907 119.691 28.7365C120.167 24.3879 120.72 20.9219 121.352 18.3384C122.742 18.3277 123.986 18.2581 125.082 18.1297C126.404 17.9693 127.612 17.7099 128.709 17.3515C129.95 16.945 131.07 16.4047 132.071 15.7308C133.151 14.998 134.036 14.1422 134.726 13.1633C135.363 12.2647 135.847 11.2511 136.179 10.1225C136.489 9.05272 136.649 7.93214 136.66 6.76074C136.676 5.61608 136.521 4.58108 136.195 3.65573Z" fill="#0A0A0A"/>
<path d="M68.1812 98.0177C66.9723 98.1246 65.9641 98.2557 65.1564 98.4108C64.0652 98.6248 63.0998 98.9243 62.26 99.3094C61.6823 99.5662 61.0725 99.9058 60.4307 100.328C59.9814 100.623 59.409 101.029 58.7137 101.548C54.8893 104.442 51.3055 107.611 47.9625 111.056C44.6141 114.516 41.5599 118.199 38.7999 122.104C31.8999 131.855 29.196 140.664 30.6883 148.532C31.5014 152.827 33.5526 156.788 36.8422 160.415C39.875 163.752 43.5791 166.419 47.9545 168.414C49.1472 168.96 50.4016 169.462 51.7174 169.922C54.5309 170.901 57.6225 171.685 60.9923 172.273C64.5012 172.888 69.0477 173.38 74.6319 173.75C77.8359 173.963 80.4007 174.057 82.3262 174.03C85.1504 173.993 87.6912 173.731 89.9484 173.244C90.9807 173.019 92.1227 172.709 93.3743 172.313C94.1873 172.057 95.3079 171.677 96.7361 171.174C99.5282 170.179 101.775 169.326 103.476 168.615C105.904 167.598 108.054 166.545 109.926 165.453C114.591 162.736 118.073 159.506 120.373 155.761C121.619 153.734 122.563 151.466 123.205 148.958C123.793 146.647 124.112 144.2 124.16 141.616C124.202 139.311 124.031 136.85 123.646 134.235C123.325 132.058 122.83 129.637 122.162 126.974C121.638 124.866 121.111 123.061 120.581 121.558C120.309 120.788 120.022 120.052 119.723 119.352C119.268 118.303 118.779 117.33 118.255 116.431C116.923 114.142 115.195 112.026 113.071 110.085C111.103 108.293 108.859 106.707 106.34 105.327C104.077 104.097 101.561 103.008 98.79 102.061C96.4472 101.264 93.7942 100.529 90.8309 99.855C86.5786 98.8869 82.6445 98.261 79.0287 97.9776C75.4235 97.6887 71.8077 97.7021 68.1812 98.0177ZM64.338 104.573C65.4078 104.123 66.622 103.8 67.9806 103.602C69.0183 103.452 70.2806 103.361 71.7676 103.329C78.8816 103.153 86.0196 104.022 93.1818 105.937C97.8674 107.188 101.86 108.817 105.161 110.823C109.167 113.257 112.106 116.22 113.978 119.713C114.46 120.617 114.909 121.636 115.326 122.77C115.406 122.989 115.487 123.216 115.567 123.452C115.909 124.446 116.294 125.749 116.722 127.359C117.375 129.841 117.861 131.983 118.182 133.786C118.605 136.139 118.83 138.321 118.856 140.333C118.888 142.649 118.666 144.834 118.19 146.888C117.666 149.139 116.853 151.161 115.751 152.953C113.836 156.06 110.806 158.858 106.661 161.346C102.522 163.834 98.2775 165.471 93.9279 166.256C93.6468 166.306 93.4809 166.328 93.4305 166.32C86.201 167.737 77.8059 167.806 68.2454 166.529C55.1737 164.781 45.3906 160.173 38.8962 152.704C36.2273 148.58 35.6229 144.285 37.0829 139.819C38.5473 135.353 40.7109 131.127 43.5737 127.142C46.4365 123.163 49.0361 119.652 51.3724 116.608C53.7147 113.569 55.8623 111.151 57.8151 109.355C59.7675 107.563 61.0779 106.446 61.7465 106.001C62.6398 105.396 63.5036 104.92 64.338 104.573Z" fill="#0A0A0A"/>
<path d="M67.9806 103.602C66.622 103.8 65.4078 104.123 64.338 104.573C63.5036 104.92 62.6398 105.396 61.7465 106.001C61.0779 106.446 59.7675 107.564 57.8151 109.355C55.8622 111.151 53.7147 113.569 51.3724 116.608C49.036 119.652 46.4365 123.163 43.5737 127.142C40.7109 131.128 38.5473 135.353 37.0829 139.819C35.6229 144.285 36.2273 148.58 38.8962 152.704C45.3906 160.173 55.1737 164.781 68.2454 166.529C77.8059 167.806 86.201 167.737 93.4305 166.32C93.4809 166.328 93.6467 166.306 93.9279 166.256C98.2775 165.471 102.522 163.834 106.661 161.346C110.806 158.858 113.836 156.06 115.751 152.953C116.853 151.161 117.666 149.139 118.19 146.888C118.666 144.834 118.888 142.649 118.856 140.333C118.83 138.321 118.605 136.139 118.182 133.786C117.861 131.983 117.375 129.841 116.722 127.359C116.294 125.749 115.909 124.446 115.567 123.452C115.486 123.216 115.406 122.989 115.326 122.77C114.909 121.636 114.46 120.617 113.978 119.713C112.106 116.22 109.167 113.257 105.161 110.823C101.86 108.817 97.8673 107.188 93.1817 105.937C86.0196 104.022 78.8816 103.153 71.7676 103.329C70.2806 103.361 69.0183 103.452 67.9806 103.602Z" fill="white"/>
<path d="M3.90656 103.642C2.10399 105.744 0.873751 108.111 0.215841 110.743C-0.308348 112.823 0.122244 114.693 1.5076 116.351C3.52947 118.753 5.97389 120.63 8.84088 121.983C12.8846 123.882 17.014 125.591 21.2289 127.11C21.4321 127.185 21.5632 127.289 21.622 127.423C21.8092 127.888 21.9429 128.386 22.0232 128.915C22.2585 130.504 22.9004 131.905 23.9487 133.12C27.0939 136.736 30.9852 137.84 35.6226 136.433C37.9975 135.727 40.0622 134.489 41.8166 132.719C42.5815 131.943 43.0174 131.015 43.1244 129.934C43.226 128.897 43.3009 127.856 43.3491 126.813C43.4026 125.621 43.2448 124.452 42.8757 123.307C42.4638 122.029 41.8808 120.817 41.1266 119.673C39.7573 117.587 37.8665 116.445 35.4542 116.247C34.7535 116.188 34.0581 116.137 33.3681 116.094C30.9397 115.843 28.7146 116.37 26.6927 117.675C24.9062 118.819 23.462 120.191 22.3601 121.791C19.1187 120.748 15.9709 119.477 12.9167 117.98C11.6865 117.375 10.4589 116.774 9.23403 116.174C7.82728 115.479 6.64785 114.532 5.69575 113.334C5.39087 112.949 5.31598 112.54 5.4711 112.107C6.89389 108.042 9.3838 104.69 12.9408 102.053C16.4978 99.4218 20.3837 97.4214 24.5986 96.0521C28.6959 94.7041 32.8787 93.7119 37.1471 93.0754C41.6775 92.4336 46.2321 91.9254 50.8107 91.551C53.1161 91.3852 55.4161 91.4012 57.7108 91.5991C59.4812 91.7756 61.1608 91.5162 62.7494 90.8209C63.3164 90.5695 63.6801 90.1496 63.8405 89.5612C64.2685 87.9993 63.648 87.0312 61.9791 86.6568C59.3315 86.0791 56.6383 85.8705 53.8997 86.031C49.289 86.3305 44.6996 86.7905 40.1317 87.411C35.8687 88.01 31.6538 88.7963 27.487 89.7698C22.9565 90.8075 18.6748 92.4737 14.6417 94.7683C10.5498 97.1004 6.97145 100.058 3.90656 103.642ZM33.9458 121.374C34.3148 121.411 34.6705 121.513 35.0129 121.678C36.8582 122.55 37.8611 124.059 38.0216 126.204C38.0644 126.765 38.0269 127.311 37.9093 127.84C37.5509 129.456 36.5079 130.6 34.7802 131.274C32.1913 132.28 29.9582 131.742 28.0807 129.662C27.5886 129.03 27.2543 128.319 27.0778 127.527C26.7997 126.281 27.0056 125.126 27.6956 124.061C29.1184 121.874 31.2018 120.978 33.9458 121.374ZM124.44 98.9164C126.254 98.7773 128.078 98.6436 129.912 98.5152C140.525 98.0766 150.316 100.628 159.286 106.169C161.671 107.646 163.723 109.486 165.439 111.689C166.499 113.053 166.787 114.559 166.306 116.207C165.889 117.613 165.006 118.622 163.658 119.231C156.785 122.328 149.604 124.192 142.116 124.824C142.126 124.374 142.076 123.925 141.963 123.476C141.621 122.096 140.976 120.863 140.03 119.777C138.923 118.499 137.596 117.549 136.05 116.929C134.852 116.453 133.603 116.279 132.303 116.407C127.238 116.782 123.141 118.929 120.012 122.85C119.712 123.23 119.485 123.644 119.33 124.093C118.789 125.634 118.586 127.233 118.72 128.891C118.784 129.64 118.923 130.386 119.137 131.13C119.993 134.061 121.873 136.206 124.777 137.565C126.965 138.581 129.257 139.011 131.653 138.856C134.055 138.771 136.192 138.043 138.064 136.674C140.332 135.021 141.685 132.868 142.124 130.215L143.03 130.183C144.073 130.135 145.106 130.036 146.127 129.886C152.23 128.881 158.157 127.241 163.907 124.968C167.641 123.486 170.232 120.916 171.682 117.258C171.949 116.578 172.048 115.867 171.978 115.123C171.636 111.411 170.031 108.269 167.165 105.696C161.024 100.176 153.865 96.5174 145.686 94.7202C140.407 93.5702 135.061 93.1236 129.648 93.3803C126.62 93.407 123.598 93.3937 120.581 93.3402C119.228 93.3188 118.008 93.6932 116.923 94.4634C116.628 94.6721 116.441 94.9502 116.361 95.2979C115.971 97.063 116.703 98.1194 118.559 98.4671C120.501 98.804 122.461 98.9538 124.44 98.9164ZM137.085 127.463C137.042 128.201 136.909 128.918 136.684 129.613C135.887 132.111 134.114 133.363 131.365 133.368C130.247 133.427 129.166 133.285 128.123 132.943C125.283 131.98 123.935 130.047 124.079 127.142C124.09 126.902 124.154 126.685 124.272 126.492C126.165 123.502 128.944 121.959 132.608 121.863C133.202 121.788 133.753 121.884 134.261 122.152C136.278 123.243 137.219 125.013 137.085 127.463Z" fill="#0A0A0A"/>
<path d="M35.0129 121.678C34.6706 121.513 34.3149 121.411 33.9458 121.374C31.2018 120.978 29.1185 121.874 27.6957 124.061C27.0057 125.126 26.7997 126.281 27.0779 127.527C27.2544 128.319 27.5887 129.03 28.0808 129.662C29.9582 131.742 32.1914 132.28 34.7802 131.274C36.5079 130.6 37.5509 129.456 37.9093 127.84C38.027 127.311 38.0644 126.765 38.0217 126.204C37.8612 124.059 36.8583 122.55 35.0129 121.678ZM136.684 129.613C136.909 128.918 137.042 128.201 137.085 127.463C137.219 125.013 136.278 123.243 134.261 122.152C133.753 121.884 133.202 121.788 132.608 121.863C128.944 121.959 126.166 123.502 124.272 126.492C124.154 126.685 124.09 126.902 124.079 127.142C123.935 130.047 125.283 131.98 128.123 132.943C129.166 133.285 130.247 133.427 131.365 133.368C134.114 133.363 135.887 132.111 136.684 129.613Z" fill="white"/>
<path d="M65.8703 78.0236C63.3671 78.9704 61.1366 80.1765 59.1789 81.6421C57.0608 83.2307 55.2422 85.1403 53.7231 87.3707C52.2094 89.6012 51.1021 91.9948 50.4014 94.5516C49.7007 97.103 49.4333 99.7239 49.5991 102.414C49.7703 105.105 50.3613 107.675 51.3723 110.125C52.8272 113.634 55.0817 116.763 58.1359 119.512C60.2273 121.4 62.5514 122.986 65.1081 124.27C66.0816 124.751 67.0872 125.193 68.1249 125.594C74.7521 128.145 82.4518 128.899 91.2239 127.856C94.1498 127.509 96.8322 126.998 99.2713 126.324C101.807 125.618 104.272 124.679 106.669 123.508C110.06 121.839 112.999 119.806 115.486 117.41C118.22 114.784 120.223 111.885 121.496 108.713C122.464 106.306 122.991 103.781 123.076 101.139C123.082 101.016 123.084 100.893 123.084 100.77C123.127 98.2557 122.764 95.8246 121.993 93.4765C121.849 93.0325 121.758 92.7169 121.72 92.5297C121.651 92.166 121.654 91.8477 121.729 91.5749C121.777 91.3877 121.889 91.147 122.065 90.8528C122.269 90.5212 122.397 90.2832 122.451 90.1388C122.691 89.513 122.619 88.8283 122.234 88.0848C121.94 87.5125 121.466 86.9241 120.814 86.3197C116.888 82.6985 111.833 80.0268 105.65 78.3044C103.093 77.593 100.269 77.0287 97.1772 76.6115C94.7435 76.2852 91.8685 76.0205 88.5522 75.8172C85.5943 75.6353 83.0455 75.5551 80.906 75.5765C78.1406 75.5979 75.5999 75.7824 73.2839 76.1301C70.6255 76.5313 68.1543 77.1624 65.8703 78.0236ZM70.3072 82.2278C72.051 81.7999 74.0996 81.4709 76.4531 81.2409C80.9087 80.8023 85.3803 80.7515 89.868 81.0885C94.3557 81.4255 98.7712 82.1422 103.114 83.2387C105.457 83.8271 107.554 84.485 109.405 85.2125C110.261 85.5494 110.975 85.8784 111.547 86.1993C112.29 86.6219 112.914 87.0872 113.416 87.5954C113.967 88.1624 114.465 88.8845 114.909 89.7617C115.198 90.3287 115.54 91.1444 115.936 92.2088C116.604 94.0006 117.08 95.4582 117.364 96.5815C117.781 98.2182 117.976 99.7239 117.95 101.099C117.933 101.81 117.861 102.524 117.733 103.241C117.503 104.466 117.104 105.696 116.537 106.932C115.73 108.691 114.615 110.392 113.192 112.034C111.871 113.564 110.389 114.941 108.747 116.166C107.105 117.381 105.358 118.402 103.508 119.231C102.01 119.9 100.349 120.478 98.5251 120.964C97.0061 121.371 95.2811 121.737 93.3501 122.063C89.2475 122.748 85.4606 123.042 81.9891 122.946C77.9347 122.823 74.2306 122.168 70.8769 120.98C67.3466 119.723 64.263 117.87 61.626 115.42C61.487 115.292 61.3506 115.161 61.2168 115.027C58.3178 112.203 56.4136 109.015 55.5043 105.463C55.0022 103.505 55.3766 100.866 56.6275 97.5443C57.8776 94.2242 59.4287 91.737 61.281 90.0826C63.1333 88.4336 63.6976 87.3237 62.974 86.7529C62.2511 86.181 62.7726 85.4028 64.5385 84.4182C66.2073 83.4875 68.1302 82.7573 70.3072 82.2278Z" fill="#0A0A0A"/>
<path d="M76.4531 81.241C74.0996 81.471 72.051 81.7999 70.3073 82.2278C68.1303 82.7574 66.2074 83.4875 64.5385 84.4182C62.7727 85.4028 62.2511 86.181 62.974 86.753C63.6976 87.3237 63.1333 88.4336 61.281 90.0826C59.4288 91.737 57.8776 94.2243 56.6275 97.5443C55.3766 100.866 55.0022 103.505 55.5043 105.463C56.4136 109.015 58.3178 112.203 61.2169 115.027C61.3506 115.161 61.487 115.292 61.6261 115.42C64.263 117.87 67.3467 119.723 70.8769 120.98C74.2306 122.168 77.9347 122.823 81.9892 122.946C85.4606 123.042 89.2476 122.748 93.3501 122.063C95.2811 121.737 97.0061 121.371 98.5252 120.964C100.349 120.478 102.01 119.9 103.508 119.231C105.358 118.402 107.105 117.381 108.747 116.166C110.389 114.941 111.871 113.564 113.192 112.034C114.615 110.392 115.73 108.691 116.537 106.932C117.104 105.696 117.503 104.466 117.733 103.241C117.861 102.524 117.934 101.81 117.95 101.099C117.976 99.7239 117.781 98.2182 117.364 96.5815C117.08 95.4582 116.604 94.0007 115.936 92.2088C115.54 91.1444 115.198 90.3287 114.909 89.7617C114.465 88.8845 113.967 88.1624 113.416 87.5954C112.914 87.0873 112.29 86.6219 111.547 86.1994C110.975 85.8784 110.261 85.5495 109.405 85.2125C107.554 84.485 105.457 83.8271 103.114 83.2388C98.7712 82.1422 94.3557 81.4255 89.868 81.0885C85.3803 80.7515 80.9087 80.8023 76.4531 81.241Z" fill="white"/>
<path d="M148.486 51.5066C147.272 47.2436 144.635 44.2536 140.575 42.5366C138.04 41.4668 135.432 41.1646 132.753 41.6299C128.495 42.3253 125.112 44.4702 122.603 48.0646C120.1 51.6483 119.271 55.5771 120.116 59.8508C120.95 64.0497 123.173 67.2964 126.783 69.5911C130.378 71.8804 134.21 72.2923 138.281 70.8267C142.196 69.4039 145.151 66.8819 147.146 63.2607C149.206 59.5326 149.652 55.6145 148.486 51.5066ZM144.82 56.7699C144.525 61.1239 142.429 64.2797 138.529 66.2374C134.427 68.302 130.688 67.8019 127.313 64.737C123.981 61.7096 123.071 58.067 124.585 53.8093C126.013 49.7816 128.725 46.9922 132.721 45.441C135.063 45.0291 137.272 45.4089 139.348 46.5803C143.301 48.8215 145.125 52.218 144.82 56.7699ZM140.487 50.0143C140.145 49.5703 139.792 49.2066 139.428 48.9231C138.348 48.0887 136.85 47.6554 134.935 47.6233C133.673 47.5966 132.603 47.7544 131.726 48.0967C131.485 48.1876 131.25 48.2973 131.02 48.4257C130.511 48.6931 130.017 49.0408 129.535 49.4687C128.899 50.0357 128.348 50.6802 127.883 51.4023C127.428 52.1351 127.094 52.9053 126.88 53.713C126.601 54.7186 126.519 55.7643 126.631 56.8501C126.743 57.9038 127.027 58.9255 127.481 59.915C127.685 60.359 127.915 60.7789 128.171 61.1747C128.54 61.731 128.958 62.2364 129.423 62.6911C130.29 63.5255 131.25 64.0871 132.303 64.376C133.004 64.5846 133.748 64.6675 134.534 64.6247C135.272 64.5872 136.01 64.4375 136.748 64.1754C138.053 63.7368 139.337 62.9665 140.599 61.8647C141.161 61.3726 141.616 60.8885 141.963 60.4125C142.193 60.0969 142.375 59.7866 142.509 59.4818C142.728 58.9843 142.867 58.404 142.926 57.7407C142.974 57.2326 142.977 56.6281 142.934 55.9274C142.865 55.0877 142.755 54.4003 142.605 53.8655C142.477 53.4001 142.252 52.8652 141.931 52.2608C141.76 51.9559 141.568 51.627 141.354 51.2739C141.033 50.7658 140.744 50.3459 140.487 50.0143Z" fill="#0A0A0A"/>
<path d="M138.529 66.2375C142.429 64.2798 144.525 61.124 144.82 56.77C145.124 52.2181 143.301 48.8216 139.348 46.5804C137.272 45.409 135.063 45.0292 132.72 45.4411C128.725 46.9923 126.013 49.7817 124.585 53.8094C123.071 58.0671 123.98 61.7097 127.313 64.7371C130.688 67.802 134.427 68.3021 138.529 66.2375ZM139.428 48.9232C139.792 49.2067 140.145 49.5704 140.487 50.0144C140.744 50.346 141.033 50.7659 141.354 51.274C141.567 51.6271 141.76 51.956 141.931 52.2609C142.252 52.8653 142.477 53.4002 142.605 53.8656C142.755 54.4004 142.865 55.0878 142.934 55.9275C142.977 56.6282 142.974 57.2327 142.926 57.7408C142.867 58.4041 142.728 58.9844 142.509 59.4819C142.375 59.7868 142.193 60.097 141.963 60.4126C141.616 60.8886 141.161 61.3727 140.599 61.8648C139.337 62.9667 138.053 63.7369 136.748 64.1755C136.01 64.4376 135.272 64.5874 134.534 64.6248C133.747 64.6676 133.004 64.5847 132.303 64.3761C131.25 64.0872 130.289 63.5256 129.423 62.6912C128.958 62.2365 128.54 61.7311 128.171 61.1748C127.915 60.779 127.685 60.3591 127.481 59.9151C127.027 58.9256 126.743 57.904 126.631 56.8502C126.518 55.7644 126.601 54.7187 126.88 53.7131C127.093 52.9054 127.428 52.1352 127.882 51.4024C128.348 50.6803 128.899 50.0358 129.535 49.4688C130.017 49.0409 130.511 48.6932 131.02 48.4258C131.25 48.2974 131.485 48.1877 131.726 48.0968C132.603 47.7545 133.673 47.5967 134.935 47.6234C136.85 47.6555 138.347 48.0888 139.428 48.9232Z" fill="white"/>
<path d="M129.575 42.4885C119.958 32.8284 108.346 28.7232 94.7382 30.1727C85.0838 31.2046 76.7235 34.4005 69.6574 39.7606C62.5962 45.1261 57.7287 50.3252 55.055 55.3578C52.3865 60.3904 51.5253 67.4322 52.4715 76.4832C53.4234 85.539 60.2646 92.5969 72.9951 97.6566C85.0086 102.433 97.4206 103.401 110.231 100.561C117.484 98.9457 123.437 95.9423 128.091 91.5509C132.199 87.6676 135.296 82.7039 137.382 76.6597C141.875 63.6299 139.273 52.2395 129.575 42.4885ZM87.9826 36.8882C93.3742 35.428 98.8407 34.96 104.382 35.4842C118.182 36.8535 127.561 43.9327 132.52 56.7218C134.766 62.52 134.764 68.2646 132.512 73.9558C128.96 82.9526 123.186 89.3793 115.19 93.2358C111.98 94.7816 108.418 95.9129 104.503 96.6297C91.7134 98.9832 79.8657 96.6778 68.9593 89.7136C57.2293 82.2198 54.1323 72.1372 59.6684 59.4658C60.9253 56.5827 62.399 53.9645 64.0892 51.611C69.6895 43.7802 77.6539 38.8727 87.9826 36.8882Z" fill="#0A0A0A"/>
<path d="M104.382 35.4841C98.8407 34.9599 93.3742 35.4279 87.9825 36.8881C77.6539 38.8726 69.6894 43.7801 64.0891 51.6109C62.3989 53.9644 60.9253 56.5826 59.6683 59.4657C54.1322 72.1371 57.2292 82.2197 68.9593 89.7135C79.8656 96.6777 91.7133 98.9831 104.502 96.6296C108.418 95.9128 111.98 94.7815 115.189 93.2357C123.186 89.3792 128.96 82.9525 132.512 73.9557C134.764 68.2646 134.766 62.5199 132.52 56.7217C127.561 43.9326 118.182 36.8534 104.382 35.4841Z" fill="white"/>
<path d="M94.65 50.4636C92.8688 48.4792 90.6838 47.1446 88.095 46.46C85.5328 45.77 82.9387 45.6389 80.3124 46.0669C77.5149 46.5055 75.0518 47.6314 72.9229 49.4447C70.7941 51.2472 69.3579 53.4857 68.6144 56.1602C68.0528 58.1767 67.7693 60.236 67.7639 62.3381C67.7586 65.0179 68.6304 67.3607 70.3795 69.3665C71.3851 70.6395 72.5378 71.7762 73.8376 72.7764C76.0466 74.4613 78.5553 75.2235 81.3634 75.063C82.4546 75.0149 83.5324 74.9159 84.5968 74.7662C87.3354 74.4185 89.7905 73.3969 91.9622 71.7013C94.0589 70.0538 95.586 67.9865 96.5435 65.4993C97.4902 63.0334 97.878 60.4713 97.7069 57.813C97.5303 54.9995 96.5114 52.5497 94.65 50.4636ZM71.9039 59.4256C72.15 57.5161 72.8373 55.775 73.9659 54.2025C75.5492 51.988 77.6914 50.6642 80.3926 50.2309C81.4463 50.0437 82.5027 49.9528 83.5618 49.9582C86.4823 49.7709 89.0043 50.6642 91.1278 52.6379C92.5024 53.927 93.3154 55.4996 93.5668 57.3556C93.9092 59.9231 93.5401 62.4076 92.4596 64.8093C91.2775 67.4356 89.2904 69.2167 86.4983 70.1528C83.9148 71.0193 81.2966 71.2279 78.6435 70.7786C78.4135 70.6984 78.1915 70.6048 77.9776 70.4978C76.1429 69.5885 74.5944 68.3074 73.3321 66.6546C73.0219 66.2428 72.7785 65.8122 72.602 65.3629C71.8638 63.4854 71.6312 61.5063 71.9039 59.4256ZM87.3408 52.333C86.6829 51.9961 85.9715 51.7527 85.2066 51.6029C83.848 51.3355 82.3503 51.3622 80.7135 51.6832C79.494 51.9239 78.5446 52.2956 77.8653 52.7984C77.4213 53.1247 77.0094 53.5579 76.6297 54.0982C76.3355 54.5154 76.0333 55.0396 75.723 55.6707C75.354 56.4249 75.1026 57.0721 74.9689 57.6124C74.7923 58.3291 74.7228 59.2839 74.7602 60.4767C74.7816 61.0865 74.8218 61.5973 74.8806 62.0091C74.9555 62.5654 75.0812 63.0575 75.2577 63.4854C75.7712 64.7478 76.849 65.871 78.4911 66.8552C79.5715 67.5078 80.5745 67.9063 81.4998 68.0507C82.3021 68.1791 83.166 68.147 84.0913 67.9544C84.9311 67.7832 85.7281 67.4997 86.4823 67.1039C87.2472 66.6974 87.9265 66.1973 88.5202 65.6036C89.2583 64.8708 89.8494 64.0043 90.2933 63.004C90.7266 62.0359 90.994 61.0142 91.0957 59.9391C91.208 58.7624 91.109 57.6364 90.7988 56.5613C90.4618 55.406 89.9136 54.4378 89.154 53.6569C88.6459 53.1274 88.0415 52.6861 87.3408 52.333Z" fill="#0A0A0A"/>
<path d="M73.966 54.2025C72.8374 55.775 72.15 57.5161 71.904 59.4256C71.6312 61.5064 71.8639 63.4854 72.602 65.3629C72.7785 65.8122 73.0219 66.2428 73.3321 66.6546C74.5945 68.3074 76.143 69.5885 77.9776 70.4978C78.1916 70.6048 78.4136 70.6984 78.6436 70.7786C81.2966 71.2279 83.9149 71.0193 86.4984 70.1528C89.2905 69.2167 91.2776 67.4356 92.4597 64.8093C93.5401 62.4076 93.9092 59.9231 93.5669 57.3556C93.3155 55.4996 92.5025 53.927 91.1278 52.6379C89.0043 50.6642 86.4823 49.771 83.5618 49.9582C82.5028 49.9528 81.4464 50.0437 80.3926 50.231C77.6915 50.6642 75.5493 51.9881 73.966 54.2025ZM85.2066 51.6029C85.9715 51.7527 86.6829 51.9961 87.3408 52.3331C88.0415 52.6861 88.6459 53.1274 89.1541 53.6569C89.9136 54.4378 90.4619 55.406 90.7989 56.5613C91.1091 57.6365 91.208 58.7624 91.0957 59.9391C90.9941 61.0143 90.7266 62.0359 90.2934 63.004C89.8494 64.0043 89.2584 64.8708 88.5202 65.6036C87.9265 66.1973 87.2472 66.6974 86.4823 67.1039C85.7281 67.4998 84.9312 67.7832 84.0914 67.9544C83.166 68.147 82.3022 68.1791 81.4999 68.0507C80.5745 67.9063 79.5716 67.5078 78.4911 66.8552C76.849 65.871 75.7712 64.7478 75.2577 63.4854C75.0812 63.0575 74.9555 62.5654 74.8806 62.0091C74.8218 61.5973 74.7817 61.0865 74.7603 60.4767C74.7228 59.2839 74.7924 58.3291 74.9689 57.6124C75.1026 57.0721 75.354 56.4249 75.7231 55.6707C76.0333 55.0396 76.3355 54.5154 76.6297 54.0982C77.0095 53.5579 77.4213 53.1247 77.8653 52.7984C78.5446 52.2956 79.494 51.9239 80.7136 51.6832C82.3503 51.3622 83.848 51.3355 85.2066 51.6029Z" fill="white"/>
<path d="M124.545 66.5744C124.807 66.1518 124.994 65.8041 125.106 65.5314C125.272 65.1302 125.342 64.7558 125.315 64.4081C125.294 64.0872 125.195 63.785 125.018 63.5015C124.842 63.218 124.614 62.996 124.336 62.8355C124.058 62.6751 123.753 62.5895 123.422 62.5788C123.09 62.5681 122.78 62.6323 122.491 62.7713C122.111 62.9585 121.761 63.2875 121.44 63.7582C121.103 64.3466 120.851 64.7825 120.686 65.066C120.375 65.6062 119.846 66.3417 119.097 67.2724C118.819 67.6201 118.602 67.8742 118.447 68.0346C118.196 68.3021 117.944 68.5133 117.693 68.6685C117.318 68.8985 116.866 69.0563 116.337 69.1418C115.936 69.206 115.449 69.2301 114.877 69.214C112.748 69.1552 110.689 68.7808 108.699 68.0908C108.121 67.8929 107.72 67.7672 107.495 67.7137C107.035 67.6121 106.629 67.6014 106.276 67.6816C105.768 67.8046 105.366 68.1095 105.072 68.5963C104.773 69.0937 104.701 69.5885 104.856 70.0806C105.102 70.8829 105.885 71.498 107.206 71.9259C108.175 72.2469 109.429 72.5437 110.969 72.8165C111.889 72.9877 112.681 73.108 113.344 73.1775C114.211 73.2685 115.01 73.2952 115.743 73.2578C117.557 73.1562 119.065 72.6721 120.268 71.8056C120.659 71.5274 121.052 71.1798 121.448 70.7625C121.737 70.447 122.076 70.0404 122.467 69.543C123.242 68.5428 123.935 67.5532 124.545 66.5744Z" fill="#0A0A0A"/>
</svg>
