<svg width="181" height="286" viewBox="0 0 181 286" fill="none" xmlns="http://www.w3.org/2000/svg">
<path d="M53.5253 197.268C52.5772 197.332 51.8201 197.895 51.2538 198.958C50.8211 199.772 50.5252 200.819 50.3662 202.098C49.1509 211.89 48.1074 222.923 47.2357 235.197C46.7076 242.654 46.0554 253.722 45.2792 268.401C45.1074 271.607 45.0565 274.041 45.1265 275.702C45.241 278.4 45.6387 280.773 46.3195 282.822C46.6945 283.941 47.1653 285 47.732 286H79.5044C79.9059 285.307 80.2209 284.677 80.4493 284.11C80.9074 282.959 81.1142 281.877 81.0696 280.865C81.0251 279.803 80.7101 278.766 80.1247 277.754C79.5775 276.812 78.8554 275.982 77.9582 275.263C76.5075 274.111 74.516 273.201 71.9836 272.533C68.6368 271.662 65.2073 271.331 61.6951 271.541C58.1828 271.751 54.8169 272.492 51.5974 273.764C52.1891 250.33 53.8434 226.928 56.5603 203.558C56.6621 202.673 56.7162 202.002 56.7226 201.544C56.7226 200.8 56.6303 200.144 56.4458 199.578C56.2231 198.91 55.8509 198.356 55.3291 197.917C54.7692 197.446 54.1679 197.23 53.5253 197.268ZM110.504 201.162C110.415 200.424 110.243 199.785 109.988 199.244C109.689 198.608 109.253 198.102 108.681 197.726C108.07 197.332 107.45 197.192 106.82 197.307C105.884 197.478 105.197 198.127 104.758 199.254C104.427 200.112 104.262 201.188 104.262 202.479C104.236 212.348 104.532 223.426 105.149 235.712C105.531 243.182 106.225 254.25 107.23 268.916C107.446 272.117 107.688 274.538 107.955 276.179C108.401 278.839 109.085 281.145 110.007 283.099C110.497 284.132 111.069 285.099 111.725 286H141.427C141.895 285.223 142.357 284.358 142.811 283.404C143.39 282.195 143.8 281.145 144.042 280.254C144.354 279.052 144.427 277.951 144.261 276.952C144.089 275.902 143.65 274.913 142.944 273.984C142.289 273.119 141.474 272.384 140.501 271.779C138.917 270.806 136.826 270.141 134.23 269.785C130.807 269.326 127.365 269.412 123.904 270.042C120.442 270.672 117.191 271.817 114.15 273.478C111.897 250.14 110.707 226.709 110.58 203.186C110.574 202.295 110.548 201.62 110.504 201.162Z" fill="#0A0A0A"/>
<path d="M141.637 7.34024C141.567 6.44946 141.427 5.64139 141.217 4.91603C140.969 4.08251 140.622 3.33489 140.176 2.67316C139.686 1.94781 139.107 1.37516 138.439 0.955223C137.402 0.299859 136.165 -0.0182779 134.727 0.00081035C133.505 0.0135358 132.439 0.271236 131.529 0.773894C130.785 1.19383 130.111 1.79511 129.506 2.57772C129.137 3.04857 128.774 3.6085 128.418 4.2575C128.176 4.70289 127.88 5.30098 127.53 6.05179C126.811 7.62338 126.344 8.89594 126.127 9.86944C125.663 11.9246 125.765 14.1547 126.433 16.5599C126.961 18.4878 127.814 20.403 128.991 22.3054C129.5 23.1199 129.967 23.7371 130.394 24.157C130.553 24.3161 130.718 24.4656 130.89 24.6056C130.89 24.6501 130.89 24.6946 130.89 24.7392C130.89 24.7837 130.89 24.8314 130.89 24.8823C130.89 24.9269 130.89 24.9714 130.89 25.016C130.89 25.0669 130.89 25.1146 130.89 25.1591C130.89 25.2037 130.89 25.2482 130.89 25.2927C130.89 25.3436 130.89 25.3914 130.89 25.4359C130.89 25.4804 130.89 25.5282 130.89 25.5791C130.89 25.6236 130.89 25.6681 130.89 25.7127C130.89 25.7636 130.89 25.8113 130.89 25.8558C130.89 25.9004 130.89 25.9481 130.89 25.999C130.89 26.0435 130.89 26.0881 130.89 26.1326C130.89 26.1835 130.89 26.2312 130.89 26.2758C130.89 26.3203 130.89 26.368 130.89 26.4189C130.89 26.4635 130.89 26.508 130.89 26.5526C130.89 26.6035 130.89 26.6512 130.89 26.6957C130.89 26.7403 130.89 26.7848 130.89 26.8293C130.89 26.8802 130.89 26.928 130.89 26.9725C130.89 27.017 130.89 27.0648 130.89 27.1157C130.89 27.1602 130.89 27.2047 130.89 27.2493C130.89 27.3002 130.89 27.3479 130.89 27.3924C130.89 27.437 130.89 27.4847 130.89 27.5356C130.89 27.5801 130.89 27.6247 130.89 27.6692C130.89 27.7201 130.89 27.7678 130.89 27.8124C130.89 27.8569 130.89 27.9046 130.89 27.9555C130.89 28.0001 130.89 28.0446 130.89 28.0892C130.89 28.1401 130.89 28.1878 130.89 28.2323C130.89 28.2769 130.89 28.3214 130.89 28.3659C130.89 28.4168 130.89 28.4646 130.89 28.5091C130.89 28.5536 130.89 28.6014 130.89 28.6523C130.89 28.6968 130.89 28.7414 130.89 28.7859C130.89 28.8368 130.89 28.8845 130.89 28.9291C130.89 28.9736 130.89 29.0213 130.89 29.0722C130.89 29.1168 130.89 29.1613 130.89 29.2058C130.89 29.2567 130.89 29.3044 130.89 29.349C130.89 29.3935 130.89 29.4412 130.89 29.4921C130.89 29.5367 130.89 29.5812 130.89 29.6258C130.89 29.6767 130.89 29.7244 130.89 29.7689C130.89 29.8135 130.89 29.858 130.89 29.9025C130.89 29.9535 130.89 30.0012 130.89 30.0457C130.89 30.0903 130.89 30.138 130.89 30.1889C130.89 30.2334 130.89 30.278 130.89 30.3225C130.89 30.3734 130.89 30.4211 130.89 30.4657C130.89 30.5102 130.89 30.5579 130.89 30.6088C130.89 30.6534 130.89 30.6979 130.89 30.7424C130.89 30.7933 130.89 30.8411 130.89 30.8856C130.89 30.9301 130.89 30.9779 130.89 31.0288C130.89 31.0733 130.89 31.1178 130.89 31.1624C130.89 31.2133 130.89 31.261 130.89 31.3055C130.89 31.3501 130.89 31.3978 130.89 31.4487C130.89 31.4932 130.89 31.5378 130.89 31.5823C130.89 31.6269 130.89 31.6746 130.89 31.7255C130.89 31.77 130.89 31.8146 130.89 31.8591C130.89 31.91 130.89 31.9577 130.89 32.0023C130.89 32.0468 130.89 32.0945 130.89 32.1454C130.89 32.19 130.89 32.2345 130.89 32.279C130.89 32.3299 130.89 32.3777 130.89 32.4222C130.89 32.4667 130.89 32.5145 130.89 32.5654C130.89 32.6099 130.89 32.6544 130.89 32.699C130.89 32.7499 130.89 32.7976 130.89 32.8421C130.89 32.8867 130.89 32.9344 130.89 32.9853C130.89 33.0298 130.89 33.0744 130.89 33.1189C130.89 33.1635 130.89 33.2112 130.89 33.2621C130.89 33.3066 130.89 33.3512 130.89 33.3957C130.89 33.4466 130.89 33.4943 130.89 33.5389C130.89 33.5834 130.89 33.6311 130.89 33.682C130.89 33.7266 130.89 33.7711 130.89 33.8156C130.89 33.8665 130.89 33.9143 130.89 33.9588C130.89 34.0033 130.89 34.0511 130.89 34.102C130.89 34.1465 130.89 34.191 130.89 34.2356C130.89 34.2865 130.89 34.3342 130.89 34.3787C130.89 34.4233 130.89 34.471 130.89 34.5219C130.89 34.5664 130.89 34.611 130.89 34.6555C130.89 34.7001 130.89 34.7478 130.89 34.7987C130.89 34.8432 130.89 34.8878 130.89 34.9323C130.89 34.9832 130.89 35.0309 130.89 35.0755C130.89 35.12 130.89 35.1677 130.89 35.2186C130.89 35.2632 130.89 35.3077 130.89 35.3522C130.89 35.4031 130.89 35.4509 130.89 35.4954C130.89 35.5399 130.89 35.5877 130.89 35.6386C130.89 35.6831 130.89 35.7276 130.89 35.7722C130.89 35.8231 130.89 35.8708 130.89 35.9153C130.89 35.9599 130.89 36.0076 130.89 36.0585C130.89 36.103 130.89 36.1476 130.89 36.1921C130.89 36.2367 130.89 36.2844 130.89 36.3353C130.89 36.3798 130.89 36.4244 130.89 36.4689C130.89 36.5198 130.89 36.5675 130.89 36.6121C130.89 36.6566 130.89 36.7043 130.89 36.7552C130.89 36.7998 130.89 36.8443 130.89 36.8888C130.89 36.9397 130.89 36.9875 130.89 37.032C130.89 37.0765 130.89 37.1243 130.89 37.1752C130.89 37.2197 130.89 37.2642 130.89 37.3088C130.89 37.3597 130.89 37.4074 130.89 37.4519C130.89 37.4965 130.89 37.5442 130.89 37.5951C130.89 37.6396 130.89 37.6842 130.89 37.7287C130.89 37.7733 130.89 37.821 130.89 37.8719C130.89 37.9164 130.89 37.961 130.89 38.0055C130.89 38.0564 130.89 38.1041 130.89 38.1487C130.89 38.1932 130.89 38.2409 130.89 38.2918C130.89 38.3364 130.89 38.3809 130.89 38.4255C130.89 38.4764 130.89 38.5241 130.89 38.5686C130.89 38.6132 130.89 38.6609 130.89 38.7118C130.89 38.7563 130.89 38.8008 130.89 38.8454C130.89 38.8963 130.89 38.944 130.89 38.9885C130.89 39.0331 130.89 39.0808 130.89 39.1317C130.89 39.1763 130.89 39.2208 130.89 39.2653C130.89 39.3162 130.89 39.364 130.89 39.4085C130.89 39.453 130.89 39.4976 130.89 39.5421C130.89 39.593 130.89 39.6407 130.89 39.6853C130.89 39.7298 130.89 39.7775 130.89 39.8284C130.89 39.873 130.89 39.9175 130.89 39.9621C130.89 40.013 130.89 40.0607 130.89 40.1052C130.89 40.1498 130.89 40.1975 130.89 40.2484C130.89 40.2929 130.89 40.3375 130.89 40.382C130.89 40.4329 130.89 40.4806 130.89 40.5252C130.89 40.5697 130.89 40.6174 130.89 40.6683C130.89 40.7129 130.89 40.7574 130.89 40.8019C130.89 40.8528 130.89 40.9006 130.89 40.9451C130.89 40.9896 130.89 41.0342 130.89 41.0787C130.89 41.1296 130.89 41.1773 130.89 41.2219C130.89 41.2664 130.89 41.3141 130.89 41.365C130.89 41.4096 130.89 41.4541 130.89 41.4987C130.89 41.5496 130.89 41.5973 130.89 41.6418C130.89 41.6864 130.89 41.7341 130.89 41.785C130.89 41.8295 130.89 41.8741 130.89 41.9186C130.89 41.9695 130.89 42.0172 130.89 42.0618C130.89 42.1063 130.89 42.154 130.89 42.2049C130.89 42.2495 130.89 42.294 130.89 42.3385C130.89 42.3894 130.89 42.4372 130.89 42.4817C130.89 42.5262 130.89 42.5708 130.89 42.6153C130.89 42.6662 130.89 42.7139 130.89 42.7585C130.89 42.803 130.89 42.8507 130.89 42.9016C130.89 42.9462 130.89 42.9907 130.89 43.0353C130.89 43.0862 130.89 43.1339 130.89 43.1784C130.89 43.223 130.89 43.2707 130.89 43.3216C130.89 43.3661 130.89 43.4107 130.89 43.4552C130.89 43.5061 130.89 43.5538 130.89 43.5984C130.89 43.6429 130.89 43.6906 130.89 43.7415C130.89 43.7861 130.89 43.8306 130.89 43.8751C130.89 43.926 130.89 43.9738 130.89 44.0183C130.89 44.0628 130.89 44.1074 130.89 44.1519C130.89 44.2028 130.89 44.2505 130.89 44.2951C130.89 44.3396 130.89 44.3874 130.89 44.4383C130.89 44.4828 130.89 44.5273 130.89 44.5719C130.89 44.6228 130.89 44.6705 130.89 44.715C130.89 44.7596 130.89 44.8073 130.89 44.8582C130.89 44.9027 130.89 44.9473 130.89 44.9918C130.89 45.0427 130.89 45.0904 130.89 45.135C130.89 45.1795 130.89 45.2272 130.89 45.2781C130.89 45.3227 130.89 45.3672 130.89 45.4117C130.89 45.4627 130.89 45.5104 130.89 45.5549C130.89 45.5994 130.89 45.6472 130.89 45.6981C130.89 45.7426 130.89 45.7872 130.89 45.8317C130.89 45.8762 130.89 45.924 130.89 45.9749C130.89 46.0194 130.89 46.0639 130.89 46.1085C130.89 46.1594 130.89 46.2071 130.89 46.2516C130.89 46.2962 130.89 46.3439 130.89 46.3948C130.89 46.4393 130.89 46.4839 130.89 46.5284C130.89 46.5793 130.89 46.627 130.89 46.6716C130.89 46.7161 130.89 46.7638 130.89 46.8147C130.89 46.8593 130.89 46.9038 130.89 46.9483C130.89 46.9993 130.89 47.047 130.89 47.0915C130.89 47.1361 130.89 47.1838 130.89 47.2347C130.89 47.2792 130.89 47.3238 130.89 47.3683C130.89 47.4128 130.89 47.4606 130.89 47.5115C130.89 47.556 130.89 47.6005 130.89 47.6451C130.89 47.696 130.89 47.7437 130.89 47.7882C130.89 47.8328 130.89 47.8805 130.89 47.9314C130.89 47.9759 130.89 48.0205 130.89 48.065C130.89 48.1159 130.89 48.1636 130.89 48.2082C130.89 48.2527 130.89 48.3004 130.89 48.3513C130.89 48.3959 130.89 48.4404 130.89 48.485C130.89 48.5359 130.89 48.5836 130.89 48.6281C130.89 48.6727 130.89 48.7204 130.89 48.7713C130.89 48.8158 130.89 48.8604 130.89 48.9049C130.89 48.9494 130.89 48.9972 130.89 49.0481C130.89 49.0926 130.89 49.1371 130.89 49.1817C130.89 49.2326 130.89 49.2803 130.89 49.3248C130.89 49.3694 130.89 49.4171 130.89 49.468C130.89 49.5125 130.89 49.5571 130.89 49.6016C130.89 49.6525 130.89 49.7002 130.89 49.7448C130.89 49.7893 130.89 49.837 130.89 49.8879C130.89 49.9325 130.89 49.977 130.89 50.0216C130.89 50.0725 130.89 50.1202 130.89 50.1647C130.89 50.2093 130.89 50.257 130.89 50.3079C130.89 50.3524 130.89 50.397 130.89 50.4415C130.89 50.486 130.89 50.5338 130.89 50.5847C130.89 50.6292 130.89 50.6737 130.89 50.7183C130.89 50.7692 130.89 50.8169 130.89 50.8614C130.89 50.906 130.89 50.9537 130.89 51.0046C130.89 51.0491 130.89 51.0937 130.89 51.1382C130.89 51.1891 130.89 51.2368 130.89 51.2814C130.89 51.3259 130.89 51.3736 130.89 51.4245C130.89 51.4691 130.89 51.5136 130.89 51.5582C130.89 51.6091 130.89 51.6568 130.89 51.7013C130.89 51.7459 130.89 51.7936 130.89 51.8445C130.89 51.889 130.89 51.9336 130.89 51.9781C130.89 52.0226 130.89 52.0704 130.89 52.1213C130.89 52.1658 130.89 52.2103 130.89 52.2549C130.89 52.3058 130.89 52.3535 130.89 52.398C130.89 52.4426 130.89 52.4903 130.89 52.5412C130.89 52.5857 130.89 52.6303 130.89 52.6748C130.89 52.7257 130.89 52.7734 130.89 52.818C130.89 52.8625 130.89 52.9102 130.89 52.9611C130.89 53.0057 130.89 53.0502 130.89 53.0948C130.89 53.1457 130.89 53.1934 130.89 53.2379C130.89 53.2825 130.89 53.3302 130.89 53.3811C130.89 53.4256 130.89 53.4702 130.89 53.5147C130.89 53.5656 130.89 53.6133 130.89 53.6579C130.89 53.7024 130.89 53.7469 130.89 53.7915C130.89 53.8424 130.89 53.8901 130.89 53.9346C130.89 53.9792 130.89 54.0269 130.89 54.0778C130.89 54.1223 130.89 54.1669 130.89 54.2114C130.89 54.2623 130.89 54.3101 130.89 54.3546C130.89 54.3991 130.89 54.4468 130.89 54.4978C130.89 54.5423 130.89 54.5868 130.89 54.6314C130.89 54.6823 130.89 54.73 130.89 54.7745C130.89 54.8191 130.89 54.8668 130.89 54.9177C130.903 54.9622 130.919 55.0068 130.938 55.0513C130.938 55.1022 130.938 55.1499 130.938 55.1945C130.938 55.239 130.938 55.2836 130.938 55.3281C130.95 55.379 130.966 55.4267 130.985 55.4713C130.985 55.5158 130.985 55.5635 130.985 55.6144C130.998 55.659 131.011 55.7035 131.024 55.748C131.043 55.7989 131.059 55.8467 131.071 55.8912C131.09 55.9357 131.106 55.9835 131.119 56.0344C131.138 56.0789 131.154 56.1234 131.167 56.168C131.199 56.2189 131.23 56.2666 131.262 56.3111C131.275 56.3557 131.291 56.4034 131.31 56.4543C131.342 56.4988 131.374 56.5434 131.405 56.5879C131.45 56.6388 131.494 56.6865 131.539 56.7311C131.571 56.7756 131.603 56.8202 131.634 56.8647C131.679 56.9156 131.727 56.9633 131.778 57.0079C131.822 57.0524 131.867 57.1001 131.911 57.151C131.956 57.1956 132.003 57.2401 132.054 57.2846C132.118 57.3355 132.178 57.3833 132.236 57.4278C132.318 57.4723 132.398 57.5201 132.474 57.571C132.563 57.6155 132.656 57.66 132.751 57.7046C132.878 57.7555 133.002 57.8032 133.123 57.8477C133.251 57.8796 133.375 57.9114 133.496 57.9432C133.667 57.9559 133.839 57.9718 134.011 57.9909C134.183 57.9718 134.351 57.9559 134.517 57.9432C134.644 57.9114 134.768 57.8796 134.889 57.8477C135.016 57.8032 135.14 57.7555 135.261 57.7046C135.357 57.66 135.452 57.6155 135.547 57.571C135.611 57.5201 135.672 57.4723 135.729 57.4278C135.792 57.3833 135.856 57.3355 135.92 57.2846C135.983 57.2401 136.044 57.1956 136.101 57.151C136.152 57.1001 136.2 57.0524 136.244 57.0079C136.289 56.9633 136.336 56.9156 136.387 56.8647C136.413 56.8202 136.441 56.7756 136.473 56.7311C136.505 56.6865 136.537 56.6388 136.569 56.5879C136.601 56.5434 136.632 56.4988 136.664 56.4543C136.677 56.4034 136.693 56.3557 136.712 56.3111C136.744 56.2666 136.772 56.2189 136.798 56.168C136.817 56.1234 136.833 56.0789 136.845 56.0344C136.865 55.9835 136.88 55.9357 136.893 55.8912C136.912 55.8467 136.928 55.7989 136.941 55.748C136.96 55.7035 136.976 55.659 136.989 55.6144C137.001 55.5635 137.017 55.5158 137.036 55.4713C137.049 55.4267 137.065 55.379 137.084 55.3281C137.084 55.2836 137.084 55.239 137.084 55.1945C137.084 55.1499 137.084 55.1022 137.084 55.0513C137.084 55.0068 137.084 54.9622 137.084 54.9177C137.097 54.8668 137.113 54.8191 137.132 54.7745C137.132 54.73 137.132 54.6823 137.132 54.6314C137.132 54.5868 137.132 54.5423 137.132 54.4978C137.132 54.4468 137.132 54.3991 137.132 54.3546C137.132 54.3101 137.132 54.2623 137.132 54.2114C137.132 54.1669 137.132 54.1223 137.132 54.0778C137.132 54.0269 137.132 53.9792 137.132 53.9346C137.132 53.8901 137.132 53.8424 137.132 53.7915C137.132 53.7469 137.132 53.7024 137.132 53.6579C137.132 53.6133 137.132 53.5656 137.132 53.5147C137.132 53.4702 137.132 53.4256 137.132 53.3811C137.132 53.3302 137.132 53.2825 137.132 53.2379C137.132 53.1934 137.132 53.1457 137.132 53.0948C137.132 53.0502 137.132 53.0057 137.132 52.9611C137.132 52.9102 137.132 52.8625 137.132 52.818C137.132 52.7734 137.132 52.7257 137.132 52.6748C137.132 52.6303 137.132 52.5857 137.132 52.5412C137.132 52.4903 137.132 52.4426 137.132 52.398C137.132 52.3535 137.132 52.3058 137.132 52.2549C137.132 52.2103 137.132 52.1658 137.132 52.1213C137.132 52.0704 137.132 52.0226 137.132 51.9781C137.132 51.9336 137.132 51.889 137.132 51.8445C137.132 51.7936 137.132 51.7459 137.132 51.7013C137.132 51.6568 137.132 51.6091 137.132 51.5582C137.132 51.5136 137.132 51.4691 137.132 51.4245C137.132 51.3736 137.132 51.3259 137.132 51.2814C137.132 51.2368 137.132 51.1891 137.132 51.1382C137.132 51.0937 137.132 51.0491 137.132 51.0046C137.132 50.9537 137.132 50.906 137.132 50.8614C137.132 50.8169 137.132 50.7692 137.132 50.7183C137.132 50.6737 137.132 50.6292 137.132 50.5847C137.132 50.5338 137.132 50.486 137.132 50.4415C137.132 50.397 137.132 50.3524 137.132 50.3079C137.132 50.257 137.132 50.2093 137.132 50.1647C137.132 50.1202 137.132 50.0725 137.132 50.0216C137.132 49.977 137.132 49.9325 137.132 49.8879C137.132 49.837 137.132 49.7893 137.132 49.7448C137.132 49.7002 137.132 49.6525 137.132 49.6016C137.132 49.5571 137.132 49.5125 137.132 49.468C137.132 49.4171 137.132 49.3694 137.132 49.3248C137.132 49.2803 137.132 49.2326 137.132 49.1817C137.132 49.1371 137.132 49.0926 137.132 49.0481C137.132 48.9972 137.132 48.9494 137.132 48.9049C137.132 48.8604 137.132 48.8158 137.132 48.7713C137.132 48.7204 137.132 48.6727 137.132 48.6281C137.132 48.5836 137.132 48.5359 137.132 48.485C137.132 48.4404 137.132 48.3959 137.132 48.3513C137.132 48.3004 137.132 48.2527 137.132 48.2082C137.132 48.1636 137.132 48.1159 137.132 48.065C137.132 48.0205 137.132 47.9759 137.132 47.9314C137.132 47.8805 137.132 47.8328 137.132 47.7882C137.132 47.7437 137.132 47.696 137.132 47.6451C137.132 47.6005 137.132 47.556 137.132 47.5115C137.132 47.4606 137.132 47.4128 137.132 47.3683C137.132 47.3238 137.132 47.2792 137.132 47.2347C137.132 47.1838 137.132 47.1361 137.132 47.0915C137.132 47.047 137.132 46.9993 137.132 46.9483C137.132 46.9038 137.132 46.8593 137.132 46.8147C137.132 46.7638 137.132 46.7161 137.132 46.6716C137.132 46.627 137.132 46.5793 137.132 46.5284C137.132 46.4839 137.132 46.4393 137.132 46.3948C137.132 46.3439 137.132 46.2962 137.132 46.2516C137.132 46.2071 137.132 46.1594 137.132 46.1085C137.132 46.0639 137.132 46.0194 137.132 45.9749C137.132 45.924 137.132 45.8762 137.132 45.8317C137.132 45.7872 137.132 45.7426 137.132 45.6981C137.132 45.6472 137.132 45.5994 137.132 45.5549C137.132 45.5104 137.132 45.4627 137.132 45.4117C137.132 45.3672 137.132 45.3227 137.132 45.2781C137.132 45.2272 137.132 45.1795 137.132 45.135C137.132 45.0904 137.132 45.0427 137.132 44.9918C137.132 44.9473 137.132 44.9027 137.132 44.8582C137.132 44.8073 137.132 44.7596 137.132 44.715C137.132 44.6705 137.132 44.6228 137.132 44.5719C137.132 44.5273 137.132 44.4828 137.132 44.4383C137.132 44.3874 137.132 44.3396 137.132 44.2951C137.132 44.2505 137.132 44.2028 137.132 44.1519C137.132 44.1074 137.132 44.0628 137.132 44.0183C137.132 43.9738 137.132 43.926 137.132 43.8751C137.132 43.8306 137.132 43.7861 137.132 43.7415C137.132 43.6906 137.132 43.6429 137.132 43.5984C137.132 43.5538 137.132 43.5061 137.132 43.4552C137.132 43.4107 137.132 43.3661 137.132 43.3216C137.132 43.2707 137.132 43.223 137.132 43.1784C137.132 43.1339 137.132 43.0862 137.132 43.0353C137.132 42.9907 137.132 42.9462 137.132 42.9016C137.132 42.8507 137.132 42.803 137.132 42.7585C137.132 42.7139 137.132 42.6662 137.132 42.6153C137.132 42.5708 137.132 42.5262 137.132 42.4817C137.132 42.4372 137.132 42.3894 137.132 42.3385C137.132 42.294 137.132 42.2495 137.132 42.2049C137.132 42.154 137.132 42.1063 137.132 42.0618C137.132 42.0172 137.132 41.9695 137.132 41.9186C137.132 41.8741 137.132 41.8295 137.132 41.785C137.132 41.7341 137.132 41.6864 137.132 41.6418C137.132 41.5973 137.132 41.5496 137.132 41.4987C137.132 41.4541 137.132 41.4096 137.132 41.365C137.132 41.3141 137.132 41.2664 137.132 41.2219C137.132 41.1773 137.132 41.1296 137.132 41.0787C137.132 41.0342 137.132 40.9896 137.132 40.9451C137.132 40.9006 137.132 40.8528 137.132 40.8019C137.132 40.7574 137.132 40.7129 137.132 40.6683C137.132 40.6174 137.132 40.5697 137.132 40.5252C137.132 40.4806 137.132 40.4329 137.132 40.382C137.132 40.3375 137.132 40.2929 137.132 40.2484C137.132 40.1975 137.132 40.1498 137.132 40.1052C137.132 40.0607 137.132 40.013 137.132 39.9621C137.132 39.9175 137.132 39.873 137.132 39.8284C137.132 39.7775 137.132 39.7298 137.132 39.6853C137.132 39.6407 137.132 39.593 137.132 39.5421C137.132 39.4976 137.132 39.453 137.132 39.4085C137.132 39.364 137.132 39.3162 137.132 39.2653C137.132 39.2208 137.132 39.1763 137.132 39.1317C137.132 39.0808 137.132 39.0331 137.132 38.9885C137.132 38.944 137.132 38.8963 137.132 38.8454C137.132 38.8008 137.132 38.7563 137.132 38.7118C137.132 38.6609 137.132 38.6132 137.132 38.5686C137.132 38.5241 137.132 38.4764 137.132 38.4255C137.132 38.3809 137.132 38.3364 137.132 38.2918C137.132 38.2409 137.132 38.1932 137.132 38.1487C137.132 38.1041 137.132 38.0564 137.132 38.0055C137.132 37.961 137.132 37.9164 137.132 37.8719C137.132 37.821 137.132 37.7733 137.132 37.7287C137.132 37.6842 137.132 37.6396 137.132 37.5951C137.132 37.5442 137.132 37.4965 137.132 37.4519C137.132 37.4074 137.132 37.3597 137.132 37.3088C137.132 37.2642 137.132 37.2197 137.132 37.1752C137.132 37.1243 137.132 37.0765 137.132 37.032C137.132 36.9875 137.132 36.9397 137.132 36.8888C137.132 36.8443 137.132 36.7998 137.132 36.7552C137.132 36.7043 137.132 36.6566 137.132 36.6121C137.132 36.5675 137.132 36.5198 137.132 36.4689C137.132 36.4244 137.132 36.3798 137.132 36.3353C137.132 36.2844 137.132 36.2367 137.132 36.1921C137.132 36.1476 137.132 36.103 137.132 36.0585C137.132 36.0076 137.132 35.9599 137.132 35.9153C137.132 35.8708 137.132 35.8231 137.132 35.7722C137.132 35.7276 137.132 35.6831 137.132 35.6386C137.132 35.5877 137.132 35.5399 137.132 35.4954C137.132 35.4509 137.132 35.4031 137.132 35.3522C137.132 35.3077 137.132 35.2632 137.132 35.2186C137.132 35.1677 137.132 35.12 137.132 35.0755C137.132 35.0309 137.132 34.9832 137.132 34.9323C137.132 34.8878 137.132 34.8432 137.132 34.7987C137.132 34.7478 137.132 34.7001 137.132 34.6555C137.132 34.611 137.132 34.5664 137.132 34.5219C137.132 34.471 137.132 34.4233 137.132 34.3787C137.132 34.3342 137.132 34.2865 137.132 34.2356C137.132 34.191 137.132 34.1465 137.132 34.102C137.132 34.0511 137.132 34.0033 137.132 33.9588C137.132 33.9143 137.132 33.8665 137.132 33.8156C137.132 33.7711 137.132 33.7266 137.132 33.682C137.132 33.6311 137.132 33.5834 137.132 33.5389C137.132 33.4943 137.132 33.4466 137.132 33.3957C137.132 33.3512 137.132 33.3066 137.132 33.2621C137.132 33.2112 137.132 33.1635 137.132 33.1189C137.132 33.0744 137.132 33.0298 137.132 32.9853C137.132 32.9344 137.132 32.8867 137.132 32.8421C137.132 32.7976 137.132 32.7499 137.132 32.699C137.132 32.6544 137.132 32.6099 137.132 32.5654C137.132 32.5145 137.132 32.4667 137.132 32.4222C137.132 32.3777 137.132 32.3299 137.132 32.279C137.132 32.2345 137.132 32.19 137.132 32.1454C137.132 32.0945 137.132 32.0468 137.132 32.0023C137.132 31.9577 137.132 31.91 137.132 31.8591C137.132 31.8146 137.132 31.77 137.132 31.7255C137.132 31.6746 137.132 31.6269 137.132 31.5823C137.132 31.5378 137.132 31.4932 137.132 31.4487C137.132 31.3978 137.132 31.3501 137.132 31.3055C137.132 31.261 137.132 31.2133 137.132 31.1624C137.132 31.1178 137.132 31.0733 137.132 31.0288C137.132 30.9779 137.132 30.9301 137.132 30.8856C137.132 30.8411 137.132 30.7933 137.132 30.7424C137.132 30.6979 137.132 30.6534 137.132 30.6088C137.132 30.5579 137.132 30.5102 137.132 30.4657C137.132 30.4211 137.132 30.3734 137.132 30.3225C137.132 30.278 137.132 30.2334 137.132 30.1889C137.132 30.138 137.132 30.0903 137.132 30.0457C137.132 30.0012 137.132 29.9535 137.132 29.9025C137.132 29.858 137.132 29.8135 137.132 29.7689C137.132 29.7244 137.132 29.6767 137.132 29.6258C137.132 29.5812 137.132 29.5367 137.132 29.4921C137.132 29.4412 137.132 29.3935 137.132 29.349C137.132 29.3044 137.132 29.2567 137.132 29.2058C137.132 29.1613 137.132 29.1168 137.132 29.0722C137.132 29.0213 137.132 28.9736 137.132 28.9291C137.132 28.8845 137.132 28.8368 137.132 28.7859C137.132 28.7414 137.132 28.6968 137.132 28.6523C137.132 28.6014 137.132 28.5536 137.132 28.5091C137.132 28.4646 137.132 28.4168 137.132 28.3659C137.132 28.3214 137.132 28.2769 137.132 28.2323C137.132 28.1878 137.132 28.1401 137.132 28.0892C137.132 28.0446 137.132 28.0001 137.132 27.9555C137.132 27.9046 137.132 27.8569 137.132 27.8124C137.132 27.7678 137.132 27.7201 137.132 27.6692C137.132 27.6247 137.132 27.5801 137.132 27.5356C137.132 27.4847 137.132 27.437 137.132 27.3924C137.132 27.3479 137.132 27.3002 137.132 27.2493C137.132 27.2047 137.132 27.1602 137.132 27.1157C137.132 27.0648 137.132 27.017 137.132 26.9725C137.132 26.928 137.132 26.8802 137.132 26.8293C137.132 26.7848 137.132 26.7403 137.132 26.6957C137.132 26.6512 137.132 26.6035 137.132 26.5526C137.132 26.508 137.132 26.4635 137.132 26.4189C137.132 26.368 137.132 26.3203 137.132 26.2758C137.132 26.2312 137.132 26.1835 137.132 26.1326C137.132 26.0881 137.132 26.0435 137.132 25.999C137.132 25.9481 137.132 25.9004 137.132 25.8558C137.132 25.8113 137.132 25.7636 137.132 25.7127C137.132 25.6681 137.132 25.6236 137.132 25.5791C137.132 25.5282 137.132 25.4804 137.132 25.4359C137.132 25.3914 137.132 25.3436 137.132 25.2927C137.132 25.2482 137.132 25.2037 137.132 25.1591C137.132 25.1146 137.132 25.0669 137.132 25.016C137.132 24.9714 137.132 24.9269 137.132 24.8823C137.132 24.8314 137.132 24.7837 137.132 24.7392C137.132 24.6946 137.132 24.6469 137.132 24.596C137.132 24.5515 137.132 24.5069 137.132 24.4624C137.399 24.1634 137.673 23.8134 137.953 23.4125C140.294 19.9703 141.538 15.44 141.684 9.82171C141.71 8.86094 141.694 8.03378 141.637 7.34024ZM88.8004 2.67316C88.3104 1.94781 87.7314 1.37516 87.0634 0.955223C86.0262 0.299859 84.7887 -0.0182779 83.3507 0.00081035C82.129 0.0135358 81.0633 0.271236 80.1534 0.773894C79.409 1.19383 78.7345 1.79511 78.1301 2.57772C77.761 3.04857 77.3983 3.6085 77.042 4.2575C76.8002 4.70289 76.5044 5.30098 76.1544 6.05179C75.4354 7.62338 74.9678 8.89594 74.7514 9.86944C74.2869 11.9246 74.3888 14.1547 75.0569 16.5599C75.585 18.4878 76.4376 20.403 77.6147 22.3054C78.1237 23.1199 78.5914 23.7371 79.0177 24.157C79.1767 24.3161 79.3422 24.4656 79.514 24.6056C79.514 24.6501 79.514 24.6946 79.514 24.7392C79.514 24.7837 79.514 24.8314 79.514 24.8823C79.514 24.9269 79.514 24.9714 79.514 25.016C79.514 25.0669 79.514 25.1146 79.514 25.1591C79.514 25.2037 79.514 25.2482 79.514 25.2927C79.514 25.3436 79.514 25.3914 79.514 25.4359C79.514 25.4804 79.514 25.5282 79.514 25.5791C79.514 25.6236 79.514 25.6681 79.514 25.7127C79.514 25.7636 79.514 25.8113 79.514 25.8558C79.514 25.9004 79.514 25.9481 79.514 25.999C79.514 26.0435 79.514 26.0881 79.514 26.1326C79.514 26.1835 79.514 26.2312 79.514 26.2758C79.514 26.3203 79.514 26.368 79.514 26.4189C79.514 26.4635 79.514 26.508 79.514 26.5526C79.514 26.6035 79.514 26.6512 79.514 26.6957C79.514 26.7403 79.514 26.7848 79.514 26.8293C79.514 26.8802 79.514 26.928 79.514 26.9725C79.514 27.017 79.514 27.0648 79.514 27.1157C79.514 27.1602 79.514 27.2047 79.514 27.2493C79.514 27.3002 79.514 27.3479 79.514 27.3924C79.514 27.437 79.514 27.4847 79.514 27.5356C79.514 27.5801 79.514 27.6247 79.514 27.6692C79.514 27.7201 79.514 27.7678 79.514 27.8124C79.514 27.8569 79.514 27.9046 79.514 27.9555C79.514 28.0001 79.514 28.0446 79.514 28.0892C79.514 28.1401 79.514 28.1878 79.514 28.2323C79.514 28.2769 79.514 28.3214 79.514 28.3659C79.514 28.4168 79.514 28.4646 79.514 28.5091C79.514 28.5536 79.514 28.6014 79.514 28.6523C79.514 28.6968 79.514 28.7414 79.514 28.7859C79.514 28.8368 79.514 28.8845 79.514 28.9291C79.514 28.9736 79.514 29.0213 79.514 29.0722C79.514 29.1168 79.514 29.1613 79.514 29.2058C79.514 29.2567 79.514 29.3044 79.514 29.349C79.514 29.3935 79.514 29.4412 79.514 29.4921C79.514 29.5367 79.514 29.5812 79.514 29.6258C79.514 29.6767 79.514 29.7244 79.514 29.7689C79.514 29.8135 79.514 29.858 79.514 29.9025C79.514 29.9535 79.514 30.0012 79.514 30.0457C79.514 30.0903 79.514 30.138 79.514 30.1889C79.514 30.2334 79.514 30.278 79.514 30.3225C79.514 30.3734 79.514 30.4211 79.514 30.4657C79.514 30.5102 79.514 30.5579 79.514 30.6088C79.514 30.6534 79.514 30.6979 79.514 30.7424C79.514 30.7933 79.514 30.8411 79.514 30.8856C79.514 30.9301 79.514 30.9779 79.514 31.0288C79.514 31.0733 79.514 31.1178 79.514 31.1624C79.514 31.2133 79.514 31.261 79.514 31.3055C79.514 31.3501 79.514 31.3978 79.514 31.4487C79.514 31.4932 79.514 31.5378 79.514 31.5823C79.514 31.6269 79.514 31.6746 79.514 31.7255C79.514 31.77 79.514 31.8146 79.514 31.8591C79.514 31.91 79.514 31.9577 79.514 32.0023C79.514 32.0468 79.514 32.0945 79.514 32.1454C79.514 32.19 79.514 32.2345 79.514 32.279C79.514 32.3299 79.514 32.3777 79.514 32.4222C79.514 32.4667 79.514 32.5145 79.514 32.5654C79.514 32.6099 79.514 32.6544 79.514 32.699C79.514 32.7499 79.514 32.7976 79.514 32.8421C79.514 32.8867 79.514 32.9344 79.514 32.9853C79.514 33.0298 79.514 33.0744 79.514 33.1189C79.514 33.1635 79.514 33.2112 79.514 33.2621C79.514 33.3066 79.514 33.3512 79.514 33.3957C79.514 33.4466 79.514 33.4943 79.514 33.5389C79.514 33.5834 79.514 33.6311 79.514 33.682C79.514 33.7266 79.514 33.7711 79.514 33.8156C79.514 33.8665 79.514 33.9143 79.514 33.9588C79.514 34.0033 79.514 34.0511 79.514 34.102C79.514 34.1465 79.514 34.191 79.514 34.2356C79.514 34.2865 79.514 34.3342 79.514 34.3787C79.514 34.4233 79.514 34.471 79.514 34.5219C79.514 34.5664 79.514 34.611 79.514 34.6555C79.514 34.7001 79.514 34.7478 79.514 34.7987C79.514 34.8432 79.514 34.8878 79.514 34.9323C79.514 34.9832 79.514 35.0309 79.514 35.0755C79.514 35.12 79.514 35.1677 79.514 35.2186C79.514 35.2632 79.514 35.3077 79.514 35.3522C79.514 35.4031 79.514 35.4509 79.514 35.4954C79.514 35.5399 79.514 35.5877 79.514 35.6386C79.514 35.6831 79.514 35.7276 79.514 35.7722C79.514 35.8231 79.514 35.8708 79.514 35.9153C79.514 35.9599 79.514 36.0076 79.514 36.0585C79.514 36.103 79.514 36.1476 79.514 36.1921C79.514 36.2367 79.514 36.2844 79.514 36.3353C79.514 36.3798 79.514 36.4244 79.514 36.4689C79.514 36.5198 79.514 36.5675 79.514 36.6121C79.514 36.6566 79.514 36.7043 79.514 36.7552C79.514 36.7998 79.514 36.8443 79.514 36.8888C79.514 36.9397 79.514 36.9875 79.514 37.032C79.514 37.0765 79.514 37.1243 79.514 37.1752C79.514 37.2197 79.514 37.2642 79.514 37.3088C79.514 37.3597 79.514 37.4074 79.514 37.4519C79.514 37.4965 79.514 37.5442 79.514 37.5951C79.514 37.6396 79.514 37.6842 79.514 37.7287C79.514 37.7733 79.514 37.821 79.514 37.8719C79.514 37.9164 79.514 37.961 79.514 38.0055C79.514 38.0564 79.514 38.1041 79.514 38.1487C79.514 38.1932 79.514 38.2409 79.514 38.2918C79.514 38.3364 79.514 38.3809 79.514 38.4255C79.514 38.4764 79.514 38.5241 79.514 38.5686C79.514 38.6132 79.514 38.6609 79.514 38.7118C79.514 38.7563 79.514 38.8008 79.514 38.8454C79.514 38.8963 79.514 38.944 79.514 38.9885C79.514 39.0331 79.514 39.0808 79.514 39.1317C79.514 39.1763 79.514 39.2208 79.514 39.2653C79.514 39.3162 79.514 39.364 79.514 39.4085C79.514 39.453 79.514 39.4976 79.514 39.5421C79.514 39.593 79.514 39.6407 79.514 39.6853C79.514 39.7298 79.514 39.7775 79.514 39.8284C79.514 39.873 79.514 39.9175 79.514 39.9621C79.514 40.013 79.514 40.0607 79.514 40.1052C79.514 40.1498 79.514 40.1975 79.514 40.2484C79.514 40.2929 79.514 40.3375 79.514 40.382C79.514 40.4329 79.514 40.4806 79.514 40.5252C79.514 40.5697 79.514 40.6174 79.514 40.6683C79.514 40.7129 79.514 40.7574 79.514 40.8019C79.514 40.8528 79.514 40.9006 79.514 40.9451C79.514 40.9896 79.514 41.0342 79.514 41.0787C79.514 41.1296 79.514 41.1773 79.514 41.2219C79.514 41.2664 79.514 41.3141 79.514 41.365C79.514 41.4096 79.514 41.4541 79.514 41.4987C79.514 41.5496 79.514 41.5973 79.514 41.6418C79.514 41.6864 79.514 41.7341 79.514 41.785C79.514 41.8295 79.514 41.8741 79.514 41.9186C79.514 41.9695 79.514 42.0172 79.514 42.0618C79.514 42.1063 79.514 42.154 79.514 42.2049C79.514 42.2495 79.514 42.294 79.514 42.3385C79.514 42.3894 79.514 42.4372 79.514 42.4817C79.514 42.5262 79.514 42.5708 79.514 42.6153C79.514 42.6662 79.514 42.7139 79.514 42.7585C79.514 42.803 79.514 42.8507 79.514 42.9016C79.514 42.9462 79.514 42.9907 79.514 43.0353C79.514 43.0862 79.514 43.1339 79.514 43.1784C79.514 43.223 79.514 43.2707 79.514 43.3216C79.514 43.3661 79.514 43.4107 79.514 43.4552C79.514 43.5061 79.514 43.5538 79.514 43.5984C79.514 43.6429 79.514 43.6906 79.514 43.7415C79.514 43.7861 79.514 43.8306 79.514 43.8751C79.514 43.926 79.514 43.9738 79.514 44.0183C79.514 44.0628 79.514 44.1074 79.514 44.1519C79.514 44.2028 79.514 44.2505 79.514 44.2951C79.514 44.3396 79.514 44.3874 79.514 44.4383C79.514 44.4828 79.514 44.5273 79.514 44.5719C79.514 44.6228 79.514 44.6705 79.514 44.715C79.514 44.7596 79.514 44.8073 79.514 44.8582C79.514 44.9027 79.514 44.9473 79.514 44.9918C79.514 45.0427 79.514 45.0904 79.514 45.135C79.514 45.1795 79.514 45.2272 79.514 45.2781C79.514 45.3227 79.514 45.3672 79.514 45.4117C79.514 45.4627 79.514 45.5104 79.514 45.5549C79.514 45.5994 79.514 45.6472 79.514 45.6981C79.514 45.7426 79.514 45.7872 79.514 45.8317C79.514 45.8762 79.514 45.924 79.514 45.9749C79.514 46.0194 79.514 46.0639 79.514 46.1085C79.514 46.1594 79.514 46.2071 79.514 46.2516C79.514 46.2962 79.514 46.3439 79.514 46.3948C79.514 46.4393 79.514 46.4839 79.514 46.5284C79.514 46.5793 79.514 46.627 79.514 46.6716C79.514 46.7161 79.514 46.7638 79.514 46.8147C79.514 46.8593 79.514 46.9038 79.514 46.9483C79.514 46.9993 79.514 47.047 79.514 47.0915C79.514 47.1361 79.514 47.1838 79.514 47.2347C79.514 47.2792 79.514 47.3238 79.514 47.3683C79.514 47.4128 79.514 47.4606 79.514 47.5115C79.514 47.556 79.514 47.6005 79.514 47.6451C79.514 47.696 79.514 47.7437 79.514 47.7882C79.514 47.8328 79.514 47.8805 79.514 47.9314C79.514 47.9759 79.514 48.0205 79.514 48.065C79.514 48.1159 79.514 48.1636 79.514 48.2082C79.514 48.2527 79.514 48.3004 79.514 48.3513C79.514 48.3959 79.514 48.4404 79.514 48.485C79.514 48.5359 79.514 48.5836 79.514 48.6281C79.514 48.6727 79.514 48.7204 79.514 48.7713C79.514 48.8158 79.514 48.8604 79.514 48.9049C79.514 48.9494 79.514 48.9972 79.514 49.0481C79.514 49.0926 79.514 49.1371 79.514 49.1817C79.514 49.2326 79.514 49.2803 79.514 49.3248C79.514 49.3694 79.514 49.4171 79.514 49.468C79.514 49.5125 79.514 49.5571 79.514 49.6016C79.514 49.6525 79.514 49.7002 79.514 49.7448C79.514 49.7893 79.514 49.837 79.514 49.8879C79.514 49.9325 79.514 49.977 79.514 50.0216C79.514 50.0725 79.514 50.1202 79.514 50.1647C79.514 50.2093 79.514 50.257 79.514 50.3079C79.514 50.3524 79.514 50.397 79.514 50.4415C79.514 50.486 79.514 50.5338 79.514 50.5847C79.514 50.6292 79.514 50.6737 79.514 50.7183C79.514 50.7692 79.514 50.8169 79.514 50.8614C79.514 50.906 79.514 50.9537 79.514 51.0046C79.514 51.0491 79.514 51.0937 79.514 51.1382C79.514 51.1891 79.514 51.2368 79.514 51.2814C79.514 51.3259 79.514 51.3736 79.514 51.4245C79.514 51.4691 79.514 51.5136 79.514 51.5582C79.514 51.6091 79.514 51.6568 79.514 51.7013C79.514 51.7459 79.514 51.7936 79.514 51.8445C79.514 51.889 79.514 51.9336 79.514 51.9781C79.514 52.0226 79.514 52.0704 79.514 52.1213C79.514 52.1658 79.514 52.2103 79.514 52.2549C79.514 52.3058 79.514 52.3535 79.514 52.398C79.514 52.4426 79.514 52.4903 79.514 52.5412C79.514 52.5857 79.514 52.6303 79.514 52.6748C79.514 52.7257 79.514 52.7734 79.514 52.818C79.514 52.8625 79.514 52.9102 79.514 52.9611C79.514 53.0057 79.514 53.0502 79.514 53.0948C79.514 53.1457 79.514 53.1934 79.514 53.2379C79.514 53.2825 79.514 53.3302 79.514 53.3811C79.514 53.4256 79.514 53.4702 79.514 53.5147C79.514 53.5656 79.514 53.6133 79.514 53.6579C79.514 53.7024 79.514 53.7469 79.514 53.7915C79.514 53.8424 79.514 53.8901 79.514 53.9346C79.514 53.9792 79.514 54.0269 79.514 54.0778C79.514 54.1223 79.514 54.1669 79.514 54.2114C79.514 54.2623 79.514 54.3101 79.514 54.3546C79.514 54.3991 79.514 54.4468 79.514 54.4978C79.514 54.5423 79.514 54.5868 79.514 54.6314C79.514 54.6823 79.514 54.73 79.514 54.7745C79.514 54.8191 79.514 54.8668 79.514 54.9177C79.5267 54.9622 79.5426 55.0068 79.5617 55.0513C79.5617 55.1022 79.5617 55.1499 79.5617 55.1945C79.5617 55.239 79.5617 55.2836 79.5617 55.3281C79.5744 55.379 79.5903 55.4267 79.6094 55.4713C79.6094 55.5158 79.6094 55.5635 79.6094 55.6144C79.6221 55.659 79.6348 55.7035 79.6476 55.748C79.6667 55.7989 79.6826 55.8467 79.6953 55.8912C79.7144 55.9357 79.7303 55.9835 79.743 56.0344C79.7621 56.0789 79.778 56.1234 79.7907 56.168C79.8225 56.2189 79.8544 56.2666 79.8862 56.3111C79.8989 56.3557 79.9148 56.4034 79.9339 56.4543C79.9657 56.4988 79.9975 56.5434 80.0293 56.5879C80.0739 56.6388 80.1184 56.6865 80.163 56.7311C80.1948 56.7756 80.2266 56.8202 80.2584 56.8647C80.3029 56.9156 80.3507 56.9633 80.4016 57.0079C80.4461 57.0524 80.4906 57.1001 80.5352 57.151C80.5797 57.1956 80.6274 57.2401 80.6783 57.2846C80.742 57.3355 80.8024 57.3833 80.8597 57.4278C80.9424 57.4723 81.0219 57.5201 81.0983 57.571C81.1873 57.6155 81.2796 57.66 81.3751 57.7046C81.5023 57.7555 81.6264 57.8032 81.7473 57.8477C81.8745 57.8796 81.9986 57.9114 82.1195 57.9432C82.2913 57.9559 82.4631 57.9718 82.6349 57.9909C82.8067 57.9718 82.9753 57.9559 83.1407 57.9432C83.268 57.9114 83.392 57.8796 83.5129 57.8477C83.6402 57.8032 83.7643 57.7555 83.8852 57.7046C83.9806 57.66 84.076 57.6155 84.1715 57.571C84.2351 57.5201 84.2956 57.4723 84.3528 57.4278C84.4164 57.3833 84.4801 57.3355 84.5437 57.2846C84.6073 57.2401 84.6678 57.1956 84.725 57.151C84.7759 57.1001 84.8237 57.0524 84.8682 57.0079C84.9127 56.9633 84.9605 56.9156 85.0114 56.8647C85.0368 56.8202 85.0655 56.7756 85.0973 56.7311C85.1291 56.6865 85.1609 56.6388 85.1927 56.5879C85.2245 56.5434 85.2563 56.4988 85.2881 56.4543C85.3009 56.4034 85.3168 56.3557 85.3359 56.3111C85.3677 56.2666 85.3963 56.2189 85.4218 56.168C85.4408 56.1234 85.4568 56.0789 85.4695 56.0344C85.4886 55.9835 85.5045 55.9357 85.5172 55.8912C85.5363 55.8467 85.5522 55.7989 85.5649 55.748C85.584 55.7035 85.5999 55.659 85.6126 55.6144C85.6254 55.5635 85.6413 55.5158 85.6604 55.4713C85.6731 55.4267 85.689 55.379 85.7081 55.3281C85.7081 55.2836 85.7081 55.239 85.7081 55.1945C85.7081 55.1499 85.7081 55.1022 85.7081 55.0513C85.7081 55.0068 85.7081 54.9622 85.7081 54.9177C85.7208 54.8668 85.7367 54.8191 85.7558 54.7745C85.7558 54.73 85.7558 54.6823 85.7558 54.6314C85.7558 54.5868 85.7558 54.5423 85.7558 54.4978C85.7558 54.4468 85.7558 54.3991 85.7558 54.3546C85.7558 54.3101 85.7558 54.2623 85.7558 54.2114C85.7558 54.1669 85.7558 54.1223 85.7558 54.0778C85.7558 54.0269 85.7558 53.9792 85.7558 53.9346C85.7558 53.8901 85.7558 53.8424 85.7558 53.7915C85.7558 53.7469 85.7558 53.7024 85.7558 53.6579C85.7558 53.6133 85.7558 53.5656 85.7558 53.5147C85.7558 53.4702 85.7558 53.4256 85.7558 53.3811C85.7558 53.3302 85.7558 53.2825 85.7558 53.2379C85.7558 53.1934 85.7558 53.1457 85.7558 53.0948C85.7558 53.0502 85.7558 53.0057 85.7558 52.9611C85.7558 52.9102 85.7558 52.8625 85.7558 52.818C85.7558 52.7734 85.7558 52.7257 85.7558 52.6748C85.7558 52.6303 85.7558 52.5857 85.7558 52.5412C85.7558 52.4903 85.7558 52.4426 85.7558 52.398C85.7558 52.3535 85.7558 52.3058 85.7558 52.2549C85.7558 52.2103 85.7558 52.1658 85.7558 52.1213C85.7558 52.0704 85.7558 52.0226 85.7558 51.9781C85.7558 51.9336 85.7558 51.889 85.7558 51.8445C85.7558 51.7936 85.7558 51.7459 85.7558 51.7013C85.7558 51.6568 85.7558 51.6091 85.7558 51.5582C85.7558 51.5136 85.7558 51.4691 85.7558 51.4245C85.7558 51.3736 85.7558 51.3259 85.7558 51.2814C85.7558 51.2368 85.7558 51.1891 85.7558 51.1382C85.7558 51.0937 85.7558 51.0491 85.7558 51.0046C85.7558 50.9537 85.7558 50.906 85.7558 50.8614C85.7558 50.8169 85.7558 50.7692 85.7558 50.7183C85.7558 50.6737 85.7558 50.6292 85.7558 50.5847C85.7558 50.5338 85.7558 50.486 85.7558 50.4415C85.7558 50.397 85.7558 50.3524 85.7558 50.3079C85.7558 50.257 85.7558 50.2093 85.7558 50.1647C85.7558 50.1202 85.7558 50.0725 85.7558 50.0216C85.7558 49.977 85.7558 49.9325 85.7558 49.8879C85.7558 49.837 85.7558 49.7893 85.7558 49.7448C85.7558 49.7002 85.7558 49.6525 85.7558 49.6016C85.7558 49.5571 85.7558 49.5125 85.7558 49.468C85.7558 49.4171 85.7558 49.3694 85.7558 49.3248C85.7558 49.2803 85.7558 49.2326 85.7558 49.1817C85.7558 49.1371 85.7558 49.0926 85.7558 49.0481C85.7558 48.9972 85.7558 48.9494 85.7558 48.9049C85.7558 48.8604 85.7558 48.8158 85.7558 48.7713C85.7558 48.7204 85.7558 48.6727 85.7558 48.6281C85.7558 48.5836 85.7558 48.5359 85.7558 48.485C85.7558 48.4404 85.7558 48.3959 85.7558 48.3513C85.7558 48.3004 85.7558 48.2527 85.7558 48.2082C85.7558 48.1636 85.7558 48.1159 85.7558 48.065C85.7558 48.0205 85.7558 47.9759 85.7558 47.9314C85.7558 47.8805 85.7558 47.8328 85.7558 47.7882C85.7558 47.7437 85.7558 47.696 85.7558 47.6451C85.7558 47.6005 85.7558 47.556 85.7558 47.5115C85.7558 47.4606 85.7558 47.4128 85.7558 47.3683C85.7558 47.3238 85.7558 47.2792 85.7558 47.2347C85.7558 47.1838 85.7558 47.1361 85.7558 47.0915C85.7558 47.047 85.7558 46.9993 85.7558 46.9483C85.7558 46.9038 85.7558 46.8593 85.7558 46.8147C85.7558 46.7638 85.7558 46.7161 85.7558 46.6716C85.7558 46.627 85.7558 46.5793 85.7558 46.5284C85.7558 46.4839 85.7558 46.4393 85.7558 46.3948C85.7558 46.3439 85.7558 46.2962 85.7558 46.2516C85.7558 46.2071 85.7558 46.1594 85.7558 46.1085C85.7558 46.0639 85.7558 46.0194 85.7558 45.9749C85.7558 45.924 85.7558 45.8762 85.7558 45.8317C85.7558 45.7872 85.7558 45.7426 85.7558 45.6981C85.7558 45.6472 85.7558 45.5994 85.7558 45.5549C85.7558 45.5104 85.7558 45.4627 85.7558 45.4117C85.7558 45.3672 85.7558 45.3227 85.7558 45.2781C85.7558 45.2272 85.7558 45.1795 85.7558 45.135C85.7558 45.0904 85.7558 45.0427 85.7558 44.9918C85.7558 44.9473 85.7558 44.9027 85.7558 44.8582C85.7558 44.8073 85.7558 44.7596 85.7558 44.715C85.7558 44.6705 85.7558 44.6228 85.7558 44.5719C85.7558 44.5273 85.7558 44.4828 85.7558 44.4383C85.7558 44.3874 85.7558 44.3396 85.7558 44.2951C85.7558 44.2505 85.7558 44.2028 85.7558 44.1519C85.7558 44.1074 85.7558 44.0628 85.7558 44.0183C85.7558 43.9738 85.7558 43.926 85.7558 43.8751C85.7558 43.8306 85.7558 43.7861 85.7558 43.7415C85.7558 43.6906 85.7558 43.6429 85.7558 43.5984C85.7558 43.5538 85.7558 43.5061 85.7558 43.4552C85.7558 43.4107 85.7558 43.3661 85.7558 43.3216C85.7558 43.2707 85.7558 43.223 85.7558 43.1784C85.7558 43.1339 85.7558 43.0862 85.7558 43.0353C85.7558 42.9907 85.7558 42.9462 85.7558 42.9016C85.7558 42.8507 85.7558 42.803 85.7558 42.7585C85.7558 42.7139 85.7558 42.6662 85.7558 42.6153C85.7558 42.5708 85.7558 42.5262 85.7558 42.4817C85.7558 42.4372 85.7558 42.3894 85.7558 42.3385C85.7558 42.294 85.7558 42.2495 85.7558 42.2049C85.7558 42.154 85.7558 42.1063 85.7558 42.0618C85.7558 42.0172 85.7558 41.9695 85.7558 41.9186C85.7558 41.8741 85.7558 41.8295 85.7558 41.785C85.7558 41.7341 85.7558 41.6864 85.7558 41.6418C85.7558 41.5973 85.7558 41.5496 85.7558 41.4987C85.7558 41.4541 85.7558 41.4096 85.7558 41.365C85.7558 41.3141 85.7558 41.2664 85.7558 41.2219C85.7558 41.1773 85.7558 41.1296 85.7558 41.0787C85.7558 41.0342 85.7558 40.9896 85.7558 40.9451C85.7558 40.9006 85.7558 40.8528 85.7558 40.8019C85.7558 40.7574 85.7558 40.7129 85.7558 40.6683C85.7558 40.6174 85.7558 40.5697 85.7558 40.5252C85.7558 40.4806 85.7558 40.4329 85.7558 40.382C85.7558 40.3375 85.7558 40.2929 85.7558 40.2484C85.7558 40.1975 85.7558 40.1498 85.7558 40.1052C85.7558 40.0607 85.7558 40.013 85.7558 39.9621C85.7558 39.9175 85.7558 39.873 85.7558 39.8284C85.7558 39.7775 85.7558 39.7298 85.7558 39.6853C85.7558 39.6407 85.7558 39.593 85.7558 39.5421C85.7558 39.4976 85.7558 39.453 85.7558 39.4085C85.7558 39.364 85.7558 39.3162 85.7558 39.2653C85.7558 39.2208 85.7558 39.1763 85.7558 39.1317C85.7558 39.0808 85.7558 39.0331 85.7558 38.9885C85.7558 38.944 85.7558 38.8963 85.7558 38.8454C85.7558 38.8008 85.7558 38.7563 85.7558 38.7118C85.7558 38.6609 85.7558 38.6132 85.7558 38.5686C85.7558 38.5241 85.7558 38.4764 85.7558 38.4255C85.7558 38.3809 85.7558 38.3364 85.7558 38.2918C85.7558 38.2409 85.7558 38.1932 85.7558 38.1487C85.7558 38.1041 85.7558 38.0564 85.7558 38.0055C85.7558 37.961 85.7558 37.9164 85.7558 37.8719C85.7558 37.821 85.7558 37.7733 85.7558 37.7287C85.7558 37.6842 85.7558 37.6396 85.7558 37.5951C85.7558 37.5442 85.7558 37.4965 85.7558 37.4519C85.7558 37.4074 85.7558 37.3597 85.7558 37.3088C85.7558 37.2642 85.7558 37.2197 85.7558 37.1752C85.7558 37.1243 85.7558 37.0765 85.7558 37.032C85.7558 36.9875 85.7558 36.9397 85.7558 36.8888C85.7558 36.8443 85.7558 36.7998 85.7558 36.7552C85.7558 36.7043 85.7558 36.6566 85.7558 36.6121C85.7558 36.5675 85.7558 36.5198 85.7558 36.4689C85.7558 36.4244 85.7558 36.3798 85.7558 36.3353C85.7558 36.2844 85.7558 36.2367 85.7558 36.1921C85.7558 36.1476 85.7558 36.103 85.7558 36.0585C85.7558 36.0076 85.7558 35.9599 85.7558 35.9153C85.7558 35.8708 85.7558 35.8231 85.7558 35.7722C85.7558 35.7276 85.7558 35.6831 85.7558 35.6386C85.7558 35.5877 85.7558 35.5399 85.7558 35.4954C85.7558 35.4509 85.7558 35.4031 85.7558 35.3522C85.7558 35.3077 85.7558 35.2632 85.7558 35.2186C85.7558 35.1677 85.7558 35.12 85.7558 35.0755C85.7558 35.0309 85.7558 34.9832 85.7558 34.9323C85.7558 34.8878 85.7558 34.8432 85.7558 34.7987C85.7558 34.7478 85.7558 34.7001 85.7558 34.6555C85.7558 34.611 85.7558 34.5664 85.7558 34.5219C85.7558 34.471 85.7558 34.4233 85.7558 34.3787C85.7558 34.3342 85.7558 34.2865 85.7558 34.2356C85.7558 34.191 85.7558 34.1465 85.7558 34.102C85.7558 34.0511 85.7558 34.0033 85.7558 33.9588C85.7558 33.9143 85.7558 33.8665 85.7558 33.8156C85.7558 33.7711 85.7558 33.7266 85.7558 33.682C85.7558 33.6311 85.7558 33.5834 85.7558 33.5389C85.7558 33.4943 85.7558 33.4466 85.7558 33.3957C85.7558 33.3512 85.7558 33.3066 85.7558 33.2621C85.7558 33.2112 85.7558 33.1635 85.7558 33.1189C85.7558 33.0744 85.7558 33.0298 85.7558 32.9853C85.7558 32.9344 85.7558 32.8867 85.7558 32.8421C85.7558 32.7976 85.7558 32.7499 85.7558 32.699C85.7558 32.6544 85.7558 32.6099 85.7558 32.5654C85.7558 32.5145 85.7558 32.4667 85.7558 32.4222C85.7558 32.3777 85.7558 32.3299 85.7558 32.279C85.7558 32.2345 85.7558 32.19 85.7558 32.1454C85.7558 32.0945 85.7558 32.0468 85.7558 32.0023C85.7558 31.9577 85.7558 31.91 85.7558 31.8591C85.7558 31.8146 85.7558 31.77 85.7558 31.7255C85.7558 31.6746 85.7558 31.6269 85.7558 31.5823C85.7558 31.5378 85.7558 31.4932 85.7558 31.4487C85.7558 31.3978 85.7558 31.3501 85.7558 31.3055C85.7558 31.261 85.7558 31.2133 85.7558 31.1624C85.7558 31.1178 85.7558 31.0733 85.7558 31.0288C85.7558 30.9779 85.7558 30.9301 85.7558 30.8856C85.7558 30.8411 85.7558 30.7933 85.7558 30.7424C85.7558 30.6979 85.7558 30.6534 85.7558 30.6088C85.7558 30.5579 85.7558 30.5102 85.7558 30.4657C85.7558 30.4211 85.7558 30.3734 85.7558 30.3225C85.7558 30.278 85.7558 30.2334 85.7558 30.1889C85.7558 30.138 85.7558 30.0903 85.7558 30.0457C85.7558 30.0012 85.7558 29.9535 85.7558 29.9025C85.7558 29.858 85.7558 29.8135 85.7558 29.7689C85.7558 29.7244 85.7558 29.6767 85.7558 29.6258C85.7558 29.5812 85.7558 29.5367 85.7558 29.4921C85.7558 29.4412 85.7558 29.3935 85.7558 29.349C85.7558 29.3044 85.7558 29.2567 85.7558 29.2058C85.7558 29.1613 85.7558 29.1168 85.7558 29.0722C85.7558 29.0213 85.7558 28.9736 85.7558 28.9291C85.7558 28.8845 85.7558 28.8368 85.7558 28.7859C85.7558 28.7414 85.7558 28.6968 85.7558 28.6523C85.7558 28.6014 85.7558 28.5536 85.7558 28.5091C85.7558 28.4646 85.7558 28.4168 85.7558 28.3659C85.7558 28.3214 85.7558 28.2769 85.7558 28.2323C85.7558 28.1878 85.7558 28.1401 85.7558 28.0892C85.7558 28.0446 85.7558 28.0001 85.7558 27.9555C85.7558 27.9046 85.7558 27.8569 85.7558 27.8124C85.7558 27.7678 85.7558 27.7201 85.7558 27.6692C85.7558 27.6247 85.7558 27.5801 85.7558 27.5356C85.7558 27.4847 85.7558 27.437 85.7558 27.3924C85.7558 27.3479 85.7558 27.3002 85.7558 27.2493C85.7558 27.2047 85.7558 27.1602 85.7558 27.1157C85.7558 27.0648 85.7558 27.017 85.7558 26.9725C85.7558 26.928 85.7558 26.8802 85.7558 26.8293C85.7558 26.7848 85.7558 26.7403 85.7558 26.6957C85.7558 26.6512 85.7558 26.6035 85.7558 26.5526C85.7558 26.508 85.7558 26.4635 85.7558 26.4189C85.7558 26.368 85.7558 26.3203 85.7558 26.2758C85.7558 26.2312 85.7558 26.1835 85.7558 26.1326C85.7558 26.0881 85.7558 26.0435 85.7558 25.999C85.7558 25.9481 85.7558 25.9004 85.7558 25.8558C85.7558 25.8113 85.7558 25.7636 85.7558 25.7127C85.7558 25.6681 85.7558 25.6236 85.7558 25.5791C85.7558 25.5282 85.7558 25.4804 85.7558 25.4359C85.7558 25.3914 85.7558 25.3436 85.7558 25.2927C85.7558 25.2482 85.7558 25.2037 85.7558 25.1591C85.7558 25.1146 85.7558 25.0669 85.7558 25.016C85.7558 24.9714 85.7558 24.9269 85.7558 24.8823C85.7558 24.8314 85.7558 24.7837 85.7558 24.7392C85.7558 24.6946 85.7558 24.6469 85.7558 24.596C85.7558 24.5515 85.7558 24.5069 85.7558 24.4624C86.023 24.1634 86.2966 23.8134 86.5766 23.4125C88.9181 19.9703 90.162 15.44 90.3084 9.82171C90.3338 8.86094 90.3179 8.03378 90.2606 7.34024C90.1906 6.44946 90.0507 5.64139 89.8407 4.91603C89.5925 4.08251 89.2458 3.33489 88.8004 2.67316Z" fill="#0A0A0A"/>
<path d="M76.3836 123.712C74.9456 123.839 73.7463 123.995 72.7855 124.179C71.4875 124.434 70.339 124.79 69.34 125.248C68.6529 125.554 67.9275 125.958 67.164 126.461C66.6295 126.81 65.9487 127.294 65.1215 127.911C60.5722 131.353 56.3091 135.123 52.3324 139.221C48.3493 143.338 44.7162 147.718 41.433 152.363C33.2251 163.963 30.0087 174.442 31.7839 183.802C32.7511 188.911 35.1912 193.622 39.1043 197.936C42.7119 201.907 47.1181 205.079 52.3229 207.452C53.7418 208.101 55.2338 208.699 56.7991 209.246C60.1459 210.411 63.8235 211.343 67.8321 212.043C72.006 212.774 77.4144 213.36 84.0571 213.799C87.8684 214.053 90.9193 214.165 93.2099 214.133C96.5694 214.088 99.5917 213.776 102.277 213.197C103.505 212.93 104.863 212.561 106.352 212.09C107.319 211.785 108.652 211.333 110.351 210.735C113.672 209.552 116.345 208.537 118.368 207.691C121.257 206.482 123.815 205.228 126.042 203.93C131.59 200.698 135.732 196.855 138.468 192.401C139.951 189.989 141.074 187.292 141.837 184.307C142.537 181.559 142.916 178.648 142.973 175.575C143.024 172.832 142.82 169.905 142.362 166.794C141.98 164.204 141.392 161.325 140.596 158.157C139.973 155.65 139.346 153.502 138.716 151.714C138.392 150.798 138.051 149.923 137.695 149.09C137.154 147.843 136.572 146.684 135.948 145.616C134.364 142.892 132.309 140.376 129.783 138.066C127.441 135.935 124.772 134.048 121.775 132.406C119.084 130.943 116.09 129.648 112.794 128.522C110.008 127.574 106.852 126.699 103.327 125.897C98.2683 124.746 93.5885 124.001 89.2873 123.664C84.9988 123.32 80.6976 123.336 76.3836 123.712ZM71.812 131.509C73.0845 130.975 74.5289 130.59 76.145 130.355C77.3794 130.176 78.881 130.068 80.6498 130.03C89.1123 129.82 97.6034 130.854 106.123 133.132C111.697 134.621 116.447 136.558 120.372 138.944C125.138 141.839 128.634 145.364 130.861 149.519C131.434 150.594 131.969 151.807 132.465 153.155C132.56 153.416 132.656 153.687 132.751 153.967C133.158 155.15 133.617 156.699 134.126 158.615C134.902 161.567 135.481 164.115 135.863 166.259C136.365 169.059 136.632 171.655 136.664 174.047C136.702 176.803 136.438 179.402 135.872 181.845C135.249 184.524 134.281 186.929 132.971 189.06C130.692 192.757 127.088 196.084 122.157 199.044C117.234 202.004 112.185 203.951 107.011 204.885C106.676 204.945 106.479 204.97 106.419 204.961C97.8191 206.646 87.8328 206.729 76.46 205.209C60.9105 203.13 49.2731 197.649 41.5476 188.765C38.3728 183.859 37.6538 178.75 39.3906 173.437C41.1325 168.124 43.7063 163.098 47.1118 158.357C50.5172 153.624 53.6095 149.446 56.3887 145.826C59.175 142.21 61.7296 139.334 64.0526 137.198C66.3751 135.067 67.9339 133.737 68.7292 133.208C69.7918 132.489 70.8194 131.923 71.812 131.509Z" fill="#0A0A0A"/>
<path d="M76.1449 130.354C74.5287 130.59 73.0844 130.975 71.8118 131.509C70.8193 131.923 69.7917 132.489 68.7291 133.208C67.9338 133.737 66.3749 135.067 64.0525 137.198C61.7295 139.334 59.1748 142.21 56.3885 145.825C53.6094 149.446 50.5171 153.623 47.1116 158.357C43.7061 163.098 41.1324 168.124 39.3904 173.437C37.6537 178.749 38.3727 183.859 41.5474 188.764C49.2729 197.649 60.9104 203.13 76.4598 205.209C87.8326 206.729 97.8189 206.646 106.419 204.961C106.479 204.97 106.676 204.945 107.011 204.884C112.185 203.951 117.233 202.004 122.157 199.043C127.088 196.084 130.692 192.756 132.971 189.06C134.281 186.929 135.248 184.524 135.872 181.845C136.438 179.402 136.702 176.802 136.664 174.047C136.632 171.655 136.365 169.059 135.862 166.259C135.481 164.115 134.902 161.567 134.125 158.615C133.616 156.699 133.158 155.15 132.751 153.967C132.656 153.687 132.56 153.416 132.465 153.155C131.968 151.806 131.434 150.594 130.861 149.519C128.634 145.364 125.138 141.839 120.372 138.944C116.447 136.558 111.697 134.621 106.123 133.132C97.6032 130.854 89.1121 129.82 80.6497 130.03C78.8808 130.068 77.3792 130.176 76.1449 130.354Z" fill="white"/>
<path d="M73.6349 99.9279C70.6571 101.054 68.0039 102.489 65.6751 104.232C63.1555 106.122 60.9921 108.393 59.1851 111.047C57.3847 113.7 55.2341 117.123 52.7333 121.316C50.2383 125.51 49.4748 128.939 50.4427 131.605C51.4169 134.27 53.084 137.064 55.4438 139.985C57.8041 142.912 60.801 146.01 64.4344 149.281C66.9222 151.527 69.6868 153.413 72.7282 154.94C73.8862 155.513 75.0824 156.038 76.3168 156.515C84.2002 159.55 93.3594 160.447 103.794 159.206C107.275 158.793 110.466 158.185 113.367 157.383C116.383 156.544 119.316 155.427 122.167 154.033C126.201 152.048 129.697 149.63 132.656 146.78C135.907 143.656 138.29 140.207 139.804 136.434C140.956 133.571 141.583 130.568 141.684 127.424C141.691 127.278 141.694 127.132 141.694 126.985C141.745 123.995 141.312 121.103 140.396 118.31C140.224 117.782 140.116 117.406 140.072 117.184C139.989 116.751 139.992 116.372 140.081 116.048C140.138 115.825 140.272 115.539 140.482 115.189C140.724 114.794 140.876 114.511 140.94 114.339C141.226 113.595 141.14 112.781 140.682 111.896C140.332 111.215 139.769 110.515 138.993 109.796C134.323 105.489 128.31 102.311 120.955 100.262C117.913 99.4157 114.554 98.7444 110.876 98.2481C107.981 97.86 104.561 97.545 100.616 97.3032C97.0975 97.0869 94.0657 96.9914 91.5206 97.0169C88.231 97.0423 85.2087 97.2619 82.4537 97.6754C79.2914 98.1526 76.3518 98.9035 73.6349 99.9279ZM78.9128 104.929C80.987 104.42 83.424 104.029 86.2236 103.755C91.5238 103.233 96.843 103.173 102.181 103.574C107.52 103.975 112.772 104.827 117.939 106.132C120.726 106.831 123.22 107.614 125.421 108.479C126.439 108.88 127.289 109.272 127.97 109.653C128.854 110.156 129.595 110.71 130.193 111.314C130.849 111.988 131.44 112.847 131.969 113.891C132.312 114.565 132.719 115.536 133.19 116.802C133.986 118.933 134.552 120.667 134.889 122.003C135.385 123.95 135.618 125.742 135.586 127.377C135.567 128.223 135.481 129.072 135.328 129.925C135.054 131.382 134.58 132.846 133.906 134.315C132.945 136.409 131.619 138.432 129.926 140.385C128.355 142.205 126.592 143.844 124.639 145.301C122.685 146.745 120.608 147.96 118.406 148.946C116.625 149.742 114.649 150.429 112.479 151.008C110.672 151.492 108.62 151.927 106.324 152.316C101.443 153.13 96.9384 153.48 92.809 153.365C87.9861 153.219 83.5799 152.44 79.5904 151.027C75.391 149.532 71.7229 147.327 68.5861 144.413C68.4206 144.26 68.2584 144.104 68.0993 143.945C64.6507 140.586 62.3856 136.794 61.3039 132.569C60.7066 130.24 61.152 127.1 62.6401 123.149C64.1271 119.199 65.9723 116.241 68.1757 114.273C70.379 112.311 71.0503 110.991 70.1895 110.312C69.3296 109.632 69.95 108.706 72.0506 107.535C74.0358 106.427 76.3232 105.559 78.9128 104.929Z" fill="#0A0A0A"/>
<path d="M86.2235 103.755C83.4239 104.029 80.987 104.42 78.9127 104.929C76.3231 105.559 74.0357 106.427 72.0505 107.535C69.9499 108.706 69.3296 109.632 70.1894 110.312C71.0503 110.991 70.379 112.311 68.1756 114.273C65.9722 116.241 64.127 119.199 62.64 123.149C61.152 127.1 60.7066 130.24 61.3038 132.569C62.3855 136.794 64.6506 140.586 68.0992 143.945C68.2583 144.104 68.4206 144.26 68.586 144.413C71.7228 147.327 75.391 149.532 79.5904 151.027C83.5798 152.44 87.986 153.219 92.809 153.365C96.9384 153.48 101.443 153.13 106.323 152.316C108.62 151.927 110.672 151.492 112.479 151.008C114.649 150.429 116.625 149.742 118.406 148.946C120.608 147.96 122.685 146.745 124.639 145.301C126.592 143.844 128.354 142.205 129.926 140.385C131.619 138.432 132.945 136.409 133.906 134.315C134.58 132.846 135.054 131.382 135.328 129.925C135.481 129.072 135.567 128.223 135.586 127.377C135.618 125.742 135.385 123.95 134.889 122.003C134.552 120.667 133.985 118.933 133.19 116.802C132.719 115.536 132.312 114.565 131.969 113.891C131.44 112.847 130.849 111.988 130.193 111.314C129.595 110.71 128.854 110.156 127.97 109.653C127.289 109.272 126.439 108.88 125.421 108.479C123.22 107.614 120.726 106.831 117.939 106.132C112.772 104.827 107.52 103.975 102.181 103.574C96.843 103.173 91.5237 103.233 86.2235 103.755Z" fill="white"/>
<path d="M171.911 68.3845C170.466 63.3134 167.33 59.7566 162.5 57.7142C159.484 56.4416 156.382 56.0821 153.195 56.6357C148.13 57.4628 144.106 60.0143 141.121 64.2901C138.144 68.5531 137.157 73.2265 138.163 78.3104C139.155 83.3051 141.799 87.1673 146.094 89.8969C150.37 92.6202 154.929 93.1101 159.771 91.3667C164.428 89.6742 167.944 86.6742 170.317 82.3666C172.767 77.9318 173.298 73.2711 171.911 68.3845ZM167.549 74.6454C167.199 79.8247 164.705 83.5787 160.066 85.9075C155.186 88.3635 150.739 87.7686 146.724 84.1227C142.76 80.5214 141.678 76.1884 143.479 71.1237C145.178 66.3325 148.404 63.0143 153.157 61.1691C155.943 60.6792 158.571 61.131 161.04 62.5244C165.742 65.1904 167.912 69.2307 167.549 74.6454ZM160.267 68.5849C159.662 68.464 159.001 68.4768 158.282 68.6231C157.741 68.7249 157.321 68.8871 157.022 69.1098C156.825 69.2562 156.64 69.4503 156.468 69.692C156.341 69.8766 156.207 70.1088 156.067 70.3888C155.908 70.7196 155.797 71.0059 155.733 71.2477C155.657 71.5595 155.628 71.9794 155.648 72.5076C155.654 72.7812 155.67 73.007 155.695 73.1852C155.733 73.4333 155.791 73.6528 155.867 73.8437C156.09 74.3973 156.567 74.8936 157.299 75.3326C157.776 75.6189 158.218 75.7939 158.625 75.8575C158.982 75.9148 159.363 75.9021 159.771 75.8194C160.146 75.743 160.499 75.6158 160.83 75.4376C161.167 75.2594 161.466 75.0399 161.727 74.7791C162.058 74.4546 162.322 74.0696 162.519 73.6242C162.71 73.1979 162.828 72.7462 162.872 72.269C162.923 71.7536 162.879 71.2573 162.739 70.7801C162.592 70.2647 162.351 69.8352 162.013 69.4916C161.784 69.2562 161.517 69.0621 161.212 68.9094C160.919 68.7567 160.604 68.6485 160.267 68.5849Z" fill="#0A0A0A"/>
<path d="M160.066 85.9075C164.705 83.5787 167.199 79.8247 167.549 74.6454C167.912 69.2307 165.742 65.1904 161.04 62.5244C158.571 61.131 155.943 60.6792 153.156 61.1691C148.403 63.0143 145.178 66.3325 143.479 71.1237C141.678 76.1884 142.76 80.5214 146.724 84.1228C150.739 87.7686 155.186 88.3635 160.066 85.9075ZM158.282 68.6231C159.001 68.4768 159.662 68.464 160.267 68.5849C160.604 68.6485 160.919 68.7567 161.212 68.9094C161.517 69.0621 161.784 69.2562 162.013 69.4916C162.351 69.8352 162.592 70.2647 162.739 70.7801C162.879 71.2573 162.923 71.7536 162.872 72.269C162.828 72.7462 162.71 73.1979 162.519 73.6242C162.322 74.0696 162.058 74.4546 161.727 74.7791C161.466 75.0399 161.167 75.2594 160.83 75.4376C160.499 75.6158 160.146 75.743 159.771 75.8194C159.363 75.9021 158.982 75.9148 158.625 75.8575C158.218 75.7939 157.776 75.6189 157.299 75.3326C156.567 74.8936 156.09 74.3973 155.867 73.8437C155.791 73.6529 155.733 73.4333 155.695 73.1852C155.67 73.007 155.654 72.7812 155.647 72.5076C155.628 71.9795 155.657 71.5595 155.733 71.2477C155.797 71.0059 155.908 70.7196 156.067 70.3888C156.207 70.1088 156.341 69.8766 156.468 69.692C156.64 69.4503 156.825 69.2562 157.022 69.1098C157.321 68.8872 157.741 68.7249 158.282 68.6231Z" fill="white"/>
<path d="M149.415 57.6569C137.975 46.1658 124.161 41.2824 107.975 43.0067C96.4902 44.2341 86.5453 48.0358 78.1397 54.4119C69.74 60.7945 63.9499 66.9791 60.7694 72.9657C57.5951 78.9522 56.5707 87.3287 57.6962 98.0953C58.8286 108.868 66.9665 117.263 82.1101 123.282C96.4008 128.964 111.166 130.116 126.404 126.737C135.032 124.816 142.114 121.243 147.65 116.019C152.536 111.4 156.22 105.495 158.702 98.3053C164.046 82.8056 160.951 69.2562 149.415 57.6569ZM99.9385 50.9951C106.352 49.2581 112.855 48.7013 119.447 49.3249C135.863 50.9537 147.02 59.3748 152.918 74.5882C155.59 81.4854 155.587 88.319 152.908 95.0889C148.683 105.791 141.815 113.436 132.303 118.023C128.485 119.862 124.247 121.208 119.59 122.061C104.376 124.86 90.283 122.118 77.3094 113.834C63.3559 104.919 59.6718 92.9256 66.2573 77.8522C67.7525 74.4227 69.5055 71.3082 71.5161 68.5086C78.1779 59.1935 87.652 53.3557 99.9385 50.9951Z" fill="#0A0A0A"/>
<path d="M119.447 49.3248C112.855 48.7013 106.352 49.258 99.9384 50.995C87.652 53.3556 78.1778 59.1934 71.516 68.5085C69.5054 71.3081 67.7525 74.4227 66.2572 77.8522C59.6718 92.9255 63.3558 104.919 77.3093 113.834C90.283 122.118 104.376 124.86 119.59 122.061C124.247 121.208 128.485 119.862 132.303 118.023C141.815 113.436 148.683 105.791 152.908 95.0889C155.587 88.3189 155.59 81.4853 152.918 74.5881C147.02 59.3748 135.863 50.9537 119.447 49.3248Z" fill="white"/>
<path d="M107.87 67.1438C105.751 64.7832 103.152 63.1957 100.072 62.3813C97.0243 61.5605 93.9383 61.4046 90.8142 61.9136C87.4865 62.4353 84.5565 63.7747 82.0241 65.9317C79.4917 68.0759 77.7833 70.7387 76.8989 73.9201C76.2308 76.3189 75.8936 78.7685 75.8872 81.2691C75.8809 84.4568 76.918 87.2437 78.9986 89.6297C80.1948 91.1441 81.566 92.4961 83.1121 93.686C85.7399 95.6902 88.7241 96.5969 92.0645 96.4061C93.3625 96.3488 94.6446 96.2311 95.9108 96.0529C99.1685 95.6393 102.089 94.4241 104.672 92.4071C107.167 90.4473 108.983 87.9881 110.122 85.0295C111.248 82.0962 111.71 79.0485 111.506 75.8862C111.296 72.5394 110.084 69.6252 107.87 67.1438ZM80.812 77.8046C81.1047 75.5331 81.9223 73.462 83.2648 71.5913C85.1482 68.9572 87.6965 67.3824 90.9097 66.867C92.1631 66.6443 93.4198 66.5361 94.6796 66.5425C98.1537 66.3198 101.154 67.3824 103.68 69.7302C105.315 71.2637 106.282 73.1343 106.581 75.3422C106.988 78.3963 106.549 81.3518 105.264 84.2087C103.858 87.3328 101.494 89.4516 98.1728 90.565C95.0996 91.5958 91.985 91.844 88.8291 91.3095C88.5555 91.2141 88.2914 91.1027 88.0369 90.9755C85.8545 89.8938 84.0125 88.3699 82.5108 86.4038C82.1418 85.9139 81.8523 85.4017 81.6423 84.8672C80.7643 82.6339 80.4875 80.2797 80.812 77.8046ZM92.9521 74.6359C92.4113 74.7377 91.9914 74.9 91.6923 75.1227C91.4951 75.269 91.3105 75.4631 91.1387 75.7049C91.0115 75.8894 90.8779 76.1216 90.7379 76.4016C90.5788 76.7324 90.4675 77.0188 90.4038 77.2605C90.3275 77.5723 90.2989 77.9923 90.3179 78.5204C90.3243 78.794 90.3402 79.0198 90.3657 79.198C90.4038 79.4461 90.4611 79.6657 90.5375 79.8565C90.7602 80.4101 91.2374 80.9064 91.9691 81.3454C92.4463 81.6318 92.8885 81.8067 93.2957 81.8704C93.652 81.9276 94.0338 81.9149 94.441 81.8322C94.8164 81.7558 95.1695 81.6286 95.5004 81.4504C95.8376 81.2723 96.1367 81.0527 96.3975 80.7919C96.7284 80.4674 96.9925 80.0824 97.1897 79.637C97.3806 79.2107 97.4983 78.759 97.5428 78.2818C97.5937 77.7664 97.5492 77.2701 97.4092 76.7929C97.2629 76.2775 97.0211 75.848 96.6839 75.5044C96.4548 75.269 96.1876 75.0749 95.8822 74.9222C95.5895 74.7695 95.2745 74.6614 94.9373 74.5977C94.3328 74.4768 93.6711 74.4896 92.9521 74.6359Z" fill="#0A0A0A"/>
<path d="M83.2649 71.5913C81.9223 73.4619 81.1047 75.533 80.812 77.8045C80.4875 80.2796 80.7643 82.6338 81.6424 84.8671C81.8523 85.4016 82.1418 85.9138 82.5109 86.4037C84.0125 88.3698 85.8545 89.8937 88.0369 90.9754C88.2914 91.1026 88.5555 91.214 88.8291 91.3094C91.985 91.8439 95.0996 91.5957 98.1728 90.565C101.494 89.4515 103.858 87.3327 105.264 84.2086C106.549 81.3517 106.988 78.3962 106.581 75.3421C106.282 73.1342 105.315 71.2636 103.68 69.7302C101.154 67.3823 98.1537 66.3197 94.6796 66.5424C93.4198 66.5361 92.1632 66.6442 90.9097 66.8669C87.6965 67.3823 85.1482 68.9571 83.2649 71.5913ZM96.6362 68.499C97.546 68.6771 98.3923 68.9666 99.1749 69.3675C100.008 69.7874 100.727 70.3124 101.332 70.9423C102.235 71.8712 102.888 73.0229 103.288 74.3972C103.657 75.6762 103.775 77.0155 103.642 78.4153C103.521 79.6942 103.203 80.9095 102.687 82.0612C102.159 83.251 101.456 84.2818 100.578 85.1535C99.8716 85.8597 99.0636 86.4546 98.1537 86.9382C97.2565 87.4091 96.3085 87.7463 95.3095 87.9499C94.2088 88.1789 93.1812 88.2171 92.2268 88.0644C91.126 87.8926 89.933 87.4186 88.6477 86.6423C86.6944 85.4716 85.4123 84.1354 84.8015 82.6338C84.5915 82.1248 84.442 81.5394 84.3529 80.8777C84.2829 80.3878 84.2352 79.7801 84.2097 79.0548C84.1652 77.6359 84.2479 76.5001 84.4579 75.6475C84.6169 75.0049 84.916 74.235 85.355 73.3378C85.7241 72.587 86.0836 71.9635 86.4335 71.4672C86.8853 70.8246 87.3752 70.3092 87.9033 69.921C88.7114 69.3229 89.8407 68.8807 91.2915 68.5944C93.2385 68.2126 95.02 68.1808 96.6362 68.499Z" fill="white"/>
<path d="M132.637 95.8239C135.194 95.7539 137.485 95.738 139.508 95.7761C139.998 95.7825 140.355 95.7761 140.577 95.7571C140.978 95.7252 141.322 95.6425 141.608 95.5089C141.971 95.3435 142.273 95.1017 142.515 94.7836C142.763 94.4527 142.912 94.0932 142.963 93.7051C143.021 93.3169 142.976 92.932 142.83 92.5502C142.677 92.1685 142.448 91.8535 142.143 91.6054C141.774 91.2999 141.29 91.0995 140.692 91.0041C140.297 90.9405 139.75 90.9182 139.05 90.9373L125.278 91.2427C124.712 91.2554 124.282 91.284 123.99 91.3286C123.519 91.4049 123.124 91.5481 122.806 91.7581C122.507 91.9553 122.265 92.213 122.081 92.5311C121.896 92.8556 121.795 93.1929 121.775 93.5428C121.75 93.8991 121.81 94.2491 121.957 94.5927C122.103 94.9299 122.316 95.213 122.596 95.4421C122.978 95.7539 123.477 95.9543 124.095 96.0434C124.496 96.1006 125.055 96.1134 125.774 96.0816C128.93 95.9479 131.218 95.862 132.637 95.8239Z" fill="#0A0A0A"/>
<path d="M62.2391 109.73C61.6856 109.583 61.1447 109.593 60.6166 109.758C60.4874 109.798 60.3602 109.846 60.2349 109.901C61.0761 109.013 61.6074 108.406 61.8287 108.078C62.1608 107.595 61.3527 108.247 59.4045 110.035C57.4635 111.829 56.2673 112.943 55.8159 113.375C54.677 114.476 53.4872 115.771 52.2464 117.26C51.4193 118.259 50.3344 119.643 48.9919 121.412C41.7829 130.937 34.9461 140.805 28.4816 151.017C25.9047 155.083 23.719 158.713 21.9248 161.907C19.6851 165.871 17.7699 169.644 16.1792 173.227C16.1665 173.252 16.1569 173.278 16.1506 173.303C16.1251 173.297 16.1028 173.293 16.0838 173.293C15.6129 173.255 14.9957 173.246 14.2322 173.265C11.948 173.309 10.0678 173.532 8.59162 173.933C6.54918 174.486 4.91077 175.406 3.6764 176.691C3.21192 177.181 2.60429 178.008 1.85348 179.173C1.50353 179.72 1.24902 180.137 1.08995 180.423C0.822717 180.9 0.615928 181.342 0.469584 181.75C0.176898 182.583 0.0209966 183.627 0.00190834 184.88C-0.00445441 185.593 0.00509437 186.668 0.0305454 188.106C0.0114571 188.927 0.00190834 189.34 0.00190834 189.347C0.00827109 189.824 0.0559917 190.234 0.14507 190.578C0.380492 191.437 0.975404 192.286 1.92982 193.126C3.17691 194.227 4.65309 195.064 6.3583 195.636C7.96172 196.177 9.65101 196.444 11.4262 196.438C13.9331 196.425 16.0774 195.884 17.859 194.815C18.8261 194.224 19.771 193.412 20.6936 192.382C21.3298 191.663 22.0934 190.661 22.9842 189.375C23.315 188.892 23.5663 188.504 23.7381 188.211C23.999 187.772 24.1994 187.358 24.3394 186.97C24.5176 186.48 24.6385 185.92 24.7021 185.29C24.7466 184.851 24.7689 184.279 24.7689 183.572C24.7625 182.58 24.7148 181.772 24.6257 181.148C24.4985 180.277 24.2694 179.516 23.9386 178.867C23.6522 178.326 23.2546 177.782 22.7456 177.235C22.5292 177 22.262 176.736 21.9439 176.443C22.0711 176.087 22.2524 175.565 22.4879 174.878C23.1305 172.988 23.9863 170.981 25.0552 168.855C25.8569 167.265 26.9195 165.35 28.243 163.11C31.2971 157.918 34.9302 152.207 39.1424 145.978C41.6875 142.218 45.5592 136.663 50.7576 129.314C52.4564 126.915 53.7671 125.127 54.6897 123.95C56.2104 122.01 57.6866 120.362 59.1182 119.007C59.6336 118.517 60.0249 118.141 60.2921 117.88C60.4385 117.982 60.5944 118.071 60.7598 118.148C61.237 118.37 61.7269 118.466 62.2296 118.434C62.7322 118.402 63.2063 118.243 63.6517 117.957C64.0971 117.67 64.4375 117.301 64.6729 116.85C64.9592 116.315 65.0896 115.672 65.0642 114.922C65.0515 114.368 64.9433 113.697 64.7397 112.908C64.6061 112.386 64.4725 111.966 64.3388 111.648C64.148 111.196 63.9157 110.827 63.6421 110.541C63.2667 110.14 62.7991 109.87 62.2391 109.73ZM12.6001 179.583C13.9172 179.437 15.0212 179.504 15.912 179.783C16.4719 179.962 16.965 180.229 17.3913 180.585C17.843 180.961 18.1739 181.396 18.3839 181.893C18.9565 183.286 18.5239 184.985 17.0859 186.989C16.3542 188.007 15.6543 188.729 14.9862 189.156C14.1399 189.697 13.1123 189.993 11.9034 190.043C10.949 190.082 9.84827 189.961 8.60117 189.681C8.10488 189.566 7.71037 189.439 7.41769 189.299C7.01047 189.102 6.71143 188.847 6.52055 188.535C6.39966 188.332 6.31376 188.08 6.26286 187.781C6.23105 187.597 6.20878 187.327 6.19606 186.97C6.17061 186.073 6.18651 185.367 6.24378 184.851C6.32649 184.075 6.50783 183.407 6.78779 182.847C7.27772 181.886 8.08897 181.116 9.22154 180.537C10.1887 180.054 11.3149 179.736 12.6001 179.583ZM165.297 181.034C164.393 177.483 163.222 173.411 161.784 168.817C158.183 157.282 154.133 145.981 149.635 134.917C148.795 132.855 148.108 131.233 147.573 130.049C146.752 128.293 145.935 126.737 145.12 125.382C144.796 124.848 144.506 124.415 144.252 124.084C143.895 123.639 143.526 123.276 143.145 122.996C143.03 122.907 142.912 122.831 142.792 122.767C142.779 122.665 142.76 122.57 142.734 122.481C142.645 122.105 142.486 121.755 142.257 121.431C142.028 121.113 141.751 120.849 141.427 120.639C140.956 120.346 140.434 120.196 139.861 120.19C139.282 120.19 138.761 120.33 138.296 120.61C137.959 120.82 137.641 121.119 137.342 121.507C137.132 121.781 136.893 122.153 136.626 122.624C136.219 123.33 135.939 123.95 135.786 124.485C135.57 125.204 135.532 125.856 135.672 126.441C135.78 126.944 136.012 127.389 136.368 127.778C136.725 128.166 137.141 128.442 137.619 128.608C138.096 128.767 138.592 128.799 139.107 128.703C139.292 128.678 139.467 128.633 139.632 128.57C139.823 128.894 140.103 129.359 140.472 129.963C141.509 131.643 142.508 133.619 143.469 135.89C144.055 137.264 144.859 139.329 145.884 142.084C149.008 150.528 151.311 156.897 152.794 161.192C155.243 168.299 157.273 174.754 158.883 180.557C159.583 183.063 160.114 185.189 160.477 186.932C160.96 189.261 161.266 191.421 161.393 193.412C161.444 194.138 161.488 194.688 161.527 195.064C161.139 195.267 160.808 195.452 160.534 195.617C159.904 196.018 159.382 196.444 158.969 196.896C158.479 197.431 158.059 198.102 157.709 198.91C157.467 199.495 157.213 200.265 156.945 201.22C156.767 201.9 156.64 202.46 156.564 202.899C156.462 203.523 156.433 204.096 156.478 204.617C156.51 205.031 156.599 205.479 156.745 205.963C156.834 206.294 156.974 206.736 157.165 207.29C157.693 208.759 158.17 209.924 158.597 210.783C159.227 212.017 159.93 213.048 160.706 213.875C162.15 215.364 164.084 216.439 166.509 217.101C168.214 217.565 169.913 217.747 171.605 217.645C173.406 217.53 175.047 217.104 176.53 216.366C177.669 215.8 178.464 215.132 178.916 214.362C179.088 214.056 179.241 213.671 179.374 213.207C179.374 213.201 179.47 212.8 179.66 212.004C180.061 210.617 180.351 209.58 180.529 208.893C180.834 207.678 180.955 206.628 180.892 205.743C180.853 205.311 180.768 204.83 180.634 204.302C180.551 203.991 180.414 203.523 180.224 202.899C179.797 201.582 179.422 200.625 179.097 200.027C178.238 198.468 176.896 197.157 175.07 196.094C173.746 195.324 171.987 194.625 169.792 193.995C169.06 193.778 168.462 193.626 167.998 193.537C167.978 193.53 167.956 193.527 167.931 193.527C167.931 193.508 167.928 193.482 167.921 193.451C167.31 189.582 166.436 185.443 165.297 181.034ZM164.838 200.237C165.347 200.007 165.895 199.88 166.48 199.855C167.415 199.817 168.5 200.036 169.735 200.513C170.931 200.997 171.936 201.598 172.751 202.317C173.692 203.163 174.274 204.115 174.497 205.171C174.624 205.782 174.628 206.475 174.507 207.251C174.43 207.76 174.262 208.448 174.001 209.313C173.899 209.657 173.81 209.911 173.734 210.077C173.606 210.35 173.457 210.57 173.285 210.735C173.018 210.983 172.665 211.152 172.226 211.241C171.901 211.305 171.488 211.327 170.985 211.308C169.706 211.25 168.612 211.082 167.702 210.802C166.544 210.439 165.627 209.889 164.953 209.151C164.412 208.559 163.922 207.681 163.483 206.517C162.611 204.201 162.634 202.448 163.55 201.258C163.881 200.825 164.31 200.485 164.838 200.237Z" fill="#0A0A0A"/>
<path d="M15.912 179.784C15.0212 179.504 13.9173 179.437 12.6002 179.583C11.3149 179.736 10.1887 180.054 9.22155 180.538C8.08899 181.117 7.27774 181.886 6.7878 182.847C6.50784 183.407 6.32651 184.075 6.24379 184.851C6.18653 185.367 6.17062 186.073 6.19607 186.97C6.2088 187.327 6.23106 187.597 6.26288 187.782C6.31378 188.081 6.39967 188.332 6.52056 188.535C6.71145 188.847 7.01049 189.102 7.4177 189.299C7.71039 189.439 8.10489 189.566 8.60119 189.681C9.84829 189.961 10.949 190.082 11.9034 190.043C13.1124 189.993 14.1399 189.697 14.9862 189.156C15.6543 188.73 16.3542 188.007 17.0859 186.989C18.5239 184.985 18.9566 183.286 18.3839 181.893C18.1739 181.396 17.8431 180.961 17.3913 180.585C16.965 180.229 16.4719 179.962 15.912 179.784ZM166.48 199.855C165.895 199.88 165.347 200.008 164.838 200.237C164.31 200.485 163.881 200.825 163.55 201.258C162.634 202.448 162.611 204.201 163.483 206.517C163.922 207.681 164.412 208.559 164.953 209.151C165.627 209.889 166.544 210.439 167.702 210.802C168.612 211.082 169.706 211.251 170.985 211.308C171.488 211.327 171.901 211.305 172.226 211.241C172.665 211.152 173.018 210.983 173.285 210.735C173.457 210.57 173.606 210.35 173.734 210.077C173.81 209.911 173.899 209.657 174.001 209.313C174.262 208.448 174.43 207.761 174.507 207.252C174.628 206.475 174.624 205.782 174.497 205.171C174.274 204.115 173.692 203.163 172.751 202.317C171.936 201.598 170.931 200.997 169.735 200.513C168.5 200.036 167.415 199.817 166.48 199.855Z" fill="white"/>
</svg>
